<svg id="Group_8705" data-name="Group 8705" xmlns="http://www.w3.org/2000/svg" width="70" height="70" viewBox="0 0 70 70">
  <g id="Group_8704" data-name="Group 8704">
    <g id="Ellipse_49" data-name="Ellipse 49" fill="#fcbb3f" stroke="#000" stroke-width="5">
      <circle cx="35" cy="35" r="35" stroke="none"/>
      <circle cx="35" cy="35" r="32.5" fill="none"/>
    </g>
    <path id="Path_9441" data-name="Path 9441" d="M8.18.32a10.894,10.894,0,0,0,8.68-4.4l-1.9-1.64A7.823,7.823,0,0,1,8.6-2.08c-2.44,0-4.2-1.44-4.2-3.6,0-3.68,3.56-7.16,7.54-7.16,2.28,0,3.26.88,3.26,2.12a3.591,3.591,0,0,1-.4,1.52l2.72.26A4.775,4.775,0,0,0,18-10.98c0-2.12-1.5-4.26-5.64-4.26C6.1-15.24,1.8-10.1,1.8-5.54,1.8-2.02,4.44.32,8.18.32Zm17.1,0a10.894,10.894,0,0,0,8.68-4.4l-1.9-1.64A7.823,7.823,0,0,1,25.7-2.08c-2.44,0-4.2-3.6-4.2-3.6s3.56-7.16,7.54-7.16c2.28,0,3.26.88,3.26,2.12a3.591,3.591,0,0,1-.4,1.52l2.72.26a4.775,4.775,0,0,0,.48-2.04c0-2.12-1.5-4.26-5.64-4.26-6.26,0-10.56,5.14-10.56,9.7C18.9-2.02,21.54.32,25.28.32Z" transform="translate(16.2 42.24)" fill="#1a243b"/>
  </g>
</svg>
