<svg width="355" height="145" viewBox="0 0 355 145" fill="none" xmlns="http://www.w3.org/2000/svg">
  <g clip-path="url(#clip0_0_1)">
    <path d="M0.199219 0.285767H9.26544C13.9762 0.285767 16.904 2.64117 16.904 6.71077C16.904 9.0307 15.2975 10.8868 13.6202 11.601C16.155 12.4932 18.0104 14.4919 18.0104 17.9898C18.0104 22.4871 14.9408 25.2716 9.80092 25.2716H0.199219V0.285767ZM9.12219 10.5655C12.0847 10.5655 13.6911 9.31584 13.6911 6.81718C13.6911 4.31853 12.0847 3.06955 9.12219 3.06955H3.44685V10.5655H9.12219ZM9.26544 22.3446C12.906 22.3446 14.7614 20.8098 14.7614 17.9182C14.7614 15.0266 12.906 13.4209 9.26544 13.4209H3.44685V22.3446H9.26544Z" fill="black"/>
    <path d="M20.4375 0H23.4716V25.271H20.4375V0Z" fill="black"/>
    <path d="M40.7848 13.7423V25.271H37.7869V22.2014C36.7521 24.2717 34.3967 25.5568 31.7902 25.5568C28.1852 25.5568 25.7227 23.344 25.7227 20.2382C25.7227 16.7757 28.5419 14.8842 34.2896 14.3132L37.7869 13.9203V13.5635C37.7869 11.1004 36.0379 9.53009 33.3966 9.53009C30.9335 9.53009 29.1845 10.9939 28.9348 13.421L26.1156 12.8855C26.651 9.3159 29.6129 6.99597 33.3966 6.99597C37.7507 6.99597 40.7848 9.56556 40.7848 13.7416V13.7423ZM37.7869 17.1331V16.2771L34.2896 16.67C30.649 17.0629 28.7568 18.3119 28.7568 20.2034C28.7568 21.8815 30.1845 23.0588 32.2541 23.0588C35.7527 23.0588 37.7869 20.7389 37.7869 17.1338V17.1331Z" fill="black"/>
    <path d="M42.8711 16.2764C42.8711 10.7081 46.44 6.99597 51.7941 6.99597C55.9708 6.99597 59.0404 9.28043 59.6829 12.85L56.685 13.4564C56.2921 11.2791 54.4005 9.70881 51.8664 9.70881C48.3329 9.70881 46.0485 12.3146 46.0485 16.2764C46.0485 20.2382 48.3329 22.844 51.8664 22.844C54.4012 22.844 56.2573 21.4524 56.7566 19.0602L59.7191 19.6673C58.9339 23.3794 55.9353 25.5561 51.7948 25.5561C46.4407 25.5561 42.8718 21.8439 42.8718 16.2764H42.8711Z" fill="black"/>
    <path d="M67.2151 16.4189L64.8235 18.5963V25.271H61.7539V0H64.8235V14.599L73.1401 7.28176H77.1735L69.4634 14.3848L77.7799 25.271H73.9961L67.2144 16.4189H67.2151Z" fill="black"/>
    <path d="M77.4193 17.8821L80.4889 16.8828C80.9883 20.3808 83.6649 22.6652 86.9849 22.6652C90.3048 22.6652 92.6248 21.0588 92.6248 18.5608C92.6248 11.8862 78.418 15.3841 78.418 6.5321C78.418 2.64122 81.9166 0 86.8416 0C91.4106 0 94.9447 2.46318 95.5866 6.17535L92.6241 7.31723C92.1241 4.60439 89.9822 2.89156 86.8409 2.89156C83.6997 2.89156 81.7011 4.28311 81.7011 6.5321C81.7011 12.2429 95.9781 8.53075 95.9781 18.5254C95.9781 22.773 92.373 25.5568 86.9119 25.5568C82.094 25.5568 78.2393 22.4517 77.418 17.8828L77.4193 17.8821Z" fill="black"/>
    <path d="M104.76 25.556C101.69 25.556 99.4413 23.8432 99.4413 19.8807V9.95771H96.0859V7.28103H99.4413V1.82056H102.475V7.28103H107.294V9.95771H102.475V19.9878C102.475 21.8793 103.546 22.807 105.116 22.807C105.831 22.807 106.651 22.6999 107.364 22.3432L107.579 25.127C106.686 25.4483 105.723 25.5554 104.759 25.5554L104.76 25.556Z" fill="black"/>
    <path d="M123.386 13.7423V25.271H120.388V22.2014C119.354 24.2717 116.998 25.5568 114.392 25.5568C110.787 25.5568 108.324 23.344 108.324 20.2382C108.324 16.7757 111.143 14.8842 116.891 14.3132L120.388 13.9203V13.5635C120.388 11.1004 118.639 9.53009 115.998 9.53009C113.535 9.53009 111.786 10.9939 111.536 13.421L108.717 12.8855C109.253 9.3159 112.214 6.99597 115.998 6.99597C120.352 6.99597 123.386 9.56556 123.386 13.7416V13.7423ZM120.388 17.1331V16.2771L116.891 16.67C113.251 17.0629 111.358 18.3119 111.358 20.2034C111.358 21.8815 112.786 23.0588 114.856 23.0588C118.354 23.0588 120.388 20.7389 120.388 17.1338V17.1331Z" fill="black"/>
    <path d="M134.733 9.81584C131.877 9.81584 129.558 12.5641 129.558 18.4175V25.2709H126.523V7.28171H129.558V10.9229C130.592 8.63848 132.948 6.99658 135.161 6.99658C135.91 6.99658 136.625 7.10368 137.232 7.31787L137.053 10.2449C136.375 9.95977 135.518 9.8172 134.733 9.8172V9.81584Z" fill="black"/>
    <path d="M0.199219 35.9852H16.1898V38.8761H3.44685V46.5146H13.8698V49.4417H3.44685V60.9704H0.199219V35.9852Z" fill="black"/>
    <path d="M17.5195 37.4845C17.5195 36.271 18.4111 35.3427 19.6253 35.3427C20.8395 35.3427 21.8026 36.271 21.8026 37.4845C21.8026 38.6981 20.8743 39.5903 19.6253 39.5903C18.3763 39.5903 17.5195 38.6626 17.5195 37.4845ZM18.1259 42.9812H21.1601V60.9704H18.1259V42.9812Z" fill="black"/>
    <path d="M24.3086 35.6993H27.3427V60.9703H24.3086V35.6993Z" fill="black"/>
    <path d="M30.4883 42.9804H33.5224V46.3713C34.4146 44.2301 36.1991 42.6953 38.9481 42.6953C41.8751 42.6953 44.1589 44.0514 44.8015 46.4791C45.7653 44.3379 47.9065 42.6953 50.6194 42.6953C54.4741 42.6953 56.9018 45.1223 56.9018 48.9061V60.9703H53.8677V49.5125C53.8677 47.05 52.4761 45.372 49.9413 45.372C46.8717 45.372 45.1937 48.1203 45.1937 51.9396V60.9696H42.1596V49.5119C42.1596 47.0494 40.768 45.3713 38.27 45.3713C35.2005 45.3713 33.5224 48.1196 33.5224 51.9389V60.969H30.4883V42.9798V42.9804Z" fill="black"/>
    <path d="M67.7227 35.9852H83.7132V38.8761H70.9703V46.5146H81.3933V49.4417H70.9703V60.9704H67.7227V35.9852Z" fill="black"/>
    <path d="M100.771 52.5467H86.5654C86.7796 56.1879 89.064 58.5788 92.3123 58.5788C95.0607 58.5788 96.9522 57.2943 97.4877 55.0453L100.343 55.7234C99.4509 59.2213 96.4522 61.2555 92.3123 61.2555C86.9228 61.2555 83.5312 57.0794 83.5312 51.9757C83.5312 46.872 86.815 42.6953 92.2407 42.6953C97.6664 42.6953 100.842 46.5146 100.842 51.1544C100.842 51.5828 100.807 52.2254 100.771 52.546V52.5467ZM97.6302 50.0125C97.3444 47.2642 95.4174 45.2294 92.2407 45.2294C89.4201 45.2294 87.3505 47.0146 86.7441 50.0125H97.6309H97.6302Z" fill="black"/>
    <path d="M101.504 56.0085L104.109 54.8667C104.787 56.9724 106.215 58.6859 108.999 58.6859C111.212 58.6859 112.64 57.4008 112.64 55.9376C112.64 51.3332 102.289 54.2957 102.289 47.4785C102.289 44.6231 104.752 42.696 108.606 42.696C111.783 42.696 114.532 44.4805 115.282 47.1217L112.747 48.2281C112.247 46.3721 110.462 45.194 108.535 45.194C106.501 45.194 105.216 46.0153 105.216 47.443C105.216 51.2977 115.638 48.4778 115.602 55.9021C115.602 59.0434 112.962 61.2562 108.999 61.2562C104.645 61.2562 102.289 58.5433 101.504 56.0092V56.0085Z" fill="black"/>
    <path d="M124.561 61.2555C121.491 61.2555 119.242 59.5427 119.242 55.5802V45.6572H115.887V42.9805H119.242V37.52H122.276V42.9805H127.095V45.6572H122.276V55.6873C122.276 57.5788 123.347 58.5065 124.917 58.5065C125.63 58.5065 126.452 58.3994 127.165 58.0427L127.379 60.8264C126.487 61.1477 125.524 61.2548 124.56 61.2548L124.561 61.2555Z" fill="black"/>
    <path d="M128.199 37.4845C128.199 36.271 129.091 35.3427 130.305 35.3427C131.519 35.3427 132.482 36.271 132.482 37.4845C132.482 38.6981 131.554 39.5903 130.305 39.5903C129.056 39.5903 128.199 38.6626 128.199 37.4845ZM128.806 42.9812H131.84V60.9704H128.806V42.9812Z" fill="black"/>
    <path d="M132.958 42.9805H136.063L141.06 57.4362L146.092 42.9805H149.233L142.63 60.9697H139.525L132.957 42.9805H132.958Z" fill="black"/>
    <path d="M163.933 49.441V60.9697H160.935V57.9001C159.901 59.9704 157.545 61.2555 154.939 61.2555C151.334 61.2555 148.871 59.0427 148.871 55.9369C148.871 52.4744 151.69 50.5829 157.438 50.0119L160.935 49.619V49.2623C160.935 46.7991 159.186 45.2288 156.545 45.2288C154.082 45.2288 152.333 46.6927 152.083 49.1197L149.264 48.5842C149.799 45.0146 152.761 42.6947 156.545 42.6947C160.899 42.6947 163.933 45.2643 163.933 49.4403V49.441ZM160.935 52.8319V51.9758L157.438 52.3687C153.797 52.7616 151.905 54.0106 151.905 55.9021C151.905 57.5802 153.333 58.7576 155.403 58.7576C158.901 58.7576 160.935 56.4376 160.935 52.8326V52.8319Z" fill="black"/>
    <path d="M167.09 35.6993H170.124V60.9703H167.09V35.6993Z" fill="black"/>
    <path d="M0.4543 89.652L11.1058 83.3027C14.4285 81.3157 16.0185 79.4937 16.4087 77.2795C16.8923 74.5373 15.38 72.422 12.4973 71.9138C9.05326 71.3061 6.69172 73.3913 6.3984 77.109L3.34245 76.3518C3.86633 71.1164 7.86703 68.1614 12.9987 69.0666C17.85 69.9227 20.4981 73.3982 19.7109 77.8627C19.1843 80.8505 17.0499 83.3007 12.6897 85.8293L5.00617 90.3464L17.1324 92.4842L16.6243 95.3662L0 92.4351L0.4543 89.652Z" fill="black"/>
    <path d="M20.0993 83.2938C21.4322 75.7364 25.5529 71.28 31.7399 72.3708C37.8545 73.4492 40.2734 79.0584 38.9405 86.6164C37.6076 94.1738 33.4166 98.6179 27.3019 97.5387C21.115 96.4473 18.7664 90.8511 20.0993 83.2938ZM35.6355 86.0339C36.6772 80.128 35.2085 75.9185 31.2378 75.218C27.1948 74.5052 24.4097 77.9649 23.3687 83.8709C22.3278 89.7754 23.7678 93.9432 27.8108 94.6567C31.7815 95.3573 34.5953 91.9391 35.6362 86.0346L35.6355 86.0339Z" fill="black"/>
    <path d="M37.8755 96.2495L48.5263 89.9009C51.849 87.9132 53.4404 86.0912 53.8306 83.8777C54.3142 81.1355 52.8012 79.0202 49.9192 78.5121C46.4751 77.9043 44.1136 79.9882 43.821 83.7065L40.765 82.95C41.2882 77.7146 45.2896 74.759 50.4213 75.6648C55.2726 76.5195 57.9213 79.9957 57.1341 84.4596C56.6069 87.4473 54.4725 89.8982 50.1123 92.4276L42.4294 96.944L54.5557 99.0824L54.0475 101.964L37.4219 99.0327L37.8769 96.2489L37.8755 96.2495Z" fill="black"/>
    <path d="M55.8019 95.2441L58.9057 95.3198C58.7549 98.2291 60.7174 100.46 63.8463 101.011C67.2556 101.613 69.8293 99.9638 70.375 96.871C70.9391 93.6725 69.2284 91.4501 65.8191 90.8485C64.905 90.6875 63.8354 90.7884 62.9753 91.1445L61.9643 88.8635L71.0899 82.5353L59.1389 80.4282L59.641 77.5817L75.3532 80.3518L74.8641 83.1288L66.6663 88.7148C71.5974 89.1138 74.5217 92.6732 73.667 97.5245C72.83 102.27 68.7502 104.849 63.3375 103.894C58.4875 103.039 55.5018 99.6132 55.8019 95.2441Z" fill="black"/>
  </g>
  <g clip-path="url(#clip1_0_1)">
    <path d="M229.271 61.87L224.031 39.89L226.551 35.79L294.161 19.67L298.261 22.19L303.501 44.16L300.981 48.26L233.371 64.39L229.271 61.87Z" fill="#00EF9D"/>
    <path d="M274.298 107.073L254.518 136.033L249.788 136.923L171.515 83.3172L170.625 78.5872L190.405 49.6372L195.135 48.7472L273.408 102.343L274.298 107.073Z" fill="#E7EF5A"/>
    <path d="M319.53 103.16L291.77 93.49L289.68 89.16L320 2.09L324.33 0L352.09 9.67L354.19 14L323.86 101.06L319.53 103.16Z" fill="#72F5FF"/>
    <path d="M195.139 88.97L197.289 89.35L193.799 72.43L191.929 72.1L182.879 86.8L184.999 87.18L187.269 83.44L194.289 84.68L195.139 88.97ZM188.289 81.73L192.389 74.98L193.909 82.72L188.289 81.73Z" fill="black"/>
    <path d="M209.84 79.83L207.92 79.49L207.04 84.48C206.51 87.48 204.83 89.07 202.71 88.7C201.11 88.42 200.33 87.14 200.6 85.6L201.87 78.42L199.95 78.08L198.62 85.62C198.19 88.04 199.6 89.94 201.97 90.36C203.71 90.67 205.26 89.94 206.29 88.72L205.91 90.87L207.83 91.21L209.84 79.83Z" fill="black"/>
    <path d="M220.571 81.72L220.301 83.26C219.801 82.15 218.441 81.16 216.921 80.89C213.461 80.28 211.121 82.36 210.551 85.59C209.981 88.8 211.481 91.55 214.981 92.17C216.611 92.46 218.211 92.07 218.901 91.19L218.621 92.77C218.301 94.55 216.691 95.53 214.681 95.17C212.941 94.86 211.761 93.75 211.871 92.46H209.961C209.941 94.56 211.741 96.33 214.391 96.79C217.531 97.34 220.041 95.76 220.551 92.89L222.461 82.05L220.561 81.71L220.571 81.72ZM215.461 90.48C213.251 90.09 212.101 88.3 212.511 85.93C212.931 83.54 214.631 82.25 216.841 82.64C219.031 83.03 220.181 84.81 219.761 87.21C219.341 89.58 217.651 90.87 215.461 90.48Z" fill="black"/>
    <path d="M258.681 50.1001L269.361 48.2101L269.031 46.3601L261.241 47.7401L264.891 43.3201C266.971 40.8301 267.721 38.8901 267.381 36.9701C266.871 34.1001 264.511 32.5901 261.391 33.1401C258.091 33.7201 256.331 36.3901 257.161 39.6601L259.171 39.4401C258.531 37.1301 259.501 35.3501 261.711 34.9601C263.561 34.6301 264.941 35.5801 265.251 37.3401C265.501 38.7601 264.941 40.2101 263.371 42.1401L258.341 48.3201L258.681 50.1001Z" fill="black"/>
    <path d="M288.039 64.1299L309.539 67.9299L309.839 66.2399L288.339 62.4399L288.039 64.1299Z" fill="black"/>
    <path d="M322.289 65.35C320.569 65.05 318.819 65.67 317.869 66.96C318.529 63.62 321.169 61.56 324.139 62.09C325.309 62.3 326.359 62.89 327.149 63.85L328.439 62.46C327.429 61.33 326.019 60.58 324.479 60.3C320.329 59.57 316.789 62.1 315.789 67.77C315.029 72.05 316.839 75.23 320.279 75.84C323.539 76.42 326.269 74.65 326.809 71.56C327.349 68.52 325.469 65.91 322.289 65.35ZM320.619 74.04C318.549 73.67 317.329 71.93 317.689 69.88C318.049 67.85 319.779 66.66 321.859 67.02C323.929 67.39 325.149 69.1 324.799 71.13C324.419 73.18 322.699 74.4 320.619 74.03V74.04Z" fill="black"/>
  </g>
  <defs>
    <clipPath id="clip0_0_1">
      <rect width="170.124" height="104.09" fill="white"/>
    </clipPath>
    <clipPath id="clip1_0_1">
      <rect width="190.19" height="144.8" fill="white" transform="translate(164)"/>
    </clipPath>
  </defs>
</svg>
