<svg width="240" height="120" viewBox="0 0 240 120" fill="none" xmlns="http://www.w3.org/2000/svg">
  <path d="M237.752 75.8181L239.831 68.3026L238.947 68.0828C236.296 72.5045 234.748 74.4922 232.758 74.4922H229.442C227.01 74.4922 227.01 73.8282 227.01 71.8405V48.8523C227.01 46.6425 227.23 45.9785 229.442 45.9785H229.662V44.8725H220.379V45.9785H220.601C222.81 45.9785 223.033 46.6425 223.033 48.8523V71.8405C223.033 74.0503 222.81 74.7143 220.601 74.7143H220.379V75.8203H237.752V75.8181ZM208.928 53.8892L211.493 64.3229H206.409L208.93 53.8892H208.928ZM203.358 71.1764C202.872 73.2996 202.032 74.7143 199.378 74.7143V75.8203H207.116V74.7143H206.893C204.684 74.7143 204.153 73.6971 204.728 71.3097L206.098 65.6509H211.846L213.394 72.0604C213.925 74.2257 213.261 74.7121 211.273 74.7121H211.051V75.8181H220.821V74.7121C218.389 74.7121 217.902 73.8282 217.327 71.5296L210.74 44.4306H209.856L203.358 71.1764ZM200.704 49.5141C201.19 47.3932 202.03 45.9785 204.684 45.9785V44.8725H196.948V45.9785H197.168C199.378 45.9785 199.909 46.9957 199.334 49.3831L195.09 66.8458L190.668 48.6324C190.137 46.4671 190.801 45.9807 192.789 45.9807H193.011V44.8747H183.241V45.9807C185.673 45.9807 186.16 46.8646 186.735 49.1632L193.322 76.2622H194.206L200.704 49.5163V49.5141ZM167.327 75.8181H182.799V74.7121H181.251C177.494 74.7121 177.052 74.048 177.052 71.3963V49.292C177.052 46.6403 177.494 45.9763 181.251 45.9763H182.799V44.8703H167.327V45.9763H168.875C172.632 45.9763 173.074 46.6403 173.074 49.292V71.3963C173.074 74.048 172.632 74.7121 168.875 74.7121H167.327V75.8181ZM147.965 44.8725L145.886 52.3879L146.77 52.6078C149.422 48.1861 150.97 46.1984 152.96 46.1984H154.728V71.8405C154.728 74.0503 154.286 74.7143 151.854 74.7143H151.412V75.8203H162.021V74.7143H161.579C159.147 74.7143 158.705 74.0503 158.705 71.8405V46.1984H160.473C162.463 46.1984 164.011 48.1883 166.663 52.6078L167.546 52.3879L165.468 44.8725H147.961H147.965ZM136.383 44.2085C132.184 44.2085 128.204 46.8602 128.204 51.946C128.204 60.1254 141.909 61.6712 141.909 70.0705C141.909 73.3862 139.919 75.154 137.045 75.154C133.287 75.154 131.078 72.9443 128.866 66.7547L127.76 66.9768L129.396 76.26L131.828 75.1984C132.492 75.6404 134.216 76.4799 137.045 76.4799C141.467 76.4799 145.444 73.8282 145.444 68.3004C145.444 59.0172 131.739 57.0273 131.739 50.1759C131.739 47.0823 133.949 45.5343 136.381 45.5343C139.697 45.5343 141.687 47.7441 143.896 53.9337L145.002 53.7138L143.368 44.4306L140.936 45.4921C140.316 45.0502 138.815 44.2107 136.383 44.2107M125.021 75.8181L127.1 68.3026L126.216 68.0828C123.564 72.5045 122.016 74.4922 120.027 74.4922H116.047C113.615 74.4922 113.615 73.8282 113.615 71.8405V60.5674H115.825C117.815 60.5674 119.582 61.0093 119.582 63.661V63.8809H120.688V55.9235H119.582V56.1434C119.582 58.7951 117.815 59.2371 115.825 59.2371H113.615V48.8479C113.615 46.858 113.615 46.1962 116.047 46.1962H119.363C121.352 46.1962 122.9 48.1861 125.552 52.6056L126.436 52.3857L124.357 44.8703H106.983V45.9763H107.203C109.413 45.9763 109.635 46.6403 109.635 48.8501V71.8383C109.635 74.048 109.413 74.7121 107.203 74.7121H106.983V75.8181H125.021ZM87.311 45.9785H87.5331C89.7429 45.9785 89.965 46.6425 89.965 48.8523V71.8405C89.965 74.0503 89.7451 74.7143 87.5331 74.7143H87.311V75.8203H96.5942V74.7143H96.3744C94.1646 74.7143 93.9425 74.0503 93.9425 71.8405V60.5674H95.9324C97.9223 60.5674 99.6901 61.0093 99.6901 63.661V63.8809H100.796V55.9235H99.6901V56.1434C99.6901 58.7951 97.9223 59.2371 95.9324 59.2371H93.9425V48.8479C93.9425 46.858 93.9425 46.1962 96.3744 46.1962H99.6901C101.68 46.1962 103.226 48.1861 105.88 52.6056L106.764 52.3857L104.685 44.8703H87.311V45.9785ZM74.49 48.8501C74.49 46.6403 74.7098 45.9763 76.9218 45.9763H77.1439V44.8703H70.2037L66.5792 64.5427L62.6439 44.8703H55.4816V45.9763C58.1333 45.9763 58.5752 47.5242 58.5752 49.5119V71.1742C58.5752 73.1641 58.1333 74.7121 55.4816 74.7121V75.8181H62.997V74.7121C60.3453 74.7121 59.9033 73.1641 59.9033 71.1742V50.3958L64.9869 75.8158H65.8708L70.5124 50.3958V71.836C70.5124 74.0458 70.2903 74.7098 68.0806 74.7098H67.8607V75.8158H77.1439V74.7098H76.9218C74.7121 74.7098 74.49 74.0458 74.49 71.836V48.8479V48.8501ZM53.4029 75.8181L55.4816 68.3026L54.5977 68.0828C51.946 72.5045 50.398 74.4922 48.4081 74.4922H45.0924C42.6605 74.4922 42.6605 73.8282 42.6605 71.8405V48.8523C42.6605 46.6425 42.8804 45.9785 45.0924 45.9785H45.3122V44.8725H36.029V45.9785H36.2489C38.4587 45.9785 38.6807 46.6425 38.6807 48.8523V71.8405C38.6807 74.0503 38.4609 74.7143 36.2489 74.7143H36.029V75.8203H53.4029V75.8181ZM19.2304 75.8181H34.7032V74.7121H33.1552C29.3975 74.7121 28.9556 74.048 28.9556 71.3963V49.292C28.9556 46.6403 29.3975 45.9763 33.1552 45.9763H34.7032V44.8703H19.2304V45.9763H20.7784C24.5361 45.9763 24.978 46.6403 24.978 49.292V71.3963C24.978 74.048 24.5361 74.7121 20.7784 74.7121H19.2304V75.8181ZM-6.10352e-05 45.9785H0.219805C2.42957 45.9785 2.65165 46.6425 2.65165 48.8523V71.8405C2.65165 74.0503 2.42957 74.7143 0.219805 74.7143H-6.10352e-05V75.8203H9.28315V74.7143H9.06107C6.85131 74.7143 6.62922 74.0503 6.62922 71.8405V60.5674H8.61912C10.609 60.5674 12.3768 61.0093 12.3768 63.661V63.8809H13.4828V55.9235H12.3768V56.1434C12.3768 58.7951 10.609 59.2371 8.61912 59.2371H6.62922V48.8479C6.62922 46.858 6.62922 46.1962 9.06107 46.1962H12.3768C14.3667 46.1962 15.9147 48.1861 18.5664 52.6056L19.4503 52.3857L17.3715 44.8703H-6.10352e-05V45.9785Z" fill="#F1ECE6"/>
  <path d="M165.339 1.98931C168.877 1.98931 171.529 3.9792 171.529 8.39872C171.529 12.8182 169.141 15.0302 165.339 15.0302H163.349V4.64102C163.349 2.65113 163.791 1.98931 165.339 1.98931ZM165.737 16.3561L172.19 31.609H178.158V30.503H177.936C176.168 30.503 175.815 30.0166 174.973 27.9823L169.756 15.692C173.247 14.5416 175.946 12.0232 175.946 8.39872C175.946 2.87321 170.862 0.661231 165.335 0.661231H156.713V1.76722H156.933C159.143 1.76722 159.365 2.43126 159.365 4.64102V27.6292C159.365 29.839 159.143 30.503 156.933 30.503H156.713V31.609H165.996V30.503H165.774C163.564 30.503 163.342 29.839 163.342 27.6292V16.3561H165.737ZM145.269 9.68016L147.832 20.1138H142.748L145.269 9.68016ZM139.699 26.9674C139.213 29.0883 138.373 30.503 135.719 30.503V31.609H143.457V30.503H143.237C141.027 30.503 140.496 29.4858 141.072 27.0984L142.442 21.4396H148.189L149.737 27.8491C150.268 30.0144 149.604 30.5008 147.616 30.5008H147.397V31.6068H157.166V30.5008C154.734 30.5008 154.248 29.6169 153.673 27.3183L147.081 0.219279H146.197L139.699 26.9652V26.9674ZM119.671 0.663452L117.593 8.17886L118.476 8.39872C121.128 3.97698 122.676 1.98931 124.666 1.98931H126.434V27.6292C126.434 29.839 125.992 30.503 123.56 30.503H123.118V31.609H133.727V30.503H133.285C130.853 30.503 130.411 29.839 130.411 27.6292V1.98931H132.179C134.169 1.98931 135.715 3.9792 138.369 8.39872L139.253 8.17886L137.174 0.663452H119.667H119.671ZM108.09 -0.000586752C103.89 -0.000586752 99.9101 2.65113 99.9101 7.73691C99.9101 15.9164 113.615 17.4621 113.615 25.8614C113.615 29.1771 111.625 30.9449 108.751 30.9449C104.994 30.9449 102.784 28.7352 100.572 22.5456L99.4659 22.7655L101.103 32.0487L103.535 30.9871C104.199 31.4291 105.922 32.2686 108.751 32.2686C113.173 32.2686 117.151 29.6169 117.151 24.0891C117.151 14.8059 103.446 12.816 103.446 5.96466C103.446 2.87099 105.655 1.32305 108.087 1.32305C111.403 1.32305 113.393 3.53281 115.603 9.72236L116.709 9.50027L115.072 0.217058L112.64 1.27863C112.02 0.836679 110.519 -0.00280762 108.087 -0.00280762M84.6594 4.64102C84.6594 2.43126 84.8793 1.76722 87.0912 1.76722H87.3133V0.663452H78.0301V1.76944H78.25C80.4597 1.76944 80.6818 2.43348 80.6818 4.64324V27.6314C80.6818 29.8412 80.4597 30.5052 78.25 30.5052H78.0301V31.6112H87.3133V30.5052H87.0912C84.8815 30.5052 84.6594 29.8412 84.6594 27.6314V19.4964L87.2667 15.6054L92.3058 27.8513C93.2342 30.1055 92.6145 30.503 90.98 30.503H90.7579V31.609H100.13V30.503H99.9101C98.1423 30.503 97.4338 29.8834 96.5943 27.8513L89.9184 11.6701L94.1625 5.30506C95.666 3.05088 97.0363 1.76722 99.688 1.76722V0.663452H91.9505V1.76944H92.1726C94.8243 1.76944 93.896 3.27297 92.6145 5.21845L84.6572 17.1112V4.64102H84.6594ZM64.545 16.1362C64.545 6.18896 66.7548 1.32527 70.2926 1.32527C72.7245 1.32527 74.2724 3.53503 76.4822 9.72458L77.5882 9.50249L75.9514 0.219279L73.5195 1.28085C72.9443 0.8389 71.5741 -0.000586752 69.6286 -0.000586752C64.3229 -0.000586752 59.9034 5.52493 59.9034 16.1362C59.9034 26.7475 64.3251 32.273 69.6286 32.273C76.2601 32.273 77.5859 23.4318 77.5859 23.4318L76.4799 23.2119C76.4799 23.2119 75.1541 30.5052 70.5125 30.5052C66.9769 30.5052 64.545 26.3056 64.545 16.1384M49.1144 9.68016L51.6795 20.1138H46.596L49.1167 9.68016H49.1144ZM43.5445 26.9674C43.0582 29.0883 42.2187 30.503 39.5647 30.503V31.609H47.3022V30.503H47.0824C44.8726 30.503 44.3418 29.4858 44.917 27.0984L46.2873 21.4396H52.0349L53.5828 27.8491C54.1136 30.0144 53.4496 30.5008 51.4619 30.5008H51.242V31.6068H61.0116V30.5008C58.5798 30.5008 58.0934 29.6169 57.5182 27.3183L50.9267 0.219279H50.0428L43.5445 26.9652V26.9674ZM38.3721 31.609L40.4509 24.0936L39.567 23.8737C36.9152 28.2955 35.3673 30.2831 33.3774 30.2831H30.0616C27.6298 30.2831 27.6298 29.6191 27.6298 27.6314V4.64102C27.6298 2.43126 27.8497 1.76722 30.0616 1.76722H30.2815V0.663452H20.9983V1.76944H21.2182C23.4279 1.76944 23.65 2.43348 23.65 4.64324V27.6314C23.65 29.8412 23.4301 30.5052 21.2182 30.5052H20.9983V31.6112H38.3721V31.609ZM9.72519 1.98931C13.0409 1.98931 15.0308 3.9792 15.0308 7.95677C15.0308 12.1564 13.0409 14.3662 9.94727 14.3662H6.63152V4.64102C6.63152 2.65113 6.85139 1.98931 8.62142 1.98931H9.72741H9.72519ZM9.94727 15.6943C13.6161 15.6943 15.6949 18.346 15.6949 23.1208C15.6949 27.8957 13.263 30.2831 9.50532 30.2831H8.62142C6.63152 30.2831 6.63152 29.6191 6.63152 27.6314V15.6943H9.94727ZM1.74386e-05 31.609H9.50532C16.1368 31.609 20.3365 28.0734 20.3365 23.1208C20.3365 15.9141 13.263 15.0746 13.263 15.0746V14.8526C13.263 14.8526 19.2305 13.4823 19.2305 7.73469C19.2305 3.97698 16.1368 0.661231 9.72519 0.661231H1.74386e-05V1.76722H0.219883C2.42964 1.76722 2.65173 2.43126 2.65173 4.64102V27.6292C2.65173 29.839 2.42964 30.503 0.219883 30.503H1.74386e-05V31.609Z" fill="#F1ECE6"/>
  <path d="M95.4261 105.778C95.4261 109.489 97.4582 111.518 101.169 111.518H110.268C110.621 111.518 110.886 111.783 110.886 112.136V114.257C110.886 117.968 112.918 120 116.626 120H119.276C122.987 120 125.019 117.968 125.019 114.257V94.822C125.019 91.1109 122.987 89.0811 119.276 89.0811H116.626C112.915 89.0811 110.886 91.1132 110.886 94.822V102.95C110.886 103.303 110.621 103.568 110.268 103.568H110.179C109.826 103.568 109.562 103.303 109.562 102.95V94.822C109.562 91.1109 107.53 89.0811 103.821 89.0811H101.171C97.4604 89.0811 95.4283 91.1132 95.4283 94.822V105.775L95.4261 105.778ZM69.8017 89.0811C66.0907 89.0811 64.0608 91.1132 64.0608 94.822V95.3084C64.0608 99.5036 66.5348 101.049 70.5968 100.079L75.3672 98.9306C76.1623 98.7529 76.6042 98.8862 76.6487 99.3281C76.7375 99.7701 76.4288 100.034 75.8092 100.212L70.4213 101.582C65.5177 102.819 64.0608 104.718 64.0608 109.711V114.259C64.0608 118.057 66.004 120.002 69.8017 120.002H87.9107C91.6217 120.002 93.6538 117.97 93.6538 114.259C93.6538 110.548 91.5773 108.518 87.9107 108.518H80.7995C80.4463 108.518 80.1821 108.254 80.1821 107.901V107.812C80.1821 107.459 80.4463 107.194 80.7995 107.194H85.0835C90.0294 107.194 93.6516 103.572 93.6516 98.6263V97.6536C93.6516 92.7077 90.0294 89.0855 85.0835 89.0855H69.8017V89.0811ZM45.943 97.6492C45.943 97.296 46.2073 97.0318 46.5604 97.0318H46.6492C47.0023 97.0318 47.2666 97.296 47.2666 97.6492V111.43C47.2666 111.783 47.0023 112.047 46.6492 112.047H46.5604C46.2073 112.047 45.943 111.783 45.943 111.43V97.6492ZM52.8343 120C57.7802 120 61.4024 116.378 61.4024 111.432V97.6514C61.4024 92.7055 57.7802 89.0833 52.8343 89.0833H40.3775C35.4294 89.0833 31.8094 92.7055 31.8094 97.6514V111.432C31.8094 116.378 35.4316 120 40.3775 120H52.8343ZM5.74088 89.0811C2.02981 89.0811 -6.10352e-05 91.1132 -6.10352e-05 94.822V95.3084C-6.10352e-05 99.5036 2.47398 101.049 6.53594 100.079L11.3064 98.9306C12.1014 98.7529 12.5434 98.8862 12.5878 99.3281C12.6766 99.7701 12.3679 100.034 11.7483 100.212L6.3605 101.582C1.45683 102.819 -6.10352e-05 104.718 -6.10352e-05 109.711V114.259C-6.10352e-05 118.057 1.9432 120.002 5.74088 120.002H23.8498C27.5609 120.002 29.593 117.97 29.593 114.259C29.593 110.548 27.5165 108.518 23.8498 108.518H16.7386C16.3855 108.518 16.1212 108.254 16.1212 107.901V107.812C16.1212 107.459 16.3855 107.194 16.7386 107.194H21.0226C25.9685 107.194 29.5907 103.572 29.5907 98.6263V97.6536C29.5907 92.7077 25.9685 89.0855 21.0226 89.0855H5.74088V89.0811Z" fill="#F1ECE6"/>
</svg>
