<?xml version="1.0" encoding="utf-8"?>
<!-- Generator: Adobe Illustrator 25.3.0, SVG Export Plug-In . SVG Version: 6.00 Build 0)  -->
<svg version="1.1" id="layer" xmlns="http://www.w3.org/2000/svg" xmlns:xlink="http://www.w3.org/1999/xlink" x="0px" y="0px"
	 viewBox="0 0 652 652" style="enable-background:new 0 0 652 652;" xml:space="preserve">
<style type="text/css">
	.st0{fill:#FFFFFF;}
</style>
<g>
	<polygon class="st0" points="316.9,423.9 333.5,423.9 333.5,427.9 321.3,427.9 321.3,436.5 333.5,436.5 333.5,440.5 321.3,440.5 
		321.3,455 316.9,455 	"/>
	<path class="st0" d="M253.5,262.9c0.7,0,1.2,0.2,1.6,0.7c0.5,0.5,0.7,1,0.7,1.6s-0.2,1.1-0.7,1.6c-0.5,0.4-1,0.7-1.6,0.7
		s-1.2-0.2-1.6-0.7c-0.5-0.4-0.7-0.9-0.7-1.6s0.2-1.2,0.7-1.6C252.3,263.1,252.8,262.9,253.5,262.9"/>
	<path class="st0" d="M401.7,423.9h4.5v17.6c0,2.4-0.2,4.2-0.5,5.4c-0.4,1.2-0.8,2.2-1.3,3s-1.1,1.5-1.9,2.2
		c-2.5,2.1-5.7,3.2-9.7,3.2c-4.1,0-7.3-1.1-9.7-3.2c-0.7-0.7-1.4-1.4-1.9-2.2c-0.5-0.8-0.9-1.8-1.3-3c-0.3-1.2-0.5-3-0.5-5.5v-17.6
		h4.5v17.6c0,2.9,0.3,5,1,6.1s1.7,2,3.1,2.7s3,1,4.8,1c2.7,0,4.8-0.7,6.5-2.1c0.9-0.7,1.5-1.6,1.9-2.6s0.6-2.7,0.6-5.2v-17.4H401.7z
		"/>
	<polygon class="st0" points="439.3,423.9 443.5,423.9 443.5,455 439.7,455 418.9,431.1 418.9,455 414.7,455 414.7,423.9 
		418.3,423.9 439.3,448 	"/>
	<path class="st0" d="M462.4,427.9h-5.6V451h5.7c2.2,0,4-0.2,5.2-0.5s2.3-0.7,3.1-1.1c0.8-0.5,1.6-1,2.3-1.7c2.2-2.2,3.3-5,3.3-8.4
		s-1.1-6.1-3.4-8.2c-0.8-0.8-1.8-1.4-2.9-1.9s-2.1-0.8-3.1-1C466.1,428,464.5,427.9,462.4,427.9 M452.4,455v-31.1h10.5
		c4.2,0,7.6,0.7,10,1.9c2.5,1.3,4.4,3.2,5.9,5.6c1.4,2.5,2.2,5.2,2.2,8.1c0,2.1-0.4,4.1-1.2,6c-0.8,1.9-1.9,3.6-3.4,5
		c-1.5,1.5-3.3,2.6-5.3,3.4c-1.2,0.5-2.3,0.8-3.2,0.9c-1,0.2-2.9,0.2-5.6,0.2H452.4L452.4,455z"/>
	<path class="st0" d="M502.6,441.8l-5-11.3l-4.7,11.3H502.6z M496.1,423.7h3.1l14,31.3h-4.5l-4.1-9.2h-13.3l-3.9,9.2h-4.6
		L496.1,423.7z"/>
	<polygon class="st0" points="511.5,423.9 537.5,423.9 537.5,427.8 526.7,427.8 526.7,455 522.2,455 522.2,427.8 511.5,427.8 	"/>
	<rect x="543.9" y="423.9" class="st0" width="4.5" height="31.1"/>
	<path class="st0" d="M572,427.7c-3.6,0-6.5,1.1-8.8,3.4c-2.3,2.2-3.4,5.1-3.4,8.5s1.1,6.1,3.4,8.3c2.3,2.2,5.2,3.3,8.6,3.3
		c3.5,0,6.4-1.1,8.7-3.4s3.5-5.1,3.5-8.5c0-3.3-1.1-6.1-3.5-8.3C578.3,428.8,575.4,427.7,572,427.7 M571.9,423.5
		c4.8,0,8.8,1.5,12,4.5s4.8,6.8,4.8,11.4s-1.6,8.4-4.8,11.4s-7.3,4.5-12.2,4.5c-4.7,0-8.6-1.5-11.7-4.5c-3.1-3-4.7-6.8-4.7-11.3
		c0-4.7,1.6-8.5,4.7-11.5C563.1,425,567,423.5,571.9,423.5"/>
	<polygon class="st0" points="25.9,194 25.9,197.4 34.9,197.4 34.9,220.3 38.7,220.3 38.7,197.4 47.9,197.4 47.9,194 	"/>
	<polygon class="st0" points="621,423.9 625.2,423.9 625.2,455 621.4,455 600.6,431.1 600.6,455 596.4,455 596.4,423.9 600,423.9 
		621,448 	"/>
	<polygon class="st0" points="71.2,194.1 74.9,194.1 74.9,220.3 71.2,220.3 71.2,208.9 56.4,208.9 56.4,220.3 52.6,220.3 
		52.6,194.1 56.4,194.1 56.4,205.4 71.2,205.4 	"/>
	<polygon class="st0" points="83.2,194.1 98.1,194.1 98.1,197.4 86.9,197.4 86.9,205.4 97.7,205.4 97.7,208.8 86.9,208.8 86.9,217 
		98.4,217 98.4,220.3 83.2,220.3 	"/>
	<polygon class="st0" points="76.2,240.8 79.7,240.8 79.7,267 76.5,267 58.9,246.8 58.9,267 55.4,267 55.4,240.8 58.5,240.8 
		76.2,261.2 	"/>
	<path class="st0" d="M37.8,246.4l4.3,9.5h-8.2L37.8,246.4z M36.5,240.6L25.2,267h3.9l3.3-7.8h11.2l3.5,7.8H51l-11.8-26.4H36.5z"/>
	<path class="st0" d="M96.1,244.1h-4.7v19.6h4.8c1.9,0,3.4-0.1,4.4-0.4c1-0.2,1.9-0.6,2.6-1s1.4-0.9,1.9-1.5
		c1.8-1.9,2.8-4.3,2.8-7.1c0-2.8-0.9-5.1-2.9-6.9c-0.7-0.7-1.5-1.2-2.4-1.6s-1.8-0.7-2.6-0.9C99.2,244.2,97.9,244.1,96.1,244.1
		 M87.6,267v-26.3h8.9c3.6,0,6.4,0.5,8.5,1.6s3.7,2.7,5,4.7c1.2,2.1,1.8,4.3,1.8,6.8c0,1.8-0.3,3.4-1,5c-0.7,1.6-1.6,3-2.9,4.2
		c-1.3,1.3-2.8,2.2-4.5,2.8c-1,0.4-1.9,0.7-2.7,0.8c-0.8,0.1-2.4,0.2-4.7,0.2L87.6,267L87.6,267z"/>
	<path class="st0" d="M122.9,244h-1.1v8.3h1.4c1.9,0,3.2-0.2,3.9-0.5s1.3-0.8,1.6-1.5c0.4-0.7,0.6-1.4,0.6-2.3
		c0-0.8-0.2-1.6-0.7-2.3s-1.1-1.1-1.8-1.4C126.1,244.1,124.7,244,122.9,244 M118,267v-26.3h6.6c2.7,0,4.8,0.7,6.3,2s2.3,3.1,2.3,5.4
		c0,1.5-0.4,2.9-1.1,4c-0.8,1.1-1.8,2-3.3,2.5c0.9,0.6,1.7,1.3,2.5,2.3c0.8,0.9,1.9,2.6,3.4,5c0.9,1.5,1.6,2.6,2.2,3.4l1.4,1.9h-4.5
		l-1.1-1.7c0-0.1-0.1-0.2-0.2-0.3l-0.7-1l-1.1-1.9l-1.3-2c-0.8-1.1-1.5-1.9-2.1-2.6s-1.2-1.1-1.8-1.4c-0.5-0.3-1.4-0.4-2.6-0.4h-1
		V267C121.8,267,118,267,118,267z"/>
	<polygon class="st0" points="143,240.8 157.9,240.8 157.9,244.1 146.8,244.1 146.8,252.1 157.5,252.1 157.5,255.5 146.8,255.5 
		146.8,263.7 158.2,263.7 158.2,267 143,267 	"/>
	<polygon class="st0" points="198.1,240.8 201.9,240.8 191.3,267.2 190.5,267.2 181.9,245.8 173.2,267.2 172.4,267.2 161.8,240.8 
		165.6,240.8 172.8,258.9 180.1,240.8 183.7,240.8 191,258.9 	"/>
	<polygon class="st0" points="153.1,292 215.5,292 215.5,306 168.8,306 168.8,339.5 213.9,339.5 213.9,353.6 168.8,353.6 
		168.8,387.8 217,387.8 217,401.8 153.1,401.8 	"/>
	<polygon class="st0" points="248.3,240.8 252.1,240.8 241.4,267.2 240.6,267.2 232,245.8 223.3,267.2 222.5,267.2 211.9,240.8 
		215.7,240.8 223,258.9 230.3,240.8 233.8,240.8 241.1,258.9 	"/>
	<polygon class="st0" points="26.4,292 26.4,402 42.2,402 42.2,316.4 68.4,348.9 77.8,337.2 41.3,292 	"/>
	<polygon class="st0" points="236.3,292 252.1,292 252.1,387.7 301.6,387.7 301.6,402 236.3,402 	"/>
	<polygon class="st0" points="316.9,292 332.6,292 332.6,387.7 382.1,387.7 382.1,402 316.9,402 	"/>
	<path class="st0" d="M445.5,305.4c-12.6,0-23,3.9-31.1,11.8s-12.2,17.9-12.2,30.2c0,11.9,4.1,21.7,12.2,29.6s18.3,11.8,30.5,11.8
		c12.3,0,22.5-4,30.8-12s12.3-18,12.3-30c0-11.7-4.1-21.5-12.3-29.4C467.5,309.3,457.5,305.4,445.5,305.4 M444.9,290.4
		c17,0,31.2,5.4,42.5,16.1c11.3,10.8,17,24.3,17,40.5s-5.7,29.7-17.1,40.3c-11.4,10.6-25.8,16-43.2,16c-16.6,0-30.4-5.3-41.4-16
		s-16.7-24-16.7-40c0-16.4,5.6-30,16.7-40.8C413.8,295.8,427.8,290.4,444.9,290.4"/>
	<polygon class="st0" points="114.3,292 114.2,292 77.9,337.2 77.8,337.2 68.4,348.9 76.4,358.9 79.2,358.9 113.1,316.4 
		113.1,316.5 128.9,296.7 128.9,292 	"/>
	<polygon class="st0" points="610.1,292 625.1,292 625.1,402 611.6,402 538,317.3 538,402 523.2,402 523.2,292 536,292 610.1,377.4 
			"/>
	<polygon class="st0" points="113.1,316.5 113.1,402 128.9,402 128.9,296.7 	"/>
	<path class="st0" d="M355.8,427.7c-3.6,0-6.5,1.1-8.8,3.4c-2.3,2.2-3.4,5.1-3.4,8.5s1.1,6.1,3.4,8.3c2.3,2.2,5.2,3.3,8.6,3.3
		c3.5,0,6.4-1.1,8.7-3.4c2.3-2.3,3.5-5.1,3.5-8.5c0-3.3-1.1-6.1-3.5-8.3C362.1,428.8,359.2,427.7,355.8,427.7 M355.7,423.5
		c4.8,0,8.8,1.5,12,4.5s4.8,6.8,4.8,11.4s-1.6,8.4-4.8,11.4c-3.2,3-7.3,4.5-12.2,4.5c-4.7,0-8.6-1.5-11.7-4.5s-4.7-6.8-4.7-11.3
		c0-4.7,1.6-8.5,4.7-11.5S350.9,423.5,355.7,423.5"/>
</g>
</svg>
