<?xml version="1.0" encoding="utf-8"?>
<!-- Generator: Adobe Illustrator 25.3.0, SVG Export Plug-In . SVG Version: 6.00 Build 0)  -->
<svg version="1.1" id="Layer_1" xmlns="http://www.w3.org/2000/svg" xmlns:xlink="http://www.w3.org/1999/xlink" x="0px" y="0px"
	 viewBox="0 0 268 41.4" style="enable-background:new 0 0 268 41.4;" xml:space="preserve">
<style type="text/css">
	.st0{fill:#FFFFFF;}
	.st1{clip-path:url(#SVGID_2_);fill:#00A4D8;}
	.st2{clip-path:url(#SVGID_4_);fill:#FFFFFF;}
	.st3{clip-path:url(#SVGID_6_);fill:#FFFFFF;}
	.st4{clip-path:url(#SVGID_8_);fill:#FFFFFF;}
	.st5{clip-path:url(#SVGID_10_);fill:#00A4D8;}
	.st6{clip-path:url(#SVGID_12_);fill:#FFFFFF;}
	.st7{clip-path:url(#SVGID_14_);fill:#FFFFFF;}
	.st8{clip-path:url(#SVGID_16_);fill:#FFFFFF;}
	.st9{clip-path:url(#SVGID_18_);fill:#FFFFFF;}
	.st10{clip-path:url(#SVGID_20_);fill:#FFFFFF;}
	.st11{clip-path:url(#SVGID_22_);fill:#FFFFFF;}
	.st12{clip-path:url(#SVGID_24_);fill:#FFFFFF;}
	.st13{clip-path:url(#SVGID_26_);fill:#FFFFFF;}
	.st14{clip-path:url(#SVGID_28_);fill:#FFFFFF;}
	.st15{clip-path:url(#SVGID_30_);fill:#FFFFFF;}
	.st16{clip-path:url(#SVGID_32_);fill:#FFFFFF;}
	.st17{clip-path:url(#SVGID_34_);fill:#FFFFFF;}
	.st18{clip-path:url(#SVGID_36_);fill:#FFFFFF;}
	.st19{clip-path:url(#SVGID_38_);fill:#FFFFFF;}
	.st20{clip-path:url(#SVGID_40_);fill:#FFFFFF;}
	.st21{clip-path:url(#SVGID_42_);fill:#00A4D8;}
	.st22{clip-path:url(#SVGID_44_);fill:#FFFFFF;}
	.st23{clip-path:url(#SVGID_46_);fill:#FFFFFF;}
	.st24{clip-path:url(#SVGID_48_);fill:#FFFFFF;}
</style>
<path class="st0" d="M162.8,22.6c0,4.2-2.6,4.9-4.9,4.9s-4.9-0.8-4.9-4.9v-9.9h-1.6v10.1c0,2.7,1,6.4,6.5,6.4s6.5-3.7,6.5-6.4V12.7
	h-1.6V22.6z M52.3,28.8h2.2v-6.9h8.7v-2h-8.7v-5h9.2v-2H52.3V28.8z M73.9,12.3c-4.9,0-8.4,3.7-8.4,8.4c0,4.8,3.5,8.4,8.4,8.4
	s8.4-3.7,8.4-8.4C82.3,16,78.8,12.3,73.9,12.3z M73.9,27.1c-3.7,0-6-2.9-6-6.4s2.4-6.4,6-6.4c3.7,0,6,2.9,6,6.4
	C79.9,24.3,77.6,27.1,73.9,27.1z M98.5,17.2c0-2-1-4.5-5.1-4.5h-8.2v16h2.2v-7.1h5l4.1,7.1h2.7l-4.6-7.3
	C97,21.2,98.5,19.3,98.5,17.2z M87.3,19.8v-5.2h5.5c1.7,0,3.4,0.4,3.4,2.6s-1.7,2.6-3.4,2.6H87.3z M108,12.7h-5.6v16h5.2
	c5.7,0,8.8-3.9,8.8-8C116.4,17.8,114.8,12.7,108,12.7z M107.3,26.7h-2.7v-12h3.3c5.2,0,6.3,3.9,6.3,6
	C114.1,24.7,111,26.7,107.3,26.7z M119.4,28.8h1.6v-7.6h8.8v-1.5H121v-5.5h9.3v-1.5h-11L119.4,28.8L119.4,28.8z M140.2,12.3
	c-4.8,0-8.4,3.6-8.4,8.4c0,4.9,3.6,8.4,8.4,8.4c4.8,0,8.4-3.6,8.4-8.4C148.6,15.9,145,12.3,140.2,12.3z M140.2,27.7
	c-4.1,0-6.6-3.2-6.6-6.9s2.5-6.9,6.6-6.9s6.6,3.2,6.6,6.9C146.8,24.4,144.4,27.7,140.2,27.7z M180.1,26.3L180.1,26.3l-9.6-13.6h-2
	v16h1.6V15l0,0l9.6,13.7h2v-16h-1.6V26.3z M191.2,12.7h-5.3v16h5.3c4,0,8.4-2.7,8.4-8C199.6,15.4,195.2,12.7,191.2,12.7z
	 M190.7,27.3h-3.2v-13h3.2c4.9,0,7.2,3.2,7.2,6.5S195.6,27.3,190.7,27.3z M207.5,12.7l-7,16h1.9l1.8-4.2h8.2l1.8,4.2h1.9l-7-16
	C209.1,12.7,207.5,12.7,207.5,12.7z M204.8,23.1l3.5-8.4l3.5,8.4H204.8z M214.8,14.2h5.4v14.5h1.6V14.2h5.4v-1.5h-12.4V14.2z
	 M229.7,28.8h1.6v-16h-1.6V28.8z M243.1,12.3c-4.8,0-8.4,3.6-8.4,8.4c0,4.9,3.6,8.4,8.4,8.4c4.8,0,8.4-3.6,8.4-8.4
	S247.9,12.3,243.1,12.3z M243.1,27.7c-4.1,0-6.6-3.2-6.6-6.9s2.5-6.9,6.6-6.9s6.6,3.2,6.6,6.9C249.7,24.4,247.2,27.7,243.1,27.7z
	 M266.4,12.7v13.6l0,0l-9.6-13.6h-2v16h1.6V15l0,0l9.6,13.7h2v-16C268,12.7,266.4,12.7,266.4,12.7z"/>
<g>
	<defs>
		<circle id="SVGID_1_" cx="20.7" cy="20.7" r="20.7"/>
	</defs>
	<clipPath id="SVGID_2_">
		<use xlink:href="#SVGID_1_"  style="overflow:visible;"/>
	</clipPath>
	<path class="st1" d="M36.8,0.9c0-2.5,2-4.5,4.5-4.5l0,0c2.5,0,4.5,2,4.5,4.5l0,0c0,2.5-2,4.5-4.5,4.5l0,0V5.1V4.9
		c2.2,0,4.1-1.8,4.1-4.1l0,0c0-2.2-1.8-4.1-4.1-4.1l0,0c-2.2,0-4.1,1.8-4.1,4.1l0,0c0,2.2,1.8,4.1,4.1,4.1l0,0v0.2v0.2
		C38.8,5.3,36.8,3.3,36.8,0.9L36.8,0.9z"/>
</g>
<g>
	<defs>
		<circle id="SVGID_3_" cx="20.7" cy="20.7" r="20.7"/>
	</defs>
	<clipPath id="SVGID_4_">
		<use xlink:href="#SVGID_3_"  style="overflow:visible;"/>
	</clipPath>
	<path class="st2" d="M26.3,0.9c0-2.6,2.1-4.7,4.7-4.7l0,0c2.6,0,4.7,2.1,4.7,4.7l0,0c0,2.6-2.1,4.7-4.7,4.7l0,0V5.1V4.7
		c2.1,0,3.8-1.7,3.9-3.8l0,0C34.8-1.3,33.1-3,31-3l0,0c-2.1,0-3.8,1.7-3.8,3.9l0,0c0,2.3,1.7,3.8,3.8,3.8l0,0v0.4v0.4
		C28.4,5.6,26.3,3.5,26.3,0.9L26.3,0.9z"/>
</g>
<g>
	<defs>
		<circle id="SVGID_5_" cx="20.7" cy="20.7" r="20.7"/>
	</defs>
	<clipPath id="SVGID_6_">
		<use xlink:href="#SVGID_5_"  style="overflow:visible;"/>
	</clipPath>
	<path class="st3" d="M16,0.9c0-2.6,2.1-4.7,4.7-4.7l0,0c2.6,0,4.7,2.1,4.7,4.7l0,0c0,2.8-2.1,4.7-4.7,4.7l0,0V5.1V4.7
		c2.1,0,3.8-1.7,3.8-3.8l0,0c0-2.1-1.7-3.8-3.8-3.9l0,0c-2.1,0-3.8,1.7-3.9,3.9l0,0c0,2.1,1.7,3.8,3.9,3.8l0,0v0.4v0.4
		C18.1,5.6,16,3.5,16,0.9L16,0.9z"/>
</g>
<g>
	<defs>
		<circle id="SVGID_7_" cx="20.7" cy="20.7" r="20.7"/>
	</defs>
	<clipPath id="SVGID_8_">
		<use xlink:href="#SVGID_7_"  style="overflow:visible;"/>
	</clipPath>
	<path class="st4" d="M5.9,0.9c0-2.5,2-4.5,4.5-4.5l0,0c2.5,0,4.5,2,4.5,4.5l0,0c0,2.5-2,4.5-4.5,4.5l0,0V5.1V4.9
		c2.2,0,4.1-1.6,4.1-4.1l0,0c0-2.2-1.8-4.1-4.1-4.1l0,0c-2.2,0-4.1,1.8-4.1,4.1l0,0c0,2.2,1.8,4.1,4.1,4.1l0,0v0.2v0.2
		C8,5.3,5.9,3.3,5.9,0.9L5.9,0.9z"/>
</g>
<g>
	<defs>
		<circle id="SVGID_9_" cx="20.7" cy="20.7" r="20.7"/>
	</defs>
	<clipPath id="SVGID_10_">
		<use xlink:href="#SVGID_9_"  style="overflow:visible;"/>
	</clipPath>
	<path class="st5" d="M-4.3,0.9c0-2.5,2-4.5,4.5-4.5l0,0c2.5,0,4.5,2,4.5,4.5l0,0c0,2.5-2,4.5-4.5,4.5l0,0V5.1V4.9
		c2.2,0,4.1-1.8,4.1-4.1l0,0c0-2.2-1.8-4.1-4.1-4.1l0,0c-2.2,0-4.1,1.8-4.1,4.1l0,0c0,2.2,1.8,4.1,4.1,4.1l0,0v0.2v0.2
		C-2.3,5.3-4.3,3.3-4.3,0.9L-4.3,0.9z"/>
</g>
<g>
	<defs>
		<circle id="SVGID_11_" cx="20.7" cy="20.7" r="20.7"/>
	</defs>
	<clipPath id="SVGID_12_">
		<use xlink:href="#SVGID_11_"  style="overflow:visible;"/>
	</clipPath>
	<path class="st6" d="M36.1,10.8c0-2.8,2.3-5.1,5.1-5.1l0,0c2.8,0,5.1,2.3,5.1,5.1l0,0c0,2.8-2.3,5.1-5.1,5.1l0,0V15v-0.9
		c1.9,0,3.4-1.5,3.4-3.4l0,0c0-1.9-1.5-3.4-3.4-3.4l0,0c-1.9,0-3.4,1.5-3.4,3.4l0,0c0,1.9,1.5,3.4,3.4,3.4l0,0V15v0.9
		C38.4,15.9,36.1,13.6,36.1,10.8L36.1,10.8z"/>
</g>
<g>
	<defs>
		<circle id="SVGID_13_" cx="20.7" cy="20.7" r="20.7"/>
	</defs>
	<clipPath id="SVGID_14_">
		<use xlink:href="#SVGID_13_"  style="overflow:visible;"/>
	</clipPath>
	<path class="st7" d="M26.3,10.8c0-2.4,2.1-4.7,4.7-4.7l0,0c2.6,0,4.7,2.1,4.7,4.7l0,0c0,2.6-2.1,4.7-4.7,4.7l0,0v-0.4v-0.4
		c2.1,0,3.8-1.7,3.9-3.8l0,0c0-2.1-1.7-3.8-3.9-3.9l0,0c-2.1,0-3.8,1.7-3.8,3.9l0,0c0,2.1,1.7,3.8,3.8,3.8l0,0v0.4v0.4
		C28.4,15.5,26.3,13.4,26.3,10.8L26.3,10.8z"/>
</g>
<g>
	<defs>
		<circle id="SVGID_15_" cx="20.7" cy="20.7" r="20.7"/>
	</defs>
	<clipPath id="SVGID_16_">
		<use xlink:href="#SVGID_15_"  style="overflow:visible;"/>
	</clipPath>
	<path class="st8" d="M14.9,10.9c0-3.2,2.6-5.8,5.8-5.8l0,0c3.2,0,5.8,2.6,5.8,5.8l0,0c0,3.2-2.6,5.8-5.8,5.8l0,0v-1.5v-1.5
		c1.5,0,2.8-1.2,2.8-2.8l0,0c0-1.5-1.2-2.8-2.8-2.8l0,0c-1.5,0-2.8,1.2-2.8,2.8l0,0c0,1.5,1.2,2.8,2.8,2.8l0,0v1.5v1.5
		C17.5,16.7,14.9,14.1,14.9,10.9L14.9,10.9z"/>
</g>
<g>
	<defs>
		<circle id="SVGID_17_" cx="20.7" cy="20.7" r="20.7"/>
	</defs>
	<clipPath id="SVGID_18_">
		<use xlink:href="#SVGID_17_"  style="overflow:visible;"/>
	</clipPath>
	<path class="st9" d="M5.7,10.8c0-2.6,2.1-4.7,4.7-4.7l0,0c2.6,0,4.7,2.1,4.7,4.7l0,0c0,2.6-2.1,4.7-4.7,4.7l0,0v-0.4v-0.4
		c2.1,0,3.8-1.7,3.8-3.8l0,0c0-1.9-1.7-3.8-3.8-3.9l0,0c-2.1,0-3.8,1.7-3.9,3.9l0,0c0,2.1,1.7,3.8,3.9,3.8l0,0v0.4v0.4
		C7.8,15.5,5.7,13.4,5.7,10.8L5.7,10.8z"/>
</g>
<g>
	<defs>
		<circle id="SVGID_19_" cx="20.7" cy="20.7" r="20.7"/>
	</defs>
	<clipPath id="SVGID_20_">
		<use xlink:href="#SVGID_19_"  style="overflow:visible;"/>
	</clipPath>
	<path class="st10" d="M-4.3,10.8c0-2.5,2-4.5,4.5-4.5l0,0c2.5,0,4.5,2,4.5,4.5l0,0c0,2.5-2,4.5-4.5,4.5l0,0v-0.2v-0.2
		c2.2,0,4.1-1.8,4.1-4.1l0,0c0-2.2-1.8-4.1-4.1-4.1l0,0c-2.2,0-4.1,1.8-4.1,4.1l0,0c0,2.2,1.8,4.1,4.1,4.1l0,0v0.2v0.2
		C-2.3,15.3-4.3,13.3-4.3,10.8L-4.3,10.8z"/>
</g>
<g>
	<defs>
		<circle id="SVGID_21_" cx="20.7" cy="20.7" r="20.7"/>
	</defs>
	<clipPath id="SVGID_22_">
		<use xlink:href="#SVGID_21_"  style="overflow:visible;"/>
	</clipPath>
	<path class="st11" d="M36.5,20.7c0-2.6,2.1-4.7,4.7-4.7l0,0c2.6,0,4.7,2.1,4.7,4.7l0,0c0,2.6-2.1,4.7-4.7,4.7l0,0V25v-0.4
		c2.1,0,3.9-1.7,3.9-3.8l0,0c0-2.1-1.7-3.8-3.9-3.9l0,0c-2.1,0-3.8,1.7-3.8,3.9l0,0c0,2.1,1.7,3.8,3.8,3.8l0,0V25v0.4
		C38.6,25.4,36.5,23.3,36.5,20.7L36.5,20.7z"/>
</g>
<g>
	<defs>
		<circle id="SVGID_23_" cx="20.7" cy="20.7" r="20.7"/>
	</defs>
	<clipPath id="SVGID_24_">
		<use xlink:href="#SVGID_23_"  style="overflow:visible;"/>
	</clipPath>
	<path class="st12" d="M26.5,20.7c0-2.5,2-4.5,4.5-4.5l0,0c2.5,0,4.5,2,4.5,4.5l0,0c0,2.5-2,4.5-4.5,4.5l0,0V25v-0.2
		c2.2,0,4.1-1.8,4.1-4.1l0,0c0-2.2-1.8-4.1-4.1-4.1l0,0c-2.2,0-4.1,1.8-4.1,4.1l0,0c0,2.2,1.8,4.1,4.1,4.1l0,0V25v0.2
		C28.5,25.2,26.5,23.2,26.5,20.7L26.5,20.7z"/>
</g>
<g>
	<defs>
		<circle id="SVGID_25_" cx="20.7" cy="20.7" r="20.7"/>
	</defs>
	<clipPath id="SVGID_26_">
		<use xlink:href="#SVGID_25_"  style="overflow:visible;"/>
	</clipPath>
	<path class="st13" d="M15.8,20.7c0-2.5,2.2-4.9,4.9-4.9l0,0c2.7,0,4.9,2.2,4.9,4.9l0,0c0,2.7-2.2,4.9-4.9,4.9l0,0V25v-0.6
		c2,0,3.7-1.6,3.7-3.7l0,0c0-2-1.6-3.7-3.7-3.7l0,0c-2,0-3.7,1.7-3.7,3.7l0,0c0,2,1.6,3.7,3.7,3.7l0,0V25v0.6
		C18,25.6,15.8,23.4,15.8,20.7L15.8,20.7z"/>
</g>
<g>
	<defs>
		<circle id="SVGID_27_" cx="20.7" cy="20.7" r="20.7"/>
	</defs>
	<clipPath id="SVGID_28_">
		<use xlink:href="#SVGID_27_"  style="overflow:visible;"/>
	</clipPath>
	<path class="st14" d="M5.3,20.8c0-2.8,2.3-5.1,5.1-5.1l0,0c2.8,0,5.1,2.3,5.1,5.1l0,0c0,2.8-2.3,5.1-5.1,5.1l0,0v-0.8v-0.9
		c1.9,0,3.4-1.5,3.4-3.4l0,0c0-1.9-1.5-3.4-3.4-3.4l0,0c-1.9,0-3.4,1.5-3.4,3.4l0,0c0,1.9,1.5,3.4,3.4,3.4l0,0v0.9V26
		C7.6,25.9,5.3,23.6,5.3,20.8L5.3,20.8z"/>
</g>
<g>
	<defs>
		<circle id="SVGID_29_" cx="20.7" cy="20.7" r="20.7"/>
	</defs>
	<clipPath id="SVGID_30_">
		<use xlink:href="#SVGID_29_"  style="overflow:visible;"/>
	</clipPath>
	<path class="st15" d="M-4.5,20.7c0-2.6,2.1-4.7,4.7-4.7l0,0c2.6,0,4.7,2.1,4.7,4.7l0,0c0,2.6-2.1,4.7-4.7,4.7l0,0V25v-0.4
		c2.1,0,3.8-1.7,3.8-3.8l0,0c0-2.1-1.7-3.8-3.8-3.9l0,0c-2.1,0-3.8,1.7-3.9,3.9l0,0c0,2.1,1.7,3.8,3.9,3.8l0,0V25v0.4
		C-2.4,25.4-4.5,23.3-4.5,20.7L-4.5,20.7z"/>
</g>
<g>
	<defs>
		<circle id="SVGID_31_" cx="20.7" cy="20.7" r="20.7"/>
	</defs>
	<clipPath id="SVGID_32_">
		<use xlink:href="#SVGID_31_"  style="overflow:visible;"/>
	</clipPath>
	<path class="st16" d="M36.4,30.6c0-2.7,2.2-4.9,4.9-4.9l0,0c2.7,0,4.9,2.2,4.9,4.9l0,0c0,2.7-2.2,4.9-4.9,4.9l0,0v-0.6v-0.6
		c2,0,3.7-1.6,3.7-3.7l0,0c0-2-1.6-3.7-3.7-3.7l0,0c-2,0-3.7,1.6-3.7,3.7l0,0c0,2,1.6,3.7,3.7,3.7l0,0v0.6v0.6
		C38.5,35.5,36.4,33.3,36.4,30.6L36.4,30.6z"/>
</g>
<g>
	<defs>
		<circle id="SVGID_33_" cx="20.7" cy="20.7" r="20.7"/>
	</defs>
	<clipPath id="SVGID_34_">
		<use xlink:href="#SVGID_33_"  style="overflow:visible;"/>
	</clipPath>
	<path class="st17" d="M25.8,30.6c0-2.8,2.3-5.1,5.1-5.1l0,0c2.8,0,5.1,2.3,5.1,5.1l0,0c0,2.8-2.3,5.1-5.1,5.1l0,0v-0.9v-0.9
		c1.9,0,3.4-1.5,3.4-3.4l0,0c0-1.9-1.5-3.4-3.4-3.4l0,0c-1.9,0-3.4,1.5-3.4,3.4l0,0c0,1.9,1.5,3.4,3.4,3.4l0,0v0.9v0.9
		C28.1,35.8,25.8,33.5,25.8,30.6L25.8,30.6z"/>
</g>
<g>
	<defs>
		<circle id="SVGID_35_" cx="20.7" cy="20.7" r="20.7"/>
	</defs>
	<clipPath id="SVGID_36_">
		<use xlink:href="#SVGID_35_"  style="overflow:visible;"/>
	</clipPath>
	<path class="st18" d="M16.2,30.6c0-2.5,2-4.5,4.5-4.5l0,0c2.5,0,4.5,2,4.5,4.5l0,0c0,2.5-2,4.5-4.5,4.5l0,0v-0.2v-0.2
		c2.2,0,4.1-1.8,4.1-4.1l0,0c0-2.2-1.8-4.1-4.1-4.1l0,0c-2.2,0-4.1,1.8-4.1,4.1l0,0c0,2.2,1.8,4.1,4.1,4.1l0,0v0.2v0.2
		C18.2,35.1,16.2,33.1,16.2,30.6L16.2,30.6z"/>
</g>
<g>
	<defs>
		<circle id="SVGID_37_" cx="20.7" cy="20.7" r="20.7"/>
	</defs>
	<clipPath id="SVGID_38_">
		<use xlink:href="#SVGID_37_"  style="overflow:visible;"/>
	</clipPath>
	<path class="st19" d="M4.7,30.7c0-3.2,2.6-5.8,5.8-5.8l0,0c3.2,0,5.8,2.6,5.8,5.8l0,0c0,3.2-2.6,5.8-5.8,5.8l0,0V35v-1.5
		c1.5,0,2.8-1.2,2.8-2.8l0,0c0-1.5-1.2-2.8-2.8-2.8l0,0c-1.5,0-2.8,1.2-2.8,2.8l0,0c0,1.5,1.2,2.8,2.8,2.8l0,0V35v1.5
		C7.3,36.5,4.7,33.9,4.7,30.7L4.7,30.7z"/>
</g>
<g>
	<defs>
		<circle id="SVGID_39_" cx="20.7" cy="20.7" r="20.7"/>
	</defs>
	<clipPath id="SVGID_40_">
		<use xlink:href="#SVGID_39_"  style="overflow:visible;"/>
	</clipPath>
	<path class="st20" d="M-4.5,30.6c0-2.6,2.1-4.7,4.7-4.7l0,0c2.6,0,4.7,2.1,4.7,4.7l0,0c0,2.6-2.1,4.7-4.7,4.7l0,0v-0.4v-0.4
		c2.1,0,3.8-1.7,3.8-3.9l0,0c0-2.1-1.7-3.8-3.8-3.9l0,0c-2.1,0-3.8,1.7-3.9,3.9l0,0c0,2.1,1.7,3.8,3.9,3.9l0,0v0.4v0.4
		C-2.4,35.3-4.5,33.2-4.5,30.6L-4.5,30.6z"/>
</g>
<g>
	<defs>
		<circle id="SVGID_41_" cx="20.7" cy="20.7" r="20.7"/>
	</defs>
	<clipPath id="SVGID_42_">
		<use xlink:href="#SVGID_41_"  style="overflow:visible;"/>
	</clipPath>
	<path class="st21" d="M36.8,40.6c0-2.5,2-4.5,4.5-4.5l0,0c2.5,0,4.5,2,4.5,4.5l0,0c0,2.5-2,4.5-4.5,4.5l0,0v-0.2v-0.2
		c2.2,0,4.1-1.8,4.1-4.1l0,0c0-2.2-1.8-4.1-4.1-4.1l0,0c-2.2,0-4.1,1.8-4.1,4.1l0,0c0,2.2,1.8,4.1,4.1,4.1l0,0v0.2V45
		C38.8,45,36.8,43,36.8,40.6L36.8,40.6z"/>
</g>
<g>
	<defs>
		<circle id="SVGID_43_" cx="20.7" cy="20.7" r="20.7"/>
	</defs>
	<clipPath id="SVGID_44_">
		<use xlink:href="#SVGID_43_"  style="overflow:visible;"/>
	</clipPath>
	<path class="st22" d="M25.2,40.6c0-3.2,2.6-5.8,5.8-5.8l0,0c3.2,0,5.8,2.6,5.8,5.8l0,0c0,3.2-2.6,5.8-5.8,5.8l0,0v-1.5v-1.5
		c1.5,0,2.8-1.2,2.8-2.8l0,0c0-1.5-1.2-2.8-2.8-2.8l0,0c-1.5,0-2.8,1.2-2.8,2.8l0,0c0,1.5,1.2,2.8,2.8,2.8l0,0v1.5v1.5
		C27.8,46.3,25.2,43.7,25.2,40.6L25.2,40.6z"/>
</g>
<g>
	<defs>
		<circle id="SVGID_45_" cx="20.7" cy="20.7" r="20.7"/>
	</defs>
	<clipPath id="SVGID_46_">
		<use xlink:href="#SVGID_45_"  style="overflow:visible;"/>
	</clipPath>
	<path class="st23" d="M16,40.6c0-2.6,2.1-4.7,4.7-4.7l0,0c2.6,0,4.7,2.1,4.7,4.7l0,0c0,2.6-2.1,4.7-4.7,4.7l0,0v-0.4v-0.4
		c2.1,0,3.8-1.7,3.8-3.8l0,0c0-2.1-1.7-3.8-3.8-3.9l0,0c-2.1,0-3.8,1.7-3.9,3.9l0,0c0,2.1,1.7,3.8,3.9,3.8l0,0v0.4v0.4
		C18.1,45.3,16,43.2,16,40.6L16,40.6z"/>
</g>
<g>
	<defs>
		<circle id="SVGID_47_" cx="20.7" cy="20.7" r="20.7"/>
	</defs>
	<clipPath id="SVGID_48_">
		<use xlink:href="#SVGID_47_"  style="overflow:visible;"/>
	</clipPath>
	<path class="st24" d="M5.6,40.6c0-2.7,2.2-4.9,4.9-4.9l0,0c2.7,0,4.9,2.2,4.9,4.9l0,0c0,2.7-2.2,4.9-4.9,4.9l0,0v-0.6v-0.6
		c2,0,3.7-1.6,3.7-3.7l0,0c0-2-1.6-3.7-3.7-3.7l0,0c-2,0-3.7,1.6-3.7,3.7l0,0c0,2,1.6,3.7,3.7,3.7l0,0v0.6v0.6
		C7.7,45.4,5.6,43.2,5.6,40.6L5.6,40.6z"/>
</g>
</svg>
