<?xml version="1.0" encoding="utf-8"?>
<!-- Generator: Adobe Illustrator 25.3.0, SVG Export Plug-In . SVG Version: 6.00 Build 0)  -->
<svg version="1.1" id="Layer_1" xmlns="http://www.w3.org/2000/svg" xmlns:xlink="http://www.w3.org/1999/xlink" x="0px" y="0px"
	 viewBox="0 0 211 62" style="enable-background:new 0 0 211 62;" xml:space="preserve">
<style type="text/css">
	.st0{fill:#FFFFFF;}
</style>
<g>
	<path class="st0" d="M5.6,2.7v56.5h56.5V2.7H5.6z M19.3,14.8h8.1l-8.1,12.5V14.8z M19.3,47.1V34.7l8.1,12.5H19.3z M52.4,21.3H37.1
		v6.5h13.7v6.5H37.1v12.9L26.7,31l10.4-16.2h15.3V21.3z"/>
	<g>
		<path class="st0" d="M80.1,18.8l4.9-6h3.5l-5,5.9l5.4,8.5h-3.7l-3.8-6l-1.4,1.6v4.3h-3.2V12.8h3.2L80.1,18.8z"/>
		<path class="st0" d="M99,27.2l-5-9.6v9.6h-2.9V12.8h3.7l4.8,9.8v-9.8h2.9v14.4H99z"/>
		<path class="st0" d="M110.3,25.2h1.5v2h-6.1v-2h1.5V14.8h-1.5v-2h6.1v2h-1.5V25.2z"/>
		<path class="st0" d="M120.4,19.9h5.2v7.6h-2l-0.3-1.7c-0.9,1.1-2.2,1.7-3.6,1.7c-3.6,0-5.7-2.5-5.7-7.1c0-5.5,2.7-7.8,6.3-7.8
			c3.2,0,5,1.9,5,5.3l-3.1,0.2c0-2.4-1-3-2.1-3c-1.5,0-2.8,1.2-2.8,5.1c0,3.5,1.2,4.8,2.9,4.8c1.3,0,2.6-0.8,2.6-2.8h-2.5
			L120.4,19.9z"/>
		<path class="st0" d="M140.2,27.2H137v-5.8h-4.9v5.9h-3.2V12.8h3.2v6h4.9v-6h3.2V27.2z"/>
		<path class="st0" d="M146.4,15.4h-3.8v-2.6h10.8v2.6h-3.8v11.8h-3.2V15.4z"/>
		<path class="st0" d="M84.7,45.1h-4.6v5.7h-3.2V36.4h8.5v2.6h-5.3v3.6h4.6V45.1z"/>
		<path class="st0" d="M93.8,36.1c-3.9,0-6.4,2.7-6.4,7.5c0,4.7,2,7.4,6.1,7.4s6.2-2.8,6.2-7.6C99.8,38.8,97.8,36.1,93.8,36.1z
			 M93.6,48.5c-2,0-2.8-1.6-2.8-5c0-3.4,1.2-4.9,3-4.9c1.8,0,2.7,1.5,2.7,4.8C96.4,47,95.5,48.5,93.6,48.5z"/>
		<path class="st0" d="M110.4,36.4h3.1v9.3c0,3.4-1.8,5.4-5.8,5.4c-4.1,0-5.6-2.1-5.6-5.5v-9.1h3.1v8.3c0,2.5,0.5,3.8,2.6,3.8
			s2.5-1.2,2.5-3.8V36.4z"/>
		<path class="st0" d="M124.9,50.8l-5-9.7v9.6H117V36.4h3.7l4.8,9.8v-9.8h2.9v14.4H124.9z"/>
		<path class="st0" d="M135.5,36.4h-3.5v14.4h3.5c5.5,0,7.6-2.5,7.6-7.5C143,38.8,140.9,36.4,135.5,36.4z M135.9,48.2h-0.8v-9.3h0.8
			c2.7,0,3.9,1.1,3.9,4.5C139.8,47,138.4,48.2,135.9,48.2z"/>
		<path class="st0" d="M152.7,36.4h-4L144,50.8h3.2l1.1-3.3h5l1.1,3.3h3.2L152.7,36.4z M148.9,45l1.8-5.7h0l1.8,5.7H148.9z"/>
		<path class="st0" d="M161.4,38.9h-3.8v-2.6h10.8v2.6h-3.8v11.8h-3.2V38.9z"/>
		<path class="st0" d="M175.5,48.7h1.5v2h-6.1v-2h1.5V38.4h-1.5v-2h6.1v2h-1.4V48.7z"/>
		<path class="st0" d="M185.5,36.1c-3.9,0-6.4,2.7-6.4,7.5c0,4.7,2,7.4,6.1,7.4s6.2-2.8,6.2-7.6C191.5,38.8,189.5,36.1,185.5,36.1z
			 M185.3,48.5c-2,0-2.8-1.6-2.8-5c0-3.4,1.2-4.9,2.9-4.9c1.8,0,2.7,1.5,2.7,4.8C188.1,47,187.2,48.5,185.3,48.5z"/>
		<path class="st0" d="M201.8,50.8l-5-9.7v9.6h-2.9V36.4h3.7l4.8,9.8v-9.8h2.9v14.4H201.8z"/>
	</g>
</g>
</svg>
