<?xml version="1.0" encoding="utf-8"?>
<!-- Generator: Adobe Illustrator 25.3.0, SVG Export Plug-In . SVG Version: 6.00 Build 0)  -->
<svg version="1.1" id="Layer_1" xmlns:ev="http://www.w3.org/2001/xml-events"
	 xmlns="http://www.w3.org/2000/svg" xmlns:xlink="http://www.w3.org/1999/xlink" x="0px" y="0px" viewBox="0 0 141 69"
	 style="enable-background:new 0 0 141 69;" xml:space="preserve">
<style type="text/css">
	.st0{fill:#FFFFFF;}
</style>
<g id="content" transform="scale(1,-1)">
	<g>
		<path class="st0" d="M34.5-31.1L34.5-31.1L34.5-31.1L34.5-31.1L34.5-31.1L34.5-31.1L34.5-31.1L34.5-31.1L34.5-31.1l-0.1,0l0,0h0h0
			l0,0h0h0h0c-0.3,0-0.6,0-0.8,0.3c-0.2,0.2-0.2,1-0.2,1.4c0,0.1,0,0.1,0,0.2v9.8c0,0.2,0,0.4,0,0.7c0,0.4,0,0.8,0.2,0.9
			c0.1,0.1,0.3,0.2,0.6,0.2c0.1,0,0.3,0,0.4,0c0.2,0,0.7,0.1,0.7,0.5c0,0.1-0.1,0.3-0.2,0.3c-0.1,0.1-0.2,0.1-0.3,0.1
			c-0.1,0-0.3,0-0.3,0h-2.6c-0.2,0-0.6,0-0.7-0.4l-4.8-11l-4.2,10.6c-0.1,0.3-0.2,0.8-0.7,0.8h-2.8c-0.1,0-0.2,0-0.3,0
			c-0.1,0-0.2,0-0.3-0.1c-0.1-0.1-0.2-0.2-0.2-0.3c0-0.4,0.4-0.5,0.7-0.5c0.5,0,0.8,0,1-0.1c0.1-0.1,0.2-0.2,0.2-0.6
			c0-0.1,0-0.3,0-0.5l-0.7-10.5c-0.1-1.2-0.1-1.7-1.4-1.7c-0.2,0-0.7,0-0.7-0.4c0-0.1,0.1-0.3,0.2-0.3c0.1-0.1,0.2-0.1,0.3-0.1
			c0.7,0,1.4,0.1,2.1,0.1c0.7,0,1.4-0.1,2.1-0.1c0.1,0,0.2,0,0.4,0c0.1,0,0.3,0.2,0.3,0.4c0,0.4-0.5,0.4-0.8,0.4c0,0-0.1,0-0.1,0
			c-1.3,0-1.5,0.7-1.5,1.7c0,0.3,0,0.5,0,0.8l0.7,9.7l4.6-12c0-0.1,0.1-0.5,0.5-0.5c0.3,0,0.4,0.4,0.5,0.5l5.2,12.3v-10.6
			c0-0.1,0-0.2,0-0.3c0-0.5,0-1.1-0.3-1.3c-0.2-0.2-0.7-0.3-1.1-0.3c0,0-0.1,0-0.2,0c-0.2,0-0.7,0-0.7-0.4c0-0.4,0.4-0.4,0.6-0.4
			c0.9,0,1.9,0.1,2.8,0.1c0.8,0,1.5-0.1,2.3-0.1c0.2,0,0.6,0,0.6,0.4C35.1-31.1,34.7-31.1,34.5-31.1z"/>
		<path class="st0" d="M40.3-27.4l2.2,1.1c0.1,0,0.2,0.1,0.2,0.1c0,0,0,0,0,0s0,0,0-0.1c0-0.1,0-0.2,0-0.2c0-0.1,0-0.2,0-0.3v-1.4
			c0-0.8,0-1.1-0.6-1.7c-0.6-0.6-1.3-0.9-2.1-0.9c-0.8,0-1.5,0.4-1.5,1.3C38.5-28.5,39.4-27.9,40.3-27.4z M46.4-30.1L46.4-30.1
			L46.4-30.1L46.4-30.1L46.4-30.1L46.4-30.1l-0.1,0l0,0l0,0l0,0l0,0l0,0l0,0l0,0l0,0l0,0l0,0l0,0l0,0l0,0l0,0l0,0l0,0l0,0l0,0l0,0
			c-0.2-0.1-0.3-0.3-0.6-0.3c-0.3,0-0.5,0.2-0.6,0.6c-0.1,0.4-0.1,0.8-0.1,1.1c0,0,0,0.1,0,0.1l0,5.6c0,0.2,0,0.3,0,0.5
			c0,0.5-0.1,1-0.5,1.4c-0.6,0.5-1.5,0.6-2.2,0.6c-1.6,0-3.2-0.7-4.3-1.7c-0.5-0.4-1-1.1-1-1.8c0-0.1,0-0.2,0.1-0.3
			c0.1-0.1,0.2-0.1,0.3-0.1c0.3,0,0.8,0.2,1.1,0.3c0.4,0.2,0.6,0.6,0.7,0.9c0.6,1.2,1.2,1.9,2.6,1.9c1.4,0,1.4-0.8,1.4-2v-1
			c0-0.9,0-0.8-0.8-1.2l0,0l-1.8-0.9c-1.3-0.6-3.6-1.6-3.6-3.4c0-1.3,1.2-2,2.4-2c1.1,0,2,0.5,2.7,0.9c0.3,0.2,0.6,0.5,0.8,0.6
			c0.1,0.1,0.2,0.2,0.2,0.2c0,0,0.1,0,0.1,0.1v0c0,0,0,0,0,0c0.2-0.2,0.5-1.6,1.6-1.6c0.7,0,1.3,0.4,1.8,0.7
			c0.2,0.2,0.6,0.5,0.6,0.8C46.7-30.3,46.6-30.2,46.4-30.1z"/>
		<path class="st0" d="M56.9-29.7L56.9-29.7L56.9-29.7L56.9-29.7L56.9-29.7l-0.1,0l0,0l0,0l0,0l0,0l0,0l0,0l0,0l0,0l0,0l0,0l0,0l0,0
			l0,0l0,0l0,0l0,0l0,0l0,0l0,0l0,0l0,0l0,0l0,0l0,0l0,0l0,0l0,0c-0.7-0.7-1.7-1-2.7-1c-2.6,0-4.3,2.4-4.3,4.8
			c0,1.4,0.6,2.8,1.7,3.8c0.6,0.5,1.5,0.9,2.3,0.9c0.9,0,1.5-0.6,1.9-1.3c0.5-0.6,0.7-1.3,1.2-1.4c0.4,0,0.4,0.5,0.4,0.8
			c0,0.2,0,0.4,0,0.5c0,0.1,0,0.3,0,0.5c0,0.2,0,0.5-0.3,0.7c-0.8,0.5-2.1,0.8-3,0.8c-3.2,0-6.3-2.6-6.3-5.9c0-2.9,2.5-5.4,5.4-5.4
			c1.3,0,2.5,0.4,3.5,1.2c0.2,0.2,0.7,0.6,0.8,0.9C57.2-29.9,57.1-29.7,56.9-29.7z"/>
		<path class="st0" d="M64.3-20.3L64.3-20.3L64.3-20.3L64.3-20.3L64.3-20.3L64.3-20.3L64.3-20.3l0.1-0.1l0,0l0,0l0,0l0,0l0,0l0,0
			l0-0.1l0-0.1l0,0l0,0l0,0l0,0l0,0l0,0l0,0l0,0l0,0l0,0l0,0l0,0l0,0l0,0l0,0l1.6-4c0-0.1,0.2-0.4,0.2-0.5c0,0,0,0-0.1-0.1
			c-0.1,0-0.2,0-0.3,0c-0.1,0-0.2,0-0.3,0H63c-0.1,0-0.2,0-0.4,0c-0.1,0-0.2,0-0.3,0c0,0-0.1,0-0.1,0c0,0,0,0.2,0.1,0.2l0,0l1.6,4.3
			c0,0.1,0.1,0.2,0.1,0.4C64.2-20.4,64.2-20.3,64.3-20.3C64.3-20.3,64.3-20.3,64.3-20.3z M72.1-31.1L72.1-31.1l-0.2,0l-0.1,0l-0.1,0
			l-0.1,0l-0.1,0l-0.1,0l-0.1,0l-0.1,0.1l-0.1,0.1l-0.1,0.1l-0.1,0.1l-0.1,0.1L71-30.5l-0.1,0.1l-0.1,0.1l-0.1,0.1l0,0.1l0,0.1
			l0,0.1l0,0.1l0,0.1l-0.1,0.2l-0.1,0.2l-0.1,0.2l-0.1,0.2l-0.1,0.2l-4.8,12c-0.1,0.1-0.1,0.5-0.4,0.5c-0.4,0-0.4-0.4-0.5-0.6
			l-4.6-11.9c-0.2-0.4-0.6-1.6-0.9-1.8c-0.3-0.3-0.7-0.3-1.1-0.3c-0.2,0-0.7,0-0.8-0.4c0-0.3,0.3-0.4,0.6-0.4c0.2,0,0.3,0,0.4,0
			c0.7,0,1.3,0.1,2,0.1c0.7,0,1.3-0.1,2-0.1c0.1,0,0.3,0,0.4,0c0.1,0,0.3,0.2,0.3,0.4c0,0.4-0.4,0.4-0.6,0.4c0,0-0.1,0-0.1,0
			c-0.3,0-0.7,0-1,0.1c-0.3,0.1-0.5,0.3-0.5,0.6c0,0.4,0.2,0.9,0.3,1.3l0.7,1.8c0.4,0.9,0.1,0.8,1.1,0.9h3.2c0.6,0,0.8,0,0.9-0.1
			c0.1-0.1,0.2-0.4,0.5-1l0.8-1.8c0.1-0.3,0.3-0.8,0.3-1.1c0-0.3-0.2-0.4-0.4-0.5c-0.3-0.1-0.7-0.1-1-0.1c-0.2,0-0.8,0-0.8-0.5
			c0-0.3,0.4-0.4,0.5-0.4c0.9,0,1.8,0.1,2.6,0.1c1,0,2.1-0.1,3.1-0.1c0.1,0,0.4,0,0.5,0.4C72.8-31.1,72.3-31.1,72.1-31.1z"/>
		<path class="st0" d="M80.3-21L80.3-21l-0.2,0l-0.1,0L80-21l-0.1,0l-0.1,0l-0.1,0l-0.1,0l-0.1,0l-0.1,0l-0.1,0l-0.1,0l-0.1,0
			l-0.1,0l-0.1,0l-0.1,0l-0.1,0l-0.1,0l-0.1,0l-0.1,0l-0.1-0.1l-0.1-0.1l-0.1-0.1l-0.1-0.1l-0.1-0.1L78.3-22
			c-0.2-0.2-0.4-0.5-0.6-0.7c-0.1-0.1-0.1-0.2-0.2-0.2c0,0,0,0,0,0c0,0,0,0.1,0,0.2c0,0.1,0,0.1,0,0.2v1.2c0,0,0,0.1,0,0.1
			c0,0.1,0,0.2,0,0.3s-0.2,0.2-0.3,0.2c-0.3,0-0.4-0.2-0.5-0.3c-0.4-0.4-1.4-1.1-1.9-1.2c-0.2-0.1-0.6-0.1-0.6-0.5
			c0-0.2,0.2-0.3,0.4-0.3h0.3c0.2,0,0.5,0,0.6-0.1c0.2-0.1,0.2-0.9,0.2-1.3c0-0.1,0-0.1,0-0.2v-4.5c0-0.3,0-0.5,0-0.7
			c0-0.7-0.1-1-1-1.1c-0.1,0-0.3,0-0.5,0c-0.2,0-0.3-0.2-0.3-0.4c0-0.3,0.3-0.4,0.4-0.4c0.8,0,1.5,0.1,2.3,0.1
			c0.7,0,1.5-0.1,2.2-0.1c0.1,0,0.2,0,0.3,0.1c0.1,0.1,0.1,0.2,0.1,0.3c0,0.5-0.6,0.4-0.8,0.4c-0.9,0.1-1,0.5-1,1.1
			c0,0.2,0,0.5,0,0.7v3.8c0,0.1,0,0.1,0,0.2c0,0.8,0,1.4,0.5,2.1c0.3,0.4,0.7,0.8,1.1,0.8c0.5,0,0.6-0.9,1.5-0.9
			c0.6,0,1.1,0.4,1.1,1.1C81.8-21.5,81.1-21,80.3-21z"/>
		<path class="st0" d="M88.8-30.2L88.8-30.2L88.8-30.2L88.8-30.2L88.8-30.2L88.8-30.2l-0.1,0l0,0l0,0l0,0l0,0l0,0l0,0l0,0l0,0l0,0
			l0,0l0,0l0,0l0,0l0,0l0,0l0,0l0,0l0,0l0,0l0,0l0,0l0,0l0,0l0,0C87.8-30.8,87.4-31,87-31c-0.6,0-0.9,0.4-1.1,0.9
			c-0.2,0.5-0.2,1.2-0.2,1.7c0,0,0,0.1,0,0.1v6c0,0.4,0.1,0.4,0.3,0.4c0.1,0,0.3,0,0.4,0h1.3c0.2,0,0.3,0,0.4,0c0.1,0,0.2,0,0.3,0.1
			c0.1,0.1,0.1,0.2,0.1,0.4c0,0.1,0,0.2,0,0.3c0,0.1-0.2,0.2-0.3,0.2H86c-0.3,0-0.2,0.1-0.3,0.4v1.7c0,0.1,0,0.4-0.3,0.4
			c-0.2,0-0.3-0.2-0.3-0.3c-0.5-1.1-1.2-1.7-2.2-2.4c-0.1-0.1-0.3-0.2-0.3-0.5c0-0.3,0.3-0.3,0.5-0.3c0.1,0,0.3,0,0.3,0
			c0.1,0,0.2,0,0.3,0c0.2,0,0.2,0.1,0.2-0.3v-6.1c0-0.2,0-0.5,0-0.7c0-0.8,0.1-1.7,0.6-2.3c0.4-0.5,1.1-0.8,1.8-0.8
			c0.9,0,1.7,0.4,2.3,0.9c0.2,0.1,0.5,0.4,0.5,0.8C89-30.3,88.9-30.2,88.8-30.2z"/>
		<path class="st0" d="M101.8-31.1L101.8-31.1L101.8-31.1l-0.1,0l0,0l0,0l0,0l0,0l0,0l0,0l0,0l0,0l0,0l-0.1,0l-0.1,0l0,0l0,0l-0.1,0
			l0,0l0,0l0,0l0,0l0,0l0,0l0,0l0,0l0,0l0,0l0,0l0,0l0,0l0,0l0,0v0.1l0,0.1v0.1v0.1v0.1l0,0.1c0,0.2,0,0.5,0,0.7v3.8
			c0,0.1,0,0.1,0,0.2c0,1.1,0,2.3-0.7,3.3c-0.6,0.9-1.8,1.2-2.8,1.2c-1.6,0-2.5-0.5-3.6-1.5c0,0-0.2-0.1-0.2-0.1c0,0-0.1,0-0.1,0.1
			v7c0,0,0,0.1,0,0.1c0,0.1,0,0.2,0,0.3c0,0.1-0.2,0.1-0.3,0.1c-0.2,0-0.4-0.2-0.6-0.3c-0.5-0.4-1.4-0.6-2.1-0.7
			C90.3-16,90-16,90-16.3c0-0.3,0.3-0.4,0.5-0.4c0.1,0,0.2,0,0.2,0c0.8,0,0.8-0.4,0.8-1.1c0-0.2,0-0.5,0-0.7v-10.8
			c0-0.3,0-0.5,0-0.7c0-0.7-0.1-1-1-1.1c-0.1,0-0.3,0-0.5,0c-0.2,0-0.3-0.2-0.3-0.4c0-0.3,0.3-0.4,0.4-0.4c0.7,0,1.5,0.1,2.3,0.1
			c0.7,0,1.5-0.1,2.2-0.1c0.1,0,0.2,0,0.3,0.1c0.1,0.1,0.1,0.2,0.1,0.3c0,0.5-0.6,0.4-0.8,0.4c-0.9,0.1-1,0.5-1,1.1
			c0,0.2,0,0.5,0,0.7v4.3c0,1,0,1.4,0.7,2.1c0.6,0.6,1.4,1,2.3,1c1,0,1.7-0.4,2.2-1c0.4-0.6,0.4-1.5,0.4-2.3l0-4.1
			c0-0.3,0-0.5,0-0.7c0-0.7-0.1-1-1-1.1c-0.1,0-0.3,0-0.4,0c-0.2,0-0.3-0.2-0.3-0.4c0-0.3,0.3-0.4,0.4-0.4c0.8,0,1.5,0.1,2.3,0.1
			c0.7,0,1.5-0.1,2.2-0.1c0.1,0,0.2,0,0.3,0.1c0.1,0.1,0.1,0.2,0.1,0.3C102.5-31.1,102-31.2,101.8-31.1z"/>
		<path class="st0" d="M114.5-30.3l-0.3,0c-0.1,0-0.1,0-0.2,0c-0.6,0-0.6,0.3-0.7,0.8c0,0.2,0,0.4,0,0.7v7c0,0.1,0,0.2,0,0.3
			c0,0.1,0,0.2-0.1,0.3c-0.1,0.1-0.2,0.1-0.3,0.1h-2.8c-0.1,0-0.1,0-0.2,0c-0.1,0-0.1,0-0.2-0.1c-0.1-0.1-0.1-0.1-0.1-0.2
			c0-0.5,0.6-0.4,0.8-0.4c0.9,0,0.9-0.4,1-1c0-0.2,0-0.5,0-0.8v-4.6c0-0.2,0-0.4,0-0.5c0-0.4,0-0.8-0.4-1.2c-0.6-0.7-1.5-1-2.5-1
			c-0.9,0-1.8,0.3-2.3,1c-0.4,0.6-0.4,1.8-0.4,2.6v5.1c0,0.1,0,0.2,0,0.4c0,0.1,0,0.3-0.1,0.4c-0.1,0.1-0.2,0.2-0.4,0.2h-2.7
			c-0.1,0-0.1,0-0.2,0c0,0-0.1,0-0.2-0.1c-0.1-0.1-0.1-0.1-0.1-0.2c0-0.5,0.6-0.4,0.8-0.4c0.9,0,1-0.4,1-1c0-0.2,0-0.5,0-0.8v-3.6
			c0-0.1,0-0.3,0-0.4c0-1,0-2.1,0.7-3c0.7-0.9,1.7-1.4,2.9-1.4c1.1,0,2,0.4,2.6,0.9c0.6,0.4,1,0.8,1.1,0.8c0,0,0,0,0.1-0.1
			c0-0.1,0-0.2,0-0.3c0-0.2,0-0.4,0-0.4v-0.6c0-0.1,0-0.1,0-0.2c0-0.1,0.1-0.1,0.2-0.1c0,0,0,0,0,0c0.2,0,0.3,0.1,0.3,0.2
			c0.7,0.5,1.5,0.8,2.4,1c0.1,0.1,0.5,0.1,0.6,0.4C114.9-30.3,114.6-30.3,114.5-30.3z"/>
		<path class="st0" d="M122.5-21L122.5-21l-0.2,0l-0.1,0l-0.1,0l-0.1,0l-0.1,0l-0.1,0l-0.1,0l-0.1,0l-0.1,0l-0.1,0l-0.1,0l-0.1,0
			l-0.1,0l-0.1,0l-0.1,0l-0.1,0l-0.1,0l-0.1,0l-0.1,0l-0.1-0.1l-0.1-0.1l-0.1-0.1l-0.1-0.1l-0.1-0.1l-0.1-0.1
			c-0.2-0.2-0.4-0.5-0.6-0.7c-0.1-0.1-0.1-0.2-0.2-0.2c0,0,0,0,0,0c0,0,0,0.1,0,0.2c0,0.1,0,0.1,0,0.2v1.2c0,0,0,0.1,0,0.1
			c0,0.1,0,0.2-0.1,0.3c0,0.1-0.1,0.2-0.3,0.2c-0.3,0-0.4-0.2-0.5-0.3c-0.4-0.4-1.4-1.1-1.9-1.2c-0.2-0.1-0.6-0.1-0.6-0.5
			c0-0.2,0.2-0.3,0.4-0.3h0.3c0.2,0,0.5,0,0.6-0.1c0.2-0.1,0.2-0.9,0.2-1.3c0-0.1,0-0.1,0-0.2v-4.5c0-0.3,0-0.5,0-0.7
			c0-0.7-0.1-1-1-1.1c-0.1,0-0.3,0-0.5,0c-0.2,0-0.3-0.2-0.3-0.4c0-0.3,0.3-0.4,0.5-0.4c0.8,0,1.5,0.1,2.3,0.1
			c0.7,0,1.5-0.1,2.2-0.1c0.1,0,0.2,0,0.3,0.1c0.1,0.1,0.1,0.2,0.1,0.3c0,0.5-0.6,0.4-0.8,0.4c-0.9,0.1-1,0.5-1,1.1
			c0,0.2,0,0.5,0,0.7v3.8c0,0.1,0,0.1,0,0.2c0,0.8,0,1.4,0.5,2.1c0.3,0.4,0.7,0.8,1.1,0.8c0.5,0.1,0.6-0.9,1.5-0.9
			c0.6,0,1.1,0.4,1.1,1.1C123.9-21.5,123.2-21,122.5-21z"/>
	</g>
	<g>
		<path class="st0" d="M26.6-41.1L26.6-41.1L26.6-41.1L26.6-41.1L26.6-41.1L26.6-41.1L26.6-41.1l0.1,0l0,0l0,0l0,0l0,0l0,0l0,0l0,0
			l0,0l0,0l0,0l0,0l0,0l0,0l0,0l0,0l0,0l0,0l0,0l0,0l0,0l0,0l0,0l0,0l0,0.1l0,0l0,0l0,0v0c0,0.2,0,0.3,0,0.4v1.7c0,0.1,0,0.2,0,0.3
			c0,0.1,0,0.3-0.1,0.4c-0.1,0.1-0.2,0.2-0.4,0.2c-2.6,0-5.2-0.1-7.8-0.1c-0.7,0-1.4,0.1-2.1,0.1c-0.2,0-0.5-0.1-0.5-0.4
			c0-0.4,0.5-0.4,0.7-0.4c1.4,0,1.3-0.2,1.4-1.4c0-0.1,0-0.3,0-0.4V-50c0-0.2,0-0.4,0-0.5c0-1.1,0-1.3-1.4-1.3c0,0-0.1,0-0.1,0
			c-0.2,0-0.6,0-0.6-0.4c0-0.2,0.1-0.3,0.2-0.4c0.1-0.1,0.2-0.1,0.3-0.1c0.9,0,1.7,0.1,2.6,0.1c0.9,0,1.7-0.1,2.6-0.1
			c0.1,0,0.2,0,0.3,0.1c0.1,0.1,0.2,0.2,0.2,0.4c0,0.4-0.4,0.4-0.6,0.4c0,0-0.1,0-0.1,0c-1.4,0.1-1.3,0.2-1.4,1.4c0,0.1,0,0.3,0,0.4
			v4.4c0,0.4,0.1,0.6,0.2,0.6c0.1,0.1,0.4,0.1,0.9,0.1c0.7,0,1.9,0,2.7-0.2c0.4-0.1,0.6-0.7,0.7-1.4c0-0.1,0.1-0.5,0.4-0.5
			c0.1,0,0.2,0,0.3,0.1c0.1,0.1,0.1,0.2,0.1,0.4c0,0.8-0.1,1.5-0.1,2.2c0,0.7,0.1,1.4,0.1,2c0,0.3-0.2,0.4-0.4,0.4
			c-0.3,0-0.4-0.4-0.4-0.5c-0.1-0.7-0.3-1.5-0.7-1.5c-0.6-0.1-1.4-0.1-2.1-0.1c-0.3,0-0.5,0-0.7,0c-1,0-1-0.1-1,1v3.4
			c0,0.1,0,0.1,0,0.2c0,0.3,0.1,0.7,0.2,0.8c0.3,0.1,1.5,0.2,1.9,0.2c2.1,0,3.3,0,3.9-2.2C26.1-40.7,26.2-41.1,26.6-41.1z"/>
		<path class="st0" d="M31.6-42.2l0.2,0l0.2,0l0.2,0l0.2-0.1l0.2-0.1l0.2-0.1l0.2-0.1l0.2-0.1l0.2-0.1l0.2-0.1l0.2-0.1l0.1-0.1
			l0.1-0.2l0.1-0.2l0.1-0.2l0.1-0.2l0.1-0.2l0.1-0.2l0.1-0.2l0.1-0.2l0.1-0.2l0.1-0.2l0.1-0.2l0.1-0.2l0.1-0.2l0-0.2l0-0.2l0-0.2
			l0-0.2l0-0.2l0-0.2l0-0.2h0c0-2.2-1.3-4.9-3.6-4.9c-1.2,0-2.1,0.7-2.7,1.7c-0.6,1-1,2.3-1,3.5C28-44.6,29.3-42.2,31.6-42.2z
			 M31.6-41.6l-0.3,0l-0.3,0l-0.3,0l-0.3,0l-0.1,0l-0.1,0l-0.1,0l-0.1,0l-0.1,0l-0.1,0l-0.1,0l-0.1,0L29.4-42L29.2-42l-0.1-0.1
			L29-42.2l-0.1-0.1l-0.1-0.1l-0.1-0.1l-0.1-0.1l-0.1-0.1l-0.1-0.1l-0.1-0.1l-0.1-0.1l-0.1-0.1L27.8-43l-0.1-0.1l-0.1-0.1
			c-1-1-1.5-2.5-1.5-3.9c0-3.3,2.5-5.7,5.5-5.7c3,0,5.5,2.4,5.5,5.7c0,1.6-0.6,3.1-1.7,4.1C34.3-42,33-41.6,31.6-41.6z"/>
		<path class="st0" d="M49.1-51l-0.3,0c-0.1,0-0.1,0-0.2,0C48-51,48-50.8,48-50.2c0,0.2,0,0.4,0,0.6v7c0,0.1,0,0.2,0,0.3
			c0,0.1,0,0.2-0.1,0.3c-0.1,0.1-0.2,0.1-0.3,0.1H45c-0.1,0-0.1,0-0.2,0s-0.1,0-0.2-0.1c-0.1-0.1-0.1-0.1-0.1-0.2
			c0-0.5,0.6-0.4,0.8-0.4c0.8,0,0.9-0.4,0.9-1c0-0.2,0-0.5,0-0.8v-4.6c0-0.2,0-0.4,0-0.5c0-0.4,0-0.8-0.4-1.2c-0.6-0.7-1.4-1-2.4-1
			c-0.8,0-1.8,0.3-2.2,1c-0.4,0.6-0.4,1.8-0.4,2.6v5.1c0,0.1,0,0.2,0,0.4c0,0.1,0,0.3-0.1,0.4c-0.1,0.1-0.2,0.2-0.4,0.2h-2.6
			c-0.1,0-0.1,0-0.2,0c-0.1,0-0.1,0-0.2-0.1c-0.1-0.1-0.1-0.1-0.1-0.2c0-0.5,0.5-0.4,0.7-0.5c0.9,0,0.9-0.4,0.9-1c0-0.2,0-0.5,0-0.8
			V-48c0-0.1,0-0.3,0-0.4c0-1,0-2.1,0.7-3c0.7-0.9,1.6-1.4,2.8-1.4c1.1,0,1.9,0.4,2.5,0.9c0.6,0.4,1,0.8,1,0.8c0,0,0,0,0.1-0.1
			c0-0.1,0-0.2,0-0.3c0-0.2,0-0.4,0-0.4v-0.6c0-0.1,0-0.1,0-0.2c0-0.1,0.1-0.1,0.2-0.1c0,0,0,0,0,0c0.2,0,0.3,0.1,0.3,0.2
			c0.7,0.5,1.5,0.8,2.3,1c0.1,0.1,0.5,0.1,0.6,0.4C49.5-51,49.2-51,49.1-51z"/>
		<path class="st0" d="M62.6-51.9L62.6-51.9L62.6-51.9L62.6-51.9l-0.1,0l0,0l0,0l0,0l0,0l0,0l0,0l0,0l0,0l0,0h0l0,0l0,0l0,0l0,0l0,0
			c-0.9,0.1-0.9,0.5-0.9,1.1c0,0.2,0,0.5,0,0.7v3.8c0,0.1,0,0.2,0,0.4c0,1,0,2.1-0.7,3c-0.7,0.9-1.6,1.3-2.8,1.3
			c-1.1,0-1.9-0.5-2.6-1c-0.5-0.4-0.9-0.8-1.1-0.9v1.4c0,0,0,0.1,0,0.1c0,0.1,0,0.4-0.3,0.4c-0.3,0-0.4-0.2-0.5-0.3
			c-0.3-0.4-1.3-1.1-1.8-1.2c-0.2-0.1-0.6-0.1-0.6-0.5c0-0.2,0.2-0.3,0.4-0.3h0.3c0.2,0,0.5,0,0.6-0.2c0.2-0.1,0.2-0.9,0.2-1.3
			c0-0.1,0-0.1,0-0.2V-50c0-0.3,0-0.5,0-0.7c0-0.7-0.1-1-0.9-1.1c-0.1,0-0.3,0-0.4,0c-0.2,0-0.3-0.2-0.3-0.4c0-0.3,0.3-0.4,0.4-0.4
			c0.7,0,1.4,0.1,2.2,0.1c0.7,0,1.4-0.1,2.1-0.1c0.1,0,0.2,0,0.3,0.1c0.1,0.1,0.1,0.2,0.1,0.3c0,0.2-0.2,0.3-0.3,0.4
			c-0.2,0-0.3,0-0.4,0.1c-0.9,0.1-0.9,0.5-0.9,1.1c0,0.2,0,0.5,0,0.7v4c0,1,0.1,1.4,0.7,2.1c0.6,0.6,1.3,1,2.2,1
			c0.9,0,1.6-0.4,2.1-1c0.4-0.6,0.4-1.5,0.4-2.3V-50c0-0.3,0-0.5,0-0.7c0-0.7-0.1-1-0.9-1.1c-0.1,0-0.3,0-0.4,0
			c-0.2,0-0.3-0.2-0.3-0.4c0-0.3,0.3-0.4,0.4-0.4c0.7,0,1.4,0.1,2.2,0.1c0.7,0,1.4-0.1,2.1-0.1c0.1,0,0.2,0,0.3,0.1
			c0.1,0.1,0.1,0.2,0.1,0.3C62.9-52,62.7-51.9,62.6-51.9z"/>
		<path class="st0" d="M69.2-51.6l-0.2,0l-0.2,0l-0.2,0l-0.2,0l-0.2,0.1l-0.2,0.1l-0.2,0.1l-0.2,0.1l-0.2,0.1L67.2-51l-0.2,0.1
			l-0.2,0.1l-0.1,0.1l-0.1,0.1l-0.1,0.2l-0.1,0.2l-0.1,0.2l-0.1,0.2L66-49.6l-0.1,0.2l-0.1,0.2L65.8-49l-0.1,0.2l-0.1,0.2l-0.1,0.2
			l-0.1,0.2l0,0.2l0,0.2l0,0.2l0,0.2l0,0.2l0,0.2c0,2.3,1.4,4.4,3.9,4.6c0.1,0,0.1,0,0.2,0c0,0,0,0,0,0c0.7,0,1.6-0.3,2-0.7
			c0.5-0.5,0.5-1.2,0.5-1.8c0-0.1,0-0.2,0-0.3v-4.3c0-0.1,0-0.3,0-0.4c0-0.3,0-0.5-0.2-0.7C71.2-51.3,70.1-51.6,69.2-51.6z
			 M75.1-50.5L75.1-50.5L75.1-50.5L75.1-50.5L75.1-50.5L75.1-50.5l-0.1,0l0,0l0,0l0,0l0,0l0,0l0,0l0,0l0,0l0,0l0,0l0,0l0,0l0,0l0,0
			l0,0l0,0l0,0l0,0l0,0c-0.2-0.2-0.4-0.4-0.6-0.4c-0.1,0-0.1,0-0.2,0.2c0,0.1-0.1,0.3-0.1,0.5c0,0.2,0,0.3,0,0.4v14.1
			c0,0,0,0.1,0,0.1c0,0.1,0,0.2,0,0.3c0,0.1-0.2,0.2-0.3,0.1c-0.2,0-0.4-0.2-0.6-0.3c-0.5-0.4-1.4-0.6-2-0.7c-0.1,0-0.4-0.1-0.4-0.4
			c0-0.3,0.3-0.4,0.5-0.4c0.1,0,0.2,0,0.2,0c0.7,0,0.8-0.4,0.8-1.1c0-0.2,0-0.5,0-0.7v-2.3c0-0.1,0-0.2,0-0.4c0-0.1,0-0.2,0-0.3
			c0-0.1,0-0.1-0.1-0.1c-0.1,0-0.3,0.1-0.4,0.1c-0.8,0.3-1.6,0.5-2.5,0.5c-0.1,0-0.1,0-0.2,0c-1.4,0-2.8-0.8-3.8-1.8
			c-1.1-1-1.6-2.4-1.6-3.9c0-2.9,2.1-5.6,5.1-5.6c1,0,1.8,0.4,2.4,0.8c0.6,0.4,1.1,0.8,1.1,0.8c0,0,0,0,0,0c0.1-0.1,0.1-0.5,0.1-0.6
			c0-0.1,0-0.2,0-0.4c0-0.2,0.1-0.4,0.3-0.4c0.2,0,0.4,0.2,0.5,0.2l1.8,0.7c0.2,0.1,0.5,0.2,0.5,0.5l0,0.3c0,0,0,0.1,0,0.1
			C75.4-50.7,75.3-50.5,75.1-50.5z"/>
		<path class="st0" d="M82.6-47.2L82.6-47.2L82.6-47.2L82.6-47.2L82.6-47.2L82.6-47.2l0-0.1l0,0v0l0,0v0l0,0v0v0l0,0v0v0v0l0,0v0v0
			v0v0v0v-1.4c0-0.8,0-1.1-0.5-1.7c-0.5-0.6-1.3-0.9-2-0.9c-0.8,0-1.5,0.4-1.5,1.3c0,1.1,0.8,1.7,1.7,2.1l2.1,1.1
			c0.1,0,0.2,0.1,0.2,0.1c0,0,0,0,0-0.1C82.6-47,82.6-47.1,82.6-47.2z M86.1-50.8L86.1-50.8L86.1-50.8L86.1-50.8L86.1-50.8
			L86.1-50.8l-0.1,0l0,0l0,0l0,0l0,0l0,0l0,0l0,0l0,0l0,0l0,0l0,0l0,0l0,0l0,0l0,0l0,0l0,0l0,0l0,0l0,0c-0.2-0.1-0.3-0.3-0.6-0.3
			c-0.3,0-0.5,0.2-0.6,0.6c-0.1,0.4-0.1,0.8-0.1,1.1c0,0,0,0.1,0,0.1v5.6c0,0.2,0,0.3,0,0.5c0,0.5-0.1,1-0.5,1.3
			c-0.6,0.5-1.4,0.6-2.2,0.6c-1.5,0-3.1-0.7-4.2-1.7c-0.4-0.4-1-1.1-1-1.8c0-0.1,0-0.2,0.1-0.3c0.1-0.1,0.2-0.1,0.3-0.1
			c0.3,0,0.8,0.2,1,0.3c0.4,0.2,0.5,0.6,0.7,0.9c0.5,1.2,1.2,1.9,2.5,1.9c1.3,0,1.3-0.8,1.4-2v-1.1c0-0.9,0-0.8-0.8-1.2l0,0L80-47.4
			c-1.2-0.6-3.4-1.6-3.4-3.4c0-1.3,1.1-2,2.3-2c1,0,1.9,0.5,2.6,0.9c0.3,0.2,0.6,0.5,0.8,0.6c0.1,0.1,0.2,0.2,0.2,0.2
			c0,0,0.1,0,0.1,0.1l0,0c0,0,0,0,0,0c0.2-0.2,0.4-1.6,1.5-1.6c0.6,0,1.2,0.4,1.7,0.7c0.2,0.2,0.6,0.5,0.6,0.8
			C86.3-51,86.2-50.8,86.1-50.8z"/>
		<path class="st0" d="M92.7-50.9L92.7-50.9L92.7-50.9L92.7-50.9L92.7-50.9L92.7-50.9l-0.1,0l0,0l0,0l0,0l0,0l0,0l0,0l0,0l0,0l0,0
			l0,0l0,0l0,0l0,0l0,0l0,0l0,0l0,0l0,0l0,0l0,0l0,0l0,0c-0.3-0.2-0.6-0.4-1-0.4c-0.6,0-0.9,0.4-1.1,0.9c-0.2,0.5-0.2,1.2-0.2,1.7
			c0,0,0,0.1,0,0.1v6c0,0.4,0.1,0.4,0.3,0.4c0.1,0,0.3,0,0.4,0h1.3c0.2,0,0.3,0,0.4,0c0.1,0,0.2,0,0.3,0.1c0.1,0.1,0.1,0.2,0.1,0.4
			c0,0.1,0,0.2,0,0.3c0,0.1-0.2,0.2-0.3,0.2h-2.3c-0.3,0-0.2,0.1-0.3,0.4v1.7c0,0.1,0,0.4-0.3,0.4c-0.2,0-0.3-0.2-0.3-0.3
			c-0.5-1.1-1.2-1.7-2.1-2.4c-0.1-0.1-0.3-0.2-0.3-0.4c0-0.3,0.3-0.3,0.5-0.3c0.1,0,0.3,0,0.3,0c0.1,0,0.2,0,0.2,0
			c0.2,0,0.2,0.1,0.2-0.3V-49c0-0.2,0-0.5,0-0.7c0-0.8,0-1.7,0.5-2.3c0.4-0.5,1.1-0.8,1.7-0.8c0.8,0,1.6,0.4,2.2,0.9
			c0.2,0.1,0.5,0.4,0.5,0.7C93-51,92.9-50.9,92.7-50.9z"/>
		<path class="st0" d="M96.4-39.7L96.4-39.7l0.1,0l0.1,0l0.1,0l0.1,0l0.1,0l0.1,0l0.1,0l0.1,0l0,0l0,0l0,0l0,0l0,0l0,0l0,0l0,0l0,0
			l0,0.1l0,0.1l0,0.1l0,0.1l0,0.1l0,0.1l0,0.1l0,0.1l0,0.1l0,0.1l0,0.1l0,0.1l0,0.1l0,0.1c0,0.6-0.4,1.2-1.1,1.3
			c-0.7,0-1.1-0.6-1.1-1.3C95.3-39.1,95.7-39.7,96.4-39.7z"/>
		<path class="st0" d="M98.6-51.9L98.6-51.9L98.6-51.9L98.6-51.9l-0.1,0l0,0l0,0l0,0l0,0l0,0l0,0l0,0l0,0l0,0h0l0,0l0,0l0,0l0,0l0,0
			c-0.9,0.1-0.9,0.5-0.9,1.1c0,0.2,0,0.5,0,0.7v8c0,0,0,0.1,0,0.1c0,0.1,0,0.4-0.3,0.4c-0.3,0-0.4-0.2-0.5-0.3
			c-0.3-0.4-1.3-1.1-1.8-1.2c-0.2-0.1-0.6-0.1-0.6-0.5c0-0.2,0.2-0.3,0.4-0.3h0.3c0.2,0,0.5,0,0.6-0.2c0.2-0.1,0.2-0.9,0.2-1.3
			c0-0.1,0-0.1,0-0.2V-50c0-0.3,0-0.5,0-0.7c0-0.7-0.1-1-0.9-1.1c-0.1,0-0.3,0-0.4,0c-0.2,0-0.3-0.2-0.3-0.4c0-0.3,0.3-0.4,0.4-0.4
			c0.7,0,1.4,0.1,2.2,0.1c0.7,0,1.4-0.1,2.1-0.1c0.1,0,0.2,0,0.3,0.1c0.1,0.1,0.1,0.2,0.1,0.3C98.9-52,98.8-51.9,98.6-51.9z"/>
		<path class="st0" d="M108.6-47.3L108.6-47.3c0-2.2-1.3-4.9-3.6-4.9c-1.2,0-2.1,0.7-2.7,1.7c-0.6,1-1,2.3-1,3.5
			c0,2.4,1.3,4.7,3.6,4.7C107.4-42.2,108.6-44.9,108.6-47.3z M105-41.6l-0.3,0l-0.3,0l-0.3,0l-0.3,0l-0.1,0l-0.1,0l-0.1,0l-0.1,0
			l-0.1,0l-0.1,0l-0.1,0l-0.1,0l-0.1-0.1l-0.1-0.1l-0.1-0.1l-0.1-0.1l-0.1-0.1l-0.1-0.1l-0.1-0.1l-0.1-0.1l-0.1-0.1l-0.1-0.1
			l-0.1-0.1l-0.1-0.1l-0.1-0.1l-0.1-0.1l-0.1-0.1l-0.1-0.1c-1-1-1.5-2.5-1.5-3.9c0-3.3,2.5-5.7,5.5-5.7c3,0,5.5,2.4,5.5,5.7
			c0,1.6-0.6,3.1-1.7,4.1C107.7-42,106.4-41.6,105-41.6z"/>
		<path class="st0" d="M123.1-51.9L123.1-51.9L123.1-51.9L123.1-51.9l-0.1,0l0,0l0,0l0,0l0,0l0,0l0,0l0,0l0,0l0,0l0,0l0,0l0,0l0,0
			l0,0c-0.9,0.1-0.9,0.5-0.9,1.1c0,0.2,0,0.5,0,0.7v3.8c0,0.1,0,0.2,0,0.4c0,1,0,2.1-0.7,3c-0.7,0.9-1.6,1.3-2.8,1.3
			c-1.1,0-1.9-0.5-2.6-1c-0.5-0.4-0.9-0.8-1.1-0.9v1.4c0,0,0,0.1,0,0.1c0,0.1,0,0.4-0.3,0.4c-0.3,0-0.4-0.2-0.5-0.3
			c-0.3-0.4-1.3-1.1-1.8-1.2c-0.2-0.1-0.6-0.1-0.6-0.5c0-0.2,0.2-0.3,0.4-0.3h0.3c0.2,0,0.5,0,0.6-0.2c0.2-0.1,0.2-0.9,0.2-1.3
			c0-0.1,0-0.1,0-0.2l0,0V-50c0-0.3,0-0.5,0-0.7c0-0.7-0.1-1-0.9-1.1c-0.1,0-0.3,0-0.4,0c-0.2,0-0.3-0.2-0.3-0.4
			c0-0.3,0.3-0.4,0.4-0.4c0.7,0,1.4,0.1,2.2,0.1c0.7,0,1.4-0.1,2.2-0.1c0.1,0,0.2,0,0.3,0.1c0.1,0.1,0.1,0.2,0.1,0.3
			c0,0.2-0.2,0.3-0.3,0.4c-0.2,0-0.3,0-0.4,0.1c-0.9,0.1-0.9,0.5-0.9,1.1c0,0.2,0,0.5,0,0.7v4c0,1,0.1,1.4,0.7,2.1
			c0.6,0.6,1.4,1,2.2,1c0.9,0,1.7-0.4,2.1-1c0.4-0.6,0.4-1.5,0.4-2.3V-50c0-0.3,0-0.5,0-0.7c0-0.7-0.1-1-0.9-1.1c-0.1,0-0.3,0-0.4,0
			c-0.2,0-0.3-0.2-0.3-0.4c0-0.3,0.3-0.4,0.4-0.4c0.7,0,1.5,0.1,2.2,0.1c0.7,0,1.4-0.1,2.1-0.1c0.1,0,0.2,0,0.3,0.1
			c0.1,0.1,0.1,0.2,0.1,0.3C123.4-52,123.3-51.9,123.1-51.9z"/>
	</g>
</g>
</svg>
