<?xml version="1.0" encoding="utf-8"?>
<!-- Generator: Adobe Illustrator 25.3.0, SVG Export Plug-In . SVG Version: 6.00 Build 0)  -->
<svg version="1.1" id="Layer_1" xmlns="http://www.w3.org/2000/svg" xmlns:xlink="http://www.w3.org/1999/xlink" x="0px" y="0px"
	 viewBox="0 0 306 81" style="enable-background:new 0 0 306 81;" xml:space="preserve">
<style type="text/css">
	.st0{fill:none;}
	.st1{fill:#FFFFFF;}
</style>
<path class="st0" d="z"/>
<path class="st1" d="M105.4,33.5l-0.2-10.1l-5.3,8h-0.3l-5.3-8L94,33.5h-2.8l0.7-17l0.4,0l7.4,11.1l7.3-11.1l0.5,0l0.7,17
	L105.4,33.5L105.4,33.5z M112,33.5V16.7h2.9v16.8H112z M123.6,33.6c-1.8,0-3.1-0.1-4.8-0.3V16.8c1.6-0.2,3.1-0.3,4.7-0.3
	c6.6,0,9.9,3.8,9.9,8.4C133.4,29.6,130.2,33.6,123.6,33.6z M123.8,19.1c-0.8,0-1.6,0-2.2,0.1v11.7c0.7,0.1,1.3,0.1,2.4,0.1
	c4.3,0,6.3-2.6,6.3-6.1C130.3,21.4,128,19.1,123.8,19.1L123.8,19.1z M152.3,33.5l-1.6-3.9h-6.6l-1.6,3.9h-3l7.7-17h0.4l7.7,17H152.3
	z M147.4,21.7l-2.4,5.6h4.8L147.4,21.7z M162.3,19.3v14.2h-2.9V19.3h-5.3v-2.6h13.5v2.6H162.3z M169.9,33.5V16.7h2.9v14.2h7.4v2.6
	H169.9z M194.4,33.5l-1.6-3.9h-6.6l-1.6,3.9h-3l7.7-17h0.4l7.7,17H194.4z M189.4,21.7l-2.4,5.6h4.8L189.4,21.7z M212.9,33.8
	l-10.5-11.1v10.8h-2.9v-17l0.5-0.1l10.4,10.9V16.7h2.9v17L212.9,33.8z M223.7,19.3v14.2h-2.9V19.3h-5.3v-2.6h13.5v2.6H223.7z
	 M231.5,33.5V16.7h2.9v16.8H231.5z M246.6,33.7c-5.3,0-9.1-3.7-9.1-8.7c0-5,3.8-8.7,9.1-8.7c2.1,0,4,0.7,5.4,1.5l-1,2.4
	c-1.3-0.8-3-1.3-4.5-1.3c-3.7,0-5.9,2.5-5.9,6c0,3.5,2.3,6,6,6c1.5,0,3.2-0.5,4.6-1.3l0.9,2.4C250.7,33.1,248.7,33.7,246.6,33.7
	L246.6,33.7z"/>
<path class="st1" d="M102.4,60.6l-1.6-3.8h-6.6l-1.6,3.8h-3l7.7-17h0.4l7.7,17H102.4L102.4,60.6z M97.5,48.9l-2.4,5.6h4.8
	C99.8,54.5,97.5,48.9,97.5,48.9z M116.6,60.6l-3.7-6.1c-0.3,0-0.6,0-0.9,0c-0.6,0-1.1,0-1.7,0v6.1h-2.9V44c1.3-0.2,2.7-0.3,4.4-0.3
	c4.8,0,6.9,2.3,6.9,5.3c0,2.2-1.2,3.9-3.3,4.9l4.4,6.8H116.6z M112.3,46.3c-0.7,0-1.4,0-1.9,0.1v5.7c0.5,0.1,1.1,0.1,1.7,0.1
	c2.5,0,3.8-1.2,3.8-3.1C115.8,47.5,114.5,46.3,112.3,46.3z M128.9,46.5v14.2H126V46.5h-5.3v-2.6h13.5v2.6L128.9,46.5L128.9,46.5z
	 M140.7,60.9c-1.9,0-3.8-0.7-5.3-1.7l1-2.6c1.3,1,2.9,1.6,4.4,1.6c1.8,0,2.5-1,2.5-2.2c0-1.2-0.5-1.9-3.2-3c-2.9-1.2-4-2.8-4-4.8
	c0-2.4,2-4.7,5.5-4.7c1.6,0,3.2,0.5,4.2,1.2l-0.9,2.5c-0.9-0.6-2.2-1.2-3.4-1.2c-1.8,0-2.6,1-2.6,2.1s0.8,1.8,2.9,2.7
	c3.3,1.4,4.3,2.8,4.3,5C146.2,58.6,144.1,60.9,140.7,60.9L140.7,60.9z"/>
<path class="st1" d="M156.8,46.5v4.9h6.5v2.5h-6.5v6.7h-2.9V43.8h10.2v2.6L156.8,46.5L156.8,46.5z M174.2,60.9
	c-4.9,0-8.4-3.7-8.4-8.7c0-5,3.7-8.7,8.6-8.7c4.9,0,8.4,3.7,8.4,8.7C182.8,57.2,179.1,60.9,174.2,60.9L174.2,60.9z M174.3,46.1
	c-3.2,0-5.4,2.6-5.4,6.1c0,3.5,2.2,6.1,5.4,6.1c3.2,0,5.4-2.6,5.4-6.1C179.7,48.7,177.5,46.1,174.3,46.1L174.3,46.1z M192.4,60.9
	c-4.2,0-6.7-2.4-6.7-6.7V43.8h2.9V54c0,2.9,1.4,4.3,3.9,4.3c2.4,0,3.9-1.4,3.9-4.3V43.8h2.9v10.4C199.2,58.5,196.5,60.9,192.4,60.9z
	 M216.3,61l-10.5-11.1v10.8h-2.9v-17l0.5-0.1l10.4,10.9V43.8h2.9v17.1L216.3,61L216.3,61z M225.4,60.8c-1.8,0-3.1-0.1-4.8-0.3V44
	c1.6-0.2,3.1-0.3,4.7-0.3c6.6,0,9.9,3.8,9.9,8.4C235.1,56.8,232,60.8,225.4,60.8z M225.5,46.2c-0.8,0-1.6,0-2.2,0.1v11.7
	c0.7,0.1,1.3,0.1,2.4,0.1c4.3,0,6.3-2.6,6.3-6.1C232,48.6,229.8,46.2,225.5,46.2L225.5,46.2z M248.4,60.6l-1.6-3.8h-6.6l-1.6,3.8h-3
	l7.7-17h0.4l7.7,17H248.4z M243.4,48.9l-2.4,5.6h4.8L243.4,48.9z M258.3,46.5v14.2h-2.9V46.5h-5.3v-2.6h13.5v2.6L258.3,46.5
	L258.3,46.5z M266,60.6V43.8h2.9v16.8H266z M280.5,60.9c-4.9,0-8.4-3.7-8.4-8.7c0-5,3.7-8.7,8.6-8.7c4.9,0,8.4,3.7,8.4,8.7
	C289.1,57.2,285.4,60.9,280.5,60.9L280.5,60.9z M280.6,46.1c-3.2,0-5.4,2.6-5.4,6.1c0,3.5,2.2,6.1,5.4,6.1c3.2,0,5.4-2.6,5.4-6.1
	C286,48.7,283.8,46.1,280.6,46.1L280.6,46.1z M305.6,61l-10.5-11.1v10.8h-2.9v-17l0.5-0.1l10.4,10.9V43.8h2.9v17.1L305.6,61z"/>
<g>
	<path class="st1" d="M81.3,39c-0.3-8.1-3-15.8-7.8-22.3c-0.4-0.4-0.8-0.9-1.1-1.3c4.9,9.7,6.7,20.8,4.9,31.7
		C78.9,44.5,80.2,41.8,81.3,39z"/>
	<path class="st1" d="M12.6,12C5.3,19.2,0.8,29.3,0.8,40.5c0,0.2,0,0.3,0,0.5c2.2,5.1,5.1,9.7,8.6,13.4C7.9,50.1,7,45.6,7,41
		c0-5.8,1.3-11.6,3.9-16.8C11,20,11.6,15.9,12.6,12z"/>
	<path class="st1" d="M11.9,22.4c6.5-11.6,19-19.5,33.2-19.5c7.7,0,15.2,2.3,21.5,6.6c-0.1-0.2-0.3-0.4-0.4-0.6
		c-7.1-5.7-16-8.8-25.1-8.8C30.5,0.2,20.8,4.3,13.6,11C12.6,14.7,12,18.5,11.9,22.4z"/>
	<path class="st1" d="M74.9,56c-1.1,3.2-2.6,6.3-4.4,9.2c-0.3,0.5-0.6,0.9-0.9,1.4c3.8-3.3,6.9-7.3,9-11.8c0.7-1.7,1.2-3.5,1.6-5.3
		C78.7,51.8,76.9,54,74.9,56z"/>
	<path class="st1" d="M58.5,73c-5.7-0.1-11.3-1.2-16.7-3.2c-6.4,0-12.8-1.4-18.7-3.9C29.6,71.8,38,75,46.8,75
		C50.9,75,54.8,74.3,58.5,73z"/>
	<path class="st1" d="M11.2,58.3c-4-3.5-7.4-7.7-10-12.3c2.7,19.6,19.5,34.7,39.9,34.7c6.7,0,13-1.6,18.5-4.5
		c-4.6,1.9-9.5,2.9-14.5,2.9C30.3,79.1,17.5,70.6,11.2,58.3z"/>
	<path class="st1" d="M63.4,70.9c1.4-0.7,2.7-1.5,3.9-2.4c0.7-0.9,1.3-1.9,1.9-2.9c1.5-2.4,2.7-5,3.7-7.6
		c-4.8,4.3-10.4,7.5-16.4,9.5c-3.1,1-6.2,1.7-9.4,2.1c4,1,8,1.6,12.1,1.6C60.6,71.1,62,71,63.4,70.9z"/>
	<path class="st1" d="M36.7,67.5c-12.6-6.6-21.9-18.7-24.8-33c-0.3,1.7-0.4,3.5-0.4,5.2c0,8.7,3.2,16.7,8.4,22.9
		C25.1,65.4,30.8,67.1,36.7,67.5L36.7,67.5z"/>
	<path class="st1" d="M41.3,67.6c4.1-0.2,8.2-0.9,12.4-2.3c8.7-2.8,16.2-8.3,21.7-15.6c2.7-13.3,0-27.2-7.5-38.4
		c-6.1-4.5-13.5-7-21-6.9c-16.7,0-30.6,11.5-34.3,27.1C15.2,47.9,26.3,61.4,41.3,67.6z M45.3,11.8C59.5,11.8,71,23.3,71,37.4
		c0,14.2-11.5,25.7-25.7,25.7c-14.2,0-25.7-11.5-25.7-25.7C19.6,23.3,31.1,11.8,45.3,11.8z"/>
</g>
<path class="st0" d="z"/>
</svg>
