<?xml version="1.0" encoding="utf-8"?>
<!-- Generator: Adobe Illustrator 25.3.0, SVG Export Plug-In . SVG Version: 6.00 Build 0)  -->
<svg version="1.1" id="layer" xmlns="http://www.w3.org/2000/svg" xmlns:xlink="http://www.w3.org/1999/xlink" x="0px" y="0px"
	 viewBox="0 0 652 652" style="enable-background:new 0 0 652 652;" xml:space="preserve">
<style type="text/css">
	.st0{fill:#FFFFFF;}
</style>
<path class="st0" d="M179.7,260h-7v-20.9h-5.8v-5.9h18.6v5.9h-5.8V260 M206.9,243.5h-10.1v-10.3h-7V260h7v-11h10.1v11h7v-26.8h-7
	V243.5 M227.4,239.1h8.4v-5.9h-15.4V260h15.4v-5.9h-8.4v-4.6h7.9v-5.9h-7.9V239.1 M315.3,287.9l-0.1-70h-4.1l0.1,59.1L257,217
	l0.1,68.6h4.1l-0.1-58.2L315.3,287.9 M338.9,263.3h28.3l8.7,22.3h4.2l-27-70l-27,70h4.2L338.9,263.3 M365.7,259.2h-25.2l12.6-32.7
	L365.7,259.2z M398.5,285.5l-0.1-63.7h16.7v-4h-37.5v4h16.7l0.1,63.7H398.5 M469.3,246.5h-39.2v-28.7H426l0.1,67.7h4.1v-35h39.2v35
	h4.1l-0.1-67.7h-4.1V246.5 M497,263.2h28.3l8.7,22.3h4.2l-27-70l-27,70h4.2L497,263.2 M523.8,259.1h-25.2l12.6-32.7L523.8,259.1z
	 M607.3,287.6l-0.1-70h-4.1l0.1,59.1l-54.2-60l0.1,68.6h4.1l-0.1-58.2L607.3,287.6 M89.9,314.3v-7.4C82.8,300,73,296,63.3,296
	c-22.8,0-41.9,19.5-41.9,43.4c0,23.6,19.5,43.1,41.9,43.1c9.9,0,19.2-3.9,26.7-10.5v-7.4c-6,7.6-17.7,12.9-26.9,12.9
	c-9.5,0-19.1-4.9-25.8-11.6c-6.7-6.9-10.8-16.2-10.8-26c0-20.7,16.5-38.8,36.5-38.8C72.9,301,83.7,306.3,89.9,314.3 M155.6,297
	l0.1,51c0,7.6,0,15.7-4.1,21.2c-3.9,5.4-11.8,8.2-18,8.2s-14.1-2.8-18-8.1c-4.2-5.6-4.2-13.6-4.2-21.2l-0.1-51h-5.1l0.1,52.5
	c0,8.6,0,16,5.5,23c5.4,6.5,13.7,9.8,21.8,9.8s16.4-3.4,21.8-9.9c5.4-7,5.4-14.4,5.4-23l-0.1-52.5H155.6 M246.6,311.4l13.8,69.8h4.9
	L248,294.1l-29.5,76.7l-29.6-76.7l-17.2,87.1h4.9l13.7-69.8h0.2l28,72.5l27.9-72.6h0.2 M344.3,311.3l13.8,69.8h4.9L345.6,294
	l-29.5,76.7L286.5,294l-17.2,87.1h4.9l13.7-69.8h0.2l28,72.5l27.9-72.6h0.3 M379.8,381.1l-0.1-84.3h-5.1l0.1,84.3L379.8,381.1
	 M471.7,383.8l-0.1-87.1h-5.1l0.1,73.6l-67.5-74.6l0.1,85.4h5.1l-0.1-72.4L471.7,383.8 M564.2,340.3h-33.9v5H559
	c-0.3,9.2-2.9,16.2-9.8,22.4c-6.6,5.6-15,9.3-23.6,9.3c-20,0-36.4-17.4-36.4-38.2c0-20.2,16.8-38.3,36.4-38.3c13,0,23.9,6.9,31,18.1
	l4.2-3.5c-8.4-12.1-20.2-19.7-34.8-19.6c-23,0-41.8,19.5-41.8,43.6c0,23.3,19,42.9,41.2,42.9c11.3,0,22.8-4.9,30.4-13.7
	C562.9,360.2,564.4,350.9,564.2,340.3 M613.8,310.4l3.6-3.1c-3.8-7.3-11.5-11.8-19.6-11.8c-12,0-20.5,8.9-20.5,21.4
	c0,6.7,3,11.6,8.3,15.1l14.5,8c6.9,3.6,16.2,7.6,16.2,17.1c0,11.2-9.2,19.9-19.8,19.9c-9.7,0-16-6.2-19.4-15.2l-4.5,2.1
	c3.7,10.8,12.5,18.1,23.7,18.1c13,0,25.1-10.5,25.1-24.5c0-7.6-3.1-12.7-9.2-16.8l-15.3-8.4c-6.5-3.2-14.5-6.9-14.5-15.7
	c0-8.8,6.5-16.1,15.1-16.1C605,300.5,610.1,304.4,613.8,310.4 M223,401.6h9.8v-6.8h-17.9v30.8h8.1v-12.1h8.9v-6.8H223L223,401.6
	 M281.7,409.6c0-9.3-8.3-15.8-17.2-15.8c-9,0-17.2,6.6-17.2,15.9c0,10,7.2,17,17.2,17C274.5,426.6,281.7,419.5,281.7,409.6
	 M264.5,401.5c4.8,0,8.8,3.9,8.8,8.1c0,5.3-4,9.2-8.8,9.2s-8.8-3.9-8.8-9.2C255.7,405.4,259.7,401.5,264.5,401.5z M324,394.7h-8.1
	v16.2c0,4-0.3,8.4-5.5,8.4s-5.5-4.4-5.5-8.4v-16.2h-8.1V412c0,4,0.2,7.9,3.3,10.9c2.6,2.5,6.7,3.4,10.3,3.4c3.6,0,7.7-0.9,10.3-3.4
	c3.1-3,3.3-6.9,3.2-10.9L324,394.7 M340.6,394.7v30.8h8.1v-18.9h0.1l14.8,18.9h8.1v-30.8h-8.1v18.8h-0.1l-14.8-18.8H340.6
	 M388.5,394.6v30.8H400c8.6,0,15.8-6.8,15.8-15.4c0-8.7-7.2-15.4-15.8-15.4H388.5 M396.6,401.4h1.9c5.2,0,8.9,3.1,8.9,8.6
	c0,6-4.1,8.6-8.9,8.6h-1.8L396.6,401.4z M439.1,420h11.1l2,5.4h8.6l-11.7-30.8h-8.8l-11.9,30.8h8.6L439.1,420 M448,413.9h-6.7
	l3.3-9.8h0.1L448,413.9z M487.3,425.3v-24h6.7v-6.8h-21.4v6.8h6.7v24H487.3 M516.5,425.3v-30.8h-8.1v30.8H516.5 M566.2,409.3
	c0-9.3-8.3-15.8-17.2-15.8s-17.2,6.6-17.2,15.9c0,10,7.2,17,17.2,17C559,426.3,566.2,419.2,566.2,409.3 M549,401.2
	c4.8,0,8.8,3.9,8.8,8.1c0,5.3-3.9,9.2-8.8,9.2c-4.8,0-8.8-3.9-8.8-9.2C540.2,405.1,544.1,401.2,549,401.2z M581.5,394.4v30.8h8.1
	v-18.9h0.1l14.8,18.9h8.1v-30.8h-8.1v18.8h-0.1l-14.8-18.8H581.5"/>
</svg>
