<?xml version="1.0" encoding="utf-8"?>
<!-- Generator: Adobe Illustrator 25.3.0, SVG Export Plug-In . SVG Version: 6.00 Build 0)  -->
<svg version="1.1" id="Layer_1" xmlns="http://www.w3.org/2000/svg" xmlns:xlink="http://www.w3.org/1999/xlink" x="0px" y="0px"
	 viewBox="0 0 110 55" style="enable-background:new 0 0 110 55;" xml:space="preserve">
<style type="text/css">
	.st0{fill:#FFFFFF;}
</style>
<g>
	<g>
		<polygon class="st0" points="48.2,22 45.2,25 51.6,31.4 54.6,34.4 54.6,28.5 		"/>
		<polygon class="st0" points="64.4,18.4 55.1,9.1 55.1,14.9 61.5,21.3 		"/>
		<path class="st0" d="M55,35.2C55,35.2,54.9,35.2,55,35.2C54.9,35.2,54.9,35.2,55,35.2C54.9,35.2,54.9,35.2,55,35.2
			c-0.1,0.1-0.1,0.1-0.2,0.1l0,0l0,0h-0.1c0,0-0.1,0-0.1-0.1l0,0l-9.9-10l0,0c0,0,0,0,0-0.1c0,0,0,0,0-0.1l0,0c0,0,0,0,0-0.1l0,0
			c0,0,0,0,0-0.1l0,0l0,0l0,0l0,0l3.2-3.3c0,0,0.1,0,0.1-0.1l6.5-6.5V9.1L38.6,25l16.2,16.2l16.3-16.3v-5.8L55,35.2L55,35.2"/>
		<path class="st0" d="M54.6,8.2C54.7,8.2,54.7,8.2,54.6,8.2C54.7,8.2,54.7,8.2,54.6,8.2C54.7,8.2,54.7,8.2,54.6,8.2
			C54.7,8.2,54.7,8.2,54.6,8.2c0.1,0,0.2,0,0.2,0l0,0l0,0l0,0l0,0l0,0l0,0l0,0l0,0l9.9,10l0,0l0.1,0.1c0,0,0.1,0.1,0.1,0.2
			s0,0.1-0.1,0.2l-6.3,6.1l-3.6,3.6v5.9l15.8-15.9L54.8,2.2L38.5,18.5v5.9L54.6,8.2L54.6,8.2"/>
	</g>
	<g>
		<path class="st0" d="M4.2,48.7v3.9H3.9v-8.6H7c0.8,0,1.3,0.2,1.8,0.5c0.6,0.4,0.9,1,0.9,1.8c0,1.5-0.9,2.3-2.7,2.3H4.2z M4.2,48.4
			h2.7c1.6,0,2.3-0.7,2.3-2c0-1.3-0.8-2-2.3-2H4.2V48.4z"/>
		<path class="st0" d="M11,48h4.8v0.3H11v3.9h5.4v0.3h-5.8v-8.6h5.6v0.3H11V48z"/>
		<path class="st0" d="M17.9,52.6h-0.4v-8.6H21c1.6,0,2.5,0.8,2.5,2.3c0,1.1-0.5,1.9-1.6,2.1v0c1,0.2,1.4,0.9,1.4,2.2
			c0,1.6,0.2,1.8,0.3,2v0h-0.4c-0.1-0.1-0.3-0.4-0.3-2c0-1.4-0.6-2-1.9-2h-3.1V52.6z M17.9,48.3h2.9c1.5,0,2.3-0.7,2.3-1.9
			c0-1.2-0.8-2-2.2-2h-3V48.3z"/>
		<path class="st0" d="M24.6,49.9c0.1,1.5,1.1,2.5,3,2.5c1.6,0,2.6-0.8,2.6-2c0-1.3-0.9-1.8-2.9-2.1c-1.8-0.3-2.7-0.9-2.7-2.2
			c0-1.3,1.1-2.1,2.8-2.1c1.8,0,2.7,1,2.9,2.4h-0.4c-0.2-1.3-1.1-2.1-2.5-2.1c-1.5,0-2.4,0.7-2.4,1.8c0,1.1,0.8,1.6,2.5,1.9
			c1.8,0.3,3.1,0.8,3.1,2.4c0,1.4-1.1,2.4-2.9,2.4c-2.2,0-3.3-1.2-3.4-2.9H24.6z"/>
		<path class="st0" d="M32.1,48.7v3.9h-0.4v-8.6h3.1c0.8,0,1.3,0.2,1.8,0.5c0.6,0.4,0.9,1,0.9,1.8c0,1.5-0.9,2.3-2.7,2.3H32.1z
			 M32.1,48.4h2.7c1.6,0,2.3-0.7,2.3-2c0-1.3-0.8-2-2.3-2h-2.7V48.4z"/>
		<path class="st0" d="M38.9,48h4.8v0.3h-4.8v3.9h5.4v0.3h-5.8v-8.6h5.6v0.3h-5.3V48z"/>
		<path class="st0" d="M51.6,46.5c-0.2-1.2-1.2-2.2-2.9-2.2c-2.3,0-3.5,1.8-3.5,4.1c0,2.4,1.3,4.1,3.5,4.1c1.8,0,2.9-1.3,3.1-2.9
			h0.3c-0.1,0.8-0.4,1.6-0.9,2.2c-0.6,0.6-1.5,1-2.5,1c-2.4,0-3.9-1.8-3.9-4.4c0-2.6,1.5-4.4,3.9-4.4c1.8,0,3,1.1,3.3,2.5H51.6z"/>
		<path class="st0" d="M55.4,52.6v-8.2h-3.1v-0.3h6.5v0.3h-3.1v8.2H55.4z"/>
		<path class="st0" d="M60.2,52.6h-0.4v-8.6h0.4V52.6z"/>
		<path class="st0" d="M64.5,52.1L64.5,52.1l3.1-8H68l-3.2,8.6h-0.4l-3.2-8.6h0.4L64.5,52.1z"/>
		<path class="st0" d="M69.2,48H74v0.3h-4.8v3.9h5.4v0.3h-5.8v-8.6h5.6v0.3h-5.3V48z"/>
		<path class="st0" d="M78,48h4.4v0.3H78v4.3h-0.4v-8.6h5.5v0.3H78V48z"/>
		<path class="st0" d="M84.5,44.1v5.8c0,1.9,1.1,2.6,2.7,2.6c1.5,0,2.7-0.7,2.7-2.6v-5.8h0.4v5.8c0,2.1-1.3,2.9-3.1,2.9
			c-1.8,0-3.1-0.9-3.1-2.9v-5.8H84.5z"/>
		<path class="st0" d="M98,52.6h-0.4l-5.6-8h0v8h-0.4v-8.6h0.4l5.6,8h0v-8H98V52.6z"/>
		<path class="st0" d="M99.5,44.1h3.1c2.5,0,3.5,1.9,3.5,4.3c0,2.4-1.1,4.2-3.6,4.2h-3V44.1z M102.5,52.3c2.1,0,3.2-1.5,3.2-3.9
			s-1.1-4-3.2-4h-2.7v7.9H102.5z"/>
	</g>
</g>
</svg>
