<?xml version="1.0" encoding="utf-8"?>
<!-- Generator: Adobe Illustrator 25.3.0, SVG Export Plug-In . SVG Version: 6.00 Build 0)  -->
<svg version="1.1" id="Layer_1" xmlns="http://www.w3.org/2000/svg" xmlns:xlink="http://www.w3.org/1999/xlink" x="0px" y="0px"
	 viewBox="0 0 275.3 114.2" style="enable-background:new 0 0 275.3 114.2;" xml:space="preserve">
<style type="text/css">
	.st0{fill:#FFFFFF;}
</style>
<g>
	<path class="st0" d="M111.8,53.7l-0.3-5.2h0.8c0.7,1.4,1.2,2.4,1.9,3.5c0.8,1.2,1.7,1.6,3.4,1.6c2.4,0,3.5-1.3,3.5-3.2
		c0-1.8-1-2.8-4.3-4.1c-3.7-1.5-5.1-3.2-5.1-6c0-3.2,2.6-5.6,6.6-5.6c2.3,0,3.8,0.3,4.7,0.7l0.3,4.7h-0.7c-0.7-1.5-1.1-2.1-1.7-2.9
		c-0.7-0.9-1.2-1.3-2.9-1.3c-2.1,0-3.2,1-3.2,2.8c0,1.6,0.6,2.5,3.8,3.8c4.2,1.7,5.8,3.4,5.8,6c0,3.5-2.5,6.3-7,6.3
		C114.8,54.6,112.9,54.2,111.8,53.7z"/>
	<path class="st0" d="M126.7,50.9v-8.2c0-1.1-0.1-1.2-0.8-1.6l-1-0.6v-0.5l5.2-0.6l0.3,0.2V50c0,1.6,0.7,2.4,2.1,2.4
		c1.1,0,2.2-0.4,3.1-0.7v-9c0-1.1-0.1-1.2-0.8-1.6l-1-0.6v-0.5l5.2-0.6l0.3,0.2v11.3c0,1.3,0.1,1.5,0.9,1.8l0.9,0.4v0.5l-5.2,0.7
		l-0.2-0.2l0.1-1.8h-0.1c-1.4,1-3.2,2-5.2,2C128.1,54.6,126.7,53.3,126.7,50.9z"/>
	<path class="st0" d="M141.7,53.6l0.9-0.2c0.7-0.2,0.9-0.4,0.9-1.5v-8.9c0-1.2-0.1-1.2-0.9-1.7l-1-0.6v-0.5l5.2-0.6l0.2,0.2
		l-0.1,1.8h0.1c0.9-0.9,2.5-2.1,4-2.1c1.2,0,2,0.7,2,1.9c0,1.2-0.8,1.9-1.7,1.9c-1.2,0-1.5-0.4-1.9-1.2c-0.1-0.3-0.3-0.4-0.5-0.4
		c-0.5,0-1.4,0.5-1.8,0.9v9.2c0,1.2,0.1,1.4,0.8,1.5l1.1,0.2v0.6h-7.4V53.6z"/>
	<path class="st0" d="M153.1,47.5c0-5.6,3.7-8,7.9-8c0.9,0,1.7,0.1,2.3,0.3c0,0-0.1-1.1-0.1-2.1v-1.2c0-1.2-0.2-1.3-0.8-1.6
		l-1.2-0.6v-0.6l5.6-0.5l0.2,0.2c0,0-0.1,1.2-0.1,3.3v14.4c0,1.3,0.1,1.5,0.9,1.8l0.9,0.4v0.5l-5.1,0.7l-0.3-0.2l0.1-1.5h-0.1
		c-1.2,0.9-2.8,1.7-4.7,1.7C155.9,54.6,153.1,52.7,153.1,47.5z M163.2,51.9V41.7c-0.5-0.6-1.3-1.1-2.4-1.1c-2.4,0-3.9,1.6-3.9,6.2
		c0,4.3,1.3,5.9,3.6,5.9C161.9,52.7,162.7,52.2,163.2,51.9z"/>
	<path class="st0" d="M169.4,53.6l0.9-0.2c0.7-0.2,0.9-0.4,0.9-1.5v-8.9c0-1.2-0.1-1.2-0.9-1.7l-1-0.6v-0.5l5.2-0.6l0.2,0.2
		l-0.1,1.7h0.1c1.4-1,3.3-1.9,5.2-1.9c2.5,0,3.7,1.2,3.7,3.7v8.6c0,1.2,0.2,1.3,0.9,1.5l0.9,0.2v0.6h-7.2v-0.6l0.9-0.2
		c0.7-0.2,0.8-0.3,0.8-1.5v-7.7c0-1.8-0.6-2.4-2.1-2.4c-1.1,0-2.4,0.3-3.1,0.5v9.6c0,1.2,0.1,1.3,0.8,1.5l0.9,0.2v0.6h-7.2V53.6z"/>
	<path class="st0" d="M185.3,50.9c0-2.4,2-3.4,4.6-4l3.3-0.8v-2.6c0-2.1-0.4-3-2.2-3c-1,0-1.3,0.2-1.4,1c-0.1,1.4-0.5,2.2-1.9,2.2
		c-1.1,0-1.7-0.6-1.7-1.6c0-1.8,2.5-2.6,5.7-2.6c3.4,0,5.2,1.1,5.2,3.7v8c0,0.9,0.2,1.3,0.7,1.6c0.3,0.2,0.8,0.2,1.3,0.2v0.6
		c-0.5,0.4-1.6,0.8-2.9,0.8c-1.5,0-2.4-0.6-2.6-1.7h-0.1c-0.7,0.9-2.1,1.7-3.7,1.7C186.9,54.6,185.3,53.3,185.3,50.9z M193.2,51.8
		v-4.5l-1.6,0.2c-1.6,0.1-2.6,0.8-2.6,2.9c0,1.7,0.9,2.5,2.2,2.5C192.2,52.9,192.9,52.4,193.2,51.8z"/>
	<path class="st0" d="M111.3,79.5l1.1-0.2c0.7-0.1,1-0.3,1-1.9V63.7c0-1.6-0.2-1.7-1-1.9l-1.1-0.2v-0.7h14.5l0.3,5.5h-0.8
		c-0.7-1.6-1.1-2.4-1.5-3c-0.8-1.2-1.3-1.4-3.5-1.4c-1.4,0-2.2,0.1-2.7,0.2v7.7h0.7c2.3,0,2.7-0.2,3.1-0.8c0.4-0.6,0.6-1.3,0.9-2.2
		h0.7v7.4h-0.7c-0.2-1-0.5-1.6-0.9-2.4c-0.4-0.7-0.7-0.8-3.1-0.8h-0.7v6.4c0,1.6,0.1,1.7,1,1.9l1.4,0.2v0.7h-8.7V79.5z"/>
	<path class="st0" d="M126.2,73c0-5.1,3.6-7.6,7.2-7.6c4,0,7.3,2.4,7.3,7.4c0,5.1-3.6,7.7-7.3,7.7C129.5,80.5,126.2,78,126.2,73z
		 M136.7,73.2c0-5.3-1.2-6.7-3.4-6.7c-2.1,0-3.2,1.5-3.2,6.1c0,5.4,1.1,6.9,3.4,6.9C135.6,79.5,136.7,78.1,136.7,73.2z"/>
	<path class="st0" d="M142.9,76.8v-8.2c0-1.1-0.1-1.2-0.8-1.6l-1-0.6V66l5.2-0.6l0.3,0.2v10.2c0,1.6,0.7,2.4,2.1,2.4
		c1.1,0,2.2-0.4,3.1-0.7v-9c0-1.1-0.1-1.2-0.8-1.6l-1-0.6V66l5.2-0.6l0.3,0.2V77c0,1.3,0.1,1.5,0.9,1.8l0.9,0.4v0.5l-5.2,0.7
		l-0.2-0.2l0.1-1.8h-0.1c-1.4,1-3.2,2-5.2,2C144.3,80.5,142.9,79.2,142.9,76.8z"/>
	<path class="st0" d="M158.5,79.5l0.9-0.2c0.7-0.2,0.9-0.4,0.9-1.5v-8.9c0-1.2-0.1-1.2-0.9-1.7l-1-0.6v-0.5l5.2-0.6l0.2,0.2
		l-0.1,1.7h0.1c1.4-1,3.3-1.9,5.2-1.9c2.5,0,3.7,1.2,3.7,3.7v8.6c0,1.2,0.2,1.3,0.9,1.5l0.9,0.2v0.6h-7.2v-0.6l0.9-0.2
		c0.7-0.2,0.8-0.3,0.8-1.5V70c0-1.8-0.6-2.4-2.1-2.4c-1.1,0-2.4,0.3-3.1,0.5v9.6c0,1.2,0.1,1.3,0.8,1.5l0.9,0.2v0.6h-7.2V79.5z"/>
	<path class="st0" d="M174.6,73.5c0-5.6,3.7-8,7.9-8c0.9,0,1.7,0.1,2.3,0.3c0,0-0.1-1.1-0.1-2.1v-1.2c0-1.2-0.2-1.3-0.8-1.6
		l-1.2-0.6v-0.6l5.6-0.5l0.2,0.2c0,0-0.1,1.2-0.1,3.3V77c0,1.3,0.1,1.5,0.9,1.8l0.9,0.4v0.5l-5.1,0.7l-0.3-0.2l0.1-1.5h-0.1
		c-1.2,0.9-2.8,1.7-4.7,1.7C177.4,80.5,174.6,78.6,174.6,73.5z M184.8,77.8V67.6c-0.5-0.6-1.3-1.1-2.4-1.1c-2.4,0-3.9,1.6-3.9,6.2
		c0,4.3,1.3,5.9,3.6,5.9C183.4,78.6,184.2,78.1,184.8,77.8z"/>
	<path class="st0" d="M190.5,76.8c0-2.4,2-3.4,4.6-4l3.3-0.8v-2.6c0-2.1-0.4-3-2.2-3c-1,0-1.3,0.2-1.4,1c-0.1,1.4-0.5,2.2-1.9,2.2
		c-1.1,0-1.7-0.6-1.7-1.6c0-1.8,2.5-2.6,5.7-2.6c3.4,0,5.2,1.1,5.2,3.7v8c0,0.9,0.2,1.3,0.7,1.6c0.3,0.2,0.8,0.2,1.3,0.2v0.6
		c-0.5,0.4-1.6,0.8-2.9,0.8c-1.5,0-2.4-0.6-2.6-1.7h-0.1c-0.7,0.9-2.1,1.7-3.7,1.7C192.1,80.5,190.5,79.2,190.5,76.8z M198.4,77.8
		v-4.5l-1.6,0.2c-1.6,0.1-2.6,0.8-2.6,2.9c0,1.7,0.9,2.5,2.2,2.5C197.4,78.8,198.1,78.3,198.4,77.8z"/>
	<path class="st0" d="M205.6,77v-9.7h-1.8v-0.6c2-0.7,3.6-2.2,4.4-4.4h1.2v3.6h3.8l-0.3,1.4h-3.4v9.5c0,1.3,0.5,1.8,1.8,1.8
		c0.7,0,1.6-0.2,2.1-0.3V79c-0.6,0.5-1.9,1.5-4.1,1.5C207,80.5,205.6,79.5,205.6,77z"/>
	<path class="st0" d="M214.3,79.5l0.9-0.2c0.7-0.2,0.9-0.4,0.9-1.5v-8.9c0-1.2-0.1-1.2-0.9-1.7l-1-0.6v-0.5l5.4-0.6l0.2,0.2
		c0,0.5-0.1,1.6-0.1,2.9v9.2c0,1.2,0.1,1.3,0.9,1.5l0.9,0.2v0.6h-7.3V79.5z M215.7,61.7c0-1.1,0.9-2,2.1-2c1.2,0,2.1,0.9,2.1,2
		c0,1.1-0.9,2-2.1,2C216.7,63.8,215.7,62.9,215.7,61.7z"/>
	<path class="st0" d="M221.5,73c0-5.1,3.6-7.6,7.2-7.6c4,0,7.3,2.4,7.3,7.4c0,5.1-3.6,7.7-7.3,7.7C224.7,80.5,221.5,78,221.5,73z
		 M232,73.2c0-5.3-1.2-6.7-3.4-6.7c-2.1,0-3.2,1.5-3.2,6.1c0,5.4,1.1,6.9,3.4,6.9C230.8,79.5,232,78.1,232,73.2z"/>
	<path class="st0" d="M235.9,79.5l0.9-0.2c0.7-0.2,0.9-0.4,0.9-1.5v-8.9c0-1.2-0.1-1.2-0.9-1.7l-1-0.6v-0.5l5.2-0.6l0.2,0.2
		l-0.1,1.7h0.1c1.4-1,3.3-1.9,5.2-1.9c2.5,0,3.7,1.2,3.7,3.7v8.6c0,1.2,0.2,1.3,0.9,1.5l0.9,0.2v0.6h-7.2v-0.6l0.9-0.2
		c0.7-0.2,0.8-0.3,0.8-1.5V70c0-1.8-0.6-2.4-2.1-2.4c-1.1,0-2.4,0.3-3.1,0.5v9.6c0,1.2,0.1,1.3,0.8,1.5l0.9,0.2v0.6h-7.2V79.5z"/>
</g>
<g>
	<path class="st0" d="M79.2,57.8c-0.5,11.8-10.3,21.3-22.3,21.3s-21.7-9.5-22.3-21.3H79.2 M80.2,56.8H33.7
		c0,12.9,10.4,23.3,23.3,23.3S80.2,69.7,80.2,56.8L80.2,56.8z"/>
</g>
<path class="st0" d="M27.7,43.1c-0.6,0.2-1.1,0.8-1.3,1.3c-0.2,0.6-0.3,1.4,0.4,1.7c1.4,0.6,2.9-3,4.8-2.2c1.1,0.5,1.7,2,1,3.6
	c-0.3,0.6-0.6,1.2-1.1,1.7L30,49.1c0.8-0.4,1.5-1.1,1.8-1.9c0.2-0.6,0.3-1.6-0.5-1.9c-1.6-0.7-2.8,3-5,2.1c-1.3-0.5-1.2-2.1-0.7-3.3
	c0.2-0.5,0.5-1,0.9-1.4L27.7,43.1z"/>
<path class="st0" d="M40.2,35.3c0.1,0.8-0.5,1.6-1,2.1c-0.6,0.5-1.3,0.8-2,0.7c-0.9-0.1-1.3-0.7-1.9-1.3l-2-2.2
	c-0.3-0.4-0.8-1-1.4-0.8l0,0l1.6-1.4l0,0c-0.3,0.5,0.3,1.1,0.6,1.5l2,2.2c1,1.1,1.9,1.2,2.8,0.5c0.5-0.4,0.8-1,0.7-1.7
	c0-0.4-0.2-0.6-0.5-0.9l-2.2-2.5c-0.3-0.4-0.8-1-1.4-0.8l0,0l1.6-1.4l0,0c-0.3,0.5,0.3,1.1,0.6,1.5l2.8,3.2c0.3,0.4,0.8,1,1.4,0.8
	l0,0l-1.2,1.1L40.2,35.3z"/>
<path class="st0" d="M48.9,24.2c1.4-0.4,2.4,0.2,2.7,1.1c0.3,0.9-0.4,1.9-1.2,2.4l2.1,1.5c0.6,0.4,1.4,0.8,2.1,1l-1,0.3
	c-0.6,0.2-1,0.1-1.4-0.2l-1.7-1.3l-1.4-1.3c0.8-0.4,1.7-1,1.5-2c-0.2-0.8-1-1-1.7-0.8c-0.2,0.1-0.5,0.2-0.7,0.3l1.3,4.8
	c0.1,0.5,0.3,1.3,0.9,1.3l0,0L48.3,32l0,0c0.5-0.3,0.2-1.1,0.1-1.6l-1.1-4.1c-0.1-0.5-0.3-1.3-0.9-1.4l0,0L48.9,24.2z"/>
<path class="st0" d="M63.4,24.8c0.3,0,0.7,0,1,0.1c1.8,0.4,2.7,1.6,2.3,3.5c-0.4,1.9-2,2.4-3.7,2.1c-0.3-0.1-0.5-0.1-0.8-0.3
	L63.4,24.8z M61.2,29.3c-0.1,0.6-0.2,1.2-0.8,1.4l0,0l2.6,0.6c2.4,0.5,4.4-0.6,4.9-2.7c0.5-2.2-0.8-3.9-3.3-4.4L62,23.6l0,0
	c0.5,0.3,0.3,1.1,0.2,1.6L61.2,29.3z"/>
<path class="st0" d="M73.7,35.7c-0.4,0.5-0.6,0.9-0.4,1.5l0,0L71.7,36l0,0c0.7,0.1,0.9-0.3,1.3-0.8l2.7-3.6c0.4-0.5,0.6-0.9,0.4-1.5
	l0,0l1.3,1l0,0c0,0.1,0,0.2,0,0.3l0,0.3l0.2,6.6l2.5-3.4c0.4-0.5,0.6-0.9,0.4-1.5l0,0l1.6,1.2l0,0c-0.7-0.1-0.9,0.3-1.3,0.8l-3.7,5
	c-0.5-0.7-0.5-1.2-0.5-2l-0.2-6.2L73.7,35.7z"/>
<path class="st0" d="M85.4,48l-0.9-2l3-0.1L85.4,48z M84.7,48.7l-1.2,1.2c-0.6,0.6-0.7,0.7-1.1,0.3l0,0l0.9,2.1l0,0
	c0-0.7,0.5-1.1,1-1.6l4.4-4.4L88,44.6l0,0c0.1,0.6-0.5,0.5-0.9,0.6l-5,0.1c-0.7,0-1.3,0.1-1.9-0.4l0,0l0.8,1.9l0,0
	c0-0.6,0.3-0.6,1-0.7l1.7-0.1L84.7,48.7z"/>
<path class="st0" d="M28.6,66.7l-0.9-2l3-0.2L28.6,66.7z M28,67.3l-1.2,1.2c-0.6,0.6-0.7,0.7-1.1,0.3l0,0l0.9,2.1l0,0
	c0-0.7,0.5-1.1,1-1.6l4.2-4.4l-0.7-1.6l0,0c0.1,0.6-0.4,0.6-0.9,0.6l-4.9,0.2c-0.7,0-1.3,0.1-1.9-0.3l0,0l0.8,1.8l0,0
	c0-0.6,0.3-0.6,0.9-0.7l1.7-0.1L28,67.3z"/>
<path class="st0" d="M33,78.2c-0.5,0.4-0.8,0.7-0.7,1.4l0,0L31,78.1l0,0c0.6,0.2,1-0.1,1.4-0.5l3.3-2.9c0.5-0.4,0.8-0.7,0.7-1.3l0,0
	l1.1,1.2l0,0c-0.1,0.1-0.1,0.2-0.1,0.3l-0.1,0.3l-1.2,6.4l3.2-2.7c0.5-0.4,0.8-0.7,0.7-1.3l0,0l1.3,1.5l0,0c-0.6-0.2-1,0.1-1.4,0.5
	l-4.7,4.1c-0.3-0.8-0.3-1.3-0.1-2l1.1-6L33,78.2z"/>
<path class="st0" d="M48.4,82.7c0.3,0,0.7,0.1,1,0.2c1.8,0.5,2.5,1.7,2,3.6c-0.5,1.8-2.2,2.3-3.8,1.8c-0.3-0.1-0.5-0.2-0.8-0.3
	L48.4,82.7z M46,87c-0.2,0.6-0.3,1.2-0.9,1.4l0,0l2.5,0.7c2.4,0.7,4.4-0.3,5-2.4c0.6-2.1-0.5-3.9-2.9-4.6l-2.6-0.7l0,0
	c0.5,0.3,0.2,1.1,0.1,1.6L46,87z"/>
<path class="st0" d="M64.1,81.9c1.5-0.3,2.4,0.4,2.6,1.4c0.2,1-0.5,1.9-1.4,2.2l1.9,1.7c0.6,0.5,1.3,0.9,2,1.2l-1,0.2
	c-0.6,0.1-1,0-1.4-0.3l-1.6-1.4L64,85.5c0.8-0.3,1.8-0.9,1.6-1.9c-0.1-0.8-0.9-1.1-1.6-1c-0.2,0.1-0.5,0.1-0.7,0.2l0.8,4.9
	c0.1,0.5,0.2,1.3,0.7,1.4l0,0l-2.1,0.4l0,0c0.5-0.3,0.3-1.1,0.2-1.6l-0.7-4.1c-0.1-0.5-0.1-1.3-0.7-1.4l0,0L64.1,81.9z"/>
<path class="st0" d="M80.4,79.3c0.1,0.8-0.4,1.6-1,2.1c-0.5,0.5-1.3,0.8-2,0.8c-0.9-0.1-1.3-0.6-1.9-1.2l-2-2.2
	c-0.3-0.4-0.8-1-1.4-0.8l0,0l1.6-1.4l0,0c-0.3,0.5,0.3,1.1,0.7,1.4l2,2.2c1,1.1,1.9,1.2,2.7,0.4c0.5-0.4,0.8-1,0.7-1.7
	c0-0.4-0.2-0.6-0.5-0.9L77,75.6c-0.3-0.4-0.8-1-1.4-0.8l0,0l1.6-1.4l0,0c-0.3,0.5,0.3,1.1,0.7,1.5l2.8,3.1c0.3,0.4,0.8,1,1.4,0.8
	l0,0l-1.2,1.1L80.4,79.3z"/>
<path class="st0" d="M83.7,63.7c-0.6,0.2-1,0.8-1.3,1.4c-0.2,0.6-0.3,1.4,0.4,1.7c1.4,0.5,2.8-3,4.7-2.3c1.1,0.4,1.7,2,1.1,3.6
	c-0.2,0.6-0.6,1.2-1,1.7l-1.4-0.2c0.8-0.4,1.4-1.1,1.7-1.9c0.2-0.6,0.2-1.6-0.5-1.9c-1.6-0.6-2.7,3-4.9,2.2c-1.3-0.5-1.3-2-0.8-3.3
	c0.2-0.5,0.5-1,0.8-1.4L83.7,63.7z"/>
<path class="st0" d="M80.2,56.8c0-12.9-10.4-23.3-23.3-23.3S33.7,44,33.7,56.8"/>
</svg>
