<?xml version="1.0" encoding="utf-8"?>
<!-- Generator: Adobe Illustrator 27.5.0, SVG Export Plug-In . SVG Version: 6.00 Build 0)  -->
<svg version="1.1" id="Layer_1" xmlns="http://www.w3.org/2000/svg" xmlns:xlink="http://www.w3.org/1999/xlink" x="0px" y="0px"
	 viewBox="0 0 80 80" style="enable-background:new 0 0 80 80;" xml:space="preserve">
<style type="text/css">
	.st0{fill:#FFFFFF;}
</style>
<rect width="80" height="80"/>
<rect x="21" y="18" class="st0" width="36" height="43"/>
<g transform="translate(-587.209 -273.128)">
	<path d="M633.62,315.51c-0.82-0.36-1.7-0.58-2.59-0.62c-0.96-0.06-1.9-0.1-2.83-0.1c-1.28,0.03-2.51,0.05-3.7,0.05
		c-1.02,0.03-2.07,0.05-3.15,0.05h-2.57c-0.42,0.05-0.8,0.26-1.06,0.6c-0.44,0.67-0.51,1.53-0.17,2.26c0.14,0.27,0.31,0.53,0.5,0.77
		c0.19,0.24,0.35,0.48,0.5,0.75c0.15,0.28,0.22,0.59,0.22,0.91c0.02,0.42-0.06,0.84-0.22,1.23c-0.14,0.3-0.31,0.58-0.5,0.84
		c-0.18,0.24-0.35,0.49-0.5,0.74c-0.15,0.27-0.23,0.58-0.22,0.89c-0.01,0.55,0.17,1.08,0.5,1.51c0.31,0.42,0.8,0.66,1.32,0.65h9.03
		c0.95,0,1.89-0.07,2.83-0.22c0.91-0.13,1.79-0.41,2.59-0.84c0.77-0.41,1.41-1.02,1.87-1.75c0.52-0.89,0.77-1.92,0.72-2.95
		c0.06-1.09-0.19-2.17-0.72-3.12C635.04,316.42,634.39,315.86,633.62,315.51z"/>
	<path d="M618.06,306.86c-0.19,0.23-0.36,0.48-0.5,0.74c-0.16,0.35-0.24,0.74-0.22,1.13c0,0.52,0.18,1.02,0.5,1.42
		c0.31,0.42,0.8,0.66,1.32,0.65l1.01,0.05c0.77,0,1.6-0.01,2.5-0.02c0.9-0.02,1.74-0.02,2.52-0.02h3.19
		c0.86-0.03,1.71-0.14,2.55-0.34c0.79-0.18,1.56-0.47,2.26-0.89c0.68-0.41,1.24-0.98,1.64-1.66c0.44-0.81,0.65-1.72,0.62-2.64
		c0.07-1.06-0.19-2.11-0.72-3.03c-0.46-0.69-1.11-1.23-1.87-1.56c-0.81-0.35-1.68-0.55-2.57-0.6c-0.94-0.07-1.88-0.1-2.81-0.1
		c-1.18,0.03-2.3,0.05-3.36,0.05c-0.93,0.03-1.88,0.05-2.86,0.05h-2.42c-0.43,0.05-0.81,0.27-1.08,0.6
		c-0.27,0.33-0.41,0.75-0.41,1.17c-0.01,0.33,0.06,0.67,0.22,0.96c0.14,0.26,0.31,0.5,0.5,0.72c0.19,0.22,0.36,0.47,0.5,0.72
		c0.15,0.28,0.22,0.59,0.22,0.91c0.02,0.35-0.05,0.7-0.22,1.01C618.41,306.42,618.24,306.64,618.06,306.86z"/>
	<path d="M625.54,282.13c-16.57,0-30,13.43-30,30s13.43,30,30,30s30-13.43,30-30l0,0C655.52,295.57,642.1,282.15,625.54,282.13z
		 M639.62,324.63c-0.58,1.18-1.45,2.19-2.54,2.93c-1.2,0.78-2.54,1.33-3.94,1.61c-1.67,0.35-3.38,0.52-5.09,0.5h-14.5v-33.61h11.16
		c0.69,0,1.33-0.01,1.92-0.02c0.59-0.02,1.13-0.02,1.61-0.02h1.15c1.31,0,2.62,0.16,3.89,0.48c1.2,0.3,2.33,0.84,3.31,1.58
		c0.98,0.76,1.77,1.74,2.31,2.86c0.61,1.35,0.91,2.82,0.86,4.3c0.02,0.95-0.12,1.9-0.41,2.81c-0.25,0.74-0.63,1.44-1.13,2.04
		c-0.25,0.37-0.68,0.57-1.13,0.53c-0.32-0.06-0.65-0.09-0.98-0.1c-0.54-0.03-1.07,0.2-1.42,0.62c-0.31,0.36-0.49,0.82-0.5,1.3
		c-0.05,0.57,0.2,1.12,0.65,1.46c0.37,0.28,0.81,0.44,1.27,0.46c0.31,0.01,0.62-0.04,0.91-0.15c0.23-0.09,0.48-0.16,0.72-0.22
		c0.21-0.05,0.43-0.02,0.63,0.07c0.28,0.18,0.51,0.43,0.67,0.72c1.07,1.58,1.59,3.47,1.49,5.38
		C640.59,321.7,640.27,323.23,639.62,324.63L639.62,324.63z"/>
</g>
</svg>
