<svg xmlns="http://www.w3.org/2000/svg" width="60" height="60" viewBox="0 0 60 60">
  <g transform="translate(-587.209 -273.128)">
    <path d="M670.852,374.763a7.4,7.4,0,0,0-2.594-.625q-1.439-.094-2.832-.1-1.921.049-3.7.048-1.536.049-3.145.048h-2.568a1.548,1.548,0,0,0-1.057.6,2.325,2.325,0,0,0-.168,2.257,4.6,4.6,0,0,0,.5.768,5.849,5.849,0,0,1,.5.746,1.835,1.835,0,0,1,.216.911,2.9,2.9,0,0,1-.216,1.225,4.972,4.972,0,0,1-.5.841,8.268,8.268,0,0,0-.5.743,1.686,1.686,0,0,0-.216.889,2.392,2.392,0,0,0,.5,1.513,1.594,1.594,0,0,0,1.321.648h9.028a19.193,19.193,0,0,0,2.832-.216,7.8,7.8,0,0,0,2.594-.841,5.015,5.015,0,0,0,1.873-1.753,5.4,5.4,0,0,0,.72-2.952,5.7,5.7,0,0,0-.72-3.123A4.381,4.381,0,0,0,670.852,374.763Z" transform="translate(-45.564 -68.256)"/>
    <path d="M655.294,335.2a3.919,3.919,0,0,0-.5.743,2.428,2.428,0,0,0-.216,1.13,2.254,2.254,0,0,0,.5,1.416,1.594,1.594,0,0,0,1.321.648l1.006.048q1.152,0,2.5-.023t2.521-.025h3.193a13.294,13.294,0,0,0,2.546-.337,7.811,7.811,0,0,0,2.257-.886,4.665,4.665,0,0,0,1.635-1.657,5.15,5.15,0,0,0,.622-2.641,5.35,5.35,0,0,0-.72-3.028,4.33,4.33,0,0,0-1.873-1.559,7.624,7.624,0,0,0-2.568-.6q-1.416-.1-2.809-.1-1.777.049-3.361.05c-.929.03-1.881.047-2.857.047h-2.425a1.635,1.635,0,0,0-1.083.6,1.816,1.816,0,0,0-.406,1.175,1.923,1.923,0,0,0,.216.962,4.276,4.276,0,0,0,.5.72,4.642,4.642,0,0,1,.5.721,1.837,1.837,0,0,1,.216.911,1.893,1.893,0,0,1-.216,1.009A6.469,6.469,0,0,1,655.294,335.2Z" transform="translate(-45.564 -37.341)"/>
    <path d="M617.209,273.128a30,30,0,1,0,30,30A30.034,30.034,0,0,0,617.209,273.128Zm14.082,42.5a7.536,7.536,0,0,1-2.543,2.93,11.238,11.238,0,0,1-3.939,1.609,23.842,23.842,0,0,1-5.091.5h-14.5V287.058h11.16q1.032,0,1.92-.025c.593-.016,1.13-.023,1.609-.023h1.152a15.645,15.645,0,0,1,3.889.48,9.106,9.106,0,0,1,3.314,1.584,8.011,8.011,0,0,1,2.307,2.857,9.685,9.685,0,0,1,.864,4.3,8.613,8.613,0,0,1-.409,2.809,6.426,6.426,0,0,1-1.127,2.041,1.212,1.212,0,0,1-1.13.529,6.319,6.319,0,0,0-.984-.1,1.721,1.721,0,0,0-1.416.623,2.043,2.043,0,0,0-.5,1.3,1.662,1.662,0,0,0,.648,1.464,2.21,2.21,0,0,0,1.273.457,2.556,2.556,0,0,0,.911-.146,5.579,5.579,0,0,1,.72-.216.931.931,0,0,1,.626.073,2.093,2.093,0,0,1,.673.72,8.73,8.73,0,0,1,1.489,5.377A9.889,9.889,0,0,1,631.291,315.63Z"/>
  </g>
</svg>
