<svg xmlns="http://www.w3.org/2000/svg" width="1880" height="274.596" viewBox="0 0 1880 274.596">
  <path  d="M3059.282,2032.242a6.927,6.927,0,0,0-4.751-.565,41.559,41.559,0,0,0-5.474,1.675,19.024,19.024,0,0,1-6.925,1.13,16.612,16.612,0,0,1-9.672-3.546q-4.923-3.536-4.922-11.358a16.053,16.053,0,0,1,3.834-10.073q3.835-4.821,10.759-4.832a46.988,46.988,0,0,1,7.478.741c3.052.507,5.894-.876,8.584-4.111a50.154,50.154,0,0,0,8.566-15.839,68.211,68.211,0,0,0,3.109-21.8q0-19.724-6.562-33.353a61.925,61.925,0,0,0-17.531-22.171,68.517,68.517,0,0,0-25.181-12.293,116.531,116.531,0,0,0-29.55-3.722h-8.756q-5.466,0-12.228.176-6.753.2-14.594.194h-76.439v260.869h101.792a177.473,177.473,0,0,0,38.687-3.916q17.512-3.916,29.931-12.488a58.068,58.068,0,0,0,19.325-22.736q6.952-14.144,6.943-34.659,0-26.448-11.312-41.732C3062.449,2034.852,3060.75,2032.982,3059.282,2032.242Zm-150.513-76.021a36.084,36.084,0,0,0-3.834-5.592,33.478,33.478,0,0,1-3.835-5.59,15.223,15.223,0,0,1-1.64-7.462,14.288,14.288,0,0,1,3.089-9.117,12.349,12.349,0,0,1,8.222-4.657H2929.2c7.421,0,14.651-.137,21.709-.37q12.047,0,25.543-.39,10.586,0,21.346.76a56.874,56.874,0,0,1,19.515,4.657,33.088,33.088,0,0,1,14.232,12.1q5.493,8.211,5.474,23.5,0,12.274-4.731,20.5a35.78,35.78,0,0,1-12.418,12.858,58.521,58.521,0,0,1-17.15,6.877,98.774,98.774,0,0,1-19.344,2.611h-24.265c-5.952,0-12.343.078-19.153.2s-13.143.175-18.98.175l-7.65-.37a12.027,12.027,0,0,1-10.035-5.026,17.725,17.725,0,0,1-3.833-10.988c0-3.721.534-6.644,1.64-8.767a30.686,30.686,0,0,1,3.835-5.767,50.522,50.522,0,0,0,3.834-5.221c1.088-1.733,1.64-4.344,1.64-7.831A14.516,14.516,0,0,0,2908.769,1956.222Zm128.612,147.014a38.422,38.422,0,0,1-14.231,13.6,58.42,58.42,0,0,1-19.705,6.527,142.683,142.683,0,0,1-21.518,1.675h-68.6a12.026,12.026,0,0,1-10.035-5.025,18.826,18.826,0,0,1-3.833-11.748,13.341,13.341,0,0,1,1.64-6.9,65.857,65.857,0,0,1,3.835-5.767,38.84,38.84,0,0,0,3.834-6.527,22.951,22.951,0,0,0,1.64-9.507,14.512,14.512,0,0,0-1.64-7.072,45.847,45.847,0,0,0-3.834-5.786,35.807,35.807,0,0,1-3.835-5.963,16.255,16.255,0,0,1-1.64-7.636,16.079,16.079,0,0,1,2.918-9.879,11.714,11.714,0,0,1,8.031-4.656h19.516q12.218,0,23.9-.371,13.507,0,28.1-.37,10.586,0,21.518.741a55.171,55.171,0,0,1,19.705,4.851,33.5,33.5,0,0,1,14.231,12.664q5.494,8.592,5.475,24.236C3042.856,2089.754,3041.044,2097.41,3037.381,2103.236Z" transform="translate(-2879.029 -1885.121)"/>
  <path d="M3441.932,2081.976v-.057l-71.746-189.447H3333.33l-87.5,230.3h-59.059c-8.623,0,1.507.077-7.746.194q-13.848.176-26.076.176h-33.4a13.468,13.468,0,0,1-10.034-3.9,12.642,12.642,0,0,1-3.834-9.137q0-5.962,1.66-8.2a59.65,59.65,0,0,0,3.643-5.767,45.729,45.729,0,0,0,3.834-10.812q1.8-7.278,1.812-22.931V1892.472h-31.38V2153.71h183.5l13.506-36.9c1.449-4.462,1.832-7.871,1.087-10.248a16.575,16.575,0,0,0-3.643-6.332q-2.547-2.807-4.923-5.963c-1.582-2.1-2.384-5.025-2.384-8.766a33.814,33.814,0,0,1,2.194-7.442,16.479,16.479,0,0,1,4.387-5.4c1.946-1.617,4.616-2.435,8.032-2.435a39.551,39.551,0,0,1,11.311,1.87,50.726,50.726,0,0,0,14.594,1.85h78.442c6.086,0,11.007-.6,14.784-1.85a37.562,37.562,0,0,1,11.866-1.87,12.945,12.945,0,0,1,8.2,2.435,15.732,15.732,0,0,1,4.559,5.4,33.866,33.866,0,0,1,2.193,7.442q0,5.611-2.557,8.766c-1.7,2.1-3.472,4.171-5.284,6.158a21.874,21.874,0,0,0-4.2,6.506q-1.459,3.566.725,9.878l13.144,36.9h34.3l-24.646-65.11Zm-136.7-33.353a28.874,28.874,0,0,0,3.644-4.482,29.373,29.373,0,0,0,2.918-4.656,66.681,66.681,0,0,0,2.919-6.526l22.624-60.746a65.73,65.73,0,0,0,3.11-13.034,33.15,33.15,0,0,0-.19-9.312c-.478-2.728-1.031-5.222-1.642-7.462a28.259,28.259,0,0,1-.915-7.443q0-4.469,3.472-9.507t10.4-5.027q7.3,0,11.313,4.463a15.565,15.565,0,0,1,4.025,10.812,26.765,26.765,0,0,1-.917,7.072,43.317,43.317,0,0,0-1.277,7.268,56.053,56.053,0,0,0,0,9.136,48.617,48.617,0,0,0,3.281,13.034l21.538,60.376a29,29,0,0,0,2.728,6.526c1.107,1.871,2.137,3.547,3.11,5.026a16.267,16.267,0,0,0,3.643,4.482Z" transform="translate(-2869.983 -1885.098)" />
  <path d="M4343.027,1892.472l-99.255,261.239h34.662l13.5-36.9c1.451-4.462,1.832-7.871,1.089-10.248a16.568,16.568,0,0,0-3.644-6.332q-2.547-2.807-4.922-5.963c-1.583-2.1-2.385-5.025-2.385-8.766a33.853,33.853,0,0,1,2.194-7.442,16.493,16.493,0,0,1,4.388-5.4c1.945-1.617,4.615-2.435,8.032-2.435A39.574,39.574,0,0,1,4308,2072.1a50.71,50.71,0,0,0,14.593,1.85h78.442c6.085,0,11.006-.6,14.784-1.85a37.557,37.557,0,0,1,11.864-1.87,12.942,12.942,0,0,1,8.2,2.435,15.718,15.718,0,0,1,4.559,5.4,33.721,33.721,0,0,1,2.193,7.442c0,3.741-.858,6.663-2.556,8.766s-3.472,4.171-5.284,6.158a21.846,21.846,0,0,0-4.2,6.506q-1.46,3.566.725,9.878l13.143,36.9h34.3l-98.892-261.239Zm58.927,146.643c1.106,1.871,2.137,3.547,3.11,5.026a16.236,16.236,0,0,0,3.642,4.482h-93.778a28.846,28.846,0,0,0,3.644-4.482,29.39,29.39,0,0,0,2.918-4.656,66.922,66.922,0,0,0,2.918-6.526l22.624-60.746a65.767,65.767,0,0,0,3.11-13.034,33.141,33.141,0,0,0-.19-9.312c-.478-2.728-1.03-5.222-1.641-7.462a28.3,28.3,0,0,1-.9-7.443q0-4.469,3.454-9.507c2.306-3.351,5.78-5.027,10.4-5.027q7.3,0,11.313,4.463a15.566,15.566,0,0,1,4.025,10.812,26.836,26.836,0,0,1-.916,7.072,43.164,43.164,0,0,0-1.279,7.268,56.442,56.442,0,0,0,0,9.136,48.6,48.6,0,0,0,3.282,13.034l21.537,60.376A29.049,29.049,0,0,0,4401.954,2039.115Z" transform="translate(-2819.165 -1885.098)" />
  <path d="M3894,1892.82h-38.306l-90.136,91.313a59.521,59.521,0,0,0-11.485,15.82c-2.555,5.357-4.883,10.247-6.943,14.729a51.876,51.876,0,0,1-6.562,10.987c-2.308,2.865-5.666,4.286-10.035,4.286a15.182,15.182,0,0,1-7.668-1.676,13.315,13.315,0,0,1-4.56-4.092,14.108,14.108,0,0,1-2.194-5.22,26.6,26.6,0,0,1-.534-5.027,82.928,82.928,0,0,1,1.812-12.858q1.833-9.5,3.834-22.172t3.834-27.217a223.312,223.312,0,0,0,1.832-27.937V1892.82h-31.763v260.5h31.763v-90.184l42.693-43.231,91.585,133.415h39.412L3791.1,1997.907Z" transform="translate(-2843.231 -1885.075)" />
  <path d="M4209.168,1923.021l86.111.39v-30.938h-212v30.938l87.943-.39a13.435,13.435,0,0,1,10.034,3.917,12.675,12.675,0,0,1,3.835,9.136,25.82,25.82,0,0,1-1.641,9.878c-1.107,2.61-2.329,5.766-3.664,9.507a108.14,108.14,0,0,0-3.834,14.708q-1.831,9.147-1.811,24.782V2153.34h32.105V1994.949q0-15.634-1.832-24.782a111.222,111.222,0,0,0-3.816-14.708c-1.355-3.741-2.556-6.9-3.662-9.507a25.847,25.847,0,0,1-1.641-9.878,12.667,12.667,0,0,1,3.835-9.136A13.4,13.4,0,0,1,4209.168,1923.021Z" transform="translate(-2826.204 -1885.098)"/>
  <path d="M4642.229,2058.7q-5.837-10.431-11.674-16.209a56.848,56.848,0,0,0-10.951-8.747q28.846-4.852,45.994-21.431,17.139-16.6,17.148-48.647,0-19.724-6.752-33.353a58.458,58.458,0,0,0-18.98-22.171q-12.219-8.563-29.187-12.293a173.5,173.5,0,0,0-37.047-3.722h-4.558q-3.835,0-9.844.176-6.038.2-13.316.194h-78.1v260.5h32.851v-33.548a158.83,158.83,0,0,0-2.022-27.763q-2-10.987-4.2-18.626a117.619,117.619,0,0,0-4.2-12.488,24.353,24.353,0,0,1-2-9.312,16.639,16.639,0,0,1,3.471-9.7,12.872,12.872,0,0,1,8.947-5.592h58.736a43.561,43.561,0,0,1,18.257,6.351q8.382,5.2,16.042,18.255l43.8,92.424,33.937.37Zm-31.553-52.913a155.828,155.828,0,0,1-21.346,1.481h-71.518a13.126,13.126,0,0,1-8.947-5.2,16.063,16.063,0,0,1-3.471-10.072,19.319,19.319,0,0,1,1.64-8.748,32.959,32.959,0,0,1,3.833-5.785,43.966,43.966,0,0,0,3.837-5.222c1.086-1.735,1.639-4.209,1.639-7.443v-1.5a14.538,14.538,0,0,0-1.639-7.073,42.026,42.026,0,0,0-3.837-5.785,38.694,38.694,0,0,1-3.833-5.963,16.478,16.478,0,0,1-1.64-7.636,13.314,13.314,0,0,1,2.384-7.637,15.153,15.153,0,0,1,6.372-5.4h18.979q12.391,0,25.183-.37,14.593,0,31.018-.39,10.558,0,21.346.76a56.864,56.864,0,0,1,19.515,4.657,33.07,33.07,0,0,1,14.231,12.1q5.466,8.211,5.475,23.5,0,14.145-5.475,22.716a36.079,36.079,0,0,1-14.231,13.053A60.973,60.973,0,0,1,4610.676,2005.785Z" transform="translate(-2808.584 -1885.121)" />
  <path d="M3632.991,2092.01a77.286,77.286,0,0,1-14.976,20.319,62.326,62.326,0,0,1-20.6,13.034q-11.875,4.675-27.565,4.656-24.438,0-41.586-8.377a73.482,73.482,0,0,1-27.737-22.932,95.169,95.169,0,0,1-13.889-28.269l-.018-.057-2.594-12.411-.019-.1-.02-.1a23.95,23.95,0,0,0-1.545-5.573v-.019c-.153-.37-.306-.721-.477-1.052a50.537,50.537,0,0,0-6.047-9.215,78.55,78.55,0,0,1-6.047-8.3c-.21-.351-.439-.721-.668-1.11a23.987,23.987,0,0,1-3.243-11.2v-.235l.02-1.052c.019-3.817,1.736-7.617,3.338-10.637.229-.429.458-.838.668-1.227a69.77,69.77,0,0,1,6.142-9.118,59.343,59.343,0,0,0,6.123-9.449,21.939,21.939,0,0,0,1.985-5.552c.247-1.092.515-2.183.782-3.273a97.707,97.707,0,0,1,15.51-34.094,73.6,73.6,0,0,1,27.737-22.911q17.141-8.388,41.586-8.4,27.727,0,43.971,14.729t26.1,38.945H3672c-4.445-14.729-11.466-28.191-16.94-37.64a96.766,96.766,0,0,0-19.9-24.411,82.8,82.8,0,0,0-27.546-15.839q-15.882-5.582-37.771-5.592-30.646,0-53.261,10.813a106.013,106.013,0,0,0-37.6,29.438,122.783,122.783,0,0,0-17.95,30.821q-2.519,6.166-4.483,12.78a193.659,193.659,0,0,0,0,106.588,136.088,136.088,0,0,0,4.673,13.209,121.8,121.8,0,0,0,17.76,30.391,106.017,106.017,0,0,0,37.6,29.439q22.605,10.812,53.261,10.813,23.351,0,40.327-6.528a85.908,85.908,0,0,0,29.016-18.078,99.76,99.76,0,0,0,20.069-27.568c5.341-10.7,12.876-27.7,16.215-41.751h-31.915A157.765,157.765,0,0,1,3632.991,2092.01Z" transform="translate(-2854.023 -1885.555)" />
  <path d="M4093.27,2056.442a47.223,47.223,0,0,0-5.075-11.145c-.686-1.071-1.392-2.124-2.117-3.136a61.362,61.362,0,0,0-17.187-16.073,93.857,93.857,0,0,0-10.474-5.709,108.311,108.311,0,0,0-16.31-6.038q-14.88-4.268-30.675-7.17t-30.636-5.844a161.528,161.528,0,0,1-19.629-5.1c-2.423-.779-4.77-1.636-7.039-2.533a61.345,61.345,0,0,1-11.123-5.727,46.02,46.02,0,0,1-8.011-6.605,20.42,20.42,0,0,1-1.355-1.539c-.4-.486-.8-.993-1.164-1.519.02-.019,0-.019-.019-.038a11.4,11.4,0,0,0-8.26-4.344h-.058c-2.919,0-6.027-1.385-9.309-4.092q-4.922-4.092-4.922-12.255c0-5.728,1.45-10.19,4.369-13.326a13.852,13.852,0,0,1,10.588-4.754c.706,0,1.393.04,2.061.1a.767.767,0,0,0,.229.02,13.332,13.332,0,0,0,9.157-3.974c.248-.253.5-.507.743-.779a56.389,56.389,0,0,1,13.049-9.663q12.219-6.838,36.3-7.54a103.156,103.156,0,0,1,19.439,1.15c.916.156,1.813.311,2.69.487a70.812,70.812,0,0,1,16.94,5.474,66.2,66.2,0,0,1,9.957,5.961c.859.624,1.7,1.266,2.48,1.909a49.55,49.55,0,0,1,8.642,9.078,55.435,55.435,0,0,1,9.882,25.444l3.8-.1,25.543-.722c-1.755-16.6-6.886-29.885-14.479-41.341a88.206,88.206,0,0,0-11.063-13.229c-.325-.331-.65-.642-.993-.973a72.974,72.974,0,0,0-17.492-12.2,98.885,98.885,0,0,0-23.96-8.28,127.646,127.646,0,0,0-30.331-2.512c-.249,0-.516.019-.764.019q-21.117.584-36.169,5.495c-10,3.252-18.369,7.286-25.028,12.059a63.313,63.313,0,0,0-15.852,15.721c-.687,1.033-1.355,2.046-1.966,3.079a68.1,68.1,0,0,0-6.7,13.774,68.915,68.915,0,0,0-3.606,15,81.449,81.449,0,0,0-.649,10.072c.039,1.344.1,2.67.191,3.976a61.446,61.446,0,0,0,4.884,20.865,45.849,45.849,0,0,0,2.844,5.339,52.476,52.476,0,0,0,3.147,4.519,58.946,58.946,0,0,0,16.367,14.864,92.232,92.232,0,0,0,10.682,5.709,106.745,106.745,0,0,0,16.464,6.02q15.051,4.266,30.846,7.345,13.764,2.69,26.975,5.28c1.3.254,2.575.507,3.853.76a155.981,155.981,0,0,1,27.032,7.637q11.99,4.7,19.325,12.507a26.2,26.2,0,0,1,2.594,3.254c.229.351.458.7.668,1.071a.8.8,0,0,1,.171.273,6.337,6.337,0,0,0,.42.7,11.052,11.052,0,0,0,7.116,5.006c.344.078.706.157,1.05.234a14.146,14.146,0,0,1,6.829,4.267c2.919,3.136,4.368,7.6,4.368,13.326q0,8.154-4.921,12.255c-3.282,2.708-6.392,4.091-9.31,4.091-.61,0-1.22-.02-1.812-.058h-.037c-4.521.273-6.047,1.227-7.993,3.467-.154.176-.324.37-.477.565-.249.332-.534.662-.82,1-.058.057-.115.135-.191.214v.018a47.775,47.775,0,0,1-10.511,9.021,70.37,70.37,0,0,1-12.228,6.333,109.6,109.6,0,0,1-33.766,7.266,120.471,120.471,0,0,1-25.295-2.007c-.726-.136-1.432-.272-2.156-.409a81.427,81.427,0,0,1-16.005-4.871,75.5,75.5,0,0,1-9.614-4.831,64.763,64.763,0,0,1-15.185-12.507,67.952,67.952,0,0,1-4.655-5.768c-5.418-7.558-8.795-16.911-10.053-28.054l-30.313.837c2.309,20.515,7.04,32.614,14.536,43.582a90.3,90.3,0,0,0,27.337,26.457q2.059,1.285,4.177,2.455a108.626,108.626,0,0,0,30.884,11.475,160.329,160.329,0,0,0,30.941,3.468c2.061.057,4.14.039,6.2-.021q26.954-1.871,48.244-11.806a91.6,91.6,0,0,0,17.436-10.169,75.331,75.331,0,0,0,15.108-14.964c1.012-1.325,1.985-2.708,2.882-4.13a72.173,72.173,0,0,0,7.688-16.462,78.5,78.5,0,0,0,3.49-25.677c0-.487-.019-.975-.019-1.462A71.055,71.055,0,0,0,4093.27,2056.442Z" transform="translate(-2834.805 -1885.41)" />
</svg>
