<svg width="790" height="790" viewBox="0 0 790 790" fill="none" xmlns="http://www.w3.org/2000/svg">
  <g clip-path="url(#clip0)">
    <path fill="currentColor" d="M725 782.5C725 780.511 725.79 778.603 727.197 777.197C728.603 775.79 730.511 775 732.5 775H732.67C733.654 774.996 734.63 775.186 735.541 775.56C736.452 775.933 737.28 776.482 737.979 777.176C738.677 777.87 739.232 778.695 739.611 779.603C739.991 780.511 740.187 781.486 740.19 782.47V782.47C740.194 783.455 740.004 784.431 739.631 785.342C739.257 786.254 738.708 787.083 738.015 787.782C737.321 788.481 736.496 789.037 735.588 789.418C734.679 789.798 733.705 789.996 732.72 790H732.5C730.511 790 728.603 789.21 727.197 787.803C725.79 786.397 725 784.489 725 782.5V782.5ZM694.86 782.5C694.86 780.511 695.65 778.603 697.057 777.197C698.463 775.79 700.371 775 702.36 775C704.349 775 706.257 775.79 707.663 777.197C709.07 778.603 709.86 780.511 709.86 782.5C709.86 784.489 709.07 786.397 707.663 787.803C706.257 789.21 704.349 790 702.36 790C700.371 790 698.463 789.21 697.057 787.803C695.65 786.397 694.86 784.489 694.86 782.5ZM664.72 782.5C664.72 780.511 665.51 778.603 666.917 777.197C668.323 775.79 670.231 775 672.22 775V775C674.209 775 676.117 775.79 677.523 777.197C678.93 778.603 679.72 780.511 679.72 782.5V782.5C679.72 784.489 678.93 786.397 677.523 787.803C676.117 789.21 674.209 790 672.22 790V790C670.231 790 668.323 789.21 666.917 787.803C665.51 786.397 664.72 784.489 664.72 782.5V782.5ZM634.58 782.5C634.58 780.511 635.37 778.603 636.777 777.197C638.183 775.79 640.091 775 642.08 775C644.069 775 645.977 775.79 647.383 777.197C648.79 778.603 649.58 780.511 649.58 782.5C649.58 784.489 648.79 786.397 647.383 787.803C645.977 789.21 644.069 790 642.08 790C640.091 790 638.183 789.21 636.777 787.803C635.37 786.397 634.58 784.489 634.58 782.5V782.5ZM604.44 782.5C604.44 780.511 605.23 778.603 606.637 777.197C608.043 775.79 609.951 775 611.94 775C613.929 775 615.837 775.79 617.243 777.197C618.65 778.603 619.44 780.511 619.44 782.5C619.44 784.489 618.65 786.397 617.243 787.803C615.837 789.21 613.929 790 611.94 790C609.951 790 608.043 789.21 606.637 787.803C605.23 786.397 604.44 784.489 604.44 782.5ZM574.3 782.5C574.3 780.511 575.09 778.603 576.497 777.197C577.903 775.79 579.811 775 581.8 775C583.789 775 585.697 775.79 587.103 777.197C588.51 778.603 589.3 780.511 589.3 782.5C589.3 784.489 588.51 786.397 587.103 787.803C585.697 789.21 583.789 790 581.8 790C579.811 790 577.903 789.21 576.497 787.803C575.09 786.397 574.3 784.489 574.3 782.5V782.5ZM544.15 782.5C544.15 781.514 544.344 780.538 544.722 779.628C545.099 778.717 545.653 777.89 546.35 777.193C547.048 776.497 547.876 775.944 548.787 775.568C549.698 775.192 550.674 774.999 551.66 775V775C553.649 775 555.557 775.79 556.963 777.197C558.37 778.603 559.16 780.511 559.16 782.5C559.16 784.489 558.37 786.397 556.963 787.803C555.557 789.21 553.649 790 551.66 790C550.674 790.001 549.698 789.808 548.787 789.432C547.876 789.056 547.048 788.503 546.35 787.807C545.653 787.11 545.099 786.283 544.722 785.372C544.344 784.462 544.15 783.486 544.15 782.5V782.5ZM514.02 782.5C514.019 781.516 514.211 780.541 514.587 779.631C514.963 778.721 515.515 777.894 516.21 777.197C516.906 776.501 517.732 775.948 518.641 775.571C519.551 775.194 520.526 775 521.51 775C523.499 775 525.407 775.79 526.813 777.197C528.22 778.603 529.01 780.511 529.01 782.5C529.01 784.489 528.22 786.397 526.813 787.803C525.407 789.21 523.499 790 521.51 790C520.524 790.003 519.547 789.811 518.635 789.435C517.724 789.059 516.895 788.507 516.197 787.81C515.5 787.113 514.946 786.285 514.569 785.374C514.192 784.463 513.999 783.486 514 782.5H514.02ZM483.87 782.5C483.87 780.511 484.66 778.603 486.067 777.197C487.473 775.79 489.381 775 491.37 775C493.359 775 495.267 775.79 496.673 777.197C498.08 778.603 498.87 780.511 498.87 782.5C498.87 784.489 498.08 786.397 496.673 787.803C495.267 789.21 493.359 790 491.37 790C489.381 790 487.473 789.21 486.067 787.803C484.66 786.397 483.87 784.489 483.87 782.5V782.5ZM453.73 782.5C453.73 780.511 454.52 778.603 455.927 777.197C457.333 775.79 459.241 775 461.23 775C463.219 775 465.127 775.79 466.533 777.197C467.94 778.603 468.73 780.511 468.73 782.5C468.73 784.489 467.94 786.397 466.533 787.803C465.127 789.21 463.219 790 461.23 790C459.241 790 457.333 789.21 455.927 787.803C454.52 786.397 453.73 784.489 453.73 782.5V782.5ZM423.59 782.5C423.59 780.511 424.38 778.603 425.787 777.197C427.193 775.79 429.101 775 431.09 775C433.079 775 434.987 775.79 436.393 777.197C437.8 778.603 438.59 780.511 438.59 782.5C438.59 784.489 437.8 786.397 436.393 787.803C434.987 789.21 433.079 790 431.09 790C429.101 790 427.193 789.21 425.787 787.803C424.38 786.397 423.59 784.489 423.59 782.5V782.5ZM393.45 782.5C393.45 780.511 394.24 778.603 395.647 777.197C397.053 775.79 398.961 775 400.95 775C402.939 775 404.847 775.79 406.253 777.197C407.66 778.603 408.45 780.511 408.45 782.5C408.45 784.489 407.66 786.397 406.253 787.803C404.847 789.21 402.939 790 400.95 790C398.961 790 397.053 789.21 395.647 787.803C394.24 786.397 393.45 784.489 393.45 782.5V782.5ZM363.31 782.5C363.31 780.511 364.1 778.603 365.507 777.197C366.913 775.79 368.821 775 370.81 775C372.799 775 374.707 775.79 376.113 777.197C377.52 778.603 378.31 780.511 378.31 782.5C378.31 784.489 377.52 786.397 376.113 787.803C374.707 789.21 372.799 790 370.81 790C368.821 790 366.913 789.21 365.507 787.803C364.1 786.397 363.31 784.489 363.31 782.5V782.5ZM333.17 782.5C333.17 780.511 333.96 778.603 335.367 777.197C336.773 775.79 338.681 775 340.67 775C342.659 775 344.567 775.79 345.973 777.197C347.38 778.603 348.17 780.511 348.17 782.5C348.17 784.489 347.38 786.397 345.973 787.803C344.567 789.21 342.659 790 340.67 790C338.681 790 336.773 789.21 335.367 787.803C333.96 786.397 333.17 784.489 333.17 782.5V782.5ZM303.03 782.5C303.03 780.511 303.82 778.603 305.227 777.197C306.633 775.79 308.541 775 310.53 775C312.519 775 314.427 775.79 315.833 777.197C317.24 778.603 318.03 780.511 318.03 782.5C318.03 784.489 317.24 786.397 315.833 787.803C314.427 789.21 312.519 790 310.53 790C309.543 790.004 308.564 789.813 307.651 789.438C306.737 789.063 305.907 788.511 305.207 787.814C304.508 787.117 303.953 786.289 303.574 785.377C303.195 784.465 303 783.487 303 782.5H303.03ZM272.89 782.5C272.89 780.511 273.68 778.603 275.087 777.197C276.493 775.79 278.401 775 280.39 775C282.379 775 284.287 775.79 285.693 777.197C287.1 778.603 287.89 780.511 287.89 782.5C287.89 784.489 287.1 786.397 285.693 787.803C284.287 789.21 282.379 790 280.39 790C278.401 790 276.493 789.21 275.087 787.803C273.68 786.397 272.89 784.489 272.89 782.5V782.5ZM242.75 782.5C242.75 780.511 243.54 778.603 244.947 777.197C246.353 775.79 248.261 775 250.25 775C252.239 775 254.147 775.79 255.553 777.197C256.96 778.603 257.75 780.511 257.75 782.5C257.75 784.489 256.96 786.397 255.553 787.803C254.147 789.21 252.239 790 250.25 790C248.261 790 246.353 789.21 244.947 787.803C243.54 786.397 242.75 784.489 242.75 782.5V782.5ZM212.61 782.5C212.61 780.511 213.4 778.603 214.807 777.197C216.213 775.79 218.121 775 220.11 775C222.099 775 224.007 775.79 225.413 777.197C226.82 778.603 227.61 780.511 227.61 782.5C227.61 784.489 226.82 786.397 225.413 787.803C224.007 789.21 222.099 790 220.11 790C218.121 790 216.213 789.21 214.807 787.803C213.4 786.397 212.61 784.489 212.61 782.5V782.5ZM182.47 782.5C182.47 780.511 183.26 778.603 184.667 777.197C186.073 775.79 187.981 775 189.97 775C191.959 775 193.867 775.79 195.273 777.197C196.68 778.603 197.47 780.511 197.47 782.5C197.47 784.489 196.68 786.397 195.273 787.803C193.867 789.21 191.959 790 189.97 790C187.981 790 186.073 789.21 184.667 787.803C183.26 786.397 182.47 784.489 182.47 782.5V782.5ZM152.32 782.5C152.32 781.514 152.514 780.538 152.892 779.628C153.269 778.717 153.823 777.89 154.52 777.193C155.218 776.497 156.046 775.944 156.957 775.568C157.868 775.192 158.844 774.999 159.83 775V775C161.819 775 163.727 775.79 165.133 777.197C166.54 778.603 167.33 780.511 167.33 782.5C167.33 784.489 166.54 786.397 165.133 787.803C163.727 789.21 161.819 790 159.83 790C158.844 790.001 157.868 789.808 156.957 789.432C156.046 789.056 155.218 788.503 154.52 787.807C153.823 787.11 153.269 786.283 152.892 785.372C152.514 784.462 152.32 783.486 152.32 782.5V782.5ZM122.19 782.5C122.189 781.516 122.381 780.541 122.757 779.631C123.133 778.721 123.685 777.894 124.38 777.197C125.076 776.501 125.902 775.948 126.811 775.571C127.721 775.194 128.696 775 129.68 775C131.669 775 133.577 775.79 134.983 777.197C136.39 778.603 137.18 780.511 137.18 782.5C137.18 784.489 136.39 786.397 134.983 787.803C133.577 789.21 131.669 790 129.68 790C128.696 790 127.721 789.806 126.811 789.429C125.902 789.052 125.076 788.499 124.38 787.803C123.685 787.106 123.133 786.279 122.757 785.369C122.381 784.46 122.189 783.484 122.19 782.5V782.5ZM92.04 782.5C92.04 780.511 92.8302 778.603 94.2367 777.197C95.6432 775.79 97.5509 775 99.54 775C101.529 775 103.437 775.79 104.843 777.197C106.25 778.603 107.04 780.511 107.04 782.5C107.04 784.489 106.25 786.397 104.843 787.803C103.437 789.21 101.529 790 99.54 790C98.5518 790.005 97.5721 789.815 96.6576 789.441C95.743 789.066 94.9115 788.515 94.2108 787.818C93.5101 787.121 92.9541 786.292 92.5747 785.379C92.1953 784.467 92 783.488 92 782.5H92.04ZM61.9 782.5C61.9 780.511 62.6901 778.603 64.0967 777.197C65.5032 775.79 67.4109 775 69.4 775C71.3891 775 73.2967 775.79 74.7032 777.197C76.1098 778.603 76.9 780.511 76.9 782.5C76.9 784.489 76.1098 786.397 74.7032 787.803C73.2967 789.21 71.3891 790 69.4 790C67.4109 790 65.5032 789.21 64.0967 787.803C62.6901 786.397 61.9 784.489 61.9 782.5V782.5ZM37 786.23C35.1424 785.52 33.6428 784.102 32.8308 782.287C32.0188 780.471 31.961 778.408 32.67 776.55V776.55C33.0204 775.629 33.5488 774.787 34.2252 774.071C34.9016 773.355 35.7127 772.779 36.6118 772.377C37.511 771.975 38.4806 771.754 39.4652 771.727C40.4498 771.7 41.4302 771.868 42.35 772.22C44.2075 772.93 45.7072 774.348 46.5192 776.164C47.3311 777.979 47.3891 780.042 46.68 781.9V781.9C46.1382 783.318 45.1792 784.539 43.9296 785.401C42.6799 786.264 41.1983 786.727 39.68 786.73V786.73C38.7634 786.731 37.8545 786.562 37 786.23V786.23ZM754.85 777.87C754.288 777.061 753.89 776.149 753.681 775.187C753.471 774.224 753.453 773.23 753.627 772.261C753.802 771.291 754.166 770.366 754.698 769.537C755.231 768.708 755.921 767.992 756.73 767.43V767.43C757.538 766.867 758.45 766.468 759.413 766.258C760.376 766.047 761.37 766.029 762.34 766.203C763.31 766.378 764.236 766.742 765.065 767.275C765.893 767.809 766.609 768.5 767.17 769.31V769.31C768.303 770.945 768.741 772.962 768.388 774.919C768.036 776.876 766.922 778.613 765.29 779.75C764.035 780.619 762.546 781.086 761.02 781.09C759.806 781.094 758.609 780.803 757.533 780.243C756.456 779.682 755.532 778.867 754.84 777.87H754.85ZM10.17 765.14C9.6096 764.33 9.21441 763.418 9.00707 762.455C8.79974 761.492 8.78425 760.498 8.96166 759.529C9.13907 758.56 9.5058 757.636 10.0409 756.809C10.576 755.982 11.2689 755.269 12.0799 754.71V754.71C12.8899 754.15 13.8024 753.754 14.7652 753.547C15.7281 753.34 16.7224 753.324 17.6912 753.502C18.66 753.679 19.5842 754.046 20.4111 754.581C21.238 755.116 21.9512 755.809 22.51 756.62C23.6392 758.257 24.0724 760.275 23.7142 762.23C23.3561 764.186 22.2359 765.92 20.6 767.05V767.05C19.3487 767.917 17.8623 768.381 16.34 768.38V768.38C15.1239 768.384 13.9254 768.091 12.8484 767.526C11.7714 766.961 10.8486 766.142 10.16 765.14H10.17ZM776.63 757.21C774.772 756.506 773.269 755.093 772.452 753.282C771.634 751.471 771.569 749.409 772.27 747.55V747.55C772.976 745.691 774.391 744.189 776.205 743.373C778.018 742.557 780.081 742.495 781.94 743.2V743.2C782.862 743.548 783.707 744.074 784.425 744.748C785.143 745.422 785.722 746.232 786.127 747.13C786.532 748.029 786.756 748.998 786.785 749.983C786.815 750.968 786.65 751.949 786.3 752.87C785.759 754.289 784.8 755.512 783.551 756.376C782.301 757.239 780.819 757.705 779.3 757.71V757.71C778.384 757.709 777.475 757.539 776.62 757.21H776.63ZM-9.14e-06 732.56C-0.00132323 731.575 0.191311 730.6 0.567007 729.689C0.942704 728.779 1.49406 727.951 2.18957 727.254C2.88508 726.556 3.71116 726.003 4.6206 725.625C5.53004 725.247 6.50507 725.051 7.48998 725.05C8.47526 725.047 9.45138 725.239 10.3624 725.614C11.2735 725.99 12.1016 726.541 12.7992 727.237C13.4968 727.932 14.0503 728.759 14.428 729.669C14.8056 730.579 15 731.555 15 732.54V732.54C15 734.528 14.2116 736.436 12.8075 737.843C11.4034 739.251 9.49831 740.045 7.51 740.05V740.05C6.52509 740.051 5.5496 739.859 4.63915 739.483C3.72871 739.107 2.90109 738.556 2.20373 737.86C1.50636 737.165 0.952821 736.339 0.574698 735.429C0.196575 734.52 0.0013032 733.545 -9.14e-06 732.56V732.56ZM775 720.45C775 718.461 775.79 716.553 777.197 715.147C778.603 713.74 780.511 712.95 782.5 712.95C784.489 712.95 786.397 713.74 787.803 715.147C789.21 716.553 790 718.461 790 720.45C790 722.439 789.21 724.347 787.803 725.753C786.397 727.16 784.489 727.95 782.5 727.95C780.511 727.95 778.603 727.16 777.197 725.753C775.79 724.347 775 722.439 775 720.45V720.45ZM-9.14e-06 702.45C-9.14e-06 700.461 0.790123 698.553 2.19665 697.147C3.60317 695.74 5.51087 694.95 7.49999 694.95C9.48911 694.95 11.3968 695.74 12.8033 697.147C14.2099 698.553 15 700.461 15 702.45C15 704.439 14.2099 706.347 12.8033 707.753C11.3968 709.16 9.48911 709.95 7.49999 709.95C6.5117 709.95 5.53316 709.755 4.6206 709.375C3.70804 708.996 2.87945 708.44 2.18249 707.739C1.48552 707.039 0.933867 706.207 0.559317 705.292C0.184767 704.378 -0.00528001 703.398 -9.14e-06 702.41V702.45ZM775 690.35C775 688.361 775.79 686.453 777.197 685.047C778.603 683.64 780.511 682.85 782.5 682.85C784.489 682.85 786.397 683.64 787.803 685.047C789.21 686.453 790 688.361 790 690.35C790 692.339 789.21 694.247 787.803 695.653C786.397 697.06 784.489 697.85 782.5 697.85C781.512 697.85 780.533 697.655 779.621 697.275C778.708 696.896 777.88 696.34 777.183 695.639C776.486 694.939 775.934 694.107 775.559 693.192C775.185 692.278 774.995 691.298 775 690.31V690.35ZM-9.14e-06 672.35C-9.14e-06 670.361 0.790123 668.453 2.19665 667.047C3.60317 665.64 5.51087 664.85 7.49999 664.85C9.48911 664.85 11.3968 665.64 12.8033 667.047C14.2099 668.453 15 670.361 15 672.35C15 674.339 14.2099 676.247 12.8033 677.653C11.3968 679.06 9.48911 679.85 7.49999 679.85C6.50831 679.85 5.52651 679.653 4.61132 679.272C3.69612 678.89 2.8657 678.33 2.1682 677.625C1.47071 676.92 0.919892 676.084 0.54772 675.165C0.175549 674.246 -0.0105871 673.262 -9.14e-06 672.27V672.35ZM775 660.25C775 658.261 775.79 656.353 777.197 654.947C778.603 653.54 780.511 652.75 782.5 652.75C784.489 652.75 786.397 653.54 787.803 654.947C789.21 656.353 790 658.261 790 660.25C790 662.239 789.21 664.147 787.803 665.553C786.397 666.96 784.489 667.75 782.5 667.75C781.508 667.75 780.527 667.554 779.611 667.172C778.696 666.79 777.866 666.23 777.168 665.525C776.471 664.82 775.92 663.984 775.548 663.065C775.176 662.146 774.989 661.162 775 660.17V660.25ZM-9.14e-06 642.25C-9.14e-06 640.261 0.790123 638.353 2.19665 636.947C3.60317 635.54 5.51087 634.75 7.49999 634.75C9.48911 634.75 11.3968 635.54 12.8033 636.947C14.2099 638.353 15 640.261 15 642.25C15 644.239 14.2099 646.147 12.8033 647.553C11.3968 648.96 9.48911 649.75 7.49999 649.75C6.5049 649.75 5.51977 649.552 4.60192 649.168C3.68407 648.783 2.85183 648.22 2.1538 647.511C1.45577 646.802 0.905899 645.961 0.536124 645.037C0.166348 644.113 -0.0159306 643.125 -9.14e-06 642.13V642.25ZM775 630C775 628.011 775.79 626.103 777.197 624.697C778.603 623.29 780.511 622.5 782.5 622.5C784.489 622.5 786.397 623.29 787.803 624.697C789.21 626.103 790 628.011 790 630C790 631.989 789.21 633.897 787.803 635.303C786.397 636.71 784.489 637.5 782.5 637.5C780.511 637.5 778.603 636.71 777.197 635.303C775.79 633.897 775 631.989 775 630ZM-9.14e-06 612C-9.14e-06 610.011 0.790123 608.103 2.19665 606.697C3.60317 605.29 5.51087 604.5 7.49999 604.5C9.48911 604.5 11.3968 605.29 12.8033 606.697C14.2099 608.103 15 610.011 15 612C15.0013 612.986 14.8083 613.962 14.432 614.873C14.0557 615.784 13.5034 616.612 12.8069 617.31C12.1103 618.007 11.283 618.561 10.3724 618.938C9.46183 619.316 8.48575 619.51 7.49999 619.51C6.51423 619.51 5.53815 619.316 4.62755 618.938C3.71696 618.561 2.88968 618.007 2.19311 617.31C1.49654 616.612 0.944306 615.784 0.567984 614.873C0.191662 613.962 -0.00132348 612.986 -9.14e-06 612V612ZM775 599.91C775 597.921 775.79 596.013 777.197 594.607C778.603 593.2 780.511 592.41 782.5 592.41C784.489 592.41 786.397 593.2 787.803 594.607C789.21 596.013 790 597.921 790 599.91C790 601.899 789.21 603.807 787.803 605.213C786.397 606.62 784.489 607.41 782.5 607.41C781.513 607.41 780.536 607.215 779.625 606.837C778.714 606.459 777.886 605.905 777.19 605.206C776.493 604.508 775.941 603.679 775.565 602.766C775.189 601.854 774.997 600.877 775 599.89V599.91ZM-9.14e-06 581.91C-0.00132348 580.924 0.191662 579.948 0.567984 579.037C0.944306 578.126 1.49654 577.298 2.19311 576.6C2.88968 575.903 3.71696 575.349 4.62755 574.972C5.53815 574.594 6.51423 574.4 7.49999 574.4C8.48575 574.4 9.46183 574.594 10.3724 574.972C11.283 575.349 12.1103 575.903 12.8069 576.6C13.5034 577.298 14.0557 578.126 14.432 579.037C14.8083 579.948 15.0013 580.924 15 581.91V581.91C14.9973 583.897 14.206 585.803 12.7998 587.207C11.3936 588.611 9.48738 589.4 7.49999 589.4V589.4C6.51086 589.4 5.53149 589.204 4.61828 588.824C3.70506 588.444 2.87604 587.887 2.17895 587.186C1.48185 586.484 0.930466 585.651 0.556509 584.736C0.182553 583.82 -0.00660338 582.839 -9.14e-06 581.85V581.91ZM775 569.81C775 567.821 775.79 565.913 777.197 564.507C778.603 563.1 780.511 562.31 782.5 562.31C784.489 562.31 786.397 563.1 787.803 564.507C789.21 565.913 790 567.821 790 569.81C790 571.799 789.21 573.707 787.803 575.113C786.397 576.52 784.489 577.31 782.5 577.31C781.51 577.31 780.53 577.114 779.616 576.733C778.702 576.353 777.873 575.795 777.175 575.092C776.478 574.389 775.927 573.555 775.554 572.639C775.18 571.722 774.992 570.74 775 569.75V569.81ZM-9.14e-06 551.81C-9.14e-06 549.821 0.790123 547.913 2.19665 546.507C3.60317 545.1 5.51087 544.31 7.49999 544.31C9.48911 544.31 11.3968 545.1 12.8033 546.507C14.2099 547.913 15 549.821 15 551.81C15 553.799 14.2099 555.707 12.8033 557.113C11.3968 558.52 9.48911 559.31 7.49999 559.31C6.50575 559.31 5.52143 559.113 4.60424 558.729C3.68705 558.345 2.85536 557.783 2.15746 557.075C1.45957 556.366 0.90943 555.527 0.539053 554.604C0.168677 553.681 -0.0145913 552.694 -9.14e-06 551.7V551.81ZM775 539.72C775 537.731 775.79 535.823 777.197 534.417C778.603 533.01 780.511 532.22 782.5 532.22C784.489 532.22 786.397 533.01 787.803 534.417C789.21 535.823 790 537.731 790 539.72C790 541.709 789.21 543.617 787.803 545.023C786.397 546.43 784.489 547.22 782.5 547.22C781.506 547.22 780.521 547.023 779.604 546.639C778.687 546.255 777.855 545.693 777.157 544.985C776.46 544.276 775.909 543.437 775.539 542.514C775.169 541.591 774.985 540.604 775 539.61V539.72ZM-9.14e-06 521.67C-9.14e-06 519.681 0.790123 517.773 2.19665 516.367C3.60317 514.96 5.51087 514.17 7.49999 514.17C9.48911 514.17 11.3968 514.96 12.8033 516.367C14.2099 517.773 15 519.681 15 521.67C15 523.659 14.2099 525.567 12.8033 526.973C11.3968 528.38 9.48911 529.17 7.49999 529.17C6.50575 529.17 5.52143 528.973 4.60424 528.589C3.68705 528.205 2.85536 527.643 2.15746 526.935C1.45957 526.226 0.90943 525.387 0.539053 524.464C0.168677 523.541 -0.0145913 522.554 -9.14e-06 521.56V521.67ZM775 509.58C775 507.591 775.79 505.683 777.197 504.277C778.603 502.87 780.511 502.08 782.5 502.08C784.489 502.08 786.397 502.87 787.803 504.277C789.21 505.683 790 507.591 790 509.58C790 511.569 789.21 513.477 787.803 514.883C786.397 516.29 784.489 517.08 782.5 517.08C781.506 517.08 780.521 516.883 779.604 516.499C778.687 516.115 777.855 515.553 777.157 514.845C776.46 514.136 775.909 513.297 775.539 512.374C775.169 511.451 774.985 510.464 775 509.47V509.58ZM-9.14e-06 491.53C-9.14e-06 489.541 0.790123 487.633 2.19665 486.227C3.60317 484.82 5.51087 484.03 7.49999 484.03V484.03C9.48911 484.03 11.3968 484.82 12.8033 486.227C14.2099 487.633 15 489.541 15 491.53V491.53C15 493.519 14.2099 495.427 12.8033 496.833C11.3968 498.24 9.48911 499.03 7.49999 499.03V499.03C6.50575 499.03 5.52143 498.833 4.60424 498.449C3.68705 498.065 2.85536 497.503 2.15746 496.795C1.45957 496.086 0.90943 495.247 0.539053 494.324C0.168677 493.401 -0.0145913 492.414 -9.14e-06 491.42V491.53ZM775 479.44C775 477.451 775.79 475.543 777.197 474.137C778.603 472.73 780.511 471.94 782.5 471.94V471.94C784.489 471.94 786.397 472.73 787.803 474.137C789.21 475.543 790 477.451 790 479.44V479.44C790 480.424 789.806 481.399 789.429 482.309C789.052 483.218 788.499 484.044 787.803 484.74C787.106 485.435 786.279 485.987 785.369 486.363C784.46 486.739 783.484 486.931 782.5 486.93C781.506 486.931 780.522 486.735 779.605 486.352C778.688 485.97 777.856 485.408 777.158 484.701C776.46 483.994 775.91 483.155 775.539 482.232C775.169 481.31 774.985 480.324 775 479.33V479.44ZM-9.14e-06 461.39C-9.14e-06 459.401 0.790123 457.493 2.19665 456.087C3.60317 454.68 5.51087 453.89 7.49999 453.89C9.48911 453.89 11.3968 454.68 12.8033 456.087C14.2099 457.493 15 459.401 15 461.39C15 463.379 14.2099 465.287 12.8033 466.693C11.3968 468.1 9.48911 468.89 7.49999 468.89C6.50575 468.89 5.52143 468.693 4.60424 468.309C3.68705 467.925 2.85536 467.363 2.15746 466.655C1.45957 465.946 0.90943 465.107 0.539053 464.184C0.168677 463.261 -0.0145913 462.274 -9.14e-06 461.28V461.39ZM775 449.29C775 447.301 775.79 445.393 777.197 443.987C778.603 442.58 780.511 441.79 782.5 441.79C784.489 441.79 786.397 442.58 787.803 443.987C789.21 445.393 790 447.301 790 449.29C790 451.279 789.21 453.187 787.803 454.593C786.397 456 784.489 456.79 782.5 456.79C781.506 456.79 780.521 456.593 779.604 456.209C778.687 455.825 777.855 455.263 777.157 454.555C776.46 453.846 775.909 453.007 775.539 452.084C775.169 451.161 774.985 450.174 775 449.18V449.29ZM-9.14e-06 431.29C-9.14e-06 429.301 0.790123 427.393 2.19665 425.987C3.60317 424.58 5.51087 423.79 7.49999 423.79C9.48911 423.79 11.3968 424.58 12.8033 425.987C14.2099 427.393 15 429.301 15 431.29C15 433.279 14.2099 435.187 12.8033 436.593C11.3968 438 9.48911 438.79 7.49999 438.79C6.50233 438.79 5.5147 438.591 4.59484 438.205C3.67498 437.819 2.84137 437.253 2.14294 436.541C1.4445 435.828 0.895179 434.984 0.527213 434.056C0.159246 433.129 -0.0199624 432.137 -9.14e-06 431.14V431.29ZM775 419C775 417.011 775.79 415.103 777.197 413.697C778.603 412.29 780.511 411.5 782.5 411.5C784.489 411.5 786.397 412.29 787.803 413.697C789.21 415.103 790 417.011 790 419C790 420.989 789.21 422.897 787.803 424.303C786.397 425.71 784.489 426.5 782.5 426.5C780.511 426.5 778.603 425.71 777.197 424.303C775.79 422.897 775 420.989 775 419ZM-9.14e-06 401C-9.14e-06 399.011 0.790123 397.103 2.19665 395.697C3.60317 394.29 5.51087 393.5 7.49999 393.5C9.48911 393.5 11.3968 394.29 12.8033 395.697C14.2099 397.103 15 399.011 15 401C15 402.989 14.2099 404.897 12.8033 406.303C11.3968 407.71 9.48911 408.5 7.49999 408.5C5.51087 408.5 3.60317 407.71 2.19665 406.303C0.790123 404.897 -9.14e-06 402.989 -9.14e-06 401ZM775 388.9C775 386.911 775.79 385.003 777.197 383.597C778.603 382.19 780.511 381.4 782.5 381.4C784.489 381.4 786.397 382.19 787.803 383.597C789.21 385.003 790 386.911 790 388.9C790 390.889 789.21 392.797 787.803 394.203C786.397 395.61 784.489 396.4 782.5 396.4C780.511 396.4 778.603 395.61 777.197 394.203C775.79 392.797 775 390.889 775 388.9ZM-9.14e-06 370.9C-9.14e-06 368.911 0.790123 367.003 2.19665 365.597C3.60317 364.19 5.51087 363.4 7.49999 363.4C9.48911 363.4 11.3968 364.19 12.8033 365.597C14.2099 367.003 15 368.911 15 370.9C15 372.889 14.2099 374.797 12.8033 376.203C11.3968 377.61 9.48911 378.4 7.49999 378.4C6.5117 378.4 5.53316 378.205 4.6206 377.825C3.70804 377.446 2.87945 376.89 2.18249 376.189C1.48552 375.488 0.933867 374.657 0.559317 373.742C0.184767 372.828 -0.00528001 371.848 -9.14e-06 370.86V370.9ZM775 358.8C775 356.811 775.79 354.903 777.197 353.497C778.603 352.09 780.511 351.3 782.5 351.3C784.489 351.3 786.397 352.09 787.803 353.497C789.21 354.903 790 356.811 790 358.8C790 360.789 789.21 362.697 787.803 364.103C786.397 365.51 784.489 366.3 782.5 366.3C781.512 366.3 780.533 366.105 779.621 365.725C778.708 365.346 777.88 364.79 777.183 364.089C776.486 363.388 775.934 362.557 775.559 361.642C775.185 360.728 774.995 359.748 775 358.76V358.8ZM-9.14e-06 340.8C-9.14e-06 338.811 0.790123 336.903 2.19665 335.497C3.60317 334.09 5.51087 333.3 7.49999 333.3C9.48911 333.3 11.3968 334.09 12.8033 335.497C14.2099 336.903 15 338.811 15 340.8C15 342.789 14.2099 344.697 12.8033 346.103C11.3968 347.51 9.48911 348.3 7.49999 348.3C6.50831 348.3 5.52651 348.103 4.61132 347.722C3.69612 347.34 2.8657 346.78 2.1682 346.075C1.47071 345.37 0.919892 344.534 0.54772 343.615C0.175549 342.695 -0.0105871 341.712 -9.14e-06 340.72V340.8ZM775 328.7C775 326.711 775.79 324.803 777.197 323.397C778.603 321.99 780.511 321.2 782.5 321.2C784.489 321.2 786.397 321.99 787.803 323.397C789.21 324.803 790 326.711 790 328.7C790 330.689 789.21 332.597 787.803 334.003C786.397 335.41 784.489 336.2 782.5 336.2C781.508 336.2 780.527 336.003 779.611 335.622C778.696 335.24 777.866 334.68 777.168 333.975C776.471 333.27 775.92 332.434 775.548 331.515C775.176 330.596 774.989 329.612 775 328.62V328.7ZM-9.14e-06 310.7C-9.14e-06 308.711 0.790123 306.803 2.19665 305.397C3.60317 303.99 5.51087 303.2 7.49999 303.2C9.48911 303.2 11.3968 303.99 12.8033 305.397C14.2099 306.803 15 308.711 15 310.7C15 312.689 14.2099 314.597 12.8033 316.003C11.3968 317.41 9.48911 318.2 7.49999 318.2C6.5049 318.2 5.51977 318.002 4.60192 317.618C3.68407 317.233 2.85183 316.67 2.1538 315.961C1.45577 315.252 0.905899 314.411 0.536124 313.487C0.166348 312.563 -0.0159306 311.575 -9.14e-06 310.58V310.7ZM775 298.6C775 296.611 775.79 294.703 777.197 293.297C778.603 291.89 780.511 291.1 782.5 291.1C784.489 291.1 786.397 291.89 787.803 293.297C789.21 294.703 790 296.611 790 298.6C790 300.589 789.21 302.497 787.803 303.903C786.397 305.31 784.489 306.1 782.5 306.1C781.505 306.1 780.52 305.902 779.602 305.518C778.684 305.133 777.852 304.57 777.154 303.861C776.456 303.152 775.906 302.311 775.536 301.387C775.166 300.463 774.984 299.475 775 298.48V298.6ZM-9.14e-06 280.6C-9.14e-06 278.611 0.790123 276.703 2.19665 275.297C3.60317 273.89 5.51087 273.1 7.49999 273.1C9.48911 273.1 11.3968 273.89 12.8033 275.297C14.2099 276.703 15 278.611 15 280.6C15 282.589 14.2099 284.497 12.8033 285.903C11.3968 287.31 9.48911 288.1 7.49999 288.1C6.50147 288.1 5.51293 287.901 4.5924 287.514C3.67187 287.127 2.83784 286.561 2.13927 285.847C1.4407 285.134 0.891644 284.288 0.524283 283.359C0.156921 282.431 -0.021311 281.438 -9.14e-06 280.44V280.6ZM775 268.5C775 266.511 775.79 264.603 777.197 263.197C778.603 261.79 780.511 261 782.5 261C784.489 261 786.397 261.79 787.803 263.197C789.21 264.603 790 266.511 790 268.5C790 270.489 789.21 272.397 787.803 273.803C786.397 275.21 784.489 276 782.5 276C781.501 276 780.513 275.801 779.593 275.414C778.672 275.027 777.838 274.461 777.139 273.747C776.441 273.034 775.892 272.188 775.524 271.259C775.157 270.331 774.979 269.338 775 268.34V268.5ZM-9.14e-06 250.5C-9.14e-06 248.511 0.790123 246.603 2.19665 245.197C3.60317 243.79 5.51087 243 7.49999 243V243C9.48911 243 11.3968 243.79 12.8033 245.197C14.2099 246.603 15 248.511 15 250.5V250.5C15 252.489 14.2099 254.397 12.8033 255.803C11.3968 257.21 9.48911 258 7.49999 258C6.49802 258 5.5061 257.8 4.58288 257.411C3.65965 257.021 2.82386 256.451 2.12475 255.733C1.42563 255.015 0.877371 254.165 0.512442 253.232C0.147513 252.298 -0.0267284 251.302 -9.14e-06 250.3V250.5ZM775 238.4C775 236.411 775.79 234.503 777.197 233.097C778.603 231.69 780.511 230.9 782.5 230.9C784.489 230.9 786.397 231.69 787.803 233.097C789.21 234.503 790 236.411 790 238.4C790 240.389 789.21 242.297 787.803 243.703C786.397 245.11 784.489 245.9 782.5 245.9C781.498 245.9 780.506 245.7 779.583 245.311C778.66 244.921 777.824 244.351 777.125 243.633C776.426 242.915 775.877 242.065 775.512 241.132C775.148 240.198 774.973 239.202 775 238.2V238.4ZM-9.14e-06 220.4C-1.00174e-05 219.416 0.194003 218.441 0.571036 217.531C0.948069 216.622 1.50069 215.796 2.19726 215.1C2.89383 214.405 3.72072 213.853 4.63061 213.477C5.54049 213.101 6.51555 212.909 7.49999 212.91C8.48443 212.909 9.45949 213.101 10.3694 213.477C11.2793 213.853 12.1062 214.405 12.8027 215.1C13.4993 215.796 14.0519 216.622 14.4289 217.531C14.806 218.441 15 219.416 15 220.4V220.4C15.0013 221.386 14.8083 222.362 14.432 223.273C14.0557 224.184 13.5034 225.012 12.8069 225.71C12.1103 226.407 11.283 226.961 10.3724 227.338C9.46183 227.716 8.48575 227.91 7.49999 227.91C6.49281 227.911 5.49579 227.708 4.56847 227.315C3.64116 226.922 2.8026 226.346 2.10265 225.622C1.4027 224.898 0.855744 224.04 0.494498 223.1C0.133251 222.16 -0.0349249 221.157 -9.14e-06 220.15V220.4ZM775 208.31C775 206.321 775.79 204.413 777.197 203.007C778.603 201.6 780.511 200.81 782.5 200.81C784.489 200.81 786.397 201.6 787.803 203.007C789.21 204.413 790 206.321 790 208.31C790 210.299 789.21 212.207 787.803 213.613C786.397 215.02 784.489 215.81 782.5 215.81C781.494 215.811 780.498 215.609 779.571 215.216C778.644 214.824 777.806 214.249 777.106 213.526C776.406 212.803 775.859 211.946 775.498 211.007C775.136 210.068 774.966 209.066 775 208.06V208.31ZM-9.14e-06 190.31C-0.00132348 189.324 0.191662 188.348 0.567984 187.437C0.944306 186.526 1.49654 185.698 2.19311 185C2.88968 184.303 3.71696 183.749 4.62755 183.372C5.53815 182.994 6.51423 182.8 7.49999 182.8C9.43821 182.798 11.3017 183.547 12.6999 184.89C14.0981 186.232 14.9225 188.063 15 190C15 190.984 14.806 191.959 14.4289 192.869C14.0519 193.778 13.4993 194.604 12.8027 195.3C12.1062 195.995 11.2793 196.547 10.3694 196.923C9.45949 197.299 8.48443 197.491 7.49999 197.49V197.49C6.51555 197.491 5.54049 197.299 4.63061 196.923C3.72072 196.547 2.89383 195.995 2.19726 195.3C1.50069 194.604 0.948069 193.778 0.571036 192.869C0.194003 191.959 -1.00174e-05 190.984 -9.14e-06 190V190.31ZM775 178.21C775 176.221 775.79 174.313 777.197 172.907C778.603 171.5 780.511 170.71 782.5 170.71C784.489 170.71 786.397 171.5 787.803 172.907C789.21 174.313 790 176.221 790 178.21C790 180.199 789.21 182.107 787.803 183.513C786.397 184.92 784.489 185.71 782.5 185.71C781.49 185.711 780.491 185.508 779.561 185.113C778.632 184.718 777.792 184.139 777.092 183.412C776.391 182.684 775.845 181.823 775.485 180.879C775.126 179.936 774.961 178.929 775 177.92V178.21ZM-9.14e-06 160.21C-9.14e-06 158.221 0.790123 156.313 2.19665 154.907C3.60317 153.5 5.51087 152.71 7.49999 152.71C9.48911 152.71 11.3968 153.5 12.8033 154.907C14.2099 156.313 15 158.221 15 160.21C15 162.199 14.2099 164.107 12.8033 165.513C11.3968 166.92 9.48911 167.71 7.49999 167.71C6.4858 167.711 5.4819 167.506 4.54906 167.108C3.61623 166.71 2.77382 166.127 2.07274 165.395C1.37167 164.662 0.826598 163.794 0.470328 162.845C0.114057 161.895 -0.0459863 160.883 -9.14e-06 159.87V160.21ZM775 148.12C775 146.131 775.79 144.223 777.197 142.817C778.603 141.41 780.511 140.62 782.5 140.62C784.489 140.62 786.397 141.41 787.803 142.817C789.21 144.223 790 146.131 790 148.12C790 150.109 789.21 152.017 787.803 153.423C786.397 154.83 784.489 155.62 782.5 155.62C781.486 155.621 780.482 155.416 779.549 155.018C778.616 154.62 777.774 154.037 777.073 153.305C776.372 152.572 775.826 151.704 775.47 150.755C775.114 149.805 774.954 148.793 775 147.78V148.12ZM-9.14e-06 130.07C-9.14e-06 128.081 0.790123 126.173 2.19665 124.767C3.60317 123.36 5.51087 122.57 7.49999 122.57C9.48911 122.57 11.3968 123.36 12.8033 124.767C14.2099 126.173 15 128.081 15 130.07C15 132.059 14.2099 133.967 12.8033 135.373C11.3968 136.78 9.48911 137.57 7.49999 137.57C6.4858 137.571 5.4819 137.366 4.54906 136.968C3.61623 136.57 2.77382 135.987 2.07274 135.255C1.37167 134.522 0.826598 133.654 0.470328 132.705C0.114057 131.755 -0.0459863 130.743 -9.14e-06 129.73V130.07ZM775 117.97C775 116.986 775.194 116.011 775.571 115.101C775.948 114.192 776.501 113.366 777.197 112.67C777.894 111.975 778.721 111.423 779.631 111.047C780.54 110.671 781.516 110.479 782.5 110.48C783.484 110.479 784.46 110.671 785.369 111.047C786.279 111.423 787.106 111.975 787.803 112.67C788.499 113.366 789.052 114.192 789.429 115.101C789.806 116.011 790 116.986 790 117.97C790.001 118.956 789.808 119.932 789.432 120.843C789.056 121.754 788.503 122.582 787.807 123.28C787.11 123.977 786.283 124.531 785.373 124.908C784.462 125.286 783.486 125.48 782.5 125.48V125.48C781.485 125.481 780.48 125.276 779.547 124.878C778.613 124.479 777.77 123.895 777.069 123.161C776.368 122.427 775.823 121.558 775.467 120.608C775.112 119.657 774.953 118.644 775 117.63V117.97ZM-9.14e-06 99.97C-9.14e-06 97.9809 0.790123 96.0732 2.19665 94.6667C3.60317 93.2602 5.51087 92.47 7.49999 92.47C9.48911 92.47 11.3968 93.2602 12.8033 94.6667C14.2099 96.0732 15 97.9809 15 99.97C15 101.959 14.2099 103.867 12.8033 105.273C11.3968 106.68 9.48911 107.47 7.49999 107.47C6.48227 107.471 5.47493 107.265 4.5393 106.865C3.60367 106.465 2.75937 105.878 2.05773 105.141C1.35609 104.404 0.811753 103.531 0.457999 102.577C0.104245 101.623 -0.0515746 100.606 -9.14e-06 99.59V99.97ZM775 87.5C775 85.5109 775.79 83.6032 777.197 82.1967C778.603 80.7902 780.511 80 782.5 80C784.489 80 786.397 80.7902 787.803 82.1967C789.21 83.6032 790 85.5109 790 87.5C790 88.4845 789.806 89.4592 789.429 90.3686C789.052 91.278 788.499 92.1041 787.803 92.7998C787.106 93.4954 786.279 94.0469 785.369 94.4227C784.46 94.7986 783.484 94.9913 782.5 94.99C781.516 94.9913 780.54 94.7986 779.631 94.4227C778.721 94.0469 777.894 93.4954 777.197 92.7998C776.501 92.1041 775.948 91.278 775.571 90.3686C775.194 89.4592 775 88.4845 775 87.5V87.5ZM-9.14e-06 69.5C-9.14e-06 67.5109 0.790123 65.6032 2.19665 64.1967C3.60317 62.7902 5.51087 62 7.49999 62C9.48911 62 11.3968 62.7902 12.8033 64.1967C14.2099 65.6032 15 67.5109 15 69.5C15 71.4891 14.2099 73.3968 12.8033 74.8033C11.3968 76.2098 9.48911 77 7.49999 77C6.51086 77 5.53149 76.8044 4.61828 76.4244C3.70506 76.0443 2.87604 75.4874 2.17895 74.7857C1.48185 74.0839 0.930466 73.2512 0.556509 72.3355C0.182553 71.4198 -0.00660338 70.4391 -9.14e-06 69.45V69.5ZM775 57.43C774.995 55.44 775.779 53.5292 777.182 52.1173C778.584 50.7054 780.49 49.908 782.48 49.9V49.9C783.465 49.8974 784.441 50.0888 785.352 50.4633C786.263 50.8377 787.091 51.388 787.789 52.0826C788.487 52.7771 789.042 53.6025 789.421 54.5114C789.801 55.4203 789.997 56.3951 790 57.38C790.003 58.3649 789.811 59.3407 789.437 60.2517C789.062 61.1626 788.512 61.9909 787.817 62.6892C787.123 63.3875 786.298 63.9421 785.389 64.3215C784.48 64.7008 783.505 64.8974 782.52 64.9V64.9C781.532 64.9027 780.553 64.7099 779.639 64.333C778.726 63.956 777.896 63.4022 777.197 62.7033C776.498 62.0045 775.944 61.1745 775.567 60.2609C775.19 59.3474 774.997 58.3683 775 57.38V57.43ZM8.08996 46.72C6.23227 46.01 4.73207 44.5921 3.91845 42.7774C3.10483 40.9627 3.04428 38.8993 3.74999 37.04C4.10048 36.1193 4.62897 35.2767 5.30517 34.5603C5.98136 33.8439 6.792 33.2678 7.69091 32.8647C8.58982 32.4617 9.55934 32.2397 10.5441 32.2115C11.5288 32.1832 12.5095 32.3492 13.43 32.7V32.7C15.2877 33.4101 16.7878 34.8279 17.6014 36.6427C18.415 38.4574 18.4757 40.5207 17.77 42.38V42.38C17.2282 43.7983 16.2692 45.0191 15.0195 45.8814C13.7699 46.7436 12.2883 47.2069 10.77 47.21V47.21C9.85443 47.2097 8.94642 47.0437 8.08996 46.72V46.72ZM767.45 33.31C766.319 31.6759 765.882 29.6596 766.237 27.7039C766.591 25.7483 767.707 24.0133 769.34 22.88V22.88C770.15 22.3183 771.062 21.9217 772.025 21.7126C772.988 21.5036 773.982 21.4864 774.952 21.6619C775.921 21.8374 776.847 22.2023 777.675 22.7356C778.504 23.2689 779.219 23.9602 779.78 24.77V24.77C780.912 26.4057 781.348 28.4236 780.994 30.3809C780.64 32.3381 779.523 34.0749 777.89 35.21V35.21C776.636 36.079 775.146 36.5432 773.62 36.54V36.54C772.407 36.5424 771.211 36.2496 770.136 35.6869C769.061 35.1242 768.139 34.3084 767.45 33.31V33.31ZM22.91 20.62C21.7824 18.9838 21.3492 16.9674 21.7053 15.0125C22.0614 13.0576 23.1779 11.3235 24.81 10.19V10.19C25.6202 9.62882 26.5328 9.23279 27.4961 9.02455C28.4593 8.81632 29.4541 8.79996 30.4237 8.97641C31.3933 9.15287 32.3186 9.51867 33.1467 10.0529C33.9748 10.5872 34.6895 11.2794 35.25 12.09V12.09C36.3802 13.7254 36.815 15.7425 36.4587 17.6983C36.1025 19.654 34.9843 21.3883 33.35 22.52V22.52C32.0995 23.39 30.6133 23.8575 29.09 23.86V23.86C27.8744 23.8612 26.6768 23.5669 25.6002 23.0025C24.5236 22.4381 23.6005 21.6204 22.91 20.62V20.62ZM747.58 17.75C745.721 17.044 744.219 15.6288 743.403 13.8155C742.587 12.0022 742.525 9.93922 743.23 8.08001V8.08001C743.938 6.22051 745.355 4.71801 747.17 3.90242C748.985 3.08683 751.049 3.02483 752.91 3.73001V3.73001C754.769 4.43599 756.271 5.85118 757.087 7.66449C757.903 9.4778 757.965 11.5408 757.26 13.4V13.4C756.721 14.821 755.763 16.0447 754.513 16.909C753.263 17.7733 751.78 18.2375 750.26 18.24C749.344 18.2397 748.437 18.0737 747.58 17.75V17.75ZM49.9 7.51001C49.8987 6.5251 50.0913 5.54957 50.467 4.63913C50.8427 3.72868 51.3941 2.90115 52.0896 2.20378C52.7851 1.50641 53.6112 0.952866 54.5206 0.574743C55.4301 0.196619 56.4051 0.00132648 57.39 1.41407e-05V1.41407e-05C58.3753 -0.0026168 59.3514 0.189176 60.2624 0.564406C61.1735 0.939635 62.0016 1.49093 62.6992 2.1867C63.3968 2.88247 63.9503 3.70905 64.328 4.61909C64.7057 5.52912 64.9 6.50473 64.9 7.49001V7.49001C64.9026 8.47446 64.7111 9.44976 64.3365 10.3601C63.9619 11.2705 63.4115 12.0981 62.7168 12.7956C62.0221 13.4931 61.1967 14.0468 60.2878 14.4251C59.379 14.8033 58.4045 14.9987 57.42 15V15C55.43 15.0027 53.5202 14.2154 52.1102 12.811C50.7002 11.4066 49.9053 9.50006 49.9 7.51001V7.51001ZM713 7.51001C713 5.52089 713.79 3.61324 715.197 2.20671C716.603 0.800191 718.511 0.0100144 720.5 0.0100144V0.0100144C722.489 0.0100144 724.397 0.800191 725.803 2.20671C727.21 3.61324 728 5.52089 728 7.51001V7.51001C728 9.49914 727.21 11.4068 725.803 12.8133C724.397 14.2198 722.489 15.01 720.5 15.01V15.01C719.514 15.01 718.538 14.8157 717.628 14.4382C716.717 14.0606 715.89 13.5073 715.193 12.8098C714.497 12.1123 713.944 11.2843 713.568 10.3732C713.192 9.46211 712.999 8.48577 713 7.50001V7.51001ZM682.86 7.51001C682.86 5.52089 683.65 3.61324 685.057 2.20671C686.463 0.800191 688.371 0.0100144 690.36 0.0100144V0.0100144C692.349 0.0100144 694.257 0.800191 695.663 2.20671C697.07 3.61324 697.86 5.52089 697.86 7.51001V7.51001C697.86 9.49914 697.07 11.4068 695.663 12.8133C694.257 14.2198 692.349 15.01 690.36 15.01V15.01C689.374 15.01 688.398 14.8157 687.488 14.4382C686.577 14.0606 685.75 13.5073 685.053 12.8098C684.357 12.1123 683.804 11.2843 683.428 10.3732C683.052 9.46211 682.859 8.48577 682.86 7.50001V7.51001ZM652.72 7.51001C652.72 5.52089 653.51 3.61324 654.917 2.20671C656.323 0.800191 658.231 0.0100144 660.22 0.0100144C662.209 0.0100144 664.117 0.800191 665.523 2.20671C666.93 3.61324 667.72 5.52089 667.72 7.51001C667.72 9.49914 666.93 11.4068 665.523 12.8133C664.117 14.2198 662.209 15.01 660.22 15.01C659.234 15.01 658.258 14.8157 657.348 14.4382C656.437 14.0606 655.61 13.5073 654.913 12.8098C654.217 12.1123 653.664 11.2843 653.288 10.3732C652.912 9.46211 652.719 8.48577 652.72 7.50001V7.51001ZM622.58 7.51001C622.58 5.52089 623.37 3.61324 624.777 2.20671C626.183 0.800191 628.091 0.0100144 630.08 0.0100144V0.0100144C632.069 0.0100144 633.977 0.800191 635.383 2.20671C636.79 3.61324 637.58 5.52089 637.58 7.51001V7.51001C637.58 9.49914 636.79 11.4068 635.383 12.8133C633.977 14.2198 632.069 15.01 630.08 15.01V15.01C629.094 15.01 628.118 14.8157 627.208 14.4382C626.297 14.0606 625.47 13.5073 624.773 12.8098C624.077 12.1123 623.524 11.2843 623.148 10.3732C622.772 9.46211 622.579 8.48577 622.58 7.50001V7.51001ZM592.44 7.51001C592.44 5.52089 593.23 3.61324 594.637 2.20671C596.043 0.800191 597.951 0.0100144 599.94 0.0100144C601.929 0.0100144 603.837 0.800191 605.243 2.20671C606.65 3.61324 607.44 5.52089 607.44 7.51001C607.44 9.49914 606.65 11.4068 605.243 12.8133C603.837 14.2198 601.929 15.01 599.94 15.01C598.954 15.01 597.978 14.8157 597.068 14.4382C596.157 14.0606 595.33 13.5073 594.633 12.8098C593.937 12.1123 593.384 11.2843 593.008 10.3732C592.632 9.46211 592.439 8.48577 592.44 7.50001V7.51001ZM562.29 7.51001C562.289 6.52342 562.482 5.54625 562.859 4.63451C563.236 3.72276 563.789 2.89434 564.487 2.19671C565.184 1.49908 566.013 0.945944 566.924 0.568998C567.836 0.192051 568.813 -0.0013022 569.8 1.41407e-05V1.41407e-05C571.789 1.41407e-05 573.697 0.79019 575.103 2.19671C576.51 3.60324 577.3 5.51089 577.3 7.50001C577.3 9.48914 576.51 11.3968 575.103 12.8033C573.697 14.2098 571.789 15 569.8 15C568.814 15.0013 567.838 14.8083 566.927 14.432C566.016 14.0557 565.188 13.5034 564.49 12.8069C563.793 12.1103 563.239 11.283 562.862 10.3725C562.484 9.46186 562.29 8.48577 562.29 7.50001V7.51001ZM532.16 7.51001C532.159 6.52557 532.351 5.55053 532.727 4.64064C533.103 3.73076 533.655 2.90389 534.35 2.20732C535.046 1.51075 535.872 0.958145 536.781 0.581112C537.691 0.204079 538.666 0.0100135 539.65 0.0100144V0.0100144C540.636 0.00870003 541.612 0.201723 542.523 0.578045C543.434 0.954367 544.262 1.5066 544.96 2.20317C545.657 2.89974 546.211 3.72698 546.588 4.63758C546.966 5.54817 547.16 6.52426 547.16 7.51001C547.16 8.49577 546.966 9.47186 546.588 10.3825C546.211 11.293 545.657 12.1203 544.96 12.8169C544.262 13.5134 543.434 14.0657 542.523 14.442C541.612 14.8183 540.636 15.0113 539.65 15.01V15.01C538.665 15.01 537.689 14.8156 536.779 14.438C535.869 14.0603 535.042 13.5068 534.347 12.8092C533.651 12.1115 533.1 11.2835 532.724 10.3725C532.349 9.46142 532.157 8.4853 532.16 7.50001V7.51001ZM502.01 7.51001C502.01 5.52089 502.8 3.61324 504.207 2.20671C505.613 0.800191 507.521 0.0100144 509.51 0.0100144C511.499 0.0100144 513.407 0.800191 514.813 2.20671C516.22 3.61324 517.01 5.52089 517.01 7.51001C517.01 9.49914 516.22 11.4068 514.813 12.8133C513.407 14.2198 511.499 15.01 509.51 15.01C508.523 15.0113 507.546 14.818 506.635 14.441C505.723 14.0641 504.894 13.511 504.197 12.8133C503.499 12.1157 502.946 11.2873 502.569 10.3755C502.192 9.46377 501.999 8.48661 502 7.50001L502.01 7.51001ZM471.87 7.51001C471.87 5.52089 472.66 3.61324 474.067 2.20671C475.473 0.800191 477.381 0.0100144 479.37 0.0100144C481.359 0.0100144 483.267 0.800191 484.673 2.20671C486.08 3.61324 486.87 5.52089 486.87 7.51001C486.87 9.49914 486.08 11.4068 484.673 12.8133C483.267 14.2198 481.359 15.01 479.37 15.01C478.384 15.01 477.408 14.8157 476.498 14.4382C475.587 14.0606 474.76 13.5073 474.063 12.8098C473.367 12.1123 472.814 11.2843 472.438 10.3732C472.062 9.46211 471.869 8.48577 471.87 7.50001V7.51001ZM441.73 7.51001C441.73 5.52089 442.52 3.61324 443.927 2.20671C445.333 0.800191 447.241 0.0100144 449.23 0.0100144C451.219 0.0100144 453.127 0.800191 454.533 2.20671C455.94 3.61324 456.73 5.52089 456.73 7.51001C456.73 9.49914 455.94 11.4068 454.533 12.8133C453.127 14.2198 451.219 15.01 449.23 15.01C448.244 15.01 447.268 14.8157 446.358 14.4382C445.447 14.0606 444.62 13.5073 443.923 12.8098C443.227 12.1123 442.674 11.2843 442.298 10.3732C441.922 9.46211 441.729 8.48577 441.73 7.50001V7.51001ZM411.59 7.51001C411.59 5.52089 412.38 3.61324 413.787 2.20671C415.193 0.800191 417.101 0.0100144 419.09 0.0100144C421.079 0.0100144 422.987 0.800191 424.393 2.20671C425.8 3.61324 426.59 5.52089 426.59 7.51001C426.59 9.49914 425.8 11.4068 424.393 12.8133C422.987 14.2198 421.079 15.01 419.09 15.01C418.104 15.01 417.128 14.8157 416.218 14.4382C415.307 14.0606 414.48 13.5073 413.783 12.8098C413.087 12.1123 412.534 11.2843 412.158 10.3732C411.782 9.46211 411.589 8.48577 411.59 7.50001V7.51001ZM381.45 7.51001C381.449 6.52004 381.643 5.53959 382.023 4.62522C382.402 3.71084 382.959 2.88064 383.661 2.18248C384.363 1.48432 385.196 0.932026 386.112 0.557446C387.029 0.182866 388.01 -0.00658662 389 1.41407e-05V1.41407e-05C390.989 1.41407e-05 392.897 0.79019 394.303 2.19671C395.71 3.60324 396.5 5.51089 396.5 7.50001C396.5 9.48914 395.71 11.3968 394.303 12.8033C392.897 14.2098 390.989 15 389 15C388.011 15.0066 387.03 14.8175 386.115 14.4435C385.199 14.0696 384.366 13.5182 383.664 12.8211C382.963 12.124 382.406 11.295 382.026 10.3817C381.646 9.46852 381.45 8.48915 381.45 7.50001V7.51001ZM351.31 7.51001C351.31 5.52089 352.1 3.61324 353.507 2.20671C354.913 0.800191 356.821 0.0100144 358.81 0.0100144C360.799 0.0100144 362.707 0.800191 364.113 2.20671C365.52 3.61324 366.31 5.52089 366.31 7.51001C366.31 9.49914 365.52 11.4068 364.113 12.8133C362.707 14.2198 360.799 15.01 358.81 15.01C357.824 15.01 356.848 14.8157 355.938 14.4382C355.027 14.0606 354.2 13.5073 353.503 12.8098C352.807 12.1123 352.254 11.2843 351.878 10.3732C351.502 9.46211 351.309 8.48577 351.31 7.50001V7.51001ZM321.17 7.51001C321.17 5.52089 321.96 3.61324 323.367 2.20671C324.773 0.800191 326.681 0.0100144 328.67 0.0100144C330.659 0.0100144 332.567 0.800191 333.973 2.20671C335.38 3.61324 336.17 5.52089 336.17 7.51001C336.17 9.49914 335.38 11.4068 333.973 12.8133C332.567 14.2198 330.659 15.01 328.67 15.01C327.684 15.01 326.708 14.8157 325.798 14.4382C324.887 14.0606 324.06 13.5073 323.363 12.8098C322.667 12.1123 322.114 11.2843 321.738 10.3732C321.362 9.46211 321.169 8.48577 321.17 7.50001V7.51001ZM291.03 7.51001C291.03 5.52089 291.82 3.61324 293.227 2.20671C294.633 0.800191 296.541 0.0100144 298.53 0.0100144C300.519 0.0100144 302.427 0.800191 303.833 2.20671C305.24 3.61324 306.03 5.52089 306.03 7.51001C306.03 9.49914 305.24 11.4068 303.833 12.8133C302.427 14.2198 300.519 15.01 298.53 15.01C297.542 15.014 296.562 14.8226 295.648 14.4468C294.734 14.071 293.903 13.5183 293.204 12.8204C292.504 12.1225 291.949 11.2932 291.571 10.3802C291.193 9.4671 290.999 8.4883 291 7.50001L291.03 7.51001ZM260.89 7.51001C260.89 5.52089 261.68 3.61324 263.087 2.20671C264.493 0.800191 266.401 0.0100144 268.39 0.0100144C270.379 0.0100144 272.287 0.800191 273.693 2.20671C275.1 3.61324 275.89 5.52089 275.89 7.51001C275.89 9.49914 275.1 11.4068 273.693 12.8133C272.287 14.2198 270.379 15.01 268.39 15.01C267.404 15.01 266.428 14.8157 265.518 14.4382C264.607 14.0606 263.78 13.5073 263.083 12.8098C262.387 12.1123 261.834 11.2843 261.458 10.3732C261.082 9.46211 260.889 8.48577 260.89 7.50001V7.51001ZM230.75 7.51001C230.75 5.52089 231.54 3.61324 232.947 2.20671C234.353 0.800191 236.261 0.0100144 238.25 0.0100144C240.239 0.0100144 242.147 0.800191 243.553 2.20671C244.96 3.61324 245.75 5.52089 245.75 7.51001C245.75 9.49914 244.96 11.4068 243.553 12.8133C242.147 14.2198 240.239 15.01 238.25 15.01C237.264 15.01 236.288 14.8157 235.378 14.4382C234.467 14.0606 233.64 13.5073 232.943 12.8098C232.247 12.1123 231.694 11.2843 231.318 10.3732C230.942 9.46211 230.749 8.48577 230.75 7.50001V7.51001ZM200.61 7.51001C200.61 5.52089 201.4 3.61324 202.807 2.20671C204.213 0.800191 206.121 0.0100144 208.11 0.0100144C210.099 0.0100144 212.007 0.800191 213.413 2.20671C214.82 3.61324 215.61 5.52089 215.61 7.51001C215.61 9.49914 214.82 11.4068 213.413 12.8133C212.007 14.2198 210.099 15.01 208.11 15.01C207.124 15.01 206.148 14.8157 205.238 14.4382C204.327 14.0606 203.5 13.5073 202.803 12.8098C202.107 12.1123 201.554 11.2843 201.178 10.3732C200.802 9.46211 200.609 8.48577 200.61 7.50001V7.51001ZM170.46 7.51001C170.459 6.52088 170.653 5.54126 171.032 4.62754C171.411 3.71383 171.966 2.88407 172.667 2.18605C173.368 1.48802 174.2 0.935515 175.115 0.560342C176.03 0.185168 177.011 -0.00526212 178 1.41407e-05C179.989 1.41407e-05 181.897 0.79019 183.303 2.19671C184.71 3.60324 185.5 5.51089 185.5 7.50001C185.5 9.48914 184.71 11.3968 183.303 12.8033C181.897 14.2098 179.989 15 178 15C177.012 15.0053 176.032 14.8152 175.118 14.4406C174.203 14.0661 173.371 13.5145 172.671 12.8175C171.97 12.1205 171.414 11.292 171.035 10.3794C170.655 9.46685 170.46 8.4883 170.46 7.50001V7.51001ZM140.33 7.51001C140.329 6.52557 140.521 5.55053 140.897 4.64064C141.273 3.73076 141.825 2.90389 142.52 2.20732C143.216 1.51075 144.042 0.958145 144.951 0.581112C145.861 0.204079 146.835 0.0100135 147.82 0.0100144V0.0100144C148.806 0.00870003 149.782 0.201723 150.693 0.578045C151.604 0.954367 152.432 1.5066 153.13 2.20317C153.827 2.89974 154.381 3.72698 154.758 4.63758C155.136 5.54817 155.33 6.52426 155.33 7.51001C155.33 8.49577 155.136 9.47186 154.758 10.3825C154.381 11.293 153.827 12.1203 153.13 12.8169C152.432 13.5134 151.604 14.0657 150.693 14.442C149.782 14.8183 148.806 15.0113 147.82 15.01V15.01C146.835 15.01 145.859 14.8156 144.949 14.438C144.039 14.0603 143.212 13.5068 142.517 12.8092C141.821 12.1115 141.27 11.2835 140.894 10.3725C140.519 9.46142 140.327 8.4853 140.33 7.50001V7.51001ZM110.19 7.51001C110.19 5.52089 110.98 3.61324 112.387 2.20671C113.793 0.800191 115.701 0.0100144 117.69 0.0100144C118.674 0.0100135 119.649 0.204079 120.559 0.581112C121.468 0.958145 122.294 1.51075 122.99 2.20732C123.685 2.90389 124.237 3.73076 124.613 4.64064C124.988 5.55053 125.181 6.52557 125.18 7.51001V7.51001C125.181 8.49446 124.988 9.4695 124.613 10.3794C124.237 11.2893 123.685 12.1161 122.99 12.8127C122.294 13.5093 121.468 14.0619 120.559 14.4389C119.649 14.8159 118.674 15.01 117.69 15.01V15.01C116.704 15.01 115.728 14.8157 114.817 14.4382C113.907 14.0606 113.08 13.5073 112.383 12.8098C111.687 12.1123 111.134 11.2843 110.758 10.3732C110.382 9.46211 110.189 8.48577 110.19 7.50001V7.51001ZM80.04 7.51001C80.04 5.52089 80.8302 3.61324 82.2367 2.20671C83.6432 0.800191 85.5509 0.0100144 87.54 0.0100144C89.5292 0.0100144 91.4367 0.800191 92.8433 2.20671C94.2498 3.61324 95.04 5.52089 95.04 7.51001C95.04 9.49914 94.2498 11.4068 92.8433 12.8133C91.4367 14.2198 89.5292 15.01 87.54 15.01C86.5509 15.0153 85.5705 14.8249 84.6553 14.4497C83.74 14.0745 82.9081 13.522 82.2073 12.824C81.5065 12.126 80.9506 11.2962 80.5718 10.3825C80.193 9.46877 79.9987 8.48914 80 7.50001L80.04 7.51001Z" />
  </g>
  <defs>
    <clipPath id="clip0">
      <rect width="790" height="790" fill="white"/>
    </clipPath>
  </defs>
</svg>
