<svg  xmlns="http://www.w3.org/2000/svg" width="40" height="40" viewBox="0 0 40 40">
  <path d="M3174.472,7836.112a8.759,8.759,0,0,1-8.751,8.747h-15a8.756,8.756,0,0,1-8.751-8.747v-15a8.755,8.755,0,0,1,8.751-8.746h15a8.759,8.759,0,0,1,8.751,8.746Zm-8.751-27.5h-15a12.5,12.5,0,0,0-12.5,12.5v15a12.5,12.5,0,0,0,12.5,12.5h15a12.5,12.5,0,0,0,12.5-12.5v-15a12.5,12.5,0,0,0-12.5-12.5" transform="translate(-3138.22 -7808.611)" fill="currentColor"/>
  <path d="M3158.222,7834.861a6.249,6.249,0,1,1,6.251-6.252,6.26,6.26,0,0,1-6.251,6.252m0-16.25a10,10,0,1,0,10,10,10,10,0,0,0-10-10" transform="translate(-3138.22 -7808.611)" fill="currentColor"/>
  <path d="M3168.971,7816.528a1.333,1.333,0,1,1-1.333,1.333,1.335,1.335,0,0,1,1.333-1.333" transform="translate(-3138.22 -7808.611)" fill="currentColor"/>
</svg>
