<svg  data-name="Group 8681" xmlns="http://www.w3.org/2000/svg" width="29.703" height="24" viewBox="0 0 29.703 24">
  <path d="M32.09,17.451A21.024,21.024,0,0,0,17.415,11.6,21.134,21.134,0,0,0,2.739,17.451a.548.548,0,0,0,0,.782l1.69,1.69a.511.511,0,0,0,.751,0,17.857,17.857,0,0,1,24.469,0,.538.538,0,0,0,.751,0l1.69-1.69A.5.5,0,0,0,32.09,17.451Z" transform="translate(-2.575 -11.6)" fill="currentColor"/>
  <path  d="M27.1,31.5a14.946,14.946,0,0,0-10.263,4.068.548.548,0,0,0,0,.782l1.721,1.69a.511.511,0,0,0,.751,0A11.554,11.554,0,0,1,27.134,35a11.407,11.407,0,0,1,7.823,3.035.571.571,0,0,0,.751,0l1.69-1.69a.547.547,0,0,0,0-.782A14.992,14.992,0,0,0,27.1,31.5Z" transform="translate(-12.263 -25.273)" fill="currentColor"/>
  <path d="M36.661,51.4a8.818,8.818,0,0,0-5.883,2.222.558.558,0,0,0-.031.814l1.69,1.69a.53.53,0,0,0,.72.031,5.508,5.508,0,0,1,6.915,0,.53.53,0,0,0,.72-.031l1.69-1.69a.559.559,0,0,0-.031-.814A8.41,8.41,0,0,0,36.661,51.4Z" transform="translate(-21.822 -38.946)" fill="currentColor"/>
  <path  d="M44.16,71.3a2.66,2.66,0,1,0,2.66,2.66A2.657,2.657,0,0,0,44.16,71.3Z" transform="translate(-29.32 -52.619)" fill="currentColor"/>
</svg>
