<svg xmlns="http://www.w3.org/2000/svg" width="25" height="24.883" viewBox="0 0 25 24.883">
  <path d="M-5711.12-532.42l-5.006,5.005-1.736-1.736,5.006-5.006a11.351,11.351,0,0,1-2.286-7A10.827,10.827,0,0,1-5704-552.3a10.827,10.827,0,0,1,11.14,11.139,10.811,10.811,0,0,1-11.14,11.14A11.125,11.125,0,0,1-5711.12-532.42Zm15.942-8.739a8.645,8.645,0,0,0-8.825-8.97,8.646,8.646,0,0,0-8.825,8.97,8.629,8.629,0,0,0,8.825,8.97A8.629,8.629,0,0,0-5695.178-541.159Z" transform="translate(5717.862 552.298)" fill="currentColor"/>
</svg>
