<svg version="1.1" id="Layer_1" xmlns="http://www.w3.org/2000/svg" xmlns:xlink="http://www.w3.org/1999/xlink" x="0px" y="0px"
	 viewBox="0 0 1920 950" style="enable-background:new 0 0 1920 950;" xml:space="preserve">
<style type="text/css">
	.st0{fill:none;}
	.st1{clip-path:url(#SVGID_00000001632191189650873620000005411651071157214094_);}
	.st2{fill:#FFDE03;}
	.st3{fill:none;stroke:#231F20;stroke-width:0.5;}
	.st4{clip-path:url(#SVGID_00000116216611358845403240000010330345421684404142_);fill:#FF9008;}
	.st5{clip-path:url(#SVGID_00000116216611358845403240000010330345421684404142_);fill:#FF9EC2;}
	.st6{clip-path:url(#SVGID_00000116216611358845403240000010330345421684404142_);fill:#00EEF9;}
	.st7{clip-path:url(#SVGID_00000116216611358845403240000010330345421684404142_);fill:#00E010;}
	.st8{clip-path:url(#SVGID_00000116216611358845403240000010330345421684404142_);fill:#FFDE03;}
	.st9{clip-path:url(#SVGID_00000116216611358845403240000010330345421684404142_);fill:#FFFFFF;}
	.st10{clip-path:url(#SVGID_00000082369991196315547530000008970874563468144305_);}
</style>
<path id="Path_107" class="st0" d="M0,130l383.8,66.9L1920,130v545.6H0V130z"/>
<g>
	<defs>
		<rect id="SVGID_1_" x="-0.6" y="-0.4" width="1921" height="949.9"/>
	</defs>
	<clipPath id="SVGID_00000086650451527744310800000017370644404800979101_">
		<use xlink:href="#SVGID_1_"  style="overflow:visible;"/>
	</clipPath>
	<g style="clip-path:url(#SVGID_00000086650451527744310800000017370644404800979101_);">
		<rect x="-454.6" y="-39.4" class="st2" width="2792.9" height="1009"/>
		<rect x="-433.1" y="-21.8" class="st3" width="2716.2" height="983"/>
		<g>
			<defs>
				<rect id="SVGID_00000085972612446154272320000009808594379216158397_" x="-530.7" y="-153.2" width="3132" height="1131"/>
			</defs>
			<clipPath id="SVGID_00000008862797123809138250000018211785140645588382_">
				<use xlink:href="#SVGID_00000085972612446154272320000009808594379216158397_"  style="overflow:visible;"/>
			</clipPath>
			<path style="clip-path:url(#SVGID_00000008862797123809138250000018211785140645588382_);fill:#FF9008;" d="M-166.2,887.1
				c201.3,0,364.5-162.1,364.5-362S35.1,163-166.2,163s-364.5,162.1-364.5,362S-367.5,887.1-166.2,887.1"/>
			<path style="clip-path:url(#SVGID_00000008862797123809138250000018211785140645588382_);fill:#FF9EC2;" d="M-112.7,861.3
				c201.3,0,364.5-162.1,364.5-362c0-199.9-163.2-362-364.5-362s-364.5,162.1-364.5,362C-477.2,699.2-314,861.3-112.7,861.3"/>
			<path style="clip-path:url(#SVGID_00000008862797123809138250000018211785140645588382_);fill:#00EEF9;" d="M1793.9,550.3
				c187.6,0,339.6-152.1,339.6-339.6S1981.4-129,1793.9-129s-339.6,152.1-339.6,339.6S1606.3,550.3,1793.9,550.3"/>
			<path style="clip-path:url(#SVGID_00000008862797123809138250000018211785140645588382_);fill:#FF9008;" d="M1843.7,526.1
				c187.6,0,339.6-152.1,339.6-339.6s-152.1-339.6-339.6-339.6c-187.6,0-339.6,152.1-339.6,339.6S1656.1,526.1,1843.7,526.1"/>
			<path style="clip-path:url(#SVGID_00000008862797123809138250000018211785140645588382_);fill:#FF9EC2;" d="M2035.4,477.2
				c71.2,0,129-56.3,129-125.7s-57.8-125.7-129-125.7c-71.2,0-129,56.3-129,125.7S1964.2,477.2,2035.4,477.2"/>
			<path style="clip-path:url(#SVGID_00000008862797123809138250000018211785140645588382_);fill:#00E010;" d="M2054.4,468.3
				c71.2,0,129-56.3,129-125.7s-57.8-125.7-129-125.7c-71.2,0-129,56.3-129,125.7S1983.1,468.3,2054.4,468.3"/>
			<path style="clip-path:url(#SVGID_00000008862797123809138250000018211785140645588382_);fill:#00E010;" d="M-208.7,348.1
				c83.8,0,151.8-66.2,151.8-147.9s-68-147.9-151.8-147.9s-151.8,66.2-151.8,147.9S-292.5,348.1-208.7,348.1"/>
			<path style="clip-path:url(#SVGID_00000008862797123809138250000018211785140645588382_);fill:#00EEF9;" d="M-186.3,337.6
				c83.8,0,151.8-66.2,151.8-147.9s-68-147.9-151.8-147.9S-338.2,108-338.2,189.7S-270.2,337.6-186.3,337.6"/>
			<path style="clip-path:url(#SVGID_00000008862797123809138250000018211785140645588382_);fill:#FF9008;" d="M-344.7,714.1
				l11.9-10.1c103.9-27.4,121-29.4,138.8-227.1l21.7-32.1C-156,606.1-185,684.3-11.9,704l-72.4,7.3c-9.6,2.2-30.5,2.2-38.8,4.4
				c-91,24.2-33.9,109.1-49.2,247.5l-19.7,14.6C-210.2,771.7-217.9,758.1-344.7,714.1"/>
			<path style="clip-path:url(#SVGID_00000008862797123809138250000018211785140645588382_);fill:#FFDE03;" d="M-332.8,704
				c127.6-29.3,142.3-53.1,160.5-259.2c18.2,206.1,32.9,229.9,160.5,259.2c-127.6,29.3-142.3,53.1-160.5,259.2
				C-190.5,757.1-205.2,733.3-332.8,704"/>
			<path style="clip-path:url(#SVGID_00000008862797123809138250000018211785140645588382_);fill:#FF9EC2;" d="M2183.3,867.9
				c201.3,0,364.5-112.6,364.5-251.4c0-138.9-163.2-251.4-364.5-251.4c-201.3,0-364.5,112.6-364.5,251.4
				C1818.8,755.3,1982,867.9,2183.3,867.9"/>
			<path style="clip-path:url(#SVGID_00000008862797123809138250000018211785140645588382_);fill:#00EEF9;" d="M2236.8,850
				c201.3,0,364.5-112.6,364.5-251.4c0-138.9-163.2-251.4-364.5-251.4c-201.3,0-364.5,112.6-364.5,251.4
				C1872.3,737.4,2035.5,850,2236.8,850"/>
			<path style="clip-path:url(#SVGID_00000008862797123809138250000018211785140645588382_);fill:#00E010;" d="M1613.6,224.6
				l12.9-5.7c110.4-10.2,128.6-10.3,156.3-137.6L1807,62c9.9,106.2-24.2,155,156.9,180.5l-76.4-0.6c-10.2,0.7-32.1-0.8-41,0
				c-96.8,9-40.6,68.5-63,157.5l-21.4,8.1C1752.3,272,1744.8,262.6,1613.6,224.6"/>
			<path style="clip-path:url(#SVGID_00000008862797123809138250000018211785140645588382_);fill:#FFDE03;" d="M1626.5,218.9
				C1762,209.2,1778.5,194.8,1807,62c9.7,135.5,24.1,152.1,156.9,180.5c-135.5,9.7-152.1,24.1-180.5,156.9
				C1773.7,263.9,1759.3,247.4,1626.5,218.9"/>
			<path style="clip-path:url(#SVGID_00000008862797123809138250000018211785140645588382_);fill:#FF9008;" d="M1973.8,667.7
				l8.5-5.9c78-22.8,91-25.4,93.2-120.8l14.7-17.3c21.9,75,4.3,114.8,138.1,107.9l-55.1,10.3c-7.2,1.9-23.2,3.9-29.5,5.7
				c-68.4,20-19.6,55-23.3,122.1l-14.2,8.8C2080.3,682.4,2073.5,676.7,1973.8,667.7"/>
			<path style="clip-path:url(#SVGID_00000008862797123809138250000018211785140645588382_);fill:#FFDE03;" d="M1982.3,661.8
				c96.1-25.9,106-38.6,107.9-138.1c25.9,96.1,38.6,106,138.1,107.9c-96.1,25.9-106,38.6-107.9,138.1
				C2094.5,673.6,2081.8,663.7,1982.3,661.8"/>
			<path style="clip-path:url(#SVGID_00000008862797123809138250000018211785140645588382_);fill:#FF9008;" d="M100.9,512.2
				c139.9,0,253.3-90.3,253.3-201.6S240.8,109,100.9,109s-253.3,90.3-253.3,201.6S-39,512.2,100.9,512.2"/>
			<path style="clip-path:url(#SVGID_00000008862797123809138250000018211785140645588382_);fill:#00E010;" d="M147.1,504.1
				c139.9,0,253.3-90.3,253.3-201.6S286.9,100.9,147.1,100.9s-253.3,90.3-253.3,201.6S7.2,504.1,147.1,504.1"/>
			<path style="clip-path:url(#SVGID_00000008862797123809138250000018211785140645588382_);fill:#00EEF9;" d="M4,199.9l12.4-4.7
				C125,182.4,143,181.4,161.6,89.1l22.6-15C201.4,149.4,171,186,352.1,195.2l-75.7,3.4c-10,1-31.9,1-40.6,2
				c-95.2,11.3-35.5,51-51.5,115.7l-20.6,6.8C144.7,226.8,136.6,220.4,4,199.9"/>
			<path style="clip-path:url(#SVGID_00000008862797123809138250000018211785140645588382_);fill:#FFDE03;" d="M16.4,195.2
				c133.5-13.7,148.9-24.8,167.9-121.1c19,96.3,34.4,107.4,167.9,121.1C218.6,208.9,203.2,220,184.3,316.3
				C165.3,220,149.9,208.9,16.4,195.2"/>
			<path style="clip-path:url(#SVGID_00000008862797123809138250000018211785140645588382_);fill:#FFFFFF;" d="M1417.7,469.3h-27.6
				c-6.5,0-10.4-6.8-7.1-12.1c7.9-13,12.4-28.2,12.4-44.3V276.3c0-53.1-44.8-96.2-100.2-96.2H945.9c-19.5,0-37.7,5.9-52.5,15.9
				c-4.9,3.3-11.6,0.8-12.9-4.9c-8.7-37.8-16.5-66.1-103.1-66.1H596.7c-53.1,0-88.3,41.3-88.3,92.3v191.4c0,5.1,0.4,9.8-4.8,8.8
				c-5-0.9-10.8-13.6-50.1-12h-42.8c-49.1,0-88.9,38.7-88.9,85.8v180.5c0,47.2,39.8,85.4,88.9,85.4h105.5c20.7,0,42.8-7.5,57-19.8
				c2.8-2.4,6.8-2.6,9.7-0.4c16.8,12.7,38,20.2,61.1,20.2h640.8h44.2h88.8c59.4,0,107.5-46.2,107.5-103.2v-81.6
				C1525.2,515.5,1477.1,469.3,1417.7,469.3"/>
		</g>
		<polygon points="401,457.5 428.9,457.5 428.9,666.7 557.3,666.7 557.3,690.3 401,690.3 		"/>
		<g>
			<defs>
				<rect id="SVGID_00000101795374579788668470000005206860272811386789_" x="-530.7" y="-153.2" width="3132" height="1131"/>
			</defs>
			<clipPath id="SVGID_00000116944607923119189530000008978929379887921056_">
				<use xlink:href="#SVGID_00000101795374579788668470000005206860272811386789_"  style="overflow:visible;"/>
			</clipPath>
			<path style="clip-path:url(#SVGID_00000116944607923119189530000008978929379887921056_);" d="M597.5,664c9,3.3,19,4.7,28.3,4.7
				c26.9,0,46.2-12,52.5-23.6v-121h28.6v166.3h-28.6v-41.9H678c-7.3,23.6-22.6,45.9-48.5,45.9C611.5,694.3,600.8,685,597.5,664
				 M567.3,622.8v-98.8h29.3v125.7c0,5.3,0.3,10,1,14.3C580.6,658.1,567.3,645.4,567.3,622.8"/>
			<path style="clip-path:url(#SVGID_00000116944607923119189530000008978929379887921056_);" d="M951.6,564.6c0-5.7-0.3-10.3-1-15
				c16.6,6,30.3,18.6,30.3,41.6v99.1h-29.3V564.6z M846.9,564.6c0-5.7-0.3-10.3-1-15c9.3,3.3,17.6,9,23.3,17h0.3
				c8.6-24.3,24.6-46.6,50.2-46.6c17,0,27.6,9.3,30.9,29.6c-8.6-3-18.3-4.3-27.3-4.3c-24.9,0-44.6,11-53.2,22.6c3.7,6.3,6,14,6,23.3
				v99.1h-29.3V564.6z M738.5,524.1h28.3V566h0.3c7-23.6,22.6-45.9,47.9-45.9c17,0,27.6,9.3,30.9,29.6c-8.6-3-18.3-4.3-27.3-4.3
				c-26.3,0-45.6,12-51.9,23.6v121.4h-28.3V524.1z"/>
			<path style="clip-path:url(#SVGID_00000116944607923119189530000008978929379887921056_);" d="M1120.2,635.8h30.3
				c-4,16-18,25.3-35.2,30.3C1118.2,657.7,1119.9,647.7,1120.2,635.8 M1035.8,665.4c11,3.7,24.6,5.3,40.9,5.3
				c13.3,0,26.6-1.3,38.6-4.7c-7,18.6-20.9,28.3-39.2,28.3C1055.4,694.3,1042.7,683,1035.8,665.4 M1074,544.7
				c-14.6,0-27.9,2.3-39.2,7c7.6-21.3,20.9-31.6,40.9-31.6c19.6,0,32.6,10.6,39.2,31.9C1103.6,547.3,1090,544.7,1074,544.7
				 M995.9,609.8c0-28.3,15-48.2,38.9-58.2c-3.7,10.6-6,23.9-7,40.2h91.8c0-16-1.7-29.3-4.7-39.9c23.9,10.6,36.2,31.6,34.6,60.5
				h-122c0.3,19.6,2.3,38.2,8.3,52.9C1008.5,656.7,995.9,637.8,995.9,609.8"/>
			<path style="clip-path:url(#SVGID_00000116944607923119189530000008978929379887921056_);" d="M1277.5,564.6
				c0-5.7-0.3-10.6-1-15.3c16.6,6.3,30.3,19,30.3,41.9v99.1h-29.3V564.6z M1169.1,524.1h28.3V565h0.7c7.3-23.3,22.6-44.9,47.6-44.9
				c17,0,27.6,9,30.9,29.3c-9-3-18.3-4.3-27.3-4.3c-26.3,0-45.6,12.3-51.9,23.9v121.4h-28.3V524.1z"/>
			<path style="clip-path:url(#SVGID_00000116944607923119189530000008978929379887921056_);" d="M1422.5,546.3
				c21.6,5.7,30.9,17.3,32.9,30.6h-30.3C1425.8,565.3,1424.8,554.6,1422.5,546.3 M1355,668c10,2.7,21.6,4.3,34.6,4.3
				c16.3,0,30.6-2,41.2-6c-2.7,14.3-15.3,27.9-38.9,27.9C1372.6,694.3,1360.3,685,1355,668 M1387.9,520.1c19.3,0,29.9,9.6,34.6,26.3
				c-9-2.7-20.3-4-34.3-4c-14.3,0-25.9,1.7-34.9,5C1355.6,533.4,1366.6,520.1,1387.9,520.1 M1431.4,660.1c0-17.6-8.3-28.6-33.9-38.2
				l-29.9-11.3c-27.3-10.3-37.9-19.3-37.9-35.2c0-13,8-22.6,23.6-27.9c-0.3,2-0.7,4.3-0.7,6.3c0,18,7.3,24.6,32.6,34.2l28.3,10.6
				c27.3,10.3,39.9,21.6,39.9,39.2c0,14-8.3,23.3-22.6,28.6C1431.1,664.4,1431.4,662,1431.4,660.1 M1321.7,635.4h30.6
				c-0.3,3.3-0.3,6.3-0.3,9.6c0,8.6,1,16.3,3,22.9C1334.7,662.4,1322,651.1,1321.7,635.4"/>
			<path style="clip-path:url(#SVGID_00000116944607923119189530000008978929379887921056_);" d="M805.2,213.4
				c18.3,5.7,28.6,20.6,28.6,42.9v199.4h-28.6V213.4z M785.2,210.4c-5.3,0-10,0.3-14.3,1.3l1.7-12c1.7-11.6,8-17,17-17
				c9,0,15.6,6.3,15.6,17.6v13C799.2,211.4,792.5,210.4,785.2,210.4 M735.7,257.9c3.3-25.6,14.6-41.2,35.2-46.2l-18,173.7
				c-3,23.3-15.3,37.7-33.9,42.3L735.7,257.9z M686.1,446l-2.3-18.3c5.3,1.3,11.3,2,17.6,2c6.3,0,12.3-0.7,17.6-2l-2.3,18.3
				c-1,8.3-6.6,13.6-15.3,13.6C693.1,459.6,687.1,454.3,686.1,446 M649.9,385.4l-18-173.7c20.6,5,31.9,20.6,35.2,46.2l16.6,169.8
				C664.9,423.1,652.9,408.7,649.9,385.4 M597.7,200.4c0-11.3,6.7-17.6,15.6-17.6c9,0,15.3,5.3,17,17l1.7,12c-4.3-1-9-1.3-14.3-1.3
				c-7.3,0-14,1-20,3V200.4z M569.1,256.3c0-22.3,10.3-37.2,28.6-42.9v242.3h-28.6V256.3z"/>
			<path style="clip-path:url(#SVGID_00000116944607923119189530000008978929379887921056_);" d="M927.5,273.2
				c-12,0-23.3,1.3-33.3,4c5-18,16.3-27.9,34.9-27.9c20,0,30.6,13,32.9,28.9C951.8,274.6,939.8,273.2,927.5,273.2 M888.3,400.2
				c3.7,0.3,7.6,0.7,11.6,0.7c24.3,0,49.2-2.7,61.8-23.6v-51.5l-34.2,5.3c17.6-10.6,34.2-21.3,34.9-45.9v-1c0-2,0-4-0.3-6
				c16.6,5.7,28.3,18,28.3,41.2v100.1h-27.9l-0.7-38.6h-0.3c-6,28.3-21.9,42.6-42.6,42.6C902.9,423.5,892,416.2,888.3,400.2
				 M894.3,277.2c-2.3,9.3-3.3,20.9-2.7,34.2h-31.9C859.4,294.5,873.7,283.2,894.3,277.2 M857,373.6c0-20.3,16-33.9,56.2-40.2
				l14.3-2.3c-20,12-40.9,23.6-40.9,54.9c0,5.3,0.7,10,1.7,14.3C870,397.9,857,390.3,857,373.6"/>
			<path style="clip-path:url(#SVGID_00000116944607923119189530000008978929379887921056_);" d="M1127,293.8c0-5.7-0.3-10.6-1-15.3
				c16.6,6.3,30.3,19,30.3,41.9v99.1H1127V293.8z M1018.6,253.3h28.3v40.9h0.7c7.3-23.3,22.6-44.9,47.6-44.9c17,0,27.6,9,30.9,29.3
				c-9-3-18.3-4.3-27.3-4.3c-26.3,0-45.6,12.3-51.9,23.9v121.4h-28.3V253.3z"/>
			<path style="clip-path:url(#SVGID_00000116944607923119189530000008978929379887921056_);" d="M1210.5,436.2
				c6,20.6,19,29.6,37.6,29.6c18.6,0,31.9-9.6,37.9-30.9c-11.6,5-24.6,7-37.2,7C1234.4,441.9,1221.5,439.9,1210.5,436.2"/>
			<path style="clip-path:url(#SVGID_00000116944607923119189530000008978929379887921056_);" d="M1206.8,402.7h-32.3
				c1.3,14.6,15.3,26.9,35.9,33.6C1207.8,427.3,1206.5,416.3,1206.8,402.7"/>
			<path style="clip-path:url(#SVGID_00000116944607923119189530000008978929379887921056_);" d="M1207.5,253.3h-29.3v70.6
				c0,22.6,13.3,35.2,30.3,41.2c-0.7-4.3-1-9-1-14.3V253.3z"/>
			<path style="clip-path:url(#SVGID_00000116944607923119189530000008978929379887921056_);" d="M1289.3,253.3v92.9
				c-6.3,11.6-25.6,23.6-52.5,23.6c-9.3,0-19.3-1.3-28.3-4.7c3.3,20.9,14,30.3,31.9,30.3c25.6,0,40.9-21.9,48.2-45.2h0.7v54.5
				c0,12-1.3,21.9-3.3,30.3c18.6-8.6,32.6-25.6,32.6-56.2V253.3H1289.3z"/>
		</g>
	</g>
</g>
</svg>
