<svg xmlns="http://www.w3.org/2000/svg" width="592.745" height="129.141" viewBox="0 0 592.745 129.141">
  <g transform="translate(0 0)">
    <path d="M1220.768,328.763c0-14.664-.2-29.332.094-43.99.131-6.467-4.693-11.21-11.7-10.965-7.279.255-14.577,0-21.865.089-2.437.03-3.319-.763-3.267-3.138.153-7.036-.578-6.069,6.375-5.834,11.376.383,22.281,2.572,31.556,9.377,7.855,5.763,12.15,13.6,12.3,22.884.335,21.095.41,42.2-.02,63.3-.231,11.359-6.218,20.316-16.615,25.88-17.459,9.345-35.047,9.071-51.932-1.413-8.457-5.251-12.905-13.251-14.45-22.679-.393-2.4-.509-4.843-.785-7.262-.2-1.748.451-2.516,2.432-2.441,3.253.123,6.519.116,9.773,0,1.845-.066,2.359.627,2.34,2.276-.067,6.109-.112,12.221,0,18.329.085,4.509,1.677,8.366,6.475,10.152a14.921,14.921,0,0,0,5.005.81c10.976.069,21.956-.1,32.929.087,6.717.116,11.569-4.5,11.44-10.978C1220.566,358.42,1220.768,343.59,1220.768,328.763Z" transform="translate(-641.795 -264.13)" fill="currentColor"/>
    <path d="M1063.243,329.088c0,14.664.2,29.332-.094,43.99-.131,6.467,4.693,11.21,11.7,10.965,7.279-.255,14.577,0,21.865-.089,2.437-.03,3.319.763,3.267,3.138-.153,7.036.578,6.069-6.375,5.834-11.377-.383-22.281-2.571-31.556-9.377-7.855-5.763-12.15-13.6-12.3-22.884-.335-21.095-.41-42.2.02-63.3.231-11.359,6.218-20.316,16.614-25.88,17.459-9.345,35.047-9.071,51.932,1.413,8.457,5.251,12.906,13.251,14.45,22.679.393,2.4.509,4.843.785,7.262.2,1.748-.451,2.516-2.432,2.441-3.253-.123-6.519-.116-9.774,0-1.844.066-2.358-.627-2.34-2.276.067-6.109.112-12.221,0-18.329-.086-4.509-1.677-8.366-6.475-10.152a14.917,14.917,0,0,0-5.005-.81c-10.976-.069-21.955.1-32.928-.087-6.717-.116-11.569,4.5-11.44,10.978C1063.444,299.43,1063.243,314.261,1063.243,329.088Z" transform="translate(-592.801 -264.13)" fill="currentColor"/>
    <path d="M471.868,415.264c0,5.7-.022,11.408.007,17.111.029,5.675,4.354,9.888,10.343,9.9q25.6.073,51.2,0c6.125-.018,10.266-3.994,10.338-9.84.077-6.273.1-12.549-.017-18.821-.045-2.378.909-3.2,3.331-3.1,3.082.13,6.174.047,9.262.033,1.723-.007,2.5.749,2.412,2.406-.875,15.933-7.221,30.274-28.164,35.7-16.662,4.32-33.411,4.22-49.764-1.456-11.142-3.867-18.928-11.267-21.533-22.429-4.3-18.414,2.658-35.964,25.044-42.664a78.107,78.107,0,0,1,21.011-3.013c2.234-.044,3.066.714,3.02,2.836-.149,6.929.894,6.322-6.571,6.333-6.261.009-12.523-.026-18.783.012-7.145.043-11.131,3.86-11.139,10.6Q471.858,407.075,471.868,415.264Z" transform="translate(-305.801 -322.57)" fill="currentColor"/>
    <path d="M213.265,442.287c8.318,0,16.639-.147,24.952.05a10.374,10.374,0,0,0,10.934-10.4c-.293-11.235-.079-22.482-.089-33.723-.006-5.948-4.058-9.862-10.465-9.934-7.459-.083-14.92-.013-22.38-.025-3.192-.005-3.577-.351-3.566-3.355.023-6.2-.753-6.056,6.306-5.669,10.275.564,20.257,2.324,29,7.922,9.469,6.06,14.224,14.651,14.784,25.436.405,7.8-.753,15.237-5.359,21.919-4.979,7.223-12.184,11.686-20.72,13.918-16.981,4.441-34.036,4.6-50.725-1.243-12.454-4.362-19.988-13-22.393-25.49-.522-2.71-.879-5.451-1.251-8.185-.272-2,.535-3.066,2.856-2.992,3.084.1,6.175.083,9.259,0,2.125-.054,2.854.818,2.829,2.792-.08,6.272-.047,12.544-.02,18.817.026,6.075,4.191,10.1,10.578,10.141C196.287,442.325,204.776,442.286,213.265,442.287Z" transform="translate(-162.231 -322.557)" fill="currentColor"/>
    <path d="M803.272,272.865c-8.235,0-16.469-.028-24.7.01-6.989.032-10.935,3.846-10.941,10.51q-.016,17.846-.005,35.691a11.545,11.545,0,0,1-.059,2.2c-.323,1.642-1.1,2.321-2.831,1.164a23.433,23.433,0,0,1-10.317-15.207,34.613,34.613,0,0,1,3.394-24.181c4.731-8.63,12.585-13.717,22.124-16.263,16.8-4.485,33.714-4.588,50.28,1.026,13.228,4.483,20.935,13.644,23.125,26.863.424,2.557.514,5.163.779,7.745.177,1.728-.711,2.316-2.429,2.285-3.087-.056-6.179-.1-9.263.013-2.089.073-2.885-.608-2.846-2.671.115-5.947-.09-11.9.074-17.844.2-7.122-5.186-11.64-11.939-11.4C819.578,273.081,811.421,272.865,803.272,272.865Z" transform="translate(-449.218 -263.494)" fill="currentColor"/>
    <path d="M507.926,272.865c-8.235,0-16.469-.028-24.7.01-6.988.032-10.935,3.846-10.941,10.51q-.015,17.846-.005,35.691a11.51,11.51,0,0,1-.059,2.2c-.322,1.642-1.1,2.321-2.83,1.164a23.431,23.431,0,0,1-10.318-15.207,34.61,34.61,0,0,1,3.394-24.181c4.731-8.63,12.585-13.717,22.124-16.263,16.8-4.485,33.714-4.588,50.28,1.026,13.228,4.483,20.935,13.644,23.125,26.863.424,2.557.515,5.163.779,7.745.177,1.728-.711,2.316-2.429,2.285-3.087-.056-6.178-.1-9.262.013-2.09.073-2.886-.608-2.846-2.671.115-5.947-.09-11.9.074-17.844.2-7.122-5.186-11.64-11.938-11.4C524.233,273.081,516.075,272.865,507.926,272.865Z" transform="translate(-305.886 -263.494)" fill="currentColor"/>
    <path d="M767.239,415.264c0,5.7-.022,11.408.007,17.111.029,5.675,4.354,9.888,10.344,9.9q25.6.073,51.2,0c6.126-.018,10.266-3.994,10.338-9.84.077-6.273.1-12.549-.017-18.821-.045-2.378.909-3.2,3.331-3.1,3.082.13,6.174.047,9.261.033,1.723-.007,2.5.749,2.412,2.406-.875,15.933-7.221,30.274-28.164,35.7-16.662,4.32-33.411,4.22-49.764-1.456-11.142-3.867-18.928-11.267-21.532-22.429-4.3-18.414,2.658-35.964,25.045-42.664a78.1,78.1,0,0,1,21.011-3.013c2.234-.044,3.065.714,3.019,2.836-.149,6.929.894,6.322-6.571,6.333-6.261.009-12.523-.026-18.784.012-7.145.043-11.131,3.86-11.139,10.6Q767.229,407.075,767.239,415.264Z" transform="translate(-449.144 -322.57)" fill="currentColor"/>
    <path d="M262.725,302.3c-.258-2.5-.369-5.023-.766-7.5-2.12-13.236-9.8-22.424-23-26.943-16.55-5.665-33.472-5.579-50.277-1.108-10.186,2.709-18.414,8.219-22.98,17.712a34.789,34.789,0,0,0-2.693,22.633q.248,1.2.6,2.346c.1.327.2.65.314.97.007.02.013.041.02.061a23.334,23.334,0,0,0,1.313,3.052c.019.035.036.071.054.107.131.251.27.5.411.744.056.1.11.2.167.294.11.185.225.367.34.549.1.153.192.307.292.458.089.132.181.262.272.392.134.193.268.385.408.573.076.1.154.2.232.3.159.206.318.411.484.612.085.1.174.2.262.307.158.184.315.368.48.548.137.151.281.3.424.447.111.115.22.232.334.345a25.847,25.847,0,0,0,3.956,3.236c1.733,1.157,2.508.479,2.83-1.164a5.252,5.252,0,0,0,.08-1.012c.038-.493-.028-1.01-.028-1.511q0-17.723.006-35.447c.01-6.622,3.994-10.4,11.021-10.428,8.234-.032,16.468-.007,24.7-.008s16.469-.019,24.7.006c7.211.022,11.511,4.115,11.527,10.937.014,6.112.057,12.224-.027,18.334-.026,1.91.7,2.637,2.7,2.572,3.085-.1,6.177-.086,9.262,0C262,304.751,262.914,304.125,262.725,302.3Z" transform="translate(-162.217 -263.485)" fill="currentColor"/>
  </g>
</svg>
