<svg xmlns="http://www.w3.org/2000/svg" width="265.996" height="265.996" viewBox="0 0 265.996 265.996">
  <g fill="#fff" stroke-linecap="round" stroke-dasharray="0 20">
    <path d="M 132.998046875 0 C 133.0234680175781 0 133.0536804199219 0 133.0791473388672 3.0517578125e-05 C 133.1036224365234 3.0517578125e-05 133.1196594238281 0 133.1440887451172 9.1552734375e-05 C 133.1663208007812 9.1552734375e-05 133.1847991943359 9.1552734375e-05 133.2070465087891 0.000152587890625 C 133.2332458496094 0.00018310546875 133.2532806396484 0.0001220703125 133.2793884277344 0.00030517578125 C 133.3028411865234 0.000335693359375 133.3275909423828 0.000396728515625 133.3511505126953 0.000457763671875 C 133.3731842041016 0.000518798828125 133.3936614990234 0.000579833984375 133.4156036376953 0.000640869140625 C 133.4631805419922 0.00079345703125 133.5130157470703 0.00128173828125 133.5605621337891 0.00115966796875 C 133.5849456787109 0.00128173828125 133.6047821044922 0.00140380859375 133.629150390625 0.00146484375 C 133.6513977050781 0.001556396484375 133.671875 0.00164794921875 133.6941375732422 0.001800537109375 C 133.7320709228516 0.001922607421875 133.765380859375 0.002166748046875 133.8033752441406 0.00238037109375 C 133.9168548583984 -0.002105712890625 134.0305023193359 0.003875732421875 134.1472625732422 0.004852294921875 C 136.8868408203125 0.041229248046875 139.081787109375 2.278961181640625 139.0595092773438 5.02459716796875 C 139.0370788574219 7.785888671875 136.7812347412109 10.01394653320312 134.0189514160156 10.00413513183594 L 132.998046875 10 C 130.2366333007812 9.98883056640625 127.9980926513672 7.74114990234375 127.9980926513672 4.979736328125 C 127.9980926513672 2.232421875 130.2131500244141 0.011688232421875 132.9550323486328 0 C 132.9684753417969 0 132.9846038818359 0 132.998046875 0 Z M 153.2039642333984 1.585174560546875 C 153.4555358886719 1.585174560546875 153.7105712890625 1.604278564453125 153.9668884277344 1.64361572265625 C 154.0398559570312 1.655181884765625 154.1058959960938 1.665679931640625 154.1788330078125 1.6773681640625 C 154.1802062988281 1.677581787109375 154.1815795898438 1.67779541015625 154.1829833984375 1.678009033203125 C 154.2001342773438 1.680755615234375 154.2098693847656 1.68231201171875 154.2270202636719 1.685089111328125 C 154.4718627929688 1.724365234375 154.7164611816406 1.764312744140625 154.9608154296875 1.804901123046875 C 154.9651184082031 1.80560302734375 154.9664611816406 1.80584716796875 154.9707336425781 1.806549072265625 C 154.9868469238281 1.809234619140625 155.0028991699219 1.8118896484375 155.0190124511719 1.8145751953125 C 155.0275573730469 1.816009521484375 155.034912109375 1.817230224609375 155.0434875488281 1.81866455078125 C 155.053955078125 1.820404052734375 155.0644683837891 1.822174072265625 155.0749359130859 1.82391357421875 C 155.0963439941406 1.827484130859375 155.1213989257812 1.831695556640625 155.1427917480469 1.83526611328125 C 157.8441162109375 2.29974365234375 159.6620483398438 4.85479736328125 159.2089538574219 7.56378173828125 C 158.75341796875 10.28736877441406 156.1748199462891 12.13520812988281 153.4492797851562 11.69091796875 L 152.4458160400391 11.52735900878906 C 149.7203674316406 11.08314514160156 147.8619079589844 8.5120849609375 148.2948303222656 5.784820556640625 C 148.6845397949219 3.329864501953125 150.7979431152344 1.585113525390625 153.2039642333984 1.585174560546875 Z M 172.9236755371094 6.34649658203125 C 173.4322509765625 6.346527099609375 173.94970703125 6.425018310546875 174.4597778320312 6.590087890625 C 174.4718933105469 6.59405517578125 174.4864501953125 6.59881591796875 174.4985656738281 6.602813720703125 C 174.4990539550781 6.60296630859375 174.4996643066406 6.6031494140625 174.5001373291016 6.60333251953125 C 174.5641326904297 6.62432861328125 174.6281127929688 6.645355224609375 174.6920776367188 6.666473388671875 C 174.7001495361328 6.66912841796875 174.7032318115234 6.670135498046875 174.7113037109375 6.672821044921875 C 174.7228393554688 6.676605224609375 174.734375 6.680419921875 174.7458953857422 6.684234619140625 C 174.7579956054688 6.688232421875 174.7660675048828 6.690887451171875 174.7781677246094 6.69488525390625 C 174.7838287353516 6.69677734375 174.7894592285156 6.698638916015625 174.7951202392578 6.70050048828125 C 175.0614624023438 6.788604736328125 175.3230590820312 6.87603759765625 175.5886535644531 6.96575927734375 C 178.1805114746094 7.8546142578125 179.5682220458984 10.66546630859375 178.6903228759766 13.26727294921875 C 177.8074493408203 15.88377380371094 174.9676818847656 17.29798889160156 172.3475494384766 16.42604064941406 L 171.3821868896484 16.10481262207031 C 168.7620544433594 15.23286437988281 167.3359527587891 12.3990478515625 168.1969604492188 9.7752685546875 C 168.8860626220703 7.675323486328125 170.8311157226562 6.34637451171875 172.9236755371094 6.34649658203125 Z M 191.6376037597656 14.18562316894531 C 192.4004058837891 14.1856689453125 193.1751403808594 14.36177062988281 193.9011535644531 14.73271179199219 C 193.9123382568359 14.73847961425781 193.9311065673828 14.7481689453125 193.9422912597656 14.75393676757812 C 193.9602355957031 14.76321411132812 193.9781799316406 14.77247619628906 193.9961242675781 14.78175354003906 C 194.0035705566406 14.78561401367188 194.0095825195312 14.78871154785156 194.0170288085938 14.79257202148438 C 194.0270385742188 14.79774475097656 194.0370483398438 14.80293273925781 194.0470581054688 14.80812072753906 C 194.0545196533203 14.81196594238281 194.0682067871094 14.81904602050781 194.0756530761719 14.82290649414062 C 194.0832366943359 14.82684326171875 194.0908203125 14.83078002929688 194.0984191894531 14.83470153808594 C 194.1207580566406 14.84628295898438 194.1349639892578 14.85365295410156 194.1572875976562 14.865234375 C 194.1626434326172 14.86801147460938 194.1680297851562 14.87078857421875 194.1733703613281 14.87356567382812 C 194.1845397949219 14.87936401367188 194.1937866210938 14.88417053222656 194.2049560546875 14.88996887207031 C 194.2123107910156 14.89378356933594 194.2196044921875 14.8975830078125 194.2269592285156 14.90139770507812 C 194.2344055175781 14.90525817871094 194.2480163574219 14.91233825683594 194.2554473876953 14.91619873046875 C 194.2660827636719 14.92172241210938 194.2766723632812 14.92724609375 194.2872924804688 14.93276977539062 C 194.2984619140625 14.93856811523438 194.3099365234375 14.94454956054688 194.3211059570312 14.95034790039062 C 194.3336791992188 14.95689392089844 194.3462524414062 14.96343994140625 194.3588256835938 14.97000122070312 C 194.362548828125 14.97193908691406 194.373779296875 14.977783203125 194.3775024414062 14.97972106933594 C 194.3917236328125 14.98713684082031 194.4059753417969 14.99456787109375 194.4201965332031 15.00198364257812 C 194.4239196777344 15.00392150878906 194.4270935058594 15.00558471679688 194.4308166503906 15.00752258300781 C 194.59228515625 15.09178161621094 194.7535552978516 15.17634582519531 194.9146423339844 15.26123046875 C 194.9153747558594 15.26161193847656 194.9159240722656 15.26190185546875 194.9166564941406 15.26228332519531 C 194.9277954101562 15.26815795898438 194.9405212402344 15.27487182617188 194.95166015625 15.28073120117188 C 197.372314453125 16.56895446777344 198.2974853515625 19.566650390625 197.0166015625 21.99722290039062 C 195.7292327880859 24.44024658203125 192.7008666992188 25.38523864746094 190.2525939941406 24.10795593261719 L 189.3510894775391 23.63768005371094 C 186.9027709960938 22.36041259765625 185.9452209472656 19.33599853515625 187.2123107910156 16.88246154785156 C 188.097900390625 15.16763305664062 189.8355255126953 14.18551635742188 191.6376037597656 14.18562316894531 Z M 208.8726196289062 24.89341735839844 C 209.8931579589844 24.89346313476562 210.9229125976562 25.20657348632812 211.8098907470703 25.85562133789062 C 211.8199462890625 25.863037109375 211.8281402587891 25.86906433105469 211.8381958007812 25.87648010253906 C 211.8394165039062 25.87738037109375 211.8405609130859 25.87823486328125 211.8417663574219 25.87913513183594 C 212.11767578125 26.08255004882812 212.3927307128906 26.2869873046875 212.6669921875 26.49246215820312 C 212.6703338623047 26.49494934082031 212.6703186035156 26.49494934082031 212.6736602783203 26.49745178222656 C 212.6862182617188 26.50686645507812 212.6987915039062 26.51628112792969 212.7113494873047 26.52569580078125 C 212.7280120849609 26.53819274902344 212.7430725097656 26.54949951171875 212.7597198486328 26.56198120117188 C 214.9448394775391 28.21669006347656 215.3844146728516 31.32177734375 213.7363586425781 33.51899719238281 C 212.0794525146484 35.72804260253906 208.9399108886719 36.18302917480469 206.7239990234375 34.53518676757812 L 205.9075469970703 33.92803955078125 C 203.6916809082031 32.28018188476562 203.2237701416016 29.14254760742188 204.8624572753906 26.91990661621094 C 205.8399505615234 25.5941162109375 207.3459320068359 24.89334106445312 208.8726196289062 24.89341735839844 Z M 224.2057800292969 38.18426513671875 C 225.4857330322266 38.18431091308594 226.7648468017578 38.67572021484375 227.7381591796875 39.65568542480469 C 227.7498168945312 39.66752624511719 227.7566528320312 39.67446899414062 227.768310546875 39.68630981445312 C 227.7683715820312 39.68637084960938 227.7683715820312 39.68637084960938 227.7683715820312 39.68637084960938 C 227.9609222412109 39.88192749023438 228.1528625488281 40.07804870605469 228.3442230224609 40.2747802734375 C 228.3442230224609 40.2747802734375 228.3488006591797 40.27947998046875 228.3488006591797 40.27947998046875 C 228.3606872558594 40.29170227050781 228.37255859375 40.30390930175781 228.3844451904297 40.31614685058594 C 228.3902282714844 40.32209777832031 228.3962097167969 40.32826232910156 228.4020080566406 40.33421325683594 C 228.4074401855469 40.33981323242188 228.4128570556641 40.34539794921875 228.4182891845703 40.35098266601562 C 228.4703979492188 40.40463256835938 228.5166625976562 40.45236206054688 228.5686798095703 40.506103515625 C 230.4659271240234 42.483642578125 230.4116516113281 45.61842346191406 228.4390563964844 47.52919006347656 C 226.4555969238281 49.45045471191406 223.2835845947266 49.40646362304688 221.3541412353516 47.43086242675781 L 220.6430053710938 46.70272827148438 C 218.7135925292969 44.72714233398438 218.7445373535156 41.55500793457031 220.7121887207031 39.61746215820312 C 221.6834869384766 38.6610107421875 222.9449920654297 38.18421936035156 224.2057800292969 38.18426513671875 Z M 237.2609558105469 53.71858215332031 C 238.8096466064453 53.71870422363281 240.3347778320312 54.44062805175781 241.3072662353516 55.79472351074219 C 241.3121032714844 55.80149841308594 241.3191833496094 55.8114013671875 241.3240203857422 55.81817626953125 C 241.3254699707031 55.82023620605469 241.3268127441406 55.82211303710938 241.3282775878906 55.82418823242188 C 241.4209289550781 55.95399475097656 241.5133514404297 56.08396911621094 241.6055297851562 56.21412658691406 C 241.6103515625 56.22091674804688 241.6109161376953 56.22171020507812 241.61572265625 56.228515625 C 241.6226654052734 56.23831176757812 241.6296234130859 56.24815368652344 241.6365661621094 56.25794982910156 C 241.643798828125 56.26815795898438 241.6530456542969 56.28123474121094 241.6602630615234 56.29144287109375 C 241.6610107421875 56.29249572753906 241.6617736816406 56.2935791015625 241.6625213623047 56.29463195800781 C 241.7274780273438 56.386474609375 241.7926177978516 56.47885131835938 241.8573455810547 56.57087707519531 C 241.8634948730469 56.57962036132812 241.8696594238281 56.58837890625 241.8758087158203 56.59713745117188 C 241.8782043457031 56.60054016113281 241.8843688964844 56.60929870605469 241.8867492675781 56.61271667480469 C 241.912353515625 56.64915466308594 241.9379272460938 56.68557739257812 241.9635009765625 56.7220458984375 C 241.9640808105469 56.72286987304688 241.9645690917969 56.72355651855469 241.9651489257812 56.72438049316406 C 241.9723358154297 56.734619140625 241.9799194335938 56.74543762207031 241.9870910644531 56.75567626953125 C 243.5530700683594 59.00723266601562 243.0072784423828 62.09701538085938 240.7575988769531 63.67472839355469 C 238.4967346191406 65.26029968261719 235.3710479736328 64.7181396484375 233.7761840820312 62.46382141113281 L 233.1885986328125 61.63322448730469 C 231.5937194824219 59.37895202636719 232.1230010986328 56.25105285644531 234.3707275390625 54.64691162109375 C 235.2492828369141 54.0198974609375 236.2599487304688 53.718505859375 237.2609558105469 53.71858215332031 Z M 247.7069549560547 71.11241149902344 C 249.5301971435547 71.11245727539062 251.2826080322266 72.11854553222656 252.1563110351562 73.85748291015625 C 252.1637878417969 73.87251281738281 252.1719665527344 73.88896179199219 252.1794281005859 73.90400695800781 C 252.1882171630859 73.92169189453125 252.1970062255859 73.93939208984375 252.2057800292969 73.95707702636719 C 252.2057800292969 73.95707702636719 252.2069702148438 73.95945739746094 252.2069702148438 73.95945739746094 C 252.3186950683594 74.18463134765625 252.4298095703125 74.41017150878906 252.5402984619141 74.63606262207031 C 252.5402984619141 74.63606262207031 252.5408172607422 74.63711547851562 252.5408172607422 74.63711547851562 C 252.5810089111328 74.71928405761719 252.6211090087891 74.80149841308594 252.6611328125 74.88377380371094 C 252.6615142822266 74.88453674316406 252.6619567871094 74.88543701171875 252.6623229980469 74.88619995117188 C 252.6678466796875 74.89752197265625 252.6738891601562 74.90998840332031 252.6794128417969 74.92132568359375 C 253.8690948486328 77.39189147949219 252.8418273925781 80.35621643066406 250.3712768554688 81.55827331542969 C 247.88818359375 82.76638793945312 244.8874969482422 81.7369384765625 243.6690063476562 79.2589111328125 L 243.2204132080078 78.34654235839844 C 242.001953125 75.86849975585938 243.0189514160156 72.86354064941406 245.4919586181641 71.63482666015625 C 246.2054443359375 71.28031921386719 246.9620666503906 71.11239624023438 247.7069549560547 71.11241149902344 Z M 255.2645874023438 89.9373779296875 C 257.3794555664062 89.93751525878906 259.3354797363281 91.295166015625 260.0064697265625 93.41539001464844 C 260.0950927734375 93.70004272460938 260.1826782226562 93.98489379882812 260.2694396972656 94.27035522460938 C 260.2728881835938 94.28163146972656 260.2763061523438 94.29295349121094 260.2797241210938 94.30422973632812 C 260.2809753417969 94.30830383300781 260.2825317382812 94.31349182128906 260.2837829589844 94.31756591796875 C 260.3035278320312 94.38259887695312 260.3231811523438 94.44761657714844 260.3428344726562 94.51268005371094 C 260.3433227539062 94.51429748535156 260.3438110351562 94.51593017578125 260.3442993164062 94.51753234863281 C 260.3479919433594 94.52978515625 260.3507080078125 94.53875732421875 260.3544006347656 94.55099487304688 C 261.1373901367188 97.17990112304688 259.651611328125 99.94398498535156 257.0207214355469 100.7380065917969 C 254.3770446777344 101.5358123779297 251.5782318115234 100.0422668457031 250.7693176269531 97.40200805664062 L 250.4712677001953 96.42913818359375 C 249.6624145507812 93.78886413574219 251.1443176269531 90.98382568359375 253.7811889648438 90.16390991210938 C 254.2749633789062 90.0103759765625 254.7738952636719 89.93734741210938 255.2645874023438 89.9373779296875 Z M 259.7290954589844 109.7262878417969 C 262.1640014648438 109.7264862060547 264.2861938476562 111.5097961425781 264.6475219726562 113.9864654541016 C 264.6487731933594 113.9950866699219 264.6505432128906 114.0075531005859 264.6517639160156 114.0161895751953 C 264.6520690917969 114.0183563232422 264.6523742675781 114.0205078125 264.6526794433594 114.0226898193359 C 264.6719055175781 114.1570739746094 264.6908874511719 114.2915191650391 264.7096862792969 114.426025390625 C 264.7102966308594 114.4303436279297 264.7102966308594 114.4303741455078 264.7109069824219 114.4346923828125 C 264.713623046875 114.4542083740234 264.7163391113281 114.4737091064453 264.7190551757812 114.4932250976562 C 264.7196655273438 114.4975433349609 264.7194213867188 114.4957885742188 264.7200317382812 114.5001068115234 C 264.7227172851562 114.5194702148438 264.7254028320312 114.5388488769531 264.7280883789062 114.5582122802734 C 264.7298889160156 114.5711669921875 264.7302551269531 114.5737762451172 264.7320556640625 114.5867309570312 C 264.7334594726562 114.5970153808594 264.7348937988281 114.6072998046875 264.7362976074219 114.6175842285156 C 264.7375183105469 114.626220703125 264.7395935058594 114.6414031982422 264.7407836914062 114.6500396728516 C 264.741943359375 114.6583099365234 264.7430725097656 114.6665496826172 264.7442016601562 114.6748199462891 C 264.7501525878906 114.718017578125 264.7553100585938 114.7554321289062 264.7611999511719 114.7986450195312 C 264.76220703125 114.8058319091797 264.76318359375 114.8130035400391 264.76416015625 114.8201904296875 C 264.7659301757812 114.8331604003906 264.7676086425781 114.8453521728516 264.7693786621094 114.8583221435547 C 264.7702331542969 114.8646392822266 264.7710876464844 114.8709869384766 264.7719421386719 114.8773040771484 C 264.77783203125 114.9205169677734 264.783935546875 114.9655151367188 264.789794921875 115.0087432861328 C 264.79052734375 115.01416015625 264.791259765625 115.0195007324219 264.7919921875 115.0249176025391 C 264.7943115234375 115.0422058105469 264.7952880859375 115.0493774414062 264.797607421875 115.0666809082031 C 264.7982177734375 115.0710906982422 264.7987976074219 115.0754852294922 264.7994079589844 115.0798950195312 C 264.8023071289062 115.1015167236328 264.8067321777344 115.1343841552734 264.8096313476562 115.156005859375 C 265.1623229980469 117.8741912841797 263.2569274902344 120.3645629882812 260.5348510742188 120.7304534912109 C 257.7980651855469 121.0983581542969 255.2720031738281 119.1792297363281 254.892822265625 116.4439544677734 L 254.7531890869141 115.4368133544922 C 254.3740081787109 112.7015533447266 256.2826843261719 110.1676330566406 259.016357421875 109.7771453857422 C 259.2561340332031 109.7428894042969 259.4938659667969 109.7262573242188 259.7290954589844 109.7262878417969 Z M 260.9997253417969 129.9872283935547 C 261.0254211425781 129.9872283935547 261.0515441894531 129.9874267578125 261.0773315429688 129.9878234863281 C 263.8261413574219 130.0296783447266 266.0140075683594 132.2817993164062 265.98095703125 135.0260314941406 C 265.9808044433594 135.0349731445312 265.9806213378906 135.0482177734375 265.98046875 135.0571441650391 C 265.9804382324219 135.0591735839844 265.9804077148438 135.0609741210938 265.9803771972656 135.0630035400391 C 265.97900390625 135.1531677246094 265.9775390625 135.2433013916016 265.9759826660156 135.3334350585938 C 265.9759216308594 135.337890625 265.9759216308594 135.3386383056641 265.975830078125 135.3431091308594 C 265.9755859375 135.3565216064453 265.9753723144531 135.3699188232422 265.9751281738281 135.3833312988281 C 265.9703369140625 135.6556701660156 265.9645690917969 135.9348754882812 265.9581298828125 136.2068023681641 C 265.8806457519531 138.9459686279297 263.6095275878906 141.1072387695312 260.8642272949219 141.0435028076172 C 258.1035461425781 140.9790496826172 255.9087219238281 138.6886901855469 255.9619598388672 135.9277801513672 L 255.9815521240234 134.9108123779297 C 256.0342712402344 132.1756896972656 258.2734375 129.9870300292969 260.9997253417969 129.9872283935547 Z M 259.09423828125 150.1893157958984 C 259.3802490234375 150.1893310546875 259.6704711914062 150.2139282226562 259.961669921875 150.2648162841797 C 262.6668090820312 150.7374572753906 264.4724731445312 153.30029296875 264.013916015625 156.0019226074219 C 264.0012817382812 156.0745239257812 263.9889221191406 156.1450805664062 263.9761352539062 156.2176208496094 C 263.9749145507812 156.2246398925781 263.9736633300781 156.2315979003906 263.9724426269531 156.2386016845703 C 263.9701843261719 156.2514038085938 263.9695739746094 156.2548522949219 263.9673156738281 156.2676391601562 C 263.9650573730469 156.2805480957031 263.9627685546875 156.2934265136719 263.9604797363281 156.3063201904297 C 263.9597473144531 156.3105773925781 263.9580383300781 156.3202209472656 263.957275390625 156.3244781494141 C 263.90966796875 156.5935974121094 263.8612365722656 156.8624572753906 263.81201171875 157.1310424804688 C 263.8118591308594 157.1318664550781 263.8116760253906 157.1328430175781 263.8115234375 157.1336669921875 C 263.8091735839844 157.1464385986328 263.8068237304688 157.1592407226562 263.8045043945312 157.1720275878906 C 263.2993774414062 159.8674621582031 260.7155151367188 161.6466369628906 258.0129089355469 161.1513214111328 C 255.2967224121094 160.6534576416016 253.4893188476562 158.0462646484375 253.9759063720703 155.3280944824219 L 254.1552734375 154.3260040283203 C 254.5897674560547 151.8987731933594 256.7086791992188 150.1891174316406 259.09423828125 150.1893157958984 Z M 254.0243377685547 169.8278198242188 C 254.5674133300781 169.8278198242188 255.1195373535156 169.9166564941406 255.6609954833984 170.1037750244141 C 258.2569885253906 171.0008392333984 259.6320495605469 173.8189849853516 258.7485961914062 176.4136505126953 C 258.7416687011719 176.4337158203125 258.7366943359375 176.4480743408203 258.7297668457031 176.4681396484375 C 258.7259826660156 176.4791107177734 258.72216796875 176.4901123046875 258.7183837890625 176.5010986328125 C 258.7142028808594 176.5131225585938 258.7119750976562 176.5196075439453 258.7077941894531 176.5316467285156 C 258.7023315429688 176.5474853515625 258.6968383789062 176.5632934570312 258.6913452148438 176.5791320800781 C 258.68994140625 176.5831451416016 258.6871337890625 176.5912628173828 258.6857604980469 176.5952758789062 C 258.679931640625 176.6120147705078 258.6741027832031 176.6288146972656 258.6683044433594 176.6455383300781 C 258.6669006347656 176.6495666503906 258.6670227050781 176.6492309570312 258.6656188964844 176.6532287597656 C 258.5682373046875 176.9336547851562 258.4699096679688 177.2136535644531 258.3706970214844 177.4932250976562 C 258.3705139160156 177.4937133789062 258.370361328125 177.4941711425781 258.3701782226562 177.4946441650391 C 258.3659362792969 177.5066375732422 258.3609313964844 177.5206909179688 258.356689453125 177.5326843261719 C 257.4290771484375 180.1131134033203 254.5951385498047 181.458740234375 252.0059051513672 180.5397644042969 C 249.4035491943359 179.6161346435547 248.0338592529297 176.754638671875 248.9466400146484 174.1484527587891 L 249.2824554443359 173.1896362304688 C 250.0059051513672 171.1240844726562 251.9496765136719 169.8277740478516 254.0243377685547 169.8278198242188 Z M 245.8921813964844 188.4096984863281 C 246.692626953125 188.4096984863281 247.5042266845703 188.6014099121094 248.2577209472656 189.0054931640625 C 250.6770629882812 190.3029479980469 251.5871887207031 193.3017272949219 250.3055725097656 195.7225189208984 C 250.1947631835938 195.9293518066406 250.0853271484375 196.1322631835938 249.9734497070312 196.3384399414062 C 249.9704284667969 196.3440246582031 249.9674224853516 196.3495483398438 249.9644012451172 196.3551330566406 C 249.9604034423828 196.3624877929688 249.9539031982422 196.3744659423828 249.9499053955078 196.3818359375 C 249.9422912597656 196.3958282470703 249.9346618652344 196.4098815917969 249.9270629882812 196.4238586425781 C 249.9250640869141 196.4275512695312 249.9245300292969 196.4285125732422 249.9225311279297 196.4321899414062 C 249.8681182861328 196.5322723388672 249.8135681152344 196.6322937011719 249.7589111328125 196.7322387695312 C 249.7588348388672 196.7323760986328 249.7587432861328 196.7325286865234 249.7586669921875 196.732666015625 C 249.7526397705078 196.7436981201172 249.7440185546875 196.7594604492188 249.7379760742188 196.7704772949219 C 248.4118957519531 199.1698303222656 245.4009246826172 200.0474700927734 242.9909973144531 198.7292175292969 C 240.5683135986328 197.4039916992188 239.6705474853516 194.361328125 240.9857330322266 191.9331817626953 L 241.4700927734375 191.0389099121094 C 242.3780212402344 189.3626098632812 244.1074829101562 188.40966796875 245.8921813964844 188.4096984863281 Z M 234.9110870361328 205.4732818603516 C 235.9714965820312 205.4733276367188 237.0402374267578 205.8073425292969 237.947265625 206.4979553222656 C 240.1329650878906 208.1620941162109 240.5576324462891 211.2698974609375 238.9061584472656 213.4583282470703 C 238.8985900878906 213.46826171875 238.88818359375 213.48193359375 238.8806304931641 213.4918670654297 C 238.8804168701172 213.4921264648438 238.8803405761719 213.4922332763672 238.8801422119141 213.4924926757812 C 238.8664093017578 213.5105285644531 238.8527069091797 213.5285186767578 238.8389739990234 213.5465393066406 C 238.8389739990234 213.5465393066406 238.8377227783203 213.5481719970703 238.8377227783203 213.5481719970703 C 238.8249969482422 213.5648803710938 238.8122863769531 213.58154296875 238.7995452880859 213.5982360839844 C 238.7995452880859 213.5982360839844 238.7955932617188 213.6034240722656 238.7955932617188 213.6034240722656 C 238.7830352783203 213.619873046875 238.7704772949219 213.6363372802734 238.7579040527344 213.6527862548828 C 238.7528533935547 213.6594085693359 238.7516326904297 213.6609954833984 238.74658203125 213.6676177978516 C 238.7384948730469 213.6781921386719 238.7304382324219 213.6887512207031 238.7223510742188 213.6993255615234 C 238.71728515625 213.7059326171875 238.7099914550781 213.7154846191406 238.7049255371094 213.7221069335938 C 238.6991577148438 213.7296447753906 238.6934051513672 213.7371826171875 238.6876373291016 213.7447204589844 C 238.6749877929688 213.76123046875 238.6571655273438 213.7845306396484 238.6445007324219 213.8010559082031 C 238.6426849365234 213.8034362792969 238.6408538818359 213.8058166503906 238.6390380859375 213.8081970214844 C 238.6314392089844 213.8180999755859 238.6209411621094 213.8318023681641 238.6133422851562 213.8417053222656 C 238.6106567382812 213.84521484375 238.6079711914062 213.8487091064453 238.6053009033203 213.8522033691406 C 238.5065307617188 213.9810028076172 238.4053344726562 214.1125183105469 238.3061065673828 214.2409362792969 C 238.3054962158203 214.2417144775391 238.3049011230469 214.2424926757812 238.3042907714844 214.2432708740234 C 238.2966613769531 214.2531433105469 238.2875061035156 214.2649993896484 238.2798614501953 214.2748718261719 C 238.2751007080078 214.2810363769531 238.2703399658203 214.2872009277344 238.2655639648438 214.2933654785156 C 238.2579345703125 214.3032379150391 238.2545471191406 214.3076171875 238.2469024658203 214.3174896240234 C 238.2349853515625 214.3329010009766 238.2230529785156 214.3483276367188 238.2111053466797 214.3637390136719 C 238.2009124755859 214.3768920898438 238.1938934326172 214.3859558105469 238.1837005615234 214.3991088867188 C 236.4956512451172 216.5594482421875 233.3836364746094 216.9511871337891 231.2117767333984 215.26904296875 C 229.0285491943359 213.5781860351562 228.6221313476562 210.4320068359375 230.3040008544922 208.2418212890625 L 230.9238586425781 207.4346313476562 C 231.911376953125 206.148681640625 233.4029235839844 205.4732055664062 234.9110870361328 205.4732818603516 Z M 221.3740997314453 220.5982818603516 C 222.6988220214844 220.5983276367188 224.0213928222656 221.1183929443359 225.0064086914062 222.1500549316406 C 226.9031219482422 224.1365966796875 226.8347778320312 227.2715759277344 224.8610382080078 229.1735382080078 C 224.8400115966797 229.1936340332031 224.81689453125 229.2156982421875 224.7958526611328 229.2357788085938 C 224.7953491210938 229.2362518310547 224.7948608398438 229.2367248535156 224.7943572998047 229.2372131347656 C 224.7853393554688 229.2458038330078 224.7738342285156 229.2567901611328 224.7648010253906 229.2653961181641 C 224.7582397460938 229.2716369628906 224.7516632080078 229.2779235839844 224.7451171875 229.2841796875 C 224.7390899658203 229.2899017333984 224.7305603027344 229.2980346679688 224.7245483398438 229.3037719726562 C 224.710205078125 229.3174285888672 224.6958923339844 229.3310546875 224.6815490722656 229.3447113037109 C 224.6815490722656 229.3447113037109 224.6752319335938 229.3507232666016 224.6752319335938 229.3507232666016 C 224.6602478027344 229.364990234375 224.645263671875 229.3792419433594 224.6302795410156 229.3934936523438 C 224.6302795410156 229.3934936523438 224.6293029785156 229.3944091796875 224.6293029785156 229.3944091796875 C 224.4301452636719 229.5837707519531 224.2304077148438 229.7725219726562 224.0300903320312 229.9606781005859 C 224.0300903320312 229.9606781005859 224.0300903320312 229.9606781005859 224.0300903320312 229.9606781005859 C 224.0178985595703 229.9721374511719 224.0115509033203 229.9780883789062 223.9994354248047 229.9894714355469 C 221.9929809570312 231.8585205078125 218.8575134277344 231.7567138671875 216.9765930175781 229.7540435791016 C 215.0861358642578 227.7411804199219 215.1790008544922 224.5702209472656 217.1840972900391 222.6715087890625 L 217.923095703125 221.9716796875 C 218.8924560546875 221.0537261962891 220.1342163085938 220.5982360839844 221.3740997314453 220.5982818603516 Z M 205.6305541992188 233.408447265625 C 207.2257232666016 233.4085693359375 208.7953338623047 234.1659698486328 209.7684020996094 235.5750427246094 C 211.3294525146484 237.8354797363281 210.7681274414062 240.9216766357422 208.5188598632812 242.4892578125 C 208.5085754394531 242.4963684082031 208.4943237304688 242.5061950683594 208.4840393066406 242.5133056640625 C 208.4839019775391 242.5133972167969 208.4838256835938 242.5134582519531 208.4836883544922 242.5135498046875 C 208.4658355712891 242.5258636474609 208.4479827880859 242.5381927490234 208.4301300048828 242.5505065917969 C 208.4232788085938 242.5552368164062 208.4169006347656 242.5596313476562 208.4100341796875 242.5643615722656 C 208.4021301269531 242.56982421875 208.3942108154297 242.5752868652344 208.3863067626953 242.5807342529297 C 208.3760070800781 242.5878295898438 208.3621673583984 242.5973663330078 208.3518676757812 242.6044616699219 C 208.3504638671875 242.6054229736328 208.3490905761719 242.6063690185547 208.3476867675781 242.6073303222656 C 208.0765228271484 242.7941131591797 207.8097686767578 242.9763946533203 207.5371398925781 243.1612091064453 C 205.2621154785156 244.6878967285156 202.184326171875 244.0937042236328 200.6427764892578 241.8215484619141 C 199.0924072265625 239.5364074707031 199.682861328125 236.4194946289062 201.9615478515625 234.8597259521484 L 202.8011779785156 234.2850036621094 C 203.6668395996094 233.6924438476562 204.6533508300781 233.4083557128906 205.6305541992188 233.408447265625 Z M 188.0737609863281 243.57421875 C 189.9491424560547 243.5743865966797 191.7505493164062 244.6294860839844 192.611083984375 246.4312744140625 C 193.7948913574219 248.9100189208984 192.7528076171875 251.8683013916016 190.2841796875 253.0605316162109 C 190.2728118896484 253.0659637451172 190.2572021484375 253.0734252929688 190.2458190917969 253.078857421875 C 190.2455139160156 253.0789947509766 190.2454528808594 253.0790405273438 190.2451477050781 253.0791778564453 C 190.2245483398438 253.0890197753906 190.2039489746094 253.0988464355469 190.1833648681641 253.1086578369141 C 190.1833648681641 253.1086578369141 190.1827087402344 253.1089782714844 190.1827087402344 253.1089782714844 C 190.1622314453125 253.1187438964844 190.1417846679688 253.1284942626953 190.1213073730469 253.1382446289062 C 190.1213073730469 253.1382446289062 190.1208801269531 253.1384429931641 190.1208801269531 253.1384429931641 C 190.1007995605469 253.1480102539062 190.0807189941406 253.1575775146484 190.0606231689453 253.1671295166016 C 190.0606231689453 253.1671295166016 190.0534362792969 253.1705627441406 190.0534362792969 253.1705627441406 C 190.0378112792969 253.177978515625 190.0221862792969 253.1854095458984 190.0065765380859 253.1928253173828 C 189.9989929199219 253.1964416503906 189.9945526123047 253.1985473632812 189.9869689941406 253.2021484375 C 189.9742584228516 253.2081756591797 189.9615783691406 253.2141876220703 189.9488830566406 253.22021484375 C 189.9412841796875 253.2238311767578 189.9384460449219 253.2251892089844 189.9308471679688 253.2287902832031 C 189.91455078125 253.2365112304688 189.8983001708984 253.2442169189453 189.8820190429688 253.2519378662109 C 189.87060546875 253.2573394775391 189.8634033203125 253.2607574462891 189.8519897460938 253.2661590576172 C 189.8444213867188 253.2697296142578 189.8368835449219 253.2733154296875 189.8293151855469 253.2769012451172 C 189.8179016113281 253.2822875976562 189.8077392578125 253.287109375 189.7963256835938 253.2924957275391 C 189.7916259765625 253.2947235107422 189.7869873046875 253.2969207763672 189.7822875976562 253.2991333007812 C 189.7556762695312 253.3117218017578 189.7330322265625 253.3224182128906 189.7064208984375 253.3349914550781 C 189.7047424316406 253.3357849121094 189.7030334472656 253.3365783691406 189.7013549804688 253.3373718261719 C 189.68994140625 253.3427581787109 189.6741943359375 253.3501892089844 189.6627960205078 253.3555755615234 C 189.6582794189453 253.3576965332031 189.6537475585938 253.3598327636719 189.6492309570312 253.3619689941406 C 189.6112060546875 253.3798980712891 189.570556640625 253.3990325927734 189.5325164794922 253.4169311523438 C 189.5266418457031 253.4196929931641 189.520751953125 253.4224548339844 189.5148773193359 253.4252166748047 C 189.5034637451172 253.4305877685547 189.4933471679688 253.4353332519531 189.48193359375 253.4407043457031 C 189.4740447998047 253.4444122314453 189.4661712646484 253.4481048583984 189.4582824707031 253.4518127441406 C 189.4468688964844 253.4571685791016 189.4415130615234 253.4596862792969 189.4300994873047 253.4650421142578 C 189.4129333496094 253.4730987548828 189.395751953125 253.4811553955078 189.3785705566406 253.4891967773438 C 189.374755859375 253.4909973144531 189.3694915771484 253.4934539794922 189.3656921386719 253.4952392578125 C 189.3494567871094 253.5028381347656 189.333251953125 253.5104370117188 189.3170318603516 253.5180358886719 C 189.3170318603516 253.5180358886719 189.3089904785156 253.5217895507812 189.3089904785156 253.5217895507812 C 189.2893676757812 253.5309753417969 189.2697601318359 253.5401458740234 189.2501373291016 253.54931640625 C 189.2499847412109 253.5493927001953 189.2496337890625 253.549560546875 189.2494812011719 253.5496368408203 C 189.2380523681641 253.5549774169922 189.2222137451172 253.5623779296875 189.2107849121094 253.5677185058594 C 186.7222290039062 254.7177734375 183.7753295898438 253.6442718505859 182.6121368408203 251.1557769775391 C 181.4428100585938 248.6541442871094 182.5189208984375 245.6698150634766 185.0156402587891 244.4901428222656 L 185.9355010986328 244.0554962158203 C 186.6268920898438 243.7288208007812 187.3555603027344 243.5741577148438 188.0737609863281 243.57421875 Z M 169.1365051269531 250.8245849609375 C 171.3075866699219 250.8247528076172 173.3125610351562 252.2453918457031 173.9547271728516 254.4305419921875 C 174.7294311523438 257.0668640136719 173.2288208007812 259.8225708007812 170.6005249023438 260.6059265136719 C 170.5882263183594 260.6095581054688 170.5773010253906 260.6127624511719 170.5650024414062 260.6163635253906 C 170.5638732910156 260.61669921875 170.5625915527344 260.6170959472656 170.5614624023438 260.6174011230469 C 170.2553405761719 260.7073669433594 169.94873046875 260.7962646484375 169.6417236328125 260.8840942382812 C 169.6376190185547 260.88525390625 169.6316833496094 260.886962890625 169.6275787353516 260.8881225585938 C 169.6146850585938 260.8918151855469 169.6017456054688 260.8955078125 169.5888519287109 260.8992004394531 C 169.5765380859375 260.9027099609375 169.5689544677734 260.9048767089844 169.556640625 260.9083862304688 C 169.5555114746094 260.9087219238281 169.5543823242188 260.9090270996094 169.5532684326172 260.9093627929688 C 169.5204162597656 260.9187316894531 169.4940338134766 260.9262390136719 169.4611663818359 260.9355773925781 C 166.8219604492188 261.6737976074219 164.0845642089844 260.1453247070312 163.3322296142578 257.5040893554688 C 162.5757751464844 254.8483276367188 164.1129150390625 252.0731811523438 166.7655487060547 251.3056335449219 L 167.7420043945312 251.0231323242188 C 168.2068176269531 250.8886413574219 168.6752319335938 250.8245544433594 169.1365051269531 250.8245849609375 Z M 149.2849731445312 254.9705047607422 C 151.7752685546875 254.970703125 153.9396362304688 256.8265380859375 154.2613677978516 259.3587646484375 C 154.6076049804688 262.083984375 152.6897277832031 264.5659790039062 149.971435546875 264.9231872558594 C 149.9541015625 264.9253845214844 149.9472198486328 264.92626953125 149.9298858642578 264.928466796875 C 149.9295501708984 264.9284973144531 149.92919921875 264.9285583496094 149.9288635253906 264.9285888671875 C 149.8388061523438 264.9400329589844 149.7487030029297 264.9513854980469 149.6585998535156 264.962646484375 C 149.6542510986328 264.9631958007812 149.6574096679688 264.9627990722656 149.653076171875 264.9633483886719 C 149.4963684082031 264.98291015625 149.339599609375 265.0022277832031 149.1827087402344 265.021240234375 C 149.1783752441406 265.0217895507812 149.1791839599609 265.0216674804688 149.1748352050781 265.022216796875 C 149.1561737060547 265.0244750976562 149.1375427246094 265.0267333984375 149.1188659667969 265.0289916992188 C 149.1145324707031 265.0295104980469 149.1119079589844 265.0298156738281 149.1075744628906 265.0303649902344 C 149.0895385742188 265.0325317382812 149.0714874267578 265.0346984863281 149.053466796875 265.036865234375 C 148.9666137695312 265.0473327636719 148.8771514892578 265.0579833984375 148.7902526855469 265.0682678222656 C 146.0681762695312 265.3770446777344 143.6089019775391 263.4337158203125 143.2853698730469 260.7072143554688 C 142.9599609375 257.9650573730469 144.9179992675781 255.4691314697266 147.6588134765625 255.1323699951172 L 148.66845703125 255.0083618164062 C 148.875732421875 254.9828948974609 149.0812377929688 254.9704895019531 149.2849731445312 254.9705047607422 Z M 127.9817962646484 255.8996887207031 C 128.0401763916016 255.8996887207031 128.0988464355469 255.9006958007812 128.1576385498047 255.9027252197266 L 129.1759948730469 255.9379119873047 C 131.9357757568359 256.0333251953125 134.1048126220703 258.34814453125 134.0206756591797 261.1083068847656 C 133.9369812011719 263.8554992675781 131.6527404785156 266.0083618164062 128.9104156494141 265.9344787597656 C 128.8955535888672 265.9340209960938 128.8862609863281 265.9337768554688 128.8713684082031 265.9332885742188 C 128.5043640136719 265.9220886230469 128.1377258300781 265.909423828125 127.7714538574219 265.895263671875 C 127.7714538574219 265.895263671875 127.7714538574219 265.895263671875 127.7714538574219 265.895263671875 C 127.7536315917969 265.8945922851562 127.7463684082031 265.8943176269531 127.7286071777344 265.8936157226562 C 124.9894714355469 265.77587890625 122.8614654541016 263.4713745117188 122.9675445556641 260.726318359375 C 123.0718688964844 258.0257263183594 125.2997436523438 255.8996429443359 127.9817962646484 255.8996887207031 Z M 107.8319396972656 253.5241088867188 C 108.1499328613281 253.5241241455078 108.4725646972656 253.5545501708984 108.796142578125 253.61767578125 L 109.7932739257812 253.8122711181641 C 112.5035858154297 254.3411407470703 114.2811431884766 256.9687805175781 113.7635040283203 259.6812133789062 C 113.2484130859375 262.3806457519531 110.6542816162109 264.1467895507812 107.9580078125 263.6424865722656 C 107.9452667236328 263.6400451660156 107.9364929199219 263.6383666992188 107.9237518310547 263.6359558105469 C 107.9221038818359 263.6356201171875 107.9205169677734 263.6353149414062 107.9188690185547 263.635009765625 C 107.8299407958984 263.6180419921875 107.7410430908203 263.6009826660156 107.6521759033203 263.5838317871094 C 107.6479339599609 263.5830383300781 107.6473388671875 263.5829162597656 107.6430969238281 263.5820922851562 C 107.6266021728516 263.5789184570312 107.610107421875 263.5757141113281 107.5936126708984 263.5725402832031 C 107.5893707275391 263.5717163085938 107.5777435302734 263.5694580078125 107.5735015869141 263.5686340332031 C 107.5603179931641 263.5661010742188 107.5470886230469 263.5635070800781 107.5339202880859 263.5609741210938 C 107.5169525146484 263.5576782226562 107.5007019042969 263.5545349121094 107.4837188720703 263.5512390136719 C 107.4761047363281 263.5497436523438 107.4684448242188 263.5482482910156 107.4608154296875 263.5467834472656 C 107.4480895996094 263.5443115234375 107.4361877441406 263.5419921875 107.4234619140625 263.5394897460938 C 107.4171295166016 263.5382690429688 107.4107360839844 263.5370178222656 107.4044036865234 263.5357971191406 C 107.3916778564453 263.5332946777344 107.3759613037109 263.5302429199219 107.3632354736328 263.5277709960938 C 107.3626403808594 263.5276489257812 107.362060546875 263.5275268554688 107.3614654541016 263.5274047851562 C 107.3105773925781 263.5174865722656 107.2643280029297 263.5084228515625 107.2134704589844 263.4984130859375 C 107.21142578125 263.4980163574219 107.2093811035156 263.4976196289062 107.2073516845703 263.4972229003906 C 107.0674591064453 263.4697265625 106.9337310791016 263.4432373046875 106.7940063476562 263.4153137207031 C 104.1098480224609 262.8658752441406 102.3736572265625 260.2562255859375 102.9107360839844 257.5635070800781 C 103.3863372802734 255.1787109375 105.4863739013672 253.5240478515625 107.8319396972656 253.5241088867188 Z M 88.32586669921875 247.9854125976562 C 88.90074157714844 247.9854125976562 89.48507690429688 248.0848999023438 90.05531311035156 248.294677734375 L 91.00946044921875 248.6457214355469 C 93.60108947753906 249.5991363525391 94.9378662109375 252.4761352539062 93.99526977539062 255.0717315673828 C 93.05766296386719 257.6534729003906 90.21781921386719 258.9842834472656 87.63714599609375 258.0600280761719 C 87.62120056152344 258.0542297363281 87.61212158203125 258.0509338378906 87.59617614746094 258.045166015625 C 87.59600830078125 258.0451049804688 87.59600830078125 258.0451049804688 87.59600830078125 258.0451049804688 C 87.38162231445312 257.9672241210938 87.16752624511719 257.8888549804688 86.95368957519531 257.8099365234375 C 86.94972229003906 257.8084716796875 86.95195007324219 257.8092956542969 86.94796752929688 257.8078308105469 C 86.92729187011719 257.8002014160156 86.9066162109375 257.7925720214844 86.88594055175781 257.784912109375 C 86.88594055175781 257.784912109375 86.88456726074219 257.784423828125 86.88456726074219 257.784423828125 C 86.86747741699219 257.7781066894531 86.85037231445312 257.7717590332031 86.83328247070312 257.7654418945312 C 86.82534790039062 257.7625122070312 86.80729675292969 257.7558288574219 86.79936218261719 257.7528686523438 C 86.79461669921875 257.7511291503906 86.7899169921875 257.7493896484375 86.78517150878906 257.7476196289062 C 86.69781494140625 257.7152404785156 86.6064453125 257.6812744140625 86.5191650390625 257.6487121582031 C 83.95695495605469 256.6789245605469 82.65826416015625 253.8264770507812 83.61695861816406 251.2536773681641 C 84.36898803710938 249.2354431152344 86.28804016113281 247.9854125976562 88.32586669921875 247.9854125976562 Z M 69.94451904296875 239.4141082763672 C 70.77687072753906 239.4141693115234 71.62062072753906 239.6213073730469 72.39659118652344 240.0573120117188 L 73.28363037109375 240.5557708740234 C 75.6910400390625 241.9085083007812 76.55409240722656 244.9612274169922 75.21136474609375 247.3742370605469 C 73.875732421875 249.7743682861328 70.86056518554688 250.6374053955078 68.4593505859375 249.3152160644531 C 68.44471740722656 249.3070678710938 68.43107604980469 249.2994842529297 68.41644287109375 249.2913360595703 C 68.39863586425781 249.2814331054688 68.38084411621094 249.2715301513672 68.36305236816406 249.2616119384766 C 68.36305236816406 249.2616119384766 68.356689453125 249.258056640625 68.356689453125 249.258056640625 C 68.3387451171875 249.2480621337891 68.32084655761719 249.2380828857422 68.30291748046875 249.2280883789062 C 68.30291748046875 249.2280883789062 68.29965209960938 249.2262725830078 68.29965209960938 249.2262725830078 C 68.10035705566406 249.1150817871094 67.90138244628906 249.00341796875 67.70271301269531 248.8912506103516 C 67.70271301269531 248.8912506103516 67.69792175292969 248.8885345458984 67.69792175292969 248.8885345458984 C 67.68165588378906 248.8793640136719 67.66543579101562 248.8701934814453 67.64918518066406 248.8610076904297 C 67.64553833007812 248.8589477539062 67.63890075683594 248.8551940917969 67.63525390625 248.8531341552734 C 67.62106323242188 248.8451080322266 67.60690307617188 248.8370971679688 67.59271240234375 248.8290710449219 C 67.581787109375 248.8228912353516 67.56991577148438 248.816162109375 67.55899047851562 248.8099822998047 C 67.55104064941406 248.8054809570312 67.54307556152344 248.8009643554688 67.53514099121094 248.7964782714844 C 67.52056884765625 248.7882232666016 67.51402282714844 248.7845001220703 67.49945068359375 248.7762451171875 C 67.49644470214844 248.7745361328125 67.49342346191406 248.7728271484375 67.49040222167969 248.7711181640625 C 67.46492004394531 248.7566680908203 67.4481201171875 248.7471313476562 67.42265319824219 248.732666015625 C 65.04519653320312 247.3690490722656 64.21490478515625 244.3455047607422 65.57023620605469 241.9567718505859 C 66.49368286132812 240.3291625976562 68.19454956054688 239.4139862060547 69.94451904296875 239.4141082763672 Z M 53.14021301269531 228.0390319824219 C 54.23306274414062 228.0391082763672 55.33351135253906 228.3936614990234 56.25459289550781 229.1238708496094 L 57.05209350585938 229.7561340332031 C 59.21600341796875 231.4715881347656 59.58677673339844 234.6221771240234 57.88018798828125 236.7931823730469 C 56.18257141113281 238.9527282714844 53.06883239746094 239.3294067382812 50.90615844726562 237.6446685791016 C 50.89306640625 237.6343841552734 50.87971496582031 237.6238861083984 50.86663818359375 237.6136016845703 C 50.67239379882812 237.4608764648438 50.47853088378906 237.3076171875 50.28515625 237.1538543701172 C 50.27864074707031 237.1486663818359 50.27857971191406 237.1486206054688 50.27206420898438 237.1434478759766 C 50.26109313964844 237.1347045898438 50.25010681152344 237.1259613037109 50.23912048339844 237.1172332763672 C 50.22610473632812 237.1068725585938 50.21311950683594 237.0965270996094 50.20010375976562 237.0861663818359 C 50.19371032714844 237.0810699462891 50.18733215332031 237.0759887695312 50.18093872070312 237.0708923339844 C 50.17118835449219 237.0631256103516 50.15946960449219 237.0537872314453 50.14971923828125 237.0460052490234 C 50.14578247070312 237.0428619384766 50.14183044433594 237.0397186279297 50.13789367675781 237.0365905761719 C 50.12814331054688 237.02880859375 50.11407470703125 237.017578125 50.10432434082031 237.0097961425781 C 50.10382080078125 237.0093994140625 50.10330200195312 237.0089874267578 50.10279846191406 237.0085906982422 C 50.08004760742188 236.9904174804688 50.05740356445312 236.9723510742188 50.03465270996094 236.9541625976562 C 50.03079223632812 236.9510803222656 50.02688598632812 236.9479675292969 50.02302551269531 236.9448699951172 C 50.00677490234375 236.931884765625 49.99177551269531 236.9198913574219 49.97552490234375 236.9068908691406 C 47.84255981445312 235.1854553222656 47.49908447265625 232.0682830810547 49.21418762207031 229.9230041503906 C 50.20457458496094 228.6842498779297 51.66561889648438 228.0389556884766 53.14021301269531 228.0390319824219 Z M 38.3284912109375 214.1594085693359 C 39.68626403808594 214.1595153808594 41.04000854492188 214.7060089111328 42.02864074707031 215.7827758789062 L 42.717041015625 216.5325469970703 C 44.58464050292969 218.5666351318359 44.45591735839844 221.736328125 42.42950439453125 223.6122741699219 C 40.41221618652344 225.4797668457031 37.27494812011719 225.3611755371094 35.40428161621094 223.3534240722656 C 35.39863586425781 223.3473358154297 35.3885498046875 223.3364562988281 35.38290405273438 223.3303527832031 C 35.38153076171875 223.328857421875 35.38018798828125 223.327392578125 35.37881469726562 223.3259124755859 C 35.33309936523438 223.2765350341797 35.28739929199219 223.2271118164062 35.24176025390625 223.1776580810547 C 35.23893737792969 223.1746063232422 35.23750305175781 223.1730499267578 35.23468017578125 223.1699981689453 C 35.22608947753906 223.1606903076172 35.21751403808594 223.1513977050781 35.20892333984375 223.1420745849609 C 35.09060668945312 223.0137786865234 34.97312927246094 222.8859100341797 34.85530090332031 222.7571411132812 C 34.84640502929688 222.7474365234375 34.83753967285156 222.7377319335938 34.82865905761719 222.72802734375 C 34.82585144042969 222.7249603271484 34.82240295410156 222.72119140625 34.81961059570312 222.7181243896484 C 34.75794982910156 222.6506805419922 34.69633483886719 222.5831604003906 34.63482666015625 222.5155944824219 C 34.6339111328125 222.5146026611328 34.63291931152344 222.5135192871094 34.63200378417969 222.5125274658203 C 34.62361145019531 222.5033111572266 34.61659240722656 222.4955902099609 34.60820007324219 222.4863739013672 C 32.76853942871094 220.4513854980469 32.9180908203125 217.3165130615234 34.95013427734375 215.4661407470703 C 35.91108703613281 214.5911102294922 37.12132263183594 214.1593017578125 38.3284912109375 214.1594085693359 Z M 25.88404846191406 198.1261596679688 C 27.51335144042969 198.1262512207031 29.11260986328125 198.9170227050781 30.07740783691406 200.3744201660156 L 30.63914489746094 201.222900390625 C 32.1634521484375 203.5254974365234 31.53768920898438 206.6355438232422 29.24140930175781 208.1693725585938 C 26.95709228515625 209.6952209472656 23.88018798828125 209.0865783691406 22.34757995605469 206.8132781982422 C 22.34063720703125 206.8028717041016 22.330810546875 206.7881774902344 22.32386779785156 206.7777709960938 C 22.32377624511719 206.7776336669922 22.32368469238281 206.7774963378906 22.32359313964844 206.7773742675781 C 22.17256164550781 206.5512390136719 22.02220153808594 206.3246154785156 21.87248229980469 206.0975189208984 C 21.86788940429688 206.0905609130859 21.86441040039062 206.0852661132812 21.85981750488281 206.0783081054688 C 21.85467529296875 206.0704956054688 21.84953308105469 206.0626831054688 21.84437561035156 206.0548706054688 C 21.79161071777344 205.9747314453125 21.74330139160156 205.9012145996094 21.69068908691406 205.8209686279297 C 20.19905090332031 203.5225372314453 20.84092712402344 200.4543151855469 23.13682556152344 198.947998046875 C 23.98432922363281 198.3919830322266 24.93914794921875 198.1260986328125 25.88404846191406 198.1261596679688 Z M 16.13343811035156 180.3352966308594 C 18.04450988769531 180.3354034423828 19.87289428710938 181.4319763183594 20.71218872070312 183.2823181152344 L 21.13214111328125 184.2082824707031 C 22.2728271484375 186.7230834960938 21.16268920898438 189.6949157714844 18.652587890625 190.8460083007812 C 16.15370178222656 191.9919738769531 13.20928955078125 190.9012145996094 12.05769348144531 188.4100952148438 C 12.05418395996094 188.4024353027344 12.04930114746094 188.3918151855469 12.04579162597656 188.3841705322266 C 12.044677734375 188.3817138671875 12.04351806640625 188.3791809082031 12.04240417480469 188.3767395019531 C 11.88958740234375 188.0435943603516 11.73818969726562 187.7097320556641 11.58808898925781 187.3750915527344 C 11.58724975585938 187.3732604980469 11.58641052246094 187.3713836669922 11.58558654785156 187.3695373535156 C 11.58041381835938 187.3580169677734 11.57746887207031 187.3514404296875 11.57229614257812 187.3399353027344 C 10.45774841308594 184.832763671875 11.57691955566406 181.9001770019531 14.08477783203125 180.7752380371094 C 14.75048828125 180.4766082763672 15.44717407226562 180.3352661132812 16.13343811035156 180.3352966308594 Z M 9.3380126953125 161.2261962890625 C 11.54730224609375 161.2262268066406 13.57467651367188 162.6970825195312 14.1824951171875 164.9278259277344 L 14.4495849609375 165.9081420898438 C 15.17555236816406 168.5724487304688 13.606689453125 171.3297729492188 10.94544982910156 172.0668182373047 C 8.299468994140625 172.7996368408203 5.56982421875 171.2592468261719 4.82501220703125 168.6228179931641 C 4.718780517578125 168.2397155761719 4.6143798828125 167.8567047119141 4.511505126953125 167.4722137451172 C 3.81494140625 164.8219757080078 5.385986328125 162.1089477539062 8.0384521484375 161.3980407714844 C 8.47247314453125 161.28173828125 8.90863037109375 161.2261962890625 9.3380126953125 161.2261962890625 Z M 5.665740966796875 141.2764129638672 C 8.197662353515625 141.2766571044922 10.37791442871094 143.19091796875 10.65350341796875 145.7623291015625 L 10.76205444335938 146.7747802734375 C 11.05632019042969 149.5204467773438 9.070037841796875 151.9940490722656 6.325592041015625 152.2996368408203 C 3.596343994140625 152.6034851074219 1.144775390625 150.6486511230469 0.828460693359375 147.9264068603516 C 0.784210205078125 147.5302429199219 0.741943359375 147.1357116699219 0.701171875 146.738525390625 C 0.4351806640625 144.0123291015625 2.41619873046875 141.5844421386719 5.147003173828125 141.3031311035156 C 5.321380615234375 141.2851867675781 5.494110107421875 141.2763977050781 5.665740966796875 141.2764129638672 Z M 5.164276123046875 120.9800567626953 C 5.255035400390625 120.9800567626953 5.34637451171875 120.9824981689453 5.438079833984375 120.9874572753906 C 8.19549560546875 121.1363220214844 10.31927490234375 123.4928131103516 10.18168640136719 126.2508239746094 L 10.13090515136719 127.2680969238281 C 9.993316650390625 130.0260772705078 7.64593505859375 132.1591796875 4.886993408203125 132.0331420898438 C 2.14410400390625 131.9075317382812 0.027923583984375 129.5951232910156 0.139251708984375 126.8575744628906 C 0.143463134765625 126.7644653320312 0.14764404296875 126.6746368408203 0.152069091796875 126.5815734863281 C 0.1522216796875 126.5783538818359 0.152374267578125 126.5751190185547 0.15252685546875 126.5718841552734 C 0.153167724609375 126.55859375 0.154022216796875 126.5402984619141 0.1546630859375 126.5269927978516 C 0.155609130859375 126.5075531005859 0.156524658203125 126.4881286621094 0.157470703125 126.4687042236328 C 0.157684326171875 126.4642639160156 0.1575927734375 126.4661407470703 0.157806396484375 126.4617004394531 C 0.1588134765625 126.4410095214844 0.159820556640625 126.4203491210938 0.16082763671875 126.399658203125 C 0.16082763671875 126.399658203125 0.160980224609375 126.3967437744141 0.160980224609375 126.3967437744141 C 0.172149658203125 126.168212890625 0.18389892578125 125.9398803710938 0.19622802734375 125.7116851806641 C 0.196319580078125 125.7100067138672 0.1964111328125 125.7081909179688 0.196502685546875 125.7065124511719 C 0.19696044921875 125.6976623535156 0.19775390625 125.6830139160156 0.1982421875 125.6741638183594 C 0.34979248046875 123.0259857177734 2.53924560546875 120.9800109863281 5.164276123046875 120.9800567626953 Z M 7.854705810546875 100.8685302734375 C 8.20330810546875 100.8685607910156 8.557708740234375 100.9053497314453 8.91259765625 100.9819030761719 C 11.61190795898438 101.5642242431641 13.33723449707031 104.2264556884766 12.76614379882812 106.9281768798828 L 12.55586242675781 107.9229583740234 C 11.98478698730469 110.6247100830078 9.329833984375 112.3609924316406 6.62567138671875 111.8012237548828 C 3.93414306640625 111.2439575195312 2.208526611328125 108.6218872070312 2.7557373046875 105.9332580566406 C 2.757476806640625 105.9248199462891 2.760650634765625 105.9095916748047 2.76239013671875 105.9011535644531 C 2.76275634765625 105.8993377685547 2.763153076171875 105.8974456787109 2.7635498046875 105.8956451416016 C 2.800567626953125 105.7168273925781 2.837921142578125 105.5381927490234 2.875640869140625 105.3596649169922 C 2.875640869140625 105.3596649169922 2.876800537109375 105.3542633056641 2.876800537109375 105.3542633056641 C 2.880828857421875 105.3351440429688 2.8848876953125 105.3160400390625 2.888916015625 105.2969207763672 C 2.88983154296875 105.2927093505859 2.890106201171875 105.2913970947266 2.8909912109375 105.2871856689453 C 2.895111083984375 105.2677001953125 2.899261474609375 105.2481994628906 2.90338134765625 105.2287292480469 C 2.905181884765625 105.2202911376953 2.90679931640625 105.2126922607422 2.908599853515625 105.2042694091797 C 2.9110107421875 105.19287109375 2.9134521484375 105.1814422607422 2.915863037109375 105.1700286865234 C 2.91766357421875 105.1616058349609 2.920562744140625 105.1480865478516 2.922332763671875 105.1396484375 C 2.924224853515625 105.1308288574219 2.926116943359375 105.1220245361328 2.927978515625 105.1132049560547 C 2.936981201171875 105.0710601806641 2.944366455078125 105.0365142822266 2.953399658203125 104.994384765625 C 2.955078125 104.9865112304688 2.956756591796875 104.9786224365234 2.958465576171875 104.9707489013672 C 2.96026611328125 104.9623260498047 2.964019775390625 104.9448547363281 2.9658203125 104.9364318847656 C 2.967620849609375 104.9281005859375 2.96942138671875 104.9197235107422 2.97119140625 104.9113922119141 C 2.973907470703125 104.8987579345703 2.975494384765625 104.8914947509766 2.97821044921875 104.8788604736328 C 2.98199462890625 104.8612060546875 2.98577880859375 104.8436126708984 2.989593505859375 104.8259735107422 C 2.99322509765625 104.8091278076172 2.996612548828125 104.7934875488281 3.000244140625 104.7766418457031 C 3.512237548828125 102.4535064697266 5.565826416015625 100.8683624267578 7.854705810546875 100.8685302734375 Z M 13.70944213867188 81.44680786132812 C 14.31251525878906 81.44686889648438 14.92652893066406 81.55726623535156 15.52294921875 81.79017639160156 C 18.09523010253906 82.794677734375 19.37481689453125 85.69758605957031 18.38104248046875 88.27400207519531 L 18.01490783691406 89.22319030761719 C 17.02114868164062 91.79957580566406 14.12362670898438 93.09132385253906 11.54304504394531 92.1082763671875 C 8.976715087890625 91.13063049316406 7.690399169921875 88.27139282226562 8.653839111328125 85.70582580566406 C 8.670379638671875 85.66232299804688 8.68682861328125 85.61915588378906 8.70343017578125 85.57566833496094 C 8.707489013671875 85.56504821777344 8.7115478515625 85.55442810058594 8.715606689453125 85.54380798339844 C 8.71710205078125 85.53985595703125 8.72076416015625 85.53033447265625 8.722259521484375 85.52638244628906 C 8.83587646484375 85.22920227050781 8.95050048828125 84.93252563476562 9.066131591796875 84.63636779785156 C 9.066436767578125 84.63557434082031 9.06671142578125 84.63484191894531 9.0670166015625 84.63406372070312 C 9.0716552734375 84.62223815917969 9.0765380859375 84.6097412109375 9.081146240234375 84.59793090820312 C 9.853973388671875 82.64178466796875 11.72468566894531 81.44662475585938 13.70944213867188 81.44680786132812 Z M 22.57743835449219 63.20069885253906 C 23.43537902832031 63.20071411132812 24.30519104003906 63.42291259765625 25.09959411621094 63.89009094238281 C 27.47990417480469 65.2899169921875 28.28277587890625 68.3590087890625 26.892822265625 70.74508666992188 L 26.38090515136719 71.62387084960938 C 24.99095153808594 74.00993347167969 21.92515563964844 74.82551574707031 19.53337097167969 73.44544982910156 C 17.15409851074219 72.07261657714844 16.33796691894531 69.04421997070312 17.69764709472656 66.66375732421875 C 17.70600891113281 66.64926147460938 17.71089172363281 66.64079284667969 17.71925354003906 66.62629699707031 C 17.71931457519531 66.62619018554688 17.71931457519531 66.62619018554688 17.71931457519531 66.62619018554688 C 17.72898864746094 66.60943603515625 17.7386474609375 66.59268188476562 17.74832153320312 66.57594299316406 C 17.75459289550781 66.56507873535156 17.76016235351562 66.55543518066406 17.76644897460938 66.54457092285156 C 17.76905822753906 66.5400390625 17.77168273925781 66.53550720214844 17.77430725097656 66.53097534179688 C 17.94596862792969 66.23405456542969 18.12220764160156 65.93190002441406 18.29609680175781 65.63644409179688 C 19.22662353515625 64.07159423828125 20.87896728515625 63.20066833496094 22.57743835449219 63.20069885253906 Z M 34.21760559082031 46.580810546875 C 35.33303833007812 46.58084106445312 36.45564270019531 46.9544677734375 37.38504028320312 47.7213134765625 C 39.51499938964844 49.47882080078125 39.8240966796875 52.63604736328125 38.07540893554688 54.77322387695312 L 37.43099975585938 55.56082153320312 C 35.68231201171875 57.697998046875 32.5263671875 58.02012634277344 30.38200378417969 56.28018188476562 C 28.24862670898438 54.54924011230469 27.92031860351562 51.42936706542969 29.63897705078125 49.29295349121094 C 29.64944458007812 49.280029296875 29.65438842773438 49.27394104003906 29.66487121582031 49.26101684570312 C 29.66508483886719 49.26075744628906 29.66537475585938 49.26039123535156 29.66558837890625 49.2601318359375 C 29.69329833984375 49.22598266601562 29.72100830078125 49.19186401367188 29.74874877929688 49.15774536132812 C 29.75399780273438 49.15129089355469 29.75248718261719 49.15315246582031 29.75773620605469 49.14669799804688 C 29.76646423339844 49.13597106933594 29.77519226074219 49.12522888183594 29.78392028808594 49.114501953125 C 29.98605346679688 48.86610412597656 30.18829345703125 48.61935424804688 30.39216613769531 48.37245178222656 C 31.37669372558594 47.19154357910156 32.79122924804688 46.58079528808594 34.21760559082031 46.580810546875 Z M 48.32595825195312 31.99592590332031 C 49.7034912109375 31.99601745605469 51.07470703125 32.56556701660156 52.06008911132812 33.68177795410156 C 53.88758850097656 35.751953125 53.69700622558594 38.91854858398438 51.63436889648438 40.75454711914062 L 50.87409973144531 41.4312744140625 C 48.81144714355469 43.26730346679688 45.64408874511719 43.08973693847656 43.79963684082031 41.03463745117188 C 41.96504211425781 38.99058532714844 42.130126953125 35.85906982421875 44.16152954101562 34.01890563964844 C 44.45529174804688 33.75509643554688 44.75471496582031 33.48857116699219 45.05082702636719 33.22734069824219 C 45.99534606933594 32.40171813964844 47.16282653808594 31.995849609375 48.32595825195312 31.99592590332031 Z M 64.55110168457031 19.810791015625 C 66.19822692871094 19.81085205078125 67.80924987792969 20.62867736816406 68.758544921875 22.12564086914062 C 70.23741149902344 24.45768737792969 69.55073547363281 27.55482482910156 67.22477722167969 29.04331970214844 L 66.36799621582031 29.59159851074219 C 64.04209899902344 31.080078125 60.942138671875 30.40618896484375 59.44404602050781 28.08645629882812 C 57.95413208007812 25.77928161621094 58.60972595214844 22.71311950683594 60.90510559082031 21.21554565429688 C 61.08033752441406 21.102294921875 61.25506591796875 20.98994445800781 61.43086242675781 20.87750244140625 C 61.43635559082031 20.87399291992188 61.44186401367188 20.87046813964844 61.44737243652344 20.866943359375 C 61.45440673828125 20.86244201660156 61.46701049804688 20.85438537597656 61.47404479980469 20.84988403320312 C 61.48793029785156 20.84101867675781 61.50180053710938 20.83216857910156 61.51567077636719 20.82330322265625 C 61.51919555664062 20.82106018066406 61.51882934570312 20.8212890625 61.52235412597656 20.81903076171875 C 61.63790893554688 20.74525451660156 61.75357055664062 20.67166137695312 61.86936950683594 20.59823608398438 C 61.8695068359375 20.59814453125 61.8697509765625 20.59797668457031 61.86988830566406 20.59788513183594 C 61.88046264648438 20.5911865234375 61.89442443847656 20.58233642578125 61.90501403808594 20.57563781738281 C 62.72871398925781 20.05809020996094 63.6453857421875 19.81074523925781 64.55110168457031 19.810791015625 Z M 82.49644470214844 10.34303283691406 C 84.42478942871094 10.34315490722656 86.2584228515625 11.47050476074219 87.06991577148438 13.35781860351562 C 88.16064453125 15.89468383789062 86.99200439453125 18.843994140625 84.45968627929688 19.9453125 L 83.52749633789062 20.35067749023438 C 80.99520874023438 21.45207214355469 78.04103088378906 20.29563903808594 76.92922973632812 17.76791381835938 C 75.82345581054688 15.25395202636719 76.95677185058594 12.33016967773438 79.46035766601562 11.21505737304688 C 79.50276184082031 11.19639587402344 79.54994201660156 11.17564392089844 79.59237670898438 11.15702819824219 C 79.59800720214844 11.15455627441406 79.60366821289062 11.15206909179688 79.60929870605469 11.14959716796875 C 79.61701965332031 11.14620971679688 79.635009765625 11.13832092285156 79.64273071289062 11.13493347167969 C 79.65098571777344 11.13131713867188 79.65919494628906 11.12771606445312 79.66744995117188 11.12409973144531 C 79.6751708984375 11.12071228027344 79.68809509277344 11.11505126953125 79.69581604003906 11.11166381835938 C 79.71253967285156 11.10433959960938 79.729248046875 11.09703063964844 79.7459716796875 11.0897216796875 C 79.75369262695312 11.08633422851562 79.76141357421875 11.08296203613281 79.76913452148438 11.07958984375 C 79.78034973144531 11.07469177246094 79.79154968261719 11.06979370117188 79.80274963378906 11.06489562988281 C 79.81048583984375 11.0615234375 79.81773376464844 11.058349609375 79.82545471191406 11.05497741699219 C 79.83917236328125 11.04899597167969 79.85284423828125 11.04302978515625 79.86656188964844 11.03703308105469 C 79.87042236328125 11.03535461425781 79.87966918945312 11.03132629394531 79.88352966308594 11.02963256835938 C 79.90086364746094 11.02207946777344 79.91815185546875 11.01454162597656 79.93548583984375 11.00698852539062 C 79.93934631347656 11.00531005859375 79.94976806640625 11.00077819824219 79.95364379882812 10.99908447265625 C 79.96678161621094 10.99336242675781 79.97993469238281 10.98764038085938 79.99308776855469 10.98191833496094 C 79.9969482421875 10.98023986816406 80.00819396972656 10.975341796875 80.01206970214844 10.97366333007812 C 80.03036499023438 10.96571350097656 80.04864501953125 10.957763671875 80.06695556640625 10.94981384277344 C 80.07081604003906 10.94813537597656 80.06959533691406 10.94866943359375 80.07345581054688 10.94699096679688 C 80.09017944335938 10.93972778320312 80.10691833496094 10.93246459960938 80.12364196777344 10.92521667480469 C 80.13137817382812 10.92185974121094 80.13455200195312 10.92047119140625 80.14228820800781 10.91712951660156 C 80.15534973144531 10.91146850585938 80.16841125488281 10.90580749511719 80.18147277832031 10.900146484375 C 80.18534851074219 10.89846801757812 80.19612121582031 10.893798828125 80.19999694824219 10.89212036132812 C 80.21748352050781 10.88455200195312 80.23497009277344 10.87698364257812 80.25245666503906 10.86941528320312 C 80.26020812988281 10.86607360839844 80.26667785644531 10.86326599121094 80.27442932128906 10.85992431640625 C 80.28582763671875 10.85499572753906 80.2972412109375 10.85006713867188 80.30863952636719 10.84513854980469 C 80.31637573242188 10.841796875 80.32662963867188 10.83737182617188 80.33436584472656 10.83403015136719 C 80.34373474121094 10.82998657226562 80.3531494140625 10.825927734375 80.36251831054688 10.82188415527344 C 80.37413024902344 10.81687927246094 80.37989807128906 10.81437683105469 80.39151000976562 10.80937194824219 C 80.39244079589844 10.80897521972656 80.39332580566406 10.80859375 80.39424133300781 10.80819702148438 C 80.42134094238281 10.7965087890625 80.44998168945312 10.7841796875 80.47708129882812 10.77252197265625 C 80.48072814941406 10.77095031738281 80.484375 10.76939392089844 80.48800659179688 10.767822265625 C 80.51124572753906 10.75782775878906 80.52799987792969 10.75062561035156 80.55123901367188 10.74064636230469 C 81.18695068359375 10.47080993652344 81.84686279296875 10.34300231933594 82.49644470214844 10.34303283691406 Z M 101.7173767089844 3.84783935546875 C 103.9453582763672 3.847900390625 105.9709320068359 5.352630615234375 106.53955078125 7.615081787109375 C 107.2126312255859 10.29322814941406 105.5895080566406 13.01895141601562 102.9141845703125 13.70318603515625 L 101.9284057617188 13.955322265625 C 99.25314331054688 14.63949584960938 96.52064514160156 13.02781677246094 95.82522583007812 10.35536193847656 C 95.13325500488281 7.696014404296875 96.7191162109375 4.988433837890625 99.37094116210938 4.287811279296875 C 99.38337707519531 4.284576416015625 99.39375305175781 4.2818603515625 99.40618896484375 4.27862548828125 C 99.40748596191406 4.278289794921875 99.40892028808594 4.277923583984375 99.41023254394531 4.277587890625 C 99.56248474121094 4.23797607421875 99.71488952636719 4.1986083984375 99.86737060546875 4.15948486328125 C 99.87568664550781 4.157379150390625 99.88575744628906 4.15478515625 99.89405822753906 4.15264892578125 C 99.90347290039062 4.150238037109375 99.91287231445312 4.1478271484375 99.92228698730469 4.14544677734375 C 99.93473815917969 4.142242431640625 99.94374084472656 4.13995361328125 99.95619201660156 4.136749267578125 C 99.96125793457031 4.135467529296875 99.96633911132812 4.1341552734375 99.97138977050781 4.13287353515625 C 100.0004577636719 4.125457763671875 100.0270538330078 4.11865234375 100.0561218261719 4.111236572265625 C 100.0571746826172 4.110992431640625 100.0581970214844 4.1107177734375 100.0592498779297 4.110443115234375 C 100.0758514404297 4.106231689453125 100.086669921875 4.103485107421875 100.1032867431641 4.0992431640625 C 100.1071319580078 4.0982666015625 100.1109771728516 4.0972900390625 100.1148223876953 4.0963134765625 C 100.1272888183594 4.0931396484375 100.1446228027344 4.0887451171875 100.1570892333984 4.0855712890625 C 100.1608581542969 4.0845947265625 100.1646423339844 4.083648681640625 100.1684265136719 4.08270263671875 C 100.1891937255859 4.077423095703125 100.2123565673828 4.071533203125 100.2331390380859 4.0662841796875 C 100.2445831298828 4.063385009765625 100.2560272216797 4.06048583984375 100.2674713134766 4.057586669921875 C 100.2716217041016 4.0565185546875 100.2830657958984 4.05364990234375 100.2872161865234 4.052581787109375 C 100.3503875732422 4.03662109375 100.4135284423828 4.02069091796875 100.4767303466797 4.00482177734375 C 100.4775390625 4.004608154296875 100.4783477783203 4.00439453125 100.4791564941406 4.00421142578125 C 100.4916381835938 4.001068115234375 100.5047454833984 3.997772216796875 100.5172119140625 3.99462890625 C 100.9189605712891 3.8953857421875 101.3213806152344 3.84783935546875 101.7173767089844 3.84783935546875 Z M 121.7233581542969 0.489593505859375 C 124.2779846191406 0.489715576171875 126.4495697021484 2.439971923828125 126.6764984130859 5.035736083984375 C 126.9170074462891 7.78668212890625 124.8827667236328 10.22087097167969 122.1328125 10.47273254394531 L 121.1204071044922 10.56541442871094 C 118.3706817626953 10.81689453125 115.9279479980469 8.792999267578125 115.6648254394531 6.04412841796875 C 115.4031829833984 3.310882568359375 117.394775390625 0.890350341796875 120.1207427978516 0.61541748046875 C 120.3306579589844 0.595245361328125 120.5449371337891 0.5751953125 120.755126953125 0.555999755859375 C 120.7590789794922 0.555633544921875 120.7629852294922 0.555267333984375 120.7669219970703 0.554901123046875 C 120.7800598144531 0.5537109375 120.7920989990234 0.5526123046875 120.8052368164062 0.551422119140625 C 120.8223724365234 0.54986572265625 120.8446807861328 0.547821044921875 120.8618469238281 0.546295166015625 C 120.8780975341797 0.544830322265625 120.8944091796875 0.543365478515625 120.9106750488281 0.541900634765625 C 120.9150543212891 0.54150390625 120.9163970947266 0.5413818359375 120.9207763671875 0.540985107421875 C 120.9426879882812 0.53900146484375 120.9646453857422 0.537017822265625 120.986572265625 0.535064697265625 C 120.986572265625 0.535064697265625 120.9905395507812 0.53472900390625 120.9905395507812 0.53472900390625 C 121.0809326171875 0.526641845703125 121.1713714599609 0.518646240234375 121.2618255615234 0.5107421875 C 121.2630004882812 0.5106201171875 121.2640838623047 0.510528564453125 121.2652587890625 0.510406494140625 C 121.2784118652344 0.50927734375 121.2882995605469 0.508392333984375 121.3014526367188 0.50726318359375 C 121.4431304931641 0.495391845703125 121.5837249755859 0.48956298828125 121.7233581542969 0.489593505859375 Z" stroke="none" fill="currentColor"/>
  </g>
</svg>
