<svg xmlns="http://www.w3.org/2000/svg" width="164.603" height="160.379" viewBox="0 0 164.603 160.379">
  <g transform="matrix(0.978, -0.208, 0.208, 0.978, 11.139, 36.289)">
    <g  fill="none" stroke-linecap="round" stroke-dasharray="0 22">
      <path d="M59.87.61c33.065.337,60.143,26.188,60.48,57.74s-26.195,56.857-59.26,56.52S.947,88.682.61,57.13,26.8.273,59.87.61Z" stroke="none"/>
      <path d="M 59.21779632568359 -9.393211364746094 L 59.97222137451172 -9.389358520507812 C 62.73359680175781 -9.374259948730469 64.80367279052734 -7.129814147949219 64.59584808349609 -4.376213073730469 C 64.38932800292969 -1.63958740234375 62.00888442993164 0.5941925048828125 59.2689208984375 0.6068115234375 C 59.25187683105469 0.6067962646484375 59.23484802246094 0.6067886352539062 59.21779632568359 0.6067886352539062 C 59.21779632568359 0.6067886352539062 59.21779632568359 0.6067886352539062 59.21779632568359 0.6067886352539062 C 56.45637512207031 0.6067886352539062 54.21779632568359 -1.631790161132812 54.21779632568359 -4.393211364746094 C 54.21779632568359 -7.154640197753906 56.45637512207031 -9.393211364746094 59.21779632568359 -9.393211364746094 Z M 83.56854248046875 -4.909782409667969 C 84.17463684082031 -4.909782409667969 84.79130554199219 -4.797897338867188 85.39112854003906 -4.561614990234375 L 86.57822418212891 -4.093986511230469 C 89.14749908447266 -3.0819091796875 90.39154815673828 -0.1859588623046875 89.35687255859375 2.374313354492188 C 88.32220458984375 4.934562683105469 85.40065765380859 6.189620971679688 82.83137512207031 5.177513122558594 C 82.54029846191406 5.059883117675781 82.24812316894531 4.944366455078125 81.95481872558594 4.830963134765625 C 81.95127105712891 4.82958984375 81.95108795166016 4.829513549804688 81.94754028320312 4.828140258789062 C 81.9417724609375 4.825912475585938 81.93600463867188 4.823684692382812 81.93023681640625 4.821456909179688 C 81.92313385009766 4.818717956542969 81.91506958007812 4.815605163574219 81.90796661376953 4.8128662109375 C 81.90426635742188 4.811439514160156 81.90060424804688 4.810028076171875 81.89691162109375 4.808601379394531 C 81.88980102539062 4.805862426757812 81.88420104980469 4.803703308105469 81.87709045410156 4.80096435546875 C 81.87473297119141 4.800056457519531 81.87236022949219 4.799140930175781 81.8699951171875 4.798233032226562 C 81.85933685302734 4.79412841796875 81.8509521484375 4.790901184082031 81.84028625488281 4.78680419921875 C 81.8402099609375 4.786773681640625 81.84013366699219 4.7867431640625 81.84005737304688 4.786712646484375 C 81.82939147949219 4.782615661621094 81.8187255859375 4.778518676757812 81.80805969238281 4.774421691894531 C 79.23882293701172 3.762359619140625 77.95812225341797 0.8519363403320312 78.94754791259766 -1.72613525390625 C 79.70597839355469 -3.702339172363281 81.57850646972656 -4.909782409667969 83.56854248046875 -4.909782409667969 Z M 104.7284393310547 8.104057312011719 C 105.9337463378906 8.104057312011719 107.1424407958984 8.542999267578125 108.0997009277344 9.431739807128906 L 109.0380706787109 10.30298614501953 C 111.0617752075195 12.18183898925781 111.164421081543 15.3316650390625 109.2673492431641 17.33831024169922 C 107.3705291748047 19.34471893310547 104.1927947998047 19.44862365722656 102.1690673828125 17.57048797607422 C 102.0442123413086 17.45244598388672 101.9198226928711 17.33584594726562 101.7939224243164 17.21881103515625 C 101.7928771972656 17.21783447265625 101.7918395996094 17.21687316894531 101.7907867431641 17.21589660644531 C 101.7840194702148 17.20960235595703 101.7753448486328 17.20154571533203 101.7685699462891 17.19525909423828 C 101.7667541503906 17.19356536865234 101.7649078369141 17.19185638427734 101.7630844116211 17.19016265869141 C 101.7576675415039 17.18513488769531 101.7512664794922 17.17919921875 101.745849609375 17.17417144775391 C 101.743782043457 17.17224884033203 101.74169921875 17.17031860351562 101.739631652832 17.16840362548828 C 101.7342071533203 17.16337585449219 101.7250137329102 17.15485382080078 101.7195892333984 17.14983367919922 C 101.7167663574219 17.147216796875 101.7139205932617 17.14457702636719 101.7110977172852 17.14196014404297 C 101.70703125 17.13819885253906 101.7016220092773 17.13318634033203 101.6975555419922 17.12942504882812 C 101.6944427490234 17.12654876708984 101.6913452148438 17.12367248535156 101.6882400512695 17.12080383300781 C 101.6814575195312 17.11452484130859 101.6772308349609 17.11061859130859 101.6704406738281 17.10434722900391 C 101.6670227050781 17.10118865966797 101.6636199951172 17.09803771972656 101.6602020263672 17.09487915039062 C 101.6561279296875 17.09111022949219 101.6523132324219 17.08759307861328 101.6482391357422 17.08383178710938 C 101.6432876586914 17.07926177978516 101.6383743286133 17.07472229003906 101.6334228515625 17.07015228271484 C 101.6293487548828 17.06639099121094 101.6250534057617 17.06243133544922 101.6209716796875 17.05867004394531 C 101.6174392700195 17.05540466308594 101.6138763427734 17.05211639404297 101.6103363037109 17.04885864257812 C 101.6062622070312 17.04509735107422 101.6021347045898 17.04129791259766 101.5980529785156 17.03753662109375 C 101.5926055908203 17.03251647949219 101.5871734619141 17.02751159667969 101.5817260742188 17.02249908447266 C 101.5776443481445 17.01873779296875 101.5755767822266 17.01683044433594 101.5714950561523 17.01307678222656 C 101.5676879882812 17.00957489013672 101.5638732910156 17.00606536865234 101.5600662231445 17.0025634765625 C 101.5546264648438 16.99755859375 101.5480346679688 16.99150085449219 101.542594909668 16.98649597167969 C 101.5394744873047 16.98363494873047 101.5363388061523 16.98075103759766 101.5332183837891 16.97788238525391 C 101.5291366577148 16.97412872314453 101.5239715576172 16.96939086914062 101.519889831543 16.96563720703125 C 101.5170516967773 16.96303558349609 101.5141754150391 16.96038818359375 101.5113372802734 16.95778656005859 C 101.5058898925781 16.95278930664062 101.4965515136719 16.94422149658203 101.4911041259766 16.93922424316406 C 101.4891357421875 16.93742370605469 101.4871978759766 16.93564605712891 101.485237121582 16.93384552001953 C 101.4797821044922 16.92884826660156 101.472282409668 16.92197418212891 101.4668273925781 16.91697692871094 C 101.4653091430664 16.91558837890625 101.4637908935547 16.91419219970703 101.462272644043 16.91280364990234 C 101.455451965332 16.90655517578125 101.4465255737305 16.89838409423828 101.4397048950195 16.89214324951172 C 101.4385986328125 16.89112854003906 101.4374771118164 16.89010620117188 101.4363708496094 16.88909149169922 C 101.4118118286133 16.86663055419922 101.3865509033203 16.84355926513672 101.3619537353516 16.82112884521484 C 99.33842468261719 14.94241333007812 99.20614624023438 11.76509094238281 101.0666732788086 9.724510192871094 C 102.0471420288086 8.649192810058594 103.3856506347656 8.104057312011719 104.7284393310547 8.104057312011719 Z M 119.5872421264648 28.10735321044922 C 121.4596176147461 28.10735321044922 123.2469940185547 29.17601013183594 124.0830001831055 30.99694061279297 L 124.6228256225586 32.17273712158203 C 125.7749710083008 34.68231201171875 124.6656265258789 37.63098907470703 122.1449966430664 38.75876617431641 C 119.6248321533203 39.88632202148438 116.6480255126953 38.76670074462891 115.4953918457031 36.25810241699219 C 115.3691635131836 35.97599029541016 115.2406997680664 35.69497680664062 115.1099548339844 35.41512298583984 C 115.1091384887695 35.41337585449219 115.1083068847656 35.41160583496094 115.1074905395508 35.40985870361328 C 115.1035995483398 35.40153503417969 115.0997619628906 35.393310546875 115.0958633422852 35.38498687744141 C 115.0941696166992 35.38135528564453 115.0924987792969 35.37778472900391 115.0907974243164 35.37416076660156 C 115.0884552001953 35.36916351318359 115.0855102539062 35.36287689208984 115.0831756591797 35.35787963867188 C 115.0810546875 35.35336303710938 115.0789413452148 35.34884643554688 115.0768280029297 35.34432983398438 C 115.076042175293 35.34266662597656 115.073616027832 35.33748626708984 115.0728302001953 35.33582305908203 C 115.0678558349609 35.32521057128906 115.062873840332 35.31459045410156 115.0578842163086 35.30397796630859 C 115.0578842163086 35.30397796630859 115.0570220947266 35.30213928222656 115.0570220947266 35.30213928222656 C 115.0499725341797 35.28713226318359 115.0429077148438 35.27210998535156 115.0358505249023 35.25711059570312 C 113.883674621582 32.74753570556641 114.9749221801758 29.75943756103516 117.4732513427734 28.58303833007812 C 118.1588134765625 28.26020812988281 118.8791122436523 28.10735321044922 119.5872421264648 28.10735321044922 Z M 125.3377990722656 52.44580459594727 C 128.0420227050781 52.44580459594727 130.2666778564453 54.60369110107422 130.3338775634766 57.32231140136719 L 130.3501434326172 58.24311447143555 C 130.3973999023438 61.00411605834961 128.2021789550781 63.09206390380859 125.4469757080078 62.90668869018555 C 122.7146682739258 62.72282791137695 120.4225234985352 60.37005996704102 120.3385696411133 57.6381721496582 C 120.3380355834961 57.6151237487793 120.337516784668 57.59375 120.3369445800781 57.57070922851562 C 120.3369369506836 57.57020568847656 120.3369293212891 57.56984329223633 120.3369216918945 57.56933975219727 C 120.2686996459961 54.80873870849609 122.451301574707 52.51556396484375 125.2118988037109 52.44736480712891 C 125.2538528442383 52.44632720947266 125.2960662841797 52.44580459594727 125.3377990722656 52.44580459594727 Z M 120.7142181396484 77.06513977050781 C 121.3700866699219 77.06513977050781 122.0356292724609 77.19349670410156 122.6752471923828 77.46469116210938 C 125.2175979614258 78.54261779785156 126.3838500976562 81.46843719482422 125.2801513671875 83.99971008300781 L 124.7593460083008 85.19413757324219 C 123.655647277832 87.72541809082031 120.7181243896484 88.86189270019531 118.1981964111328 87.73253631591797 C 115.6784286499023 86.60325622558594 114.5302581787109 83.63615417480469 115.6336135864258 81.10501098632812 C 115.6711196899414 81.02133178710938 115.7083892822266 80.93758392333984 115.7454833984375 80.85369110107422 C 115.7456283569336 80.85336303710938 115.7457809448242 80.85301971435547 115.7459259033203 80.85269165039062 C 115.7553787231445 80.83130645751953 115.7628860473633 80.81430053710938 115.7723159790039 80.79290771484375 C 115.773063659668 80.79120635986328 115.773811340332 80.78950500488281 115.7745590209961 80.78781127929688 C 115.7781829833984 80.77957153320312 115.7833786010742 80.76779174804688 115.786994934082 80.75955200195312 C 115.7873382568359 80.75877380371094 115.7876968383789 80.75796508789062 115.7880401611328 80.75718688964844 C 115.7916564941406 80.74895477294922 115.7958602905273 80.73939514160156 115.7994766235352 80.73116302490234 C 115.8003082275391 80.72925567626953 115.8011627197266 80.72732543945312 115.8019943237305 80.72541809082031 C 115.8063354492188 80.71553039550781 115.8095855712891 80.7081298828125 115.8139190673828 80.6982421875 C 115.8147811889648 80.69627380371094 115.8156356811523 80.69432067871094 115.8164978027344 80.69235229492188 C 115.8201065063477 80.68411254882812 115.8234024047852 80.67659759521484 115.8270111083984 80.66835021972656 C 115.8277816772461 80.66659545898438 115.8285217285156 80.66488647460938 115.8292999267578 80.66312408447266 C 115.8329010009766 80.65488433837891 115.8373184204102 80.644775390625 115.8409194946289 80.63653564453125 C 115.8419952392578 80.63407897949219 115.8430633544922 80.63162231445312 115.8441390991211 80.62916564941406 C 115.8477401733398 80.62091827392578 115.8520965576172 80.61094665527344 115.8556900024414 80.60269927978516 C 115.8564224243164 80.60101318359375 115.8571701049805 80.59930419921875 115.8579025268555 80.59762573242188 C 115.8614959716797 80.58937072753906 115.8643569946289 80.58281707763672 115.8679428100586 80.57456970214844 C 115.869010925293 80.57212829589844 115.8700714111328 80.56968688964844 115.8711395263672 80.56724548339844 C 115.8747253417969 80.55899047851562 115.8788375854492 80.54953765869141 115.8824234008789 80.54129028320312 C 115.8835830688477 80.53861999511719 115.8847198486328 80.53599548339844 115.8858795166016 80.53333282470703 C 115.8887481689453 80.5267333984375 115.8921966552734 80.51878356933594 115.8950653076172 80.51217651367188 C 115.896125793457 80.50973510742188 115.8971862792969 80.50729370117188 115.8982467651367 80.50484466552734 C 115.9018249511719 80.49659729003906 115.9055023193359 80.48811340332031 115.9090728759766 80.4798583984375 C 115.9104995727539 80.47657775878906 115.9119338989258 80.47325134277344 115.9133529663086 80.469970703125 C 115.9162139892578 80.46336364746094 115.9197845458984 80.45510864257812 115.9226455688477 80.44850158691406 C 115.9241714477539 80.44496154785156 115.9257049560547 80.44142150878906 115.9272308349609 80.43788909912109 C 115.9300842285156 80.43128204345703 115.932502746582 80.42568969726562 115.9353561401367 80.41908264160156 C 115.9370346069336 80.41517639160156 115.9387283325195 80.41127014160156 115.9404144287109 80.40736389160156 C 115.943977355957 80.39909362792969 115.9454650878906 80.39566040039062 115.9490203857422 80.38739013671875 C 115.9514999389648 80.38163757324219 115.9539794921875 80.37588500976562 115.9564514160156 80.37013244628906 C 115.957878112793 80.36682891845703 115.9589538574219 80.36433410644531 115.9603729248047 80.36103057861328 C 115.9983139038086 80.27286529541016 116.0360107421875 80.18460845947266 116.0735015869141 80.09621429443359 C 116.8995208740234 78.20177459716797 118.7631378173828 77.06513977050781 120.7142181396484 77.06513977050781 Z M 106.3334884643555 97.54997253417969 C 107.6813812255859 97.54997253417969 109.0258865356445 98.08394622802734 110.0163955688477 99.13919067382812 C 111.9063262939453 101.1525650024414 111.7915725708008 104.3010406494141 109.760124206543 106.1715393066406 L 108.8096237182617 107.0467376708984 C 106.7781753540039 108.9172134399414 103.6309204101562 108.7722396850586 101.7800216674805 106.7229385375977 C 99.92912292480469 104.6736145019531 100.0755004882812 101.4960098266602 102.1069488525391 99.62553405761719 C 102.1788330078125 99.56060791015625 102.2505340576172 99.49552154541016 102.3220672607422 99.43024444580078 C 102.3247222900391 99.42782592773438 102.3243255615234 99.42819213867188 102.3269805908203 99.42576599121094 C 102.3409881591797 99.41297912597656 102.3549652099609 99.40020751953125 102.3689575195312 99.38741302490234 C 102.3729400634766 99.38377380371094 102.3749160766602 99.3819580078125 102.3788986206055 99.37831878662109 C 102.3834762573242 99.37413024902344 102.3880310058594 99.36996459960938 102.3926086425781 99.36577606201172 C 102.3979110717773 99.36091613769531 102.4021148681641 99.35707092285156 102.4074172973633 99.35221099853516 C 102.4104843139648 99.34940338134766 102.4135360717773 99.34660339355469 102.4166030883789 99.34379577636719 C 102.4232330322266 99.33771514892578 102.4299163818359 99.33159637451172 102.4365386962891 99.32551574707031 C 102.4378128051758 99.32434844970703 102.4390411376953 99.32321929931641 102.4403076171875 99.32205200195312 C 102.4469375610352 99.31597137451172 102.4531173706055 99.310302734375 102.4597396850586 99.30421447753906 C 102.4614410400391 99.30265808105469 102.4631271362305 99.30110931396484 102.4648208618164 99.29954528808594 C 102.472770690918 99.29225158691406 102.4791412353516 99.28639221191406 102.4870910644531 99.27908325195312 C 102.4880599975586 99.27819061279297 102.4890365600586 99.27729797363281 102.4900054931641 99.27639770507812 C 102.4966278076172 99.27030944824219 102.5064239501953 99.26129913330078 102.5130386352539 99.25520324707031 C 102.5132141113281 99.25504302978516 102.5134048461914 99.25486755371094 102.5135803222656 99.25469970703125 C 102.5228500366211 99.24617767333984 102.5288696289062 99.24062347412109 102.5381317138672 99.23208618164062 C 102.5385284423828 99.23172760009766 102.538932800293 99.23134613037109 102.5393295288086 99.23097991943359 C 102.6649551391602 99.11516571044922 102.7920989990234 98.99687957763672 102.9166259765625 98.87999725341797 C 103.8833160400391 97.99008178710938 105.1097564697266 97.54997253417969 106.3334884643555 97.54997253417969 Z M 85.13609313964844 110.671501159668 C 87.1800537109375 110.671501159668 89.10890960693359 111.9230041503906 89.86769866943359 113.9416122436523 C 90.83932495117188 116.5264663696289 89.52442169189453 119.3902893066406 86.93077087402344 120.3381652832031 L 85.72525024414062 120.7787170410156 C 83.13160705566406 121.7265853881836 80.27995300292969 120.3854675292969 79.35592651367188 117.7832107543945 C 78.43186950683594 115.1809844970703 79.78534698486328 112.3030624389648 82.37899780273438 111.3552093505859 C 82.45838165283203 111.327018737793 82.53765106201172 111.2986831665039 82.61686706542969 111.2701721191406 C 82.61686706542969 111.2701721191406 82.62001037597656 111.26904296875 82.62001037597656 111.26904296875 C 82.63105773925781 111.2650680541992 82.64208984375 111.2610931396484 82.65312194824219 111.2571105957031 C 82.65663909912109 111.2558441162109 82.65921020507812 111.2549209594727 82.6627197265625 111.2536544799805 C 82.66754150390625 111.2519149780273 82.67237854003906 111.2501678466797 82.67720031738281 111.2484283447266 C 82.68423461914062 111.2458877563477 82.68879699707031 111.2442398071289 82.69582366943359 111.24169921875 C 82.70037078857422 111.2400512695312 82.70492553710938 111.238410949707 82.70947265625 111.2367630004883 C 82.71649169921875 111.2342224121094 82.72328948974609 111.2317657470703 82.73031616210938 111.2292251586914 C 82.73323822021484 111.2281646728516 82.73614501953125 111.2271118164062 82.73907470703125 111.2260513305664 C 82.74784851074219 111.2228698730469 82.75820922851562 111.2191162109375 82.76698303222656 111.2159271240234 C 82.76776885986328 111.2156448364258 82.7685546875 111.2153625488281 82.76933288574219 111.2150802612305 C 82.77810668945312 111.2118911743164 82.78874206542969 111.2080307006836 82.79751586914062 111.2048416137695 C 82.79881286621094 111.2043685913086 82.80012512207031 111.2038879394531 82.80143737792969 111.2034149169922 C 82.81196594238281 111.199592590332 82.8214111328125 111.1961517333984 82.83193206787109 111.1923217773438 C 82.83222961425781 111.1922149658203 82.83255004882812 111.1920928955078 82.83284759521484 111.1919860839844 C 82.84336853027344 111.1881561279297 82.85336303710938 111.1845169067383 82.86388397216797 111.1806793212891 C 82.86421966552734 111.180549621582 82.86453247070312 111.1804351806641 82.8648681640625 111.1803131103516 C 83.0472412109375 111.1137847900391 83.23100280761719 111.0457229614258 83.4124755859375 110.9775085449219 C 83.98047637939453 110.7699966430664 84.56292724609375 110.671501159668 85.13609313964844 110.671501159668 Z M 59.55715179443359 114.8380584716797 C 59.59738922119141 114.8380584716797 59.63735961914062 114.8385314941406 59.67779922485352 114.839485168457 C 60.04347229003906 114.8512878417969 60.4099235534668 114.8599624633789 60.77712249755859 114.8655166625977 C 63.53777313232422 114.9308624267578 65.74197387695312 117.2221603393555 65.7003173828125 119.9832611083984 C 65.65869903564453 122.744384765625 63.38725662231445 124.9297256469727 60.62634658813477 124.8643646240234 L 59.355224609375 124.8342895507812 C 56.59457397460938 124.768913269043 54.42882537841797 122.4785385131836 54.51792144775391 119.7185363769531 C 54.60569000244141 116.9989929199219 56.85031890869141 114.8380584716797 59.55715179443359 114.8380584716797 Z M 35.32513427734375 109.5539321899414 C 35.96372985839844 109.5539321899414 36.61175537109375 109.6758041381836 37.23699951171875 109.9333343505859 C 37.57452392578125 110.0758361816406 37.91365051269531 110.2155380249023 38.2542724609375 110.3523406982422 C 40.80759429931641 111.4040145874023 42.04317474365234 114.3338851928711 41.01404571533203 116.8963623046875 C 39.98490142822266 119.4588317871094 37.08074951171875 120.68359375 34.52742004394531 119.6319122314453 L 33.34719848632812 119.1457901000977 C 30.79387664794922 118.0941162109375 29.59477233886719 115.1792602539062 30.66889953613281 112.6353149414062 C 31.48001861572266 110.7143096923828 33.35586547851562 109.5539321899414 35.32513427734375 109.5539321899414 Z M 14.60641479492188 95.84230041503906 C 15.86343383789062 95.84230041503906 17.12174987792969 96.30703735351562 18.09654998779297 97.24128723144531 C 18.12019348144531 97.26436614990234 18.14359283447266 97.28716278076172 18.16741180419922 97.31033325195312 C 18.16956329345703 97.31242370605469 18.17170715332031 97.31451416015625 18.17385864257812 97.31660461425781 C 18.17915344238281 97.32174682617188 18.18519592285156 97.32762908935547 18.19049072265625 97.33277130126953 C 18.19467926025391 97.33684539794922 18.19884490966797 97.34088897705078 18.20303344726562 97.34495544433594 C 18.20700836181641 97.34881591796875 18.2086181640625 97.35038757324219 18.21259307861328 97.35424041748047 C 18.21686553955078 97.35838317871094 18.22113800048828 97.36253356933594 18.22541046142578 97.36668395996094 C 18.22673797607422 97.36796569824219 18.22687530517578 97.36809539794922 18.22819519042969 97.369384765625 C 18.23757171630859 97.37847900390625 18.24697875976562 97.38759613037109 18.25636291503906 97.39668273925781 C 18.25636291503906 97.39668273925781 18.25851440429688 97.39877319335938 18.25851440429688 97.39877319335938 C 18.36421966552734 97.50116729736328 18.47031402587891 97.60319519042969 18.57679748535156 97.70485687255859 C 18.57679748535156 97.70485687255859 18.57759857177734 97.70561981201172 18.57759857177734 97.70561981201172 C 18.59341430664062 97.72071838378906 18.6092529296875 97.73581695556641 18.62508392333984 97.75090026855469 C 18.62508392333984 97.75090026855469 18.62564849853516 97.75144195556641 18.62564849853516 97.75144195556641 C 18.63584136962891 97.76115417480469 18.64608001708984 97.77088928222656 18.65628051757812 97.78059387207031 C 18.65628051757812 97.78059387207031 18.65774536132812 97.78199005126953 18.65774536132812 97.78199005126953 C 18.66294860839844 97.78694152832031 18.66811370849609 97.79185485839844 18.67332458496094 97.79679870605469 C 18.67332458496094 97.79679870605469 18.67380523681641 97.79726409912109 18.67380523681641 97.79726409912109 C 18.68331146240234 97.80629730224609 18.69282531738281 97.81533813476562 18.70233917236328 97.82436370849609 C 18.70501708984375 97.82691192626953 18.70497894287109 97.82686614990234 18.70765686035156 97.82940673828125 C 18.7122802734375 97.83380126953125 18.71690368652344 97.83818817138672 18.72153472900391 97.84257507324219 C 18.72153472900391 97.84257507324219 18.7227783203125 97.84375762939453 18.7227783203125 97.84375762939453 C 18.73223114013672 97.85272216796875 18.74168395996094 97.86167907714844 18.75114440917969 97.87063598632812 C 18.75382232666016 97.87318420410156 18.75342559814453 97.872802734375 18.75611114501953 97.87534332275391 C 18.77067565917969 97.88913726806641 18.78523254394531 97.90290832519531 18.7998046875 97.91668701171875 C 18.802490234375 97.91921997070312 18.80244445800781 97.91918182373047 18.80513763427734 97.92171478271484 C 18.81434631347656 97.930419921875 18.82358551025391 97.93914031982422 18.83279418945312 97.94783782958984 C 18.83279418945312 97.94783782958984 18.8345947265625 97.94953155517578 18.8345947265625 97.94953155517578 C 18.83950805664062 97.95417785644531 18.84440612792969 97.95879364013672 18.84932708740234 97.96343231201172 C 18.85066986083984 97.96469879150391 18.85121154785156 97.9652099609375 18.85255432128906 97.96647644042969 C 18.86524200439453 97.97843933105469 18.87794494628906 97.99040985107422 18.89064788818359 98.00236511230469 C 20.88426971435547 99.91306304931641 20.96617126464844 103.0921173095703 19.07357025146484 105.1029663085938 C 17.18096160888672 107.1137924194336 14.03053283691406 107.1949615478516 12.03687286376953 105.2842407226562 L 11.11217498779297 104.3980102539062 C 9.118522644042969 102.4872894287109 9.065872192382812 99.33626556396484 10.99454498291016 97.3599853515625 C 11.98019409179688 96.35002136230469 13.29259490966797 95.84230041503906 14.60641479492188 95.84230041503906 Z M 0.4454116821289062 75.31877136230469 C 2.391670227050781 75.31877136230469 4.250930786132812 76.44982147216797 5.079345703125 78.33840942382812 C 5.079658508300781 78.33913421630859 5.0799560546875 78.33984375 5.080268859863281 78.34056091308594 C 5.084602355957031 78.35071563720703 5.087959289550781 78.35857391357422 5.092308044433594 78.36872863769531 C 5.092811584472656 78.36990356445312 5.09332275390625 78.37110900878906 5.093826293945312 78.37228393554688 C 5.097450256347656 78.3807373046875 5.102561950683594 78.39269256591797 5.106185913085938 78.40115356445312 C 5.106285095214844 78.40138244628906 5.106376647949219 78.40159606933594 5.106475830078125 78.40181732177734 C 5.110824584960938 78.41197204589844 5.115066528320312 78.42185974121094 5.119422912597656 78.4320068359375 C 5.11981201171875 78.43291473388672 5.120208740234375 78.433837890625 5.120597839355469 78.43474578857422 C 5.129310607910156 78.45503997802734 5.137481689453125 78.47404479980469 5.146217346191406 78.49433898925781 C 5.146812438964844 78.49571228027344 5.14739990234375 78.49708557128906 5.147994995117188 78.49845886230469 C 5.152366638183594 78.50860595703125 5.156295776367188 78.51772308349609 5.160675048828125 78.52786254882812 C 5.160758972167969 78.52806854248047 5.160858154296875 78.52829742431641 5.16094970703125 78.52850341796875 C 5.165321350097656 78.53864288330078 5.168235778808594 78.54539489746094 5.172615051269531 78.55552673339844 C 5.173622131347656 78.55785369873047 5.174629211425781 78.56019592285156 5.175636291503906 78.56251525878906 C 5.179283142089844 78.57096099853516 5.183197021484375 78.58000183105469 5.186851501464844 78.58843994140625 C 5.188125610351562 78.59140014648438 5.189422607421875 78.59439086914062 5.190704345703125 78.59735107421875 C 5.193634033203125 78.60411071777344 5.195770263671875 78.60903930664062 5.198699951171875 78.61579895019531 C 5.200271606445312 78.61943054199219 5.201858520507812 78.62309265136719 5.203437805175781 78.62672424316406 C 5.206367492675781 78.63348388671875 5.210220336914062 78.64236450195312 5.213150024414062 78.64912414550781 C 5.215202331542969 78.65383911132812 5.217254638671875 78.6585693359375 5.219306945800781 78.66329193115234 C 5.220771789550781 78.66667175292969 5.222831726074219 78.67140197753906 5.22430419921875 78.67477416992188 C 5.229141235351562 78.68589782714844 5.233985900878906 78.69705200195312 5.23883056640625 78.70816802978516 C 5.23883056640625 78.70816802978516 5.239105224609375 78.70880126953125 5.239105224609375 78.70880126953125 C 5.241897583007812 78.71520233154297 5.244697570800781 78.72163391113281 5.247489929199219 78.72804260253906 C 5.247489929199219 78.72804260253906 5.248809814453125 78.73106384277344 5.248809814453125 78.73106384277344 C 5.32177734375 78.89840698242188 5.39556884765625 79.06541442871094 5.470130920410156 79.23197937011719 C 5.47088623046875 79.23365783691406 5.472129821777344 79.23643493652344 5.472885131835938 79.23811340332031 C 5.476089477539062 79.24528503417969 5.479324340820312 79.25250244140625 5.482536315917969 79.25966644287109 C 5.485549926757812 79.26638793945312 5.487777709960938 79.27135467529297 5.490791320800781 79.27806854248047 C 5.492210388183594 79.28123474121094 5.493621826171875 79.28437042236328 5.495040893554688 79.28753662109375 C 5.503326416015625 79.30599212646484 5.512931823730469 79.32735443115234 5.521240234375 79.34580230712891 C 6.630447387695312 81.87454223632812 5.488494873046875 84.84365844726562 2.970550537109375 85.97743988037109 C 0.4526214599609375 87.11122131347656 -2.48779296875 85.98029327392578 -3.597076416015625 83.45146179199219 L -4.11700439453125 82.26618957519531 C -5.226249694824219 79.73733520507812 -4.066825866699219 76.80805969238281 -1.527305603027344 75.72343444824219 C -0.884368896484375 75.44883728027344 -0.2143707275390625 75.31877136230469 0.4454116821289062 75.31877136230469 Z M -4.439224243164062 50.78104400634766 C -4.417884826660156 50.78104400634766 -4.396980285644531 50.78117370605469 -4.375579833984375 50.78144073486328 C -1.6143798828125 50.81586456298828 0.6183013916015625 53.08233642578125 0.6112213134765625 55.8437614440918 C 0.6087570190429688 56.04228591918945 0.6073455810546875 56.24106979370117 0.6070098876953125 56.44011306762695 C 0.6070022583007812 56.44202041625977 0.6070022583007812 56.44317626953125 0.60699462890625 56.44508361816406 C 0.6069793701171875 56.45783996582031 0.606964111328125 56.47060394287109 0.6069488525390625 56.48336410522461 C 0.6069488525390625 56.48527145385742 0.6069488525390625 56.48667144775391 0.6069412231445312 56.48857879638672 C 0.6069412231445312 56.49475860595703 0.60693359375 56.50093841552734 0.60693359375 56.50711822509766 C 0.60693359375 56.51093292236328 0.6069259643554688 56.51259613037109 0.6069259643554688 56.51641082763672 C 0.6069259643554688 56.5268440246582 0.6069259643554688 56.53726959228516 0.6069259643554688 56.54770660400391 C 0.6069259643554688 56.55152130126953 0.6069259643554688 56.55403900146484 0.6069259643554688 56.55785369873047 C 0.60693359375 56.56329727172852 0.60693359375 56.56873321533203 0.6069412231445312 56.57417678833008 C 0.6069412231445312 56.57990264892578 0.6069412231445312 56.58237075805664 0.6069488525390625 56.58809661865234 C 0.6069564819335938 56.59543991088867 0.606964111328125 56.60275650024414 0.6069717407226562 56.61010360717773 C 0.6069793701171875 56.61582946777344 0.60699462890625 56.62186813354492 0.6070022583007812 56.62759399414062 C 0.6070098876953125 56.63254547119141 0.6070175170898438 56.63752746582031 0.607025146484375 56.64247512817383 C 0.6070404052734375 56.6482048034668 0.6070480346679688 56.65226745605469 0.6070632934570312 56.65799713134766 C 0.6070709228515625 56.66308212280273 0.607086181640625 56.66815185546875 0.6070938110351562 56.67323684692383 C 0.60711669921875 56.68278503417969 0.6071319580078125 56.68779373168945 0.6071624755859375 56.69734191894531 C 0.6071701049804688 56.70135116577148 0.6071853637695312 56.70539093017578 0.6072006225585938 56.70940399169922 C 0.6072158813476562 56.71513366699219 0.6072463989257812 56.72446060180664 0.607269287109375 56.73019027709961 C 0.6072769165039062 56.73319244384766 0.6072845458984375 56.73616027832031 0.6072998046875 56.73916244506836 C 0.607330322265625 56.74871444702148 0.6073684692382812 56.7584114074707 0.6074142456054688 56.76796340942383 C 0.607421875 56.7707405090332 0.6074371337890625 56.77348327636719 0.6074447631835938 56.77626419067383 C 0.6074905395507812 56.78581619262695 0.607513427734375 56.79225540161133 0.6075592041015625 56.80180740356445 C 0.607574462890625 56.8035774230957 0.6075820922851562 56.80535507202148 0.6075897216796875 56.80712890625 C 0.607635498046875 56.81668090820312 0.607696533203125 56.82793426513672 0.6077423095703125 56.83748626708984 C 0.607757568359375 56.83961868286133 0.6077651977539062 56.84172821044922 0.6077804565429688 56.84385681152344 C 0.6078338623046875 56.85341262817383 0.6078948974609375 56.86400985717773 0.6079559326171875 56.87356567382812 C 0.6079559326171875 56.87410354614258 0.6079559326171875 56.87458038330078 0.6079635620117188 56.87511825561523 C 0.6080169677734375 56.88467407226562 0.6081085205078125 56.89819717407227 0.6081695556640625 56.90775299072266 C 0.6081771850585938 56.90885162353516 0.608184814453125 56.90998458862305 0.6081924438476562 56.91108322143555 C 0.6082687377929688 56.92255020141602 0.60833740234375 56.93221664428711 0.6084213256835938 56.94368362426758 C 0.601348876953125 59.70506286621094 -1.642875671386719 61.96006393432617 -4.404228210449219 61.98031234741211 C -7.166183471679688 62.00056076049805 -9.39837646484375 59.77843856811523 -9.39129638671875 57.01703643798828 L -9.387969970703125 55.71906280517578 C -9.3809814453125 52.97904205322266 -7.170989990234375 50.78104400634766 -4.439224243164062 50.78104400634766 Z M 1.174613952636719 26.35149383544922 C 1.881095886230469 26.35149383544922 2.599395751953125 26.50360870361328 3.283744812011719 26.82506561279297 C 5.783172607421875 27.99908447265625 6.878219604492188 30.98656463623047 5.729598999023438 33.49776458740234 C 5.651763916015625 33.6634521484375 5.57489013671875 33.82930755615234 5.498626708984375 33.99601745605469 C 5.498359680175781 33.99660491943359 5.498100280761719 33.99717712402344 5.497825622558594 33.99776458740234 C 5.489608764648438 34.01573944091797 5.479301452636719 34.03830718994141 5.471099853515625 34.05629730224609 C 5.470199584960938 34.05827331542969 5.469284057617188 34.06027221679688 5.4683837890625 34.06224822998047 C 5.46466064453125 34.07042694091797 5.45989990234375 34.08086395263672 5.4561767578125 34.08904266357422 C 5.455230712890625 34.09112548828125 5.454299926757812 34.09317779541016 5.453353881835938 34.09525299072266 C 5.449630737304688 34.10343170166016 5.44781494140625 34.10742950439453 5.444099426269531 34.11561584472656 C 5.442588806152344 34.11893463134766 5.441055297851562 34.12229919433594 5.439552307128906 34.12561798095703 C 5.436576843261719 34.13216400146484 5.432022094726562 34.14219665527344 5.429054260253906 34.14874267578125 C 5.427192687988281 34.15283966064453 5.425331115722656 34.15694427490234 5.423477172851562 34.16104125976562 C 5.421989440917969 34.16431427001953 5.419013977050781 34.17089080810547 5.417526245117188 34.17416381835938 C 5.413932800292969 34.18209838867188 5.410346984863281 34.19001770019531 5.406753540039062 34.19795227050781 C 5.4052734375 34.20122528076172 5.403724670410156 34.20464324951172 5.402244567871094 34.20792388916016 C 5.39971923828125 34.21350860595703 5.397186279296875 34.21910858154297 5.394660949707031 34.22470092773438 C 5.3939208984375 34.22633361816406 5.393455505371094 34.22737884521484 5.392715454101562 34.22901153564453 C 5.387588500976562 34.2403564453125 5.382476806640625 34.25167846679688 5.377365112304688 34.26302337646484 C 5.377365112304688 34.26302337646484 5.375846862792969 34.26639556884766 5.375846862792969 34.26639556884766 C 5.341049194335938 34.34356689453125 5.306434631347656 34.42082977294922 5.271995544433594 34.49819183349609 C 4.123367309570312 37.00941467285156 1.147178649902344 38.13468933105469 -1.375579833984375 37.01161193847656 C -3.898300170898438 35.88853454589844 -5.012229919433594 32.94235992431641 -3.863601684570312 30.43115997314453 L -3.321624755859375 29.24623870849609 C -2.487503051757812 27.42261505126953 -0.6991500854492188 26.35149383544922 1.174613952636719 26.35149383544922 Z M 16.2913818359375 6.422813415527344 C 17.66939544677734 6.422813415527344 19.03980255126953 6.997177124023438 20.02204895019531 8.122184753417969 C 21.83811187744141 10.20220947265625 21.63857269287109 13.37648773193359 19.57627105712891 15.21257019042969 C 19.34291076660156 15.41632843017578 19.11167907714844 15.62149810791016 18.88184356689453 15.82882690429688 C 18.88160705566406 15.82903289794922 18.88140869140625 15.82921600341797 18.88117980957031 15.82942199707031 C 18.87316131591797 15.83665466308594 18.86489105224609 15.8441162109375 18.85688018798828 15.85135650634766 C 18.85592651367188 15.85221099853516 18.85498809814453 15.85305786132812 18.85404205322266 15.85391235351562 C 18.84603118896484 15.86115264892578 18.84039306640625 15.86624908447266 18.83238220214844 15.87348937988281 C 18.83146667480469 15.87431335449219 18.83055877685547 15.87513732910156 18.82964324951172 15.87596130371094 C 18.82297515869141 15.88199615478516 18.81478881835938 15.88939666748047 18.80812072753906 15.89543151855469 C 18.80571746826172 15.89761352539062 18.80330657958984 15.89979553222656 18.8009033203125 15.90196990966797 C 18.79556274414062 15.90679931640625 18.78934478759766 15.91243743896484 18.78401184082031 15.91726684570312 C 18.78063201904297 15.92033386230469 18.77727508544922 15.92337036132812 18.77389526367188 15.92643737792969 C 18.76856231689453 15.9312744140625 18.76509857177734 15.93441772460938 18.759765625 15.93924713134766 C 18.75786590576172 15.94097900390625 18.75595092773438 15.94271087646484 18.75405120849609 15.94443511962891 C 16.69137573242188 17.78046417236328 13.51493835449219 17.61106872558594 11.65924835205078 15.56611633300781 C 9.803550720214844 13.52116394042969 9.971321105957031 10.37501525878906 12.03395080566406 8.539016723632812 L 12.99882507324219 7.680160522460938 C 13.9459228515625 6.837120056152344 15.12144470214844 6.422813415527344 16.2913818359375 6.422813415527344 Z M 37.93363952636719 -5.944869995117188 C 39.99960327148438 -5.944869995117188 41.92147827148438 -4.643707275390625 42.62052154541016 -2.569984436035156 C 43.50262451171875 0.04676055908203125 42.10301971435547 2.902534484863281 39.49447631835938 3.808540344238281 C 39.29340362548828 3.876319885253906 39.09288024902344 3.945098876953125 38.89286041259766 4.014892578125 C 38.89286041259766 4.014892578125 38.89265441894531 4.014968872070312 38.89265441894531 4.014968872070312 C 38.87166595458984 4.022285461425781 38.85071563720703 4.029609680175781 38.82974243164062 4.036956787109375 C 38.82974243164062 4.036956787109375 38.82843017578125 4.03741455078125 38.82843017578125 4.03741455078125 C 38.80764770507812 4.044692993164062 38.78688049316406 4.051979064941406 38.76610565185547 4.059280395507812 C 38.76610565185547 4.059280395507812 38.76492309570312 4.0596923828125 38.76492309570312 4.0596923828125 C 38.74415588378906 4.066993713378906 38.72335815429688 4.074317932128906 38.70259857177734 4.081642150878906 C 38.70259857177734 4.081642150878906 38.70121002197266 4.082130432128906 38.70121002197266 4.082130432128906 C 38.61905670166016 4.111106872558594 38.53700256347656 4.140243530273438 38.45502471923828 4.169563293457031 C 35.84641265869141 5.075584411621094 32.97798919677734 3.70220947265625 32.04812622070312 1.102066040039062 C 31.11824798583984 -1.498115539550781 32.47909545898438 -4.340408325195312 35.087646484375 -5.246414184570312 L 36.30012512207031 -5.667533874511719 C 36.84145355224609 -5.855552673339844 37.39263916015625 -5.944869995117188 37.93363952636719 -5.944869995117188 Z" stroke="none" fill="currentColor" />
    </g>
  </g>
</svg>
