<svg xmlns="http://www.w3.org/2000/svg" width="1206.14" height="620.6" viewBox="0 0 1206.14 620.6">
  <path
    d="M-138.71-208H-318.37l-3.38,77.48h2.86c4.94-54.34,6.76-73.06,59.54-74.1,19.76.26,22.62,2.86,22.62,26V-29.38c0,26-2.34,26.52-36.4,26.52V0h89.18V-2.86c-34.84,0-36.4-.52-36.4-26.52V-178.62c0-23.14,2.86-25.74,22.62-26,52.78,1.04,54.34,19.76,59.54,74.1h2.86Zm219.96,2.86V-208H-7.93v2.86c34.06,0,36.4,0,36.4,26.52v53.3c-.26,16.12-3.38,17.16-26.52,17.16H-56.03c-22.62,0-26-1.3-26.52-15.34v-55.12c0-26.52,2.34-26.52,36.4-26.52V-208h-89.18v2.86c34.06,0,36.4,0,36.4,26.52V-29.38c0,26-2.34,26.52-36.4,26.52V0h89.18V-2.86c-34.84,0-36.4-.52-36.4-26.52V-89.44c.52-14.04,3.9-15.34,26.52-15.34H1.95c23.14,0,26.26,1.56,26.52,17.68v57.72c0,26-2.34,26.52-36.4,26.52V0H81.25V-2.86c-34.84,0-36.4-.52-36.4-26.52V-178.62C44.85-205.14,47.19-205.14,81.25-205.14ZM248.69-68.12c-7.8,44.98-12.22,64.74-58.76,64.74H160.55c-22.62,0-26-1.3-26.52-15.34V-89.44c.52-14.04,3.9-15.34,26.52-15.34h16.38c23.4,0,26.52,11.7,26.52,52.26h2.86V-160.16h-2.86c0,40.56-3.12,52-26.52,52H160.55c-22.62,0-26-1.3-26.52-15.34v-55.12c0-24.96,2.08-26,34.32-26h5.98c56.94,0,58.5,15.34,63.7,63.7h2.86L237.51-208H81.25v2.86c34.06,0,36.4,0,36.4,26.52V-29.38c0,26-2.34,26.52-36.4,26.52V0H242.71l8.84-68.12ZM-526.89-3h-83.98V-.14c34.06,0,36.4,0,36.4,26.52V175.62c0,26-2.34,26.52-36.4,26.52V205h83.98c70.98,0,118.56-34.32,118.56-103.48C-408.33,26.9-455.91-3-526.89-3Zm0,204.1c-29.64,0-31.2.52-31.2-25.48V26.38C-558.09-.14-555.75.9-526.89.9c65.78,0,98.02,35.62,98.02,100.62C-428.87,160.8-461.11,201.1-526.89,201.1Zm289.38-20.8-54.6-72.54c27.56-6.24,48.36-23.14,48.36-54.08,0-40.3-35.36-56.68-74.88-56.68h-79.3V-.14c34.06,0,36.4,0,36.4,26.52V175.62c0,26-2.34,26.52-36.4,26.52V205h89.18v-2.86c-34.84,0-36.4-.52-36.4-26.52V125.96c.52-14.04,3.9-15.34,26.52-15.34,2.6,0,5.2,0,8.06-.26l56.42,72.28c15.6,19.76,17.68,19.5-18.98,19.5V205h83.2v-2.86C-214.37,202.14-220.35,203.18-237.51,180.3ZM-345.15,91.64V31.84c0-28.86-2.6-31.2,26.52-31.2,36.92,0,54.6,17.16,54.6,53.04s-17.68,53.3-54.6,53.3C-341.25,106.98-344.63,105.68-345.15,91.64Zm320.06,45.24c-7.8,44.98-12.22,64.74-58.76,64.74h-29.38c-22.62,0-26-1.3-26.52-15.34V115.56c.52-14.04,3.9-15.34,26.52-15.34h16.38c23.4,0,26.52,11.7,26.52,52.26h2.86V44.84h-2.86c0,40.56-3.12,52-26.52,52h-16.38c-22.62,0-26-1.3-26.52-15.34V26.38c0-24.96,2.08-26,34.32-26h5.98c56.94,0,58.5,15.34,63.7,63.7h2.86L-36.27-3H-192.53V-.14c34.06,0,36.4,0,36.4,26.52V175.62c0,26-2.34,26.52-36.4,26.52V205H-31.07l8.84-68.12ZM-22.23,205H56.03v-2.86c-32.24,0-36.92-5.72-28.6-32.5l10.4-33.02c1.3-3.9,4.94-9.62,16.12-9.62h48.1c4.42,0,12.74,2.34,15.6,10.66l13.52,37.96c8.84,25.22-.78,26.52-29.64,26.52V205h89.18v-2.86c-29.64,0-34.06-1.56-43.16-26.52L83.07-3H37.57V-.14c26.78,0,37.18,6.24,32.5,20.8L21.71,169.64c-8.58,26.78-12.48,32.5-43.94,32.5Zm69.16-95.42,28.6-88.66,32.24,89.7c2.6,7.02,1.3,13-9.88,13H54.73C45.11,123.62,44.33,117.9,46.93,109.58ZM456.95-.14V-3H404.17L325.13,179c-2.6,4.42-5.2-1.04-6.5-3.64L232.83-3H185.51V-.14c34.06,0,34.58,0,34.58,26.52V162.62c0,26-5.72,39.52-34.58,39.52V205h75.14v-2.86c-29.64,0-36.4-13.52-36.4-39.52V29.24c0-2.86,2.86-3.64,4.16-.78L313.69,205h4.16L398.19,19.1c1.82-4.42,5.98-3.64,5.98,0V175.62c0,26-2.34,26.52-36.4,26.52V205h89.18v-2.86c-34.84,0-36.4-.52-36.4-26.52V26.38C420.55-.14,422.89-.14,456.95-.14Zm94.38,98.8,42.12-65.52C586.43,21.44,569.53-5.6,530.01-5.6c-33.8,0-53.3,20.28-53.3,47.58,0,28.08,20.54,45.5,39,55.38l25.48,13.52c29.38,15.6,40.3,29.12,40.3,51.48,0,33.02-25.22,41.86-46.8,41.86-47.06,0-58.76-41.08-58.76-68.38V102.82h-3.38V205h3.38V189.66c0-5.46,0-10.14,2.34-10.14,4.42,0,17.42,28.08,56.42,28.08,33.02,0,60.58-19.5,60.58-54.6C595.27,124.14,574.47,111.14,551.33,98.66Zm-24.18-13c-31.72-16.9-37.44-33.28-37.44-48.1,0-19.5,12.22-40.04,40.3-40.04,39.52,0,58.5,31.2,35.88,69.16L547.95,96.84ZM-386.75,410h89.18v-2.86c-34.84,0-36.4-.52-36.4-26.52V231.38c0-26.52,2.34-26.52,36.4-26.52V202h-89.18v2.86c34.06,0,36.4,0,36.4,26.52V380.62c0,26-2.34,26.52-36.4,26.52Zm183.56-106.34,42.12-65.52c-7.02-11.7-23.92-38.74-63.44-38.74-33.8,0-53.3,20.28-53.3,47.58,0,28.08,20.54,45.5,39,55.38l25.48,13.52c29.38,15.6,40.3,29.12,40.3,51.48,0,33.02-25.22,41.86-46.8,41.86-47.06,0-58.76-41.08-58.76-68.38V307.82h-3.38V410h3.38V394.66c0-5.46,0-10.14,2.34-10.14,4.42,0,17.42,28.08,56.42,28.08,33.02,0,60.58-19.5,60.58-54.6C-159.25,329.14-180.05,316.14-203.19,303.66Zm-24.18-13c-31.72-16.9-37.44-33.28-37.44-48.1,0-19.5,12.22-40.04,40.3-40.04,39.52,0,58.5,31.2,35.88,69.16l-17.94,30.16Zm178.1,13,42.12-65.52c-7.02-11.7-23.92-38.74-63.44-38.74-33.8,0-53.3,20.28-53.3,47.58,0,28.08,20.54,45.5,39,55.38l25.48,13.52c29.38,15.6,40.3,29.12,40.3,51.48,0,33.02-25.22,41.86-46.8,41.86-47.06,0-58.76-41.08-58.76-68.38V307.82h-3.38V410h3.38V394.66c0-5.46,0-10.14,2.34-10.14,4.42,0,17.42,28.08,56.42,28.08,33.02,0,60.58-19.5,60.58-54.6C-5.33,329.14-26.13,316.14-49.27,303.66Zm-24.18-13c-31.72-16.9-37.44-33.28-37.44-48.1,0-19.5,12.22-40.04,40.3-40.04,39.52,0,58.5,31.2,35.88,69.16l-17.94,30.16Zm75.92-85.8c34.06,0,36.4,0,36.4,26.52v104c0,42.64,16.64,77.22,71.76,77.22,46.8,0,66.82-29.12,66.82-81.12v-92.3c0-26.52,7.54-34.32,41.6-34.32V202H136.89v2.86c28.86,0,36.4,7.8,36.4,34.32v92.3c0,45.5-15.86,74.62-59.02,74.62-35.88,0-59.02-21.06-59.02-79.3V231.38c0-26.52,2.34-26.52,36.4-26.52V202H2.47ZM378.69,341.88c-7.8,44.98-12.22,64.74-58.76,64.74H290.55c-22.62,0-26-1.3-26.52-15.34V320.56c.52-14.04,3.9-15.34,26.52-15.34h16.38c23.4,0,26.52,11.7,26.52,52.26h2.86V249.84h-2.86c0,40.56-3.12,52-26.52,52H290.55c-22.62,0-26-1.3-26.52-15.34V231.38c0-24.96,2.08-26,34.32-26h5.98c56.94,0,58.5,15.34,63.7,63.7h2.86L367.51,202H211.25v2.86c34.06,0,36.4,0,36.4,26.52V380.62c0,26-2.34,26.52-36.4,26.52V410H372.71l8.84-68.12Z"
    transform="translate(610.87 208)"  fill="currentColor"
  />
</svg>
