<svg xmlns="http://www.w3.org/2000/svg" width="208.825" height="199.73" viewBox="0 0 208.825 199.73">
  <g transform="translate(-912.15 3915.611) rotate(-146)">
    <path d="M122.371,6.78,15.9,78.61,57.721,83a3.667,3.667,0,1,1-.88,7.28L3.331,84.8a3.579,3.579,0,0,1-2.85-1.63,3.813,3.813,0,0,1-.11-3.51l23.92-57.64a3.956,3.956,0,0,1,3.59-2.32,3.865,3.865,0,0,1,1.41.26,3.916,3.916,0,0,1,1.98,4.99L11.551,72.58,85.058,23,118.231.63a3.707,3.707,0,1,1,4.14,6.15" transform="translate(1228.989 3686.703)" fill="#33fedf"/>
    <path d="M57.206,110.3c-.632,0-1.628-.047-2.257-.107L1.293,104.7A23.333,23.333,0,0,1-16.653,93.487a23.562,23.562,0,0,1-1.455-21.478L5.818,14.354C10.01,5.187,18.555-.3,27.881-.3a23.771,23.771,0,0,1,8.7,1.635q.644.252,1.27.548A23.96,23.96,0,0,1,51.466,21.536l55.582-37.487A23.657,23.657,0,0,1,120.288-20a28.3,28.3,0,0,1,4.53.436A23.439,23.439,0,0,1,139.9-9.649a23.773,23.773,0,0,1-6.387,33.04L69.523,66.56A23.6,23.6,0,0,1,80.9,88.776q-.063.748-.183,1.49A23.714,23.714,0,0,1,57.206,110.3Z" transform="translate(1228.989 3686.703)" fill="currentColor"/>
    <path d="M122.371,6.78,15.9,78.61,57.721,83a3.667,3.667,0,1,1-.88,7.28L3.331,84.8a3.579,3.579,0,0,1-2.85-1.63,3.813,3.813,0,0,1-.11-3.51l23.92-57.64a3.956,3.956,0,0,1,3.59-2.32,3.865,3.865,0,0,1,1.41.26,3.916,3.916,0,0,1,1.98,4.99L11.551,72.58,118.231.63a3.707,3.707,0,1,1,4.14,6.15" transform="translate(1228.989 3686.703)"/>
  </g>
</svg>
