<svg xmlns="http://www.w3.org/2000/svg" width="110" height="110" viewBox="0 0 110 110">
  <g id="Group_10228" data-name="Group 10228" transform="translate(-126 -2460)">
    <rect id="Rectangle_1178" data-name="Rectangle 1178" width="110" height="110" rx="20" transform="translate(126 2460)" fill="#ff0"/>
    <g id="Group_9969" data-name="Group 9969" transform="translate(15.088 0.947)">
      <path id="Path_10195" data-name="Path 10195" d="M.912-31.27v18.022C.912-4.023,4.184.429,9.708.429c5.256,0,7.885-4.291,7.885-10.942v-5.846H11.8A24.44,24.44,0,0,0,11.371-11v4.452c0,1.555-.59,2.521-1.663,2.521-1.18,0-1.77-.965-1.77-2.628V-37.867c0-1.663.59-2.628,1.77-2.628,1.073,0,1.663.965,1.663,2.521v4.184a24.44,24.44,0,0,0,.429,5.364h5.793v-5.578c0-6.651-2.628-10.942-7.885-10.942C4.184-44.947.912-40.5.912-31.27Zm18.4,0v18.022c0,9.225,3.272,13.677,8.8,13.677,5.256,0,7.885-4.291,7.885-10.942v-5.846H30.2A24.44,24.44,0,0,0,29.768-11v4.452c0,1.555-.59,2.521-1.663,2.521-1.18,0-1.77-.965-1.77-2.628V-37.867c0-1.663.59-2.628,1.77-2.628,1.073,0,1.663.965,1.663,2.521v4.184a24.44,24.44,0,0,0,.429,5.364H35.99v-5.578c0-6.651-2.628-10.942-7.885-10.942C22.581-44.947,19.309-40.5,19.309-31.27Z" transform="translate(148 2536)"/>
    </g>
  </g>
</svg>
