<svg xmlns="http://www.w3.org/2000/svg" width="110" height="110" viewBox="0 0 110 110">
  <g id="Group_10230" data-name="Group 10230" transform="translate(-126 -2460)">
    <rect id="Rectangle_1178" data-name="Rectangle 1178" width="110" height="110" rx="20" transform="translate(126 2460)" fill="#17ffdf"/>
    <path id="Path_10194" data-name="Path 10194" d="M4.452-44.518.483-.536V0H6.007l.7-11.371h3.486L10.888,0h6.168V-.536L13.034-44.518ZM7.026-16.413l1.18-17.11h.536l1.126,17.11ZM24.78-44.518H18.773V0H24.78c6.49,0,9.976-4.184,9.976-13.945V-30.573C34.756-40.388,31.27-44.518,24.78-44.518Zm.161,40.013V-40.227h.644c1.931,0,2.9,1.341,2.9,3.808V-8.26c0,2.467-.965,3.755-2.9,3.755Z" transform="translate(148 2536)"/>
    <g id="Group_8681" data-name="Group 8681" transform="translate(214.904 2490) rotate(90)">
      <path id="Path_9418" data-name="Path 9418" d="M50.287,21.059A33.986,33.986,0,0,0,26.564,11.6,34.165,34.165,0,0,0,2.841,21.059a.885.885,0,0,0,0,1.265l2.731,2.731a.826.826,0,0,0,1.214,0,28.866,28.866,0,0,1,39.556,0,.87.87,0,0,0,1.214,0l2.731-2.731A.81.81,0,0,0,50.287,21.059Z" transform="translate(-2.575 -11.6)"/>
      <path id="Path_9419" data-name="Path 9419" d="M33.532,31.5a24.16,24.16,0,0,0-16.591,6.576.886.886,0,0,0,0,1.265l2.782,2.731a.826.826,0,0,0,1.214,0,18.678,18.678,0,0,1,12.646-4.907,18.44,18.44,0,0,1,12.646,4.907.923.923,0,0,0,1.214,0l2.731-2.731a.885.885,0,0,0,0-1.265A24.235,24.235,0,0,0,33.532,31.5Z" transform="translate(-9.543 -21.434)"/>
    </g>
  </g>
</svg>
