<svg xmlns="http://www.w3.org/2000/svg" width="163.237" height="225.528" viewBox="0 0 163.237 225.528">
  <g transform="translate(-12052.985 548.004)">
    <g transform="translate(11174.12 -4204.248)">
      <g>
        <path d="M48.5,181.082.381,7.018C-1.325,1.14,2.967-1.865,7.912,1.247L120.841,72.278a5.1,5.1,0,0,1,1.6,7.009L57.63,182.32c-2.976,4.732-7.716,4.154-9.128-1.238M13.471,16.752,55.114,167.229l56.013-89.053Z" transform="translate(898.88 3676.245)" fill="#ff0"/>
        <path d="M52.949,205.527c-11.2,0-20.76-7.788-23.795-19.379L-18.9,12.347a25.838,25.838,0,0,1,3.8-22.846A23.759,23.759,0,0,1,4.1-20a27.221,27.221,0,0,1,14.463,4.319L131.489,55.348a25.1,25.1,0,0,1,7.876,34.588L74.56,192.968C69.614,200.832,61.535,205.527,52.949,205.527ZM46.513,61.162,62.306,118.23,83.549,84.457Z" transform="translate(898.88 3676.245)" fill="#33fedf"/>
        <path d="M48.5,181.082.381,7.018C-1.325,1.14,2.967-1.865,7.912,1.247L120.841,72.278a5.1,5.1,0,0,1,1.6,7.009L57.63,182.32c-2.976,4.732-7.716,4.154-9.128-1.238M13.471,16.752,55.114,167.229l56.013-89.053Z" transform="translate(898.88 3676.245)"/>
        <path d="M52.949,186.027a4.29,4.29,0,0,1-3-1.26,7.535,7.535,0,0,1-1.928-3.554L-.1,7.151c-.693-2.391-.48-4.5.6-5.94A4.37,4.37,0,0,1,4.1-.5,7.805,7.805,0,0,1,8.178.823L121.107,71.854a5.6,5.6,0,0,1,1.753,7.7L58.053,182.586C56.678,184.773,54.818,186.027,52.949,186.027ZM4.1.5A3.393,3.393,0,0,0,1.3,1.811C.412,2.994.256,4.793.861,6.878l0,.006L48.986,180.955c.668,2.55,2.149,4.072,3.963,4.072,1.517,0,3.069-1.084,4.258-2.974L122.013,79.02a4.6,4.6,0,0,0-1.439-6.319L7.646,1.67A6.819,6.819,0,0,0,4.1.5ZM54.935,168.454,12.645,15.641l99.172,62.377-.266.423ZM14.3,17.862,55.294,166l55.143-87.671Z" transform="translate(898.88 3676.245)" fill="#33fedf"/>
      </g>
    </g>
  </g>
</svg>
