<svg xmlns="http://www.w3.org/2000/svg" width="551.688" height="510.812" viewBox="0 0 551.688 510.812">
  <g transform="matrix(1, -0.017, 0.017, 1, 29.502, 37.966)" fill="#17ffdf">
    <path d="M 318.2769470214844 467.9113464355469 C 310.9808654785156 467.9113464355469 303.6305236816406 467.2343444824219 296.4300842285156 465.8992614746094 C 289.3430786132812 464.5851135253906 282.3258666992188 462.6198425292969 275.5735168457031 460.0578308105469 C 268.8682861328125 457.5137634277344 262.3598022460938 454.3571166992188 256.2287902832031 450.6756286621094 C 251.2219543457031 447.6691284179688 246.4284515380859 444.2894897460938 241.9358825683594 440.6006469726562 C 237.6225891113281 444.2566223144531 233.0169525146484 447.6057434082031 228.2020111083984 450.5853271484375 C 222.2565155029297 454.264404296875 215.9310150146484 457.4178161621094 209.4010772705078 459.9579162597656 C 202.8104400634766 462.5216064453125 195.9403686523438 464.488037109375 188.9817962646484 465.8024597167969 C 181.903076171875 467.1396179199219 174.6475830078125 467.8178405761719 167.4167938232422 467.8183288574219 C 157.5655822753906 467.8189697265625 147.7572937011719 466.5857543945312 138.2643737792969 464.15283203125 C 128.7992706298828 461.72705078125 119.6671829223633 458.1134948730469 111.1224212646484 453.4132080078125 C 104.5425872802734 449.9670104980469 98.27793884277344 445.8427124023438 92.50279235839844 441.1549682617188 C 86.76215362548828 436.4952697753906 81.45458221435547 431.238037109375 76.72750854492188 425.5294799804688 C 71.99407958984375 419.8132629394531 67.80300903320312 413.5963439941406 64.27065277099609 407.0514831542969 C 60.70015335083008 400.4359741210938 57.77051162719727 393.4249877929688 55.56293869018555 386.2133178710938 C 52.64015197753906 376.6649780273438 50.94886779785156 366.7741088867188 50.53622436523438 356.8155517578125 C 50.18298721313477 348.2925720214844 50.76678085327148 339.7488708496094 52.27249908447266 331.3613586425781 C 42.12581253051758 327.6585693359375 32.54901123046875 322.5587463378906 23.7537956237793 316.1702575683594 C 13.99972438812256 309.0852661132812 5.422867774963379 300.5746154785156 -1.738489627838135 290.8746948242188 C -8.986775398254395 281.0569763183594 -14.61977481842041 270.2411193847656 -18.48098945617676 258.7274780273438 C -22.47491836547852 246.8179779052734 -24.49999046325684 234.3616180419922 -24.49999046325684 221.7042541503906 C -24.49999046325684 209.0901184082031 -22.48841857910156 196.6741943359375 -18.52106094360352 184.8013305664062 C -14.68541812896729 173.3224792480469 -9.088346481323242 162.5335388183594 -1.88527524471283 152.7341918945312 C 5.230510234832764 143.0536956787109 13.75579643249512 134.5497589111328 23.45393943786621 127.4586868286133 C 32.21176147460938 121.0551834106445 41.75344848632812 115.9320220947266 51.86697387695312 112.1986541748047 C 50.14340591430664 101.7790908813477 49.83171081542969 91.14378356933594 50.94229507446289 80.52475738525391 C 52.17272567749023 68.75990295410156 55.12136840820312 57.25976181030273 59.70629501342773 46.3437614440918 C 64.33937072753906 35.31325912475586 70.54536437988281 25.11647415161133 78.15200805664062 16.0367603302002 C 86.00994110107422 6.657045841217041 95.23751068115234 -1.373382925987244 105.578369140625 -7.831525802612305 L 109.2951507568359 -10.15281105041504 L 109.4755096435547 -10.26545429229736 L 109.6657257080078 -10.36059761047363 L 113.5850830078125 -12.3210973739624 C 129.5137939453125 -20.28852653503418 147.521728515625 -24.4998836517334 165.6622314453125 -24.4998836517334 C 172.9811553955078 -24.4998836517334 180.3543701171875 -23.8185977935791 187.5771484375 -22.47488212585449 C 194.685791015625 -21.15238380432129 201.7232971191406 -19.17473983764648 208.4942932128906 -16.59681129455566 C 215.2180786132812 -14.03688335418701 221.7426605224609 -10.86095428466797 227.8867950439453 -7.15731143951416 C 232.9209747314453 -4.122756958007812 237.7382049560547 -0.7106207013130188 242.2493438720703 3.013700008392334 C 246.8478088378906 -0.7893801331520081 251.7258911132812 -4.256370544433594 256.7935180664062 -7.321097373962402 C 262.9310913085938 -11.03281116485596 269.4275817871094 -14.20359706878662 276.1026611328125 -16.74531173706055 C 282.7830200195312 -19.28902626037598 289.7293090820312 -21.23581123352051 296.7485046386719 -22.53166961669922 C 303.8227233886719 -23.83766937255859 311.0658569335938 -24.4998836517334 318.2769470214844 -24.4998836517334 C 336.4158630371094 -24.4998836517334 354.4225158691406 -20.28923988342285 370.3503112792969 -12.32324028015137 L 374.2740173339844 -10.36088275909424 L 374.4645690917969 -10.26559734344482 L 374.6452331542969 -10.15281105041504 L 378.3662109375 -7.828526020050049 C 388.6822204589844 -1.385025858879089 397.890869140625 6.623260021209717 405.7361450195312 15.97397422790527 C 413.3310241699219 25.0261173248291 419.5330200195312 35.19161605834961 424.1698608398438 46.18811798095703 C 428.75830078125 57.06961822509766 431.7195129394531 68.53611755371094 432.9712829589844 80.26897430419922 C 434.0996398925781 90.84469604492188 433.8164672851562 101.4418182373047 432.1318664550781 111.8276748657227 C 442.3651733398438 115.4968185424805 452.0274658203125 120.5837478637695 460.9041442871094 126.9799041748047 C 470.7257385253906 134.0569000244141 479.3646545410156 142.5749053955078 486.5810241699219 152.2973327636719 C 493.8838806152344 162.1363372802734 499.5601501464844 172.9839019775391 503.4521484375 184.5386810302734 C 507.4782104492188 196.4914093017578 509.5195922851562 208.9956817626953 509.5195922851562 221.7042541503906 C 509.5195922851562 234.4131164550781 507.4782104492188 246.9176940917969 503.4521484375 258.87060546875 C 499.5601501464844 270.4256896972656 493.8838806152344 281.2735595703125 486.5810241699219 291.1127624511719 C 479.3646545410156 300.8354797363281 470.7257385253906 309.3536987304688 460.9041442871094 316.430908203125 C 452.0274658203125 322.8271789550781 442.3649291992188 327.9143371582031 432.1316223144531 331.5835266113281 C 433.8151245117188 341.9669189453125 434.097900390625 352.5611572265625 432.9699401855469 363.1348876953125 C 431.718505859375 374.8658447265625 428.7584533691406 386.3307495117188 424.1719360351562 397.2110595703125 C 419.536865234375 408.20654296875 413.3373718261719 418.3715515136719 405.7455749511719 427.4235534667969 C 397.9032287597656 436.7743225097656 388.6980895996094 444.7832641601562 378.3858032226562 451.2278442382812 L 374.6553649902344 453.5590515136719 L 374.474365234375 453.672119140625 L 374.2835083007812 453.7676086425781 L 370.3493041992188 455.7352600097656 C 354.4214477539062 463.7008972167969 336.4151611328125 467.9113464355469 318.2769470214844 467.9113464355469 Z" stroke="none"/>
    <path d="M 318.2769470214844 463.411376953125 C 335.7200927734375 463.411376953125 353.0304870605469 459.365234375 368.3363342285156 451.7105407714844 L 372.2706298828125 449.742919921875 L 376.0009460449219 447.4117736816406 C 416.4699401855469 422.1210021972656 435.9242553710938 373.7872924804688 427.0191040039062 328.5675964355469 C 472.2143249511719 314.0757751464844 505.0195617675781 271.6491394042969 505.0195617675781 221.7042236328125 C 505.0195617675781 171.7606048583984 472.2143249511719 129.3350677490234 427.0191040039062 114.8435363769531 C 435.9295654296875 69.61245727539062 416.4658813476562 21.27445793151855 375.982177734375 -4.011927127838135 L 372.2612609863281 -6.33615779876709 L 368.33740234375 -8.298542022705078 C 353.03125 -15.9536190032959 335.7206420898438 -19.99992752075195 318.2769470214844 -19.99992752075195 C 290.2861022949219 -19.99992752075195 263.4156494140625 -9.750157356262207 242.2498779296875 8.93122673034668 C 221.5536499023438 -9.354081153869629 194.1906433105469 -19.99992752075195 165.6621856689453 -19.99992752075195 C 148.2170257568359 -19.99992752075195 130.9051818847656 -15.95292663574219 115.5981826782227 -8.296464920043945 L 111.6788711547852 -6.33600378036499 L 107.9621047973633 -4.014772891998291 C 67.38056182861328 21.32953453063965 47.91779708862305 69.8475341796875 56.98425674438477 115.1743011474609 C 12.31341171264648 129.9712219238281 -19.99997329711914 172.1343841552734 -19.99997329711914 221.7042236328125 C -19.99997329711914 271.4453125 12.53633499145508 313.7289123535156 57.44510269165039 328.3883666992188 C 53.46110534667969 346.9020080566406 54.18810272216797 366.3476867675781 59.86587142944336 384.8961486816406 C 68.43579864501953 412.8927001953125 87.7076416015625 436.0842895507812 113.2514114379883 449.4483947753906 C 129.7651824951172 458.5412902832031 148.3628692626953 463.3196105957031 167.4164886474609 463.3182983398438 C 195.5934143066406 463.3164672851562 222.0244140625 452.7298278808594 241.8874816894531 434.6550598144531 C 262.5600280761719 452.8346252441406 289.8379516601562 463.411376953125 318.2769470214844 463.411376953125 M 318.2769470214844 472.411376953125 C 290.5383911132812 472.411376953125 263.7352905273438 463.2219848632812 241.9781951904297 446.3922729492188 C 220.9170227050781 463.1609497070312 194.7310333251953 472.3164672851562 167.4170989990234 472.3182983398438 C 146.9493408203125 472.3197021484375 126.7180252075195 467.1376037597656 108.9103317260742 457.3322143554688 C 81.51671600341797 443.002685546875 60.44241333007812 417.52783203125 51.26002502441406 387.5304565429688 C 45.98292541503906 370.2909851074219 44.62170028686523 352.0281372070312 47.24062728881836 334.2596435546875 C 1.32673966884613 315.943603515625 -28.99997329711914 271.6579284667969 -28.99997329711914 221.7042236328125 C -28.99997329711914 171.945068359375 1.184829950332642 127.7055740356445 46.87952041625977 109.2977142333984 C 40.43843841552734 61.65822601318359 62.43628692626953 13.80637264251709 103.1947174072266 -11.64838886260986 L 106.911491394043 -13.96961879730225 L 111.5719528198242 -16.34561920166016 C 128.12255859375 -24.6241569519043 146.8266448974609 -28.99992752075195 165.6621856689453 -28.99992752075195 C 193.5345764160156 -28.99992752075195 220.4414825439453 -19.73197555541992 242.250244140625 -2.75668478012085 C 264.0445251464844 -19.73252296447754 290.7543640136719 -28.99992752075195 318.2769470214844 -28.99992752075195 C 337.1108093261719 -28.99992752075195 355.8135681152344 -24.62492752075195 372.3631896972656 -16.34800338745117 L 376.2869567871094 -14.38561916351318 L 380.7501831054688 -11.64515781402588 C 421.3552551269531 13.7170352935791 443.3678894042969 61.39730834960938 437.1129760742188 108.8867034912109 C 483.4261779785156 127.0302734375 514.0195922851562 171.4312133789062 514.0195922851562 221.7042236328125 C 514.0195922851562 271.9784240722656 483.4256591796875 316.3806457519531 437.1124877929688 334.5245971679688 C 443.3634643554688 382.0041809082031 421.3589477539062 429.6785888671875 380.7706298828125 455.0439147949219 L 377.0401916503906 457.3751525878906 L 372.3620300292969 459.760009765625 C 355.8126525878906 468.03662109375 337.1103210449219 472.411376953125 318.2769470214844 472.411376953125 Z" stroke="none" fill="#000"/>
  </g>
</svg>
