<svg xmlns="http://www.w3.org/2000/svg" width="1308.832" height="961.454" viewBox="0 0 1308.832 961.454">
  <g id="Group_9306" data-name="Group 9306" transform="translate(-10674.6 -781.067) rotate(17)">
    <path id="Path_10111" data-name="Path 10111" d="M1323.732,366.663c-37.295,0-82.525,21.821-127.357,61.5-1.984-11.505-5.556-23.408-11.109-33.326-8.887-15.553-22.27-26.954-41.433-28.406a7.486,7.486,0,0,0-1.575-.173c-.54,0-1.087.02-1.63.03-.329-.007-.656-.017-.988-.017a7.013,7.013,0,0,0-.842.05c-36.614,1.295-80.442,22.977-123.9,61.434-1.983-11.507-5.554-23.409-11.109-33.328-8.887-15.553-22.269-26.954-41.433-28.406a7.478,7.478,0,0,0-1.573-.173c-.54,0-1.087.02-1.63.03-.33-.007-.658-.017-.99-.017a7.018,7.018,0,0,0-.842.05c-36.614,1.3-80.442,22.977-123.9,61.434-1.983-11.507-5.554-23.409-11.108-33.328-8.887-15.553-22.27-26.954-41.433-28.406a7.488,7.488,0,0,0-1.575-.173c-.54,0-1.087.022-1.63.03-.33-.005-.656-.017-.99-.017a7.021,7.021,0,0,0-.84.05c-36.614,1.3-80.441,22.977-123.9,61.434-1.984-11.507-5.554-23.408-11.109-33.328-8.887-15.553-22.27-26.954-41.433-28.406a7.486,7.486,0,0,0-1.575-.173c-.54,0-1.087.022-1.63.03-.329-.005-.656-.017-.988-.017a7.388,7.388,0,0,0-.842.05c-36.614,1.3-80.441,22.978-123.9,61.434-1.983-11.507-5.554-23.408-11.107-33.328-8.888-15.552-22.27-26.954-41.434-28.4a7.367,7.367,0,0,0-1.573-.174c-.54,0-1.087.022-1.63.03-.33-.005-.656-.017-.99-.017a7.41,7.41,0,0,0-.842.05c-36.614,1.3-80.441,22.978-123.9,61.433-1.984-11.507-5.555-23.408-11.109-33.328-8.887-15.553-22.27-26.954-41.433-28.4a7.381,7.381,0,0,0-1.575-.173c-.54,0-1.087.02-1.63.029-.329-.005-.656-.017-.99-.017a7.381,7.381,0,0,0-.84.05c-36.614,1.3-80.441,22.978-123.9,61.434-1.984-11.505-5.554-23.408-11.109-33.328-9.522-16.663-24.2-28.566-45.626-28.566a8.331,8.331,0,0,0,0,16.663c14.679,0,24.6,8.729,30.946,19.838,6.349,11.505,9.92,26.185,10.316,39.279C81.347,450.3,62.3,470.538,49.607,486.8c-23.805,30.55-37.295,57.926-37.295,77.367,0,14.283,7.936,25,21.027,25,21.425,0,34.916-22.616,50.784-56.339,13.094-28.17,23.409-61.5,24.6-85.7,38.3-35.565,84.294-65.333,124.341-66.216,14.237.312,23.921,8.9,30.152,19.808,6.347,11.505,9.918,26.185,10.316,39.279-10.713,10.712-29.757,30.946-42.452,47.213-23.805,30.55-37.295,57.926-37.295,77.367,0,14.283,7.936,25,21.027,25,21.425,0,34.914-22.616,50.784-56.341,13.094-28.168,23.409-61.5,24.6-85.7,38.3-35.564,84.294-65.333,124.342-66.217,14.237.314,23.921,8.905,30.154,19.81,6.347,11.505,9.918,26.185,10.316,39.279-10.713,10.712-29.758,30.946-42.454,47.213-23.8,30.55-37.295,57.926-37.295,77.367,0,14.283,7.936,25,21.027,25,21.427,0,34.916-22.616,50.786-56.341,13.092-28.168,23.408-61.5,24.6-85.7,38.3-35.565,84.294-65.333,124.341-66.217,14.237.314,23.921,8.905,30.152,19.81,6.349,11.505,9.92,26.185,10.316,39.277-10.712,10.713-29.757,30.947-42.452,47.215-23.805,30.55-37.295,57.926-37.295,77.367,0,14.283,7.936,24.994,21.027,24.994,21.425,0,34.914-22.614,50.784-56.339,13.094-28.168,23.409-61.5,24.6-85.7,38.3-35.565,84.293-65.334,124.34-66.217,14.239.314,23.923,8.9,30.154,19.808,6.347,11.507,9.918,26.187,10.316,39.279-10.713,10.713-29.756,30.947-42.453,47.214-23.805,30.55-37.294,57.926-37.294,77.367,0,14.283,7.934,24.994,21.027,24.994,21.425,0,34.914-22.614,50.784-56.339,13.094-28.168,23.408-61.5,24.6-85.7,38.3-35.565,84.294-65.333,124.341-66.217,14.239.314,23.921,8.905,30.152,19.808,6.349,11.507,9.92,26.187,10.316,39.279-10.712,10.712-29.756,30.947-42.452,47.214-23.805,30.55-37.295,57.926-37.295,77.367,0,14.283,7.936,24.994,21.027,24.994,21.425,0,34.916-22.614,50.784-56.339,13.094-28.17,23.409-61.5,24.6-85.7,38.3-35.565,84.294-65.333,124.34-66.217,14.239.314,23.922,8.9,30.154,19.808,6.349,11.507,9.918,26.187,10.316,39.279-10.713,10.712-29.756,30.947-42.452,47.215-23.805,30.55-37.295,57.926-37.295,77.367,0,14.283,7.936,24.994,21.028,24.994,21.425,0,34.914-22.614,50.784-56.339,13.094-28.168,23.41-61.5,24.6-85.7,38.88-36.105,85.7-66.259,126.167-66.259a8.332,8.332,0,0,0,0-16.663M69.047,525.686C58.336,549.491,45.242,572.5,34.53,572.5c-3.969,0-5.554-2.778-5.554-7.538,0-22.218,25.392-61.893,60.306-98.79-3.571,19.043-11.111,40.468-20.236,59.511m181.474.409C239.81,549.9,226.716,572.913,216,572.913c-3.969,0-5.555-2.778-5.555-7.538,0-22.218,25.392-61.893,60.306-98.79-3.571,19.043-11.109,40.468-20.234,59.511m181.473.409c-10.712,23.805-23.8,46.817-34.517,46.817-3.967,0-5.554-2.778-5.554-7.538,0-22.218,25.392-61.893,60.306-98.792-3.571,19.045-11.109,40.47-20.236,59.513m181.474.409c-10.712,23.805-23.805,46.817-34.517,46.817-3.969,0-5.554-2.778-5.554-7.538,0-22.219,25.392-61.893,60.3-98.792-3.569,19.045-11.109,40.47-20.234,59.513m181.474.409c-10.712,23.805-23.805,46.817-34.519,46.817-3.967,0-5.554-2.778-5.554-7.538,0-22.218,25.392-61.893,60.306-98.792-3.571,19.045-11.109,40.47-20.234,59.513m181.473.409c-10.712,23.805-23.8,46.817-34.517,46.817-3.967,0-5.554-2.778-5.554-7.54,0-22.217,25.392-61.891,60.306-98.79-3.571,19.045-11.109,40.468-20.236,59.513m181.474.409c-10.712,23.805-23.805,46.817-34.517,46.817-3.969,0-5.555-2.778-5.555-7.538,0-22.218,25.392-61.893,60.306-98.792-3.569,19.045-11.109,40.468-20.234,59.513" transform="matrix(-0.966, -0.259, 0.259, -0.966, 11728.547, -1470.21)" fill="#fff" stroke="#fff" stroke-width="50"/>
    <path id="Path_10110" data-name="Path 10110" d="M1323.732,366.663c-37.295,0-82.525,21.821-127.357,61.5-1.984-11.505-5.556-23.408-11.109-33.326-8.887-15.553-22.27-26.954-41.433-28.406a7.486,7.486,0,0,0-1.575-.173c-.54,0-1.087.02-1.63.03-.329-.007-.656-.017-.988-.017a7.013,7.013,0,0,0-.842.05c-36.614,1.295-80.442,22.977-123.9,61.434-1.983-11.507-5.554-23.409-11.109-33.328-8.887-15.553-22.269-26.954-41.433-28.406a7.478,7.478,0,0,0-1.573-.173c-.54,0-1.087.02-1.63.03-.33-.007-.658-.017-.99-.017a7.018,7.018,0,0,0-.842.05c-36.614,1.3-80.442,22.977-123.9,61.434-1.983-11.507-5.554-23.409-11.108-33.328-8.887-15.553-22.27-26.954-41.433-28.406a7.488,7.488,0,0,0-1.575-.173c-.54,0-1.087.022-1.63.03-.33-.005-.656-.017-.99-.017a7.021,7.021,0,0,0-.84.05c-36.614,1.3-80.441,22.977-123.9,61.434-1.984-11.507-5.554-23.408-11.109-33.328-8.887-15.553-22.27-26.954-41.433-28.406a7.486,7.486,0,0,0-1.575-.173c-.54,0-1.087.022-1.63.03-.329-.005-.656-.017-.988-.017a7.388,7.388,0,0,0-.842.05c-36.614,1.3-80.441,22.978-123.9,61.434-1.983-11.507-5.554-23.408-11.107-33.328-8.888-15.552-22.27-26.954-41.434-28.4a7.367,7.367,0,0,0-1.573-.174c-.54,0-1.087.022-1.63.03-.33-.005-.656-.017-.99-.017a7.41,7.41,0,0,0-.842.05c-36.614,1.3-80.441,22.978-123.9,61.433-1.984-11.507-5.555-23.408-11.109-33.328-8.887-15.553-22.27-26.954-41.433-28.4a7.381,7.381,0,0,0-1.575-.173c-.54,0-1.087.02-1.63.029-.329-.005-.656-.017-.99-.017a7.381,7.381,0,0,0-.84.05c-36.614,1.3-80.441,22.978-123.9,61.434-1.984-11.505-5.554-23.408-11.109-33.328-9.522-16.663-24.2-28.566-45.626-28.566a8.331,8.331,0,0,0,0,16.663c14.679,0,24.6,8.729,30.946,19.838,6.349,11.505,9.92,26.185,10.316,39.279C81.347,450.3,62.3,470.538,49.607,486.8c-23.805,30.55-37.295,57.926-37.295,77.367,0,14.283,7.936,25,21.027,25,21.425,0,34.916-22.616,50.784-56.339,13.094-28.17,23.409-61.5,24.6-85.7,38.3-35.565,84.294-65.333,124.341-66.216,14.237.312,23.921,8.9,30.152,19.808,6.347,11.505,9.918,26.185,10.316,39.279-10.713,10.712-29.757,30.946-42.452,47.213-23.805,30.55-37.295,57.926-37.295,77.367,0,14.283,7.936,25,21.027,25,21.425,0,34.914-22.616,50.784-56.341,13.094-28.168,23.409-61.5,24.6-85.7,38.3-35.564,84.294-65.333,124.342-66.217,14.237.314,23.921,8.905,30.154,19.81,6.347,11.505,9.918,26.185,10.316,39.279-10.713,10.712-29.758,30.946-42.454,47.213-23.8,30.55-37.295,57.926-37.295,77.367,0,14.283,7.936,25,21.027,25,21.427,0,34.916-22.616,50.786-56.341,13.092-28.168,23.408-61.5,24.6-85.7,38.3-35.565,84.294-65.333,124.341-66.217,14.237.314,23.921,8.905,30.152,19.81,6.349,11.505,9.92,26.185,10.316,39.277-10.712,10.713-29.757,30.947-42.452,47.215-23.805,30.55-37.295,57.926-37.295,77.367,0,14.283,7.936,24.994,21.027,24.994,21.425,0,34.914-22.614,50.784-56.339,13.094-28.168,23.409-61.5,24.6-85.7,38.3-35.565,84.293-65.334,124.34-66.217,14.239.314,23.923,8.9,30.154,19.808,6.347,11.507,9.918,26.187,10.316,39.279-10.713,10.713-29.756,30.947-42.453,47.214-23.805,30.55-37.294,57.926-37.294,77.367,0,14.283,7.934,24.994,21.027,24.994,21.425,0,34.914-22.614,50.784-56.339,13.094-28.168,23.408-61.5,24.6-85.7,38.3-35.565,84.294-65.333,124.341-66.217,14.239.314,23.921,8.905,30.152,19.808,6.349,11.507,9.92,26.187,10.316,39.279-10.712,10.712-29.756,30.947-42.452,47.214-23.805,30.55-37.295,57.926-37.295,77.367,0,14.283,7.936,24.994,21.027,24.994,21.425,0,34.916-22.614,50.784-56.339,13.094-28.17,23.409-61.5,24.6-85.7,38.3-35.565,84.294-65.333,124.34-66.217,14.239.314,23.922,8.9,30.154,19.808,6.349,11.507,9.918,26.187,10.316,39.279-10.713,10.712-29.756,30.947-42.452,47.215-23.805,30.55-37.295,57.926-37.295,77.367,0,14.283,7.936,24.994,21.028,24.994,21.425,0,34.914-22.614,50.784-56.339,13.094-28.168,23.41-61.5,24.6-85.7,38.88-36.105,85.7-66.259,126.167-66.259a8.332,8.332,0,0,0,0-16.663M69.047,525.686C58.336,549.491,45.242,572.5,34.53,572.5c-3.969,0-5.554-2.778-5.554-7.538,0-22.218,25.392-61.893,60.306-98.79-3.571,19.043-11.111,40.468-20.236,59.511m181.474.409C239.81,549.9,226.716,572.913,216,572.913c-3.969,0-5.555-2.778-5.555-7.538,0-22.218,25.392-61.893,60.306-98.79-3.571,19.043-11.109,40.468-20.234,59.511m181.473.409c-10.712,23.805-23.8,46.817-34.517,46.817-3.967,0-5.554-2.778-5.554-7.538,0-22.218,25.392-61.893,60.306-98.792-3.571,19.045-11.109,40.47-20.236,59.513m181.474.409c-10.712,23.805-23.805,46.817-34.517,46.817-3.969,0-5.554-2.778-5.554-7.538,0-22.219,25.392-61.893,60.3-98.792-3.569,19.045-11.109,40.47-20.234,59.513m181.474.409c-10.712,23.805-23.805,46.817-34.519,46.817-3.967,0-5.554-2.778-5.554-7.538,0-22.218,25.392-61.893,60.306-98.792-3.571,19.045-11.109,40.47-20.234,59.513m181.473.409c-10.712,23.805-23.8,46.817-34.517,46.817-3.967,0-5.554-2.778-5.554-7.54,0-22.217,25.392-61.891,60.306-98.79-3.571,19.045-11.109,40.468-20.236,59.513m181.474.409c-10.712,23.805-23.805,46.817-34.517,46.817-3.969,0-5.555-2.778-5.555-7.538,0-22.218,25.392-61.893,60.306-98.792-3.569,19.045-11.109,40.468-20.234,59.513" transform="matrix(-0.966, -0.259, 0.259, -0.966, 11728.547, -1470.21)" stroke="#fff" stroke-width="5"/>
  </g>
</svg>
