<svg xmlns="http://www.w3.org/2000/svg" width="190.917" height="175.517" viewBox="0 0 190.917 175.517">
  <g transform="translate(-1333.981 -10714.609)">
    <g>
      <g transform="translate(5586.334 4557.206)">
        <path d="M3501.684,1245.889l-22-37.485-22,37.485c-1.63,3.667-6.519,4.482-9.778,2.444-3.667-1.629-4.483-6.519-2.446-9.778l22.41-37.892h-44.412a7.334,7.334,0,0,1,0-14.669h43.6l-22-37.892a7.48,7.48,0,0,1,13.039-7.334l22,37.485,21.594-37.485a7.48,7.48,0,1,1,13.038,7.334l-21.594,37.892h43.6a7.334,7.334,0,1,1,0,14.669h-44l22,37.892a7.48,7.48,0,1,1-13.038,7.334" transform="matrix(1, -0.017, 0.017, 1, -7657.281, 5112.751)"/>
        <path d="M3508.635,1279.46a38.639,38.639,0,0,1-28.848-12.922,36.623,36.623,0,0,1-27.99,12.887,37.329,37.329,0,0,1-18.074-4.639,35.981,35.981,0,0,1-17.73-21.418,37.35,37.35,0,0,1,.48-23.359,37.339,37.339,0,0,1-.015-73.357c-5.375-17.147,1.033-35.113,15.552-44.18l1.2-.751,1.268-.634a37.4,37.4,0,0,1,16.655-3.888,38.639,38.639,0,0,1,28.828,12.9,38.44,38.44,0,0,1,28.671-12.9,37.4,37.4,0,0,1,16.655,3.888l1.269.635,1.2.752a38.223,38.223,0,0,1,15.817,44.153,37.339,37.339,0,0,1-.243,73.452c5.336,17.117-1.071,35.046-15.568,44.106l-1.206.754-1.272.636A37.4,37.4,0,0,1,3508.635,1279.46Z" transform="matrix(1, -0.017, 0.017, 1, -7657.281, 5112.751)" fill="#33fedf"/>
        <path d="M3501.684,1245.889l-22-37.485-22,37.485c-1.63,3.667-6.519,4.482-9.778,2.444-3.667-1.629-4.483-6.519-2.446-9.778l22.41-37.892h-44.412a7.334,7.334,0,0,1,0-14.669h43.6l-22-37.892a7.48,7.48,0,0,1,13.039-7.334l22,37.485,21.594-37.485a7.48,7.48,0,1,1,13.038,7.334l-21.594,37.892h43.6a7.334,7.334,0,1,1,0,14.669h-44l22,37.892a7.48,7.48,0,1,1-13.038,7.334" transform="matrix(1, -0.017, 0.017, 1, -7657.281, 5112.751)"/>
        <path d="M3508.635,1249.96a8.763,8.763,0,0,1-7.375-3.806l-.007-.012-21.571-36.75-21.557,36.727a6.737,6.737,0,0,1-6.33,3.807,7.827,7.827,0,0,1-4.129-1.149,6.373,6.373,0,0,1-3.465-4.042,7.931,7.931,0,0,1,.827-6.438l21.96-37.132h-43.535a7.834,7.834,0,1,1,0-15.669h42.729l-21.581-37.168a8.455,8.455,0,0,1-.443-5.906,8.362,8.362,0,0,1,3.478-4.928l.041-.023a7.764,7.764,0,0,1,3.458-.772,8.763,8.763,0,0,1,7.375,3.806l.007.012,21.567,36.744,21.174-36.755a8.763,8.763,0,0,1,7.375-3.806,7.765,7.765,0,0,1,3.458.772l.041.023a8.362,8.362,0,0,1,3.478,4.928,8.455,8.455,0,0,1-.444,5.906l-.013.024-21.168,37.144h42.736a7.834,7.834,0,1,1,0,15.669h-43.136l21.581,37.168a8.451,8.451,0,0,1,.444,5.905,8.364,8.364,0,0,1-3.478,4.928l-.041.023A7.764,7.764,0,0,1,3508.635,1249.96Zm-6.524-4.331a6.861,6.861,0,0,0,2.8,2.455,8.427,8.427,0,0,0,3.726.876,6.774,6.774,0,0,0,2.99-.656,7.365,7.365,0,0,0,3.022-4.328,7.449,7.449,0,0,0-.366-5.183l-22.43-38.63h44.873a6.834,6.834,0,1,0,0-13.669h-44.457l22.013-38.628a7.45,7.45,0,0,0,.367-5.186,7.362,7.362,0,0,0-3.022-4.328,6.773,6.773,0,0,0-2.99-.656,8.427,8.427,0,0,0-3.726.876,6.864,6.864,0,0,0-2.8,2.453l-22.019,38.222-22.434-38.221a6.863,6.863,0,0,0-2.8-2.454,8.427,8.427,0,0,0-3.726-.876,6.773,6.773,0,0,0-2.99.656,7.362,7.362,0,0,0-3.022,4.328,7.452,7.452,0,0,0,.365,5.184l22.43,38.629h-44.465a6.834,6.834,0,1,0,0,13.669h45.289l-22.863,38.657a6.919,6.919,0,0,0-.722,5.62,5.386,5.386,0,0,0,2.947,3.436l.032.014.03.019a6.92,6.92,0,0,0,3.628,1.016,5.749,5.749,0,0,0,5.428-3.239l.011-.026.014-.024,22.433-38.22.431.735Z" transform="matrix(1, -0.017, 0.017, 1, -7657.281, 5112.751)" fill="#33fedf"/>
      </g>
    </g>
  </g>
</svg>
