<svg xmlns="http://www.w3.org/2000/svg" xmlns:xlink="http://www.w3.org/1999/xlink" width="1006" height="777" viewBox="0 0 1006 777">
  <defs>
    <clipPath id="clip-path">
      <rect id="Rectangle_1539" data-name="Rectangle 1539" width="1006" height="777" transform="translate(914 11879)" fill="#fff"/>
    </clipPath>
  </defs>
  <g id="Mask_Group_9326" data-name="Mask Group 9326" transform="translate(-914 -11879)" clip-path="url(#clip-path)">
    <g id="Group_9306" data-name="Group 9306" transform="translate(-9540 14417.879)">
      <path id="Path_10111" data-name="Path 10111" d="M1323.732,366.663c-37.295,0-82.525,21.821-127.357,61.5-1.984-11.505-5.556-23.408-11.109-33.326-8.887-15.553-22.27-26.954-41.433-28.406a7.486,7.486,0,0,0-1.575-.173c-.54,0-1.087.02-1.63.03-.329-.007-.656-.017-.988-.017a7.013,7.013,0,0,0-.842.05c-36.614,1.295-80.442,22.977-123.9,61.434-1.983-11.507-5.554-23.409-11.109-33.328-8.887-15.553-22.269-26.954-41.433-28.406a7.478,7.478,0,0,0-1.573-.173c-.54,0-1.087.02-1.63.03-.33-.007-.658-.017-.99-.017a7.018,7.018,0,0,0-.842.05c-36.614,1.3-80.442,22.977-123.9,61.434-1.983-11.507-5.554-23.409-11.108-33.328-8.887-15.553-22.27-26.954-41.433-28.406a7.488,7.488,0,0,0-1.575-.173c-.54,0-1.087.022-1.63.03-.33-.005-.656-.017-.99-.017a7.021,7.021,0,0,0-.84.05c-36.614,1.3-80.441,22.977-123.9,61.434-1.984-11.507-5.554-23.408-11.109-33.328-8.887-15.553-22.27-26.954-41.433-28.406a7.486,7.486,0,0,0-1.575-.173c-.54,0-1.087.022-1.63.03-.329-.005-.656-.017-.988-.017a7.388,7.388,0,0,0-.842.05c-36.614,1.3-80.441,22.978-123.9,61.434-1.983-11.507-5.554-23.408-11.107-33.328-8.888-15.552-22.27-26.954-41.434-28.4a7.367,7.367,0,0,0-1.573-.174c-.54,0-1.087.022-1.63.03-.33-.005-.656-.017-.99-.017a7.41,7.41,0,0,0-.842.05c-36.614,1.3-80.441,22.978-123.9,61.433-1.984-11.507-5.555-23.408-11.109-33.328-8.887-15.553-22.27-26.954-41.433-28.4a7.381,7.381,0,0,0-1.575-.173c-.54,0-1.087.02-1.63.029-.329-.005-.656-.017-.99-.017a7.381,7.381,0,0,0-.84.05c-36.614,1.3-80.441,22.978-123.9,61.434-1.984-11.505-5.554-23.408-11.109-33.328-9.522-16.663-24.2-28.566-45.626-28.566a8.331,8.331,0,0,0,0,16.663c14.679,0,24.6,8.729,30.946,19.838,6.349,11.505,9.92,26.185,10.316,39.279C81.347,450.3,62.3,470.538,49.607,486.8c-23.805,30.55-37.295,57.926-37.295,77.367,0,14.283,7.936,25,21.027,25,21.425,0,34.916-22.616,50.784-56.339,13.094-28.17,23.409-61.5,24.6-85.7,38.3-35.565,84.294-65.333,124.341-66.216,14.237.312,23.921,8.9,30.152,19.808,6.347,11.505,9.918,26.185,10.316,39.279-10.713,10.712-29.757,30.946-42.452,47.213-23.805,30.55-37.295,57.926-37.295,77.367,0,14.283,7.936,25,21.027,25,21.425,0,34.914-22.616,50.784-56.341,13.094-28.168,23.409-61.5,24.6-85.7,38.3-35.564,84.294-65.333,124.342-66.217,14.237.314,23.921,8.905,30.154,19.81,6.347,11.505,9.918,26.185,10.316,39.279-10.713,10.712-29.758,30.946-42.454,47.213-23.8,30.55-37.295,57.926-37.295,77.367,0,14.283,7.936,25,21.027,25,21.427,0,34.916-22.616,50.786-56.341,13.092-28.168,23.408-61.5,24.6-85.7,38.3-35.565,84.294-65.333,124.341-66.217,14.237.314,23.921,8.905,30.152,19.81,6.349,11.505,9.92,26.185,10.316,39.277-10.712,10.713-29.757,30.947-42.452,47.215-23.805,30.55-37.295,57.926-37.295,77.367,0,14.283,7.936,24.994,21.027,24.994,21.425,0,34.914-22.614,50.784-56.339,13.094-28.168,23.409-61.5,24.6-85.7,38.3-35.565,84.293-65.334,124.34-66.217,14.239.314,23.923,8.9,30.154,19.808,6.347,11.507,9.918,26.187,10.316,39.279-10.713,10.713-29.756,30.947-42.453,47.214-23.805,30.55-37.294,57.926-37.294,77.367,0,14.283,7.934,24.994,21.027,24.994,21.425,0,34.914-22.614,50.784-56.339,13.094-28.168,23.408-61.5,24.6-85.7,38.3-35.565,84.294-65.333,124.341-66.217,14.239.314,23.921,8.905,30.152,19.808,6.349,11.507,9.92,26.187,10.316,39.279-10.712,10.712-29.756,30.947-42.452,47.214-23.805,30.55-37.295,57.926-37.295,77.367,0,14.283,7.936,24.994,21.027,24.994,21.425,0,34.916-22.614,50.784-56.339,13.094-28.17,23.409-61.5,24.6-85.7,38.3-35.565,84.294-65.333,124.34-66.217,14.239.314,23.922,8.9,30.154,19.808,6.349,11.507,9.918,26.187,10.316,39.279-10.713,10.712-29.756,30.947-42.452,47.215-23.805,30.55-37.295,57.926-37.295,77.367,0,14.283,7.936,24.994,21.028,24.994,21.425,0,34.914-22.614,50.784-56.339,13.094-28.168,23.41-61.5,24.6-85.7,38.88-36.105,85.7-66.259,126.167-66.259a8.332,8.332,0,0,0,0-16.663M69.047,525.686C58.336,549.491,45.242,572.5,34.53,572.5c-3.969,0-5.554-2.778-5.554-7.538,0-22.218,25.392-61.893,60.306-98.79-3.571,19.043-11.111,40.468-20.236,59.511m181.474.409C239.81,549.9,226.716,572.913,216,572.913c-3.969,0-5.555-2.778-5.555-7.538,0-22.218,25.392-61.893,60.306-98.79-3.571,19.043-11.109,40.468-20.234,59.511m181.473.409c-10.712,23.805-23.8,46.817-34.517,46.817-3.967,0-5.554-2.778-5.554-7.538,0-22.218,25.392-61.893,60.306-98.792-3.571,19.045-11.109,40.47-20.236,59.513m181.474.409c-10.712,23.805-23.805,46.817-34.517,46.817-3.969,0-5.554-2.778-5.554-7.538,0-22.219,25.392-61.893,60.3-98.792-3.569,19.045-11.109,40.47-20.234,59.513m181.474.409c-10.712,23.805-23.805,46.817-34.519,46.817-3.967,0-5.554-2.778-5.554-7.538,0-22.218,25.392-61.893,60.306-98.792-3.571,19.045-11.109,40.47-20.234,59.513m181.473.409c-10.712,23.805-23.8,46.817-34.517,46.817-3.967,0-5.554-2.778-5.554-7.54,0-22.217,25.392-61.891,60.306-98.79-3.571,19.045-11.109,40.468-20.236,59.513m181.474.409c-10.712,23.805-23.805,46.817-34.517,46.817-3.969,0-5.555-2.778-5.555-7.538,0-22.218,25.392-61.893,60.306-98.792-3.569,19.045-11.109,40.468-20.234,59.513" transform="matrix(-0.966, -0.259, 0.259, -0.966, 11728.547, -1470.21)" fill="#ff0"/>
      <path id="Path_10111_-_Outline" data-name="Path 10111 - Outline" d="M1122.182,616.622c-26.67,0-46.028-21.026-46.028-49.994,0-25.279,14.324-56.479,42.575-92.733,10.85-13.9,25.447-29.831,36.111-40.949a61.448,61.448,0,0,0-6.144-18.1c-3.514-6.145-6.581-6.783-8.318-6.875-26.766.866-62.935,20.105-100.271,53.173-3.069,24.582-12.43,55.192-25.945,84.268-14.087,29.941-33.312,70.8-73.455,70.8-26.67,0-46.027-21.026-46.027-49.994,0-25.279,14.324-56.479,42.575-92.733,10.846-13.9,25.445-29.828,36.112-40.949a61.469,61.469,0,0,0-6.145-18.1c-3.515-6.145-6.581-6.783-8.317-6.874-26.767.866-62.935,20.1-100.272,53.173C855.565,485.319,846.2,515.928,832.689,545c-14.089,29.941-33.316,70.8-73.454,70.8-26.67,0-46.027-21.026-46.027-49.995,0-25.278,14.324-56.478,42.575-92.733,10.843-13.893,25.443-29.826,36.111-40.948a61.5,61.5,0,0,0-6.145-18.1c-3.513-6.143-6.58-6.781-8.317-6.873-26.768.866-62.936,20.105-100.271,53.173-3.068,24.585-12.43,55.193-25.946,84.269-14.089,29.941-33.316,70.8-73.454,70.8-26.67,0-46.027-21.026-46.027-49.994,0-25.279,14.324-56.479,42.575-92.733,10.837-13.885,25.441-29.822,36.112-40.948a61.436,61.436,0,0,0-6.144-18.1c-3.516-6.147-6.581-6.786-8.318-6.878-26.767.866-62.935,20.105-100.272,53.173-3.069,24.583-12.43,55.193-25.943,84.268-14.09,29.943-33.317,70.8-73.457,70.8-26.67,0-46.027-21.026-46.027-50,0-25.276,14.324-56.476,42.574-92.733,10.845-13.9,25.445-29.827,36.114-40.948a61.476,61.476,0,0,0-6.145-18.1c-3.516-6.146-6.581-6.784-8.318-6.876-26.765.866-62.933,20.1-100.271,53.172-3.067,24.584-12.429,55.194-25.945,84.269-14.089,29.942-33.317,70.8-73.454,70.8-26.67,0-46.027-21.026-46.027-50,0-25.279,14.324-56.479,42.575-92.733,10.849-13.9,25.446-29.829,36.111-40.947a61.484,61.484,0,0,0-6.145-18.1c-3.515-6.146-6.579-6.782-8.315-6.874-26.767.863-62.935,20.1-100.274,53.171-3.069,24.583-12.43,55.194-25.945,84.27-14.088,29.941-33.314,70.8-73.455,70.8-26.67,0-46.027-21.026-46.027-50,0-25.279,14.324-56.479,42.575-92.733C40.728,457.548,55.33,441.614,66,430.491a61.436,61.436,0,0,0-6.144-18.1c-3.955-6.917-7.274-6.917-9.057-6.917-18.068,0-33.332-15.264-33.332-33.331S32.73,338.812,50.8,338.812c28.251,0,52.163,14.618,67.332,41.161q.985,1.759,1.918,3.6c38.044-27.6,75.393-42.76,109.467-44.241l.493-.056,2.263-.05,1.21.016,1.41-.028a32.322,32.322,0,0,1,4.739.351c25.311,2.323,46.029,16.416,59.975,40.823q.985,1.759,1.917,3.594c38.04-27.594,75.384-42.757,109.457-44.24l.494-.057,2.273-.05,1.207.016,1.413-.029a32.24,32.24,0,0,1,4.748.354c25.305,2.325,46.018,16.417,59.965,40.82q.985,1.759,1.918,3.6c38.044-27.6,75.392-42.759,109.466-44.24l.493-.056,2.264-.05,1.2.016,1.42-.029a32.337,32.337,0,0,1,4.729.35c25.316,2.321,46.037,16.415,59.985,40.826q.985,1.758,1.917,3.594c38.013-27.575,75.336-42.736,109.391-44.237l.5-.06,2.336-.05,1.2.016,1.417-.029a32.337,32.337,0,0,1,4.724.35c25.318,2.32,46.04,16.414,59.99,40.826q.985,1.759,1.917,3.593c38.01-27.573,75.329-42.733,109.381-44.236l.5-.06,2.346-.05,1.323.018,1.3-.031a32.321,32.321,0,0,1,4.727.35c25.315,2.322,46.037,16.416,59.985,40.826q.985,1.758,1.917,3.593c38.011-27.574,75.332-42.735,109.383-44.236l.5-.06,2.345-.05,1.307.018,1.312-.031a32.323,32.323,0,0,1,4.729.35c25.317,2.321,46.037,16.415,59.985,40.826q1.015,1.812,1.944,3.647c39.979-28.839,79.885-44.413,114.816-44.413,18.067,0,33.331,15.264,33.331,33.331s-15.264,33.332-33.331,33.332c-26.956,0-63.856,19.3-102.151,53.224-3.068,24.585-12.43,55.194-25.946,84.27C1181.547,575.762,1162.32,616.622,1122.182,616.622Z" transform="matrix(-0.966, -0.259, 0.259, -0.966, 11728.547, -1470.21)" fill="#fffd38"/>
      <path id="Path_10110" data-name="Path 10110" d="M1323.732,366.663c-37.295,0-82.525,21.821-127.357,61.5-1.984-11.505-5.556-23.408-11.109-33.326-8.887-15.553-22.27-26.954-41.433-28.406a7.486,7.486,0,0,0-1.575-.173c-.54,0-1.087.02-1.63.03-.329-.007-.656-.017-.988-.017a7.013,7.013,0,0,0-.842.05c-36.614,1.295-80.442,22.977-123.9,61.434-1.983-11.507-5.554-23.409-11.109-33.328-8.887-15.553-22.269-26.954-41.433-28.406a7.478,7.478,0,0,0-1.573-.173c-.54,0-1.087.02-1.63.03-.33-.007-.658-.017-.99-.017a7.018,7.018,0,0,0-.842.05c-36.614,1.3-80.442,22.977-123.9,61.434-1.983-11.507-5.554-23.409-11.108-33.328-8.887-15.553-22.27-26.954-41.433-28.406a7.488,7.488,0,0,0-1.575-.173c-.54,0-1.087.022-1.63.03-.33-.005-.656-.017-.99-.017a7.021,7.021,0,0,0-.84.05c-36.614,1.3-80.441,22.977-123.9,61.434-1.984-11.507-5.554-23.408-11.109-33.328-8.887-15.553-22.27-26.954-41.433-28.406a7.486,7.486,0,0,0-1.575-.173c-.54,0-1.087.022-1.63.03-.329-.005-.656-.017-.988-.017a7.388,7.388,0,0,0-.842.05c-36.614,1.3-80.441,22.978-123.9,61.434-1.983-11.507-5.554-23.408-11.107-33.328-8.888-15.552-22.27-26.954-41.434-28.4a7.367,7.367,0,0,0-1.573-.174c-.54,0-1.087.022-1.63.03-.33-.005-.656-.017-.99-.017a7.41,7.41,0,0,0-.842.05c-36.614,1.3-80.441,22.978-123.9,61.433-1.984-11.507-5.555-23.408-11.109-33.328-8.887-15.553-22.27-26.954-41.433-28.4a7.381,7.381,0,0,0-1.575-.173c-.54,0-1.087.02-1.63.029-.329-.005-.656-.017-.99-.017a7.381,7.381,0,0,0-.84.05c-36.614,1.3-80.441,22.978-123.9,61.434-1.984-11.505-5.554-23.408-11.109-33.328-9.522-16.663-24.2-28.566-45.626-28.566a8.331,8.331,0,0,0,0,16.663c14.679,0,24.6,8.729,30.946,19.838,6.349,11.505,9.92,26.185,10.316,39.279C81.347,450.3,62.3,470.538,49.607,486.8c-23.805,30.55-37.295,57.926-37.295,77.367,0,14.283,7.936,25,21.027,25,21.425,0,34.916-22.616,50.784-56.339,13.094-28.17,23.409-61.5,24.6-85.7,38.3-35.565,84.294-65.333,124.341-66.216,14.237.312,23.921,8.9,30.152,19.808,6.347,11.505,9.918,26.185,10.316,39.279-10.713,10.712-29.757,30.946-42.452,47.213-23.805,30.55-37.295,57.926-37.295,77.367,0,14.283,7.936,25,21.027,25,21.425,0,34.914-22.616,50.784-56.341,13.094-28.168,23.409-61.5,24.6-85.7,38.3-35.564,84.294-65.333,124.342-66.217,14.237.314,23.921,8.905,30.154,19.81,6.347,11.505,9.918,26.185,10.316,39.279-10.713,10.712-29.758,30.946-42.454,47.213-23.8,30.55-37.295,57.926-37.295,77.367,0,14.283,7.936,25,21.027,25,21.427,0,34.916-22.616,50.786-56.341,13.092-28.168,23.408-61.5,24.6-85.7,38.3-35.565,84.294-65.333,124.341-66.217,14.237.314,23.921,8.905,30.152,19.81,6.349,11.505,9.92,26.185,10.316,39.277-10.712,10.713-29.757,30.947-42.452,47.215-23.805,30.55-37.295,57.926-37.295,77.367,0,14.283,7.936,24.994,21.027,24.994,21.425,0,34.914-22.614,50.784-56.339,13.094-28.168,23.409-61.5,24.6-85.7,38.3-35.565,84.293-65.334,124.34-66.217,14.239.314,23.923,8.9,30.154,19.808,6.347,11.507,9.918,26.187,10.316,39.279-10.713,10.713-29.756,30.947-42.453,47.214-23.805,30.55-37.294,57.926-37.294,77.367,0,14.283,7.934,24.994,21.027,24.994,21.425,0,34.914-22.614,50.784-56.339,13.094-28.168,23.408-61.5,24.6-85.7,38.3-35.565,84.294-65.333,124.341-66.217,14.239.314,23.921,8.905,30.152,19.808,6.349,11.507,9.92,26.187,10.316,39.279-10.712,10.712-29.756,30.947-42.452,47.214-23.805,30.55-37.295,57.926-37.295,77.367,0,14.283,7.936,24.994,21.027,24.994,21.425,0,34.916-22.614,50.784-56.339,13.094-28.17,23.409-61.5,24.6-85.7,38.3-35.565,84.294-65.333,124.34-66.217,14.239.314,23.922,8.9,30.154,19.808,6.349,11.507,9.918,26.187,10.316,39.279-10.713,10.712-29.756,30.947-42.452,47.215-23.805,30.55-37.295,57.926-37.295,77.367,0,14.283,7.936,24.994,21.028,24.994,21.425,0,34.914-22.614,50.784-56.339,13.094-28.168,23.41-61.5,24.6-85.7,38.88-36.105,85.7-66.259,126.167-66.259a8.332,8.332,0,0,0,0-16.663M69.047,525.686C58.336,549.491,45.242,572.5,34.53,572.5c-3.969,0-5.554-2.778-5.554-7.538,0-22.218,25.392-61.893,60.306-98.79-3.571,19.043-11.111,40.468-20.236,59.511m181.474.409C239.81,549.9,226.716,572.913,216,572.913c-3.969,0-5.555-2.778-5.555-7.538,0-22.218,25.392-61.893,60.306-98.79-3.571,19.043-11.109,40.468-20.234,59.511m181.473.409c-10.712,23.805-23.8,46.817-34.517,46.817-3.967,0-5.554-2.778-5.554-7.538,0-22.218,25.392-61.893,60.306-98.792-3.571,19.045-11.109,40.47-20.236,59.513m181.474.409c-10.712,23.805-23.805,46.817-34.517,46.817-3.969,0-5.554-2.778-5.554-7.538,0-22.219,25.392-61.893,60.3-98.792-3.569,19.045-11.109,40.47-20.234,59.513m181.474.409c-10.712,23.805-23.805,46.817-34.519,46.817-3.967,0-5.554-2.778-5.554-7.538,0-22.218,25.392-61.893,60.306-98.792-3.571,19.045-11.109,40.47-20.234,59.513m181.473.409c-10.712,23.805-23.8,46.817-34.517,46.817-3.967,0-5.554-2.778-5.554-7.54,0-22.217,25.392-61.891,60.306-98.79-3.571,19.045-11.109,40.468-20.236,59.513m181.474.409c-10.712,23.805-23.805,46.817-34.517,46.817-3.969,0-5.555-2.778-5.555-7.538,0-22.218,25.392-61.893,60.306-98.792-3.569,19.045-11.109,40.468-20.234,59.513" transform="matrix(-0.966, -0.259, 0.259, -0.966, 11728.547, -1470.21)"/>
      <path id="Path_10110_-_Outline" data-name="Path 10110 - Outline" d="M1122.182,594.122a22.845,22.845,0,0,1-9.881-2.138,21.423,21.423,0,0,1-7.484-5.928,26.341,26.341,0,0,1-4.6-8.746,35.55,35.55,0,0,1-1.56-10.682c0-9.982,3.355-21.962,9.971-35.608,6.432-13.265,15.8-27.832,27.852-43.3,13.1-16.782,32.111-36.847,41.886-46.673a91.939,91.939,0,0,0-2.809-18.616,80.115,80.115,0,0,0-7.148-18.443,40.349,40.349,0,0,0-11.345-13.065,29.278,29.278,0,0,0-7.589-3.907,30.352,30.352,0,0,0-9.04-1.561c-18.321.417-39.044,7.072-61.6,19.781a281.5,281.5,0,0,0-31.281,20.7c-9.648,7.295-19.407,15.493-29.02,24.378a147.554,147.554,0,0,1-2.491,18.964c-1.327,6.9-3.139,14.289-5.388,21.954a325.007,325.007,0,0,1-16.9,44.687l0,.01c-7.123,15.14-14.917,30.625-23.631,41.331a50.345,50.345,0,0,1-13.41,12.042,32.51,32.51,0,0,1-7.649,3.273,31.059,31.059,0,0,1-8.355,1.13,22.846,22.846,0,0,1-9.881-2.138,21.422,21.422,0,0,1-7.484-5.928,26.341,26.341,0,0,1-4.6-8.747,35.555,35.555,0,0,1-1.56-10.682c0-9.982,3.355-21.962,9.971-35.608,6.431-13.265,15.8-27.832,27.852-43.3,13.088-16.769,32.107-36.841,41.886-46.673a91.868,91.868,0,0,0-2.808-18.616,80.135,80.135,0,0,0-7.151-18.447,40.364,40.364,0,0,0-11.343-13.061A29.284,29.284,0,0,0,968,386.611a30.352,30.352,0,0,0-9.04-1.561c-18.322.416-39.045,7.072-61.6,19.781a281.534,281.534,0,0,0-31.281,20.7c-9.648,7.295-19.407,15.493-29.02,24.378a147.6,147.6,0,0,1-2.491,18.964c-1.326,6.9-3.139,14.289-5.387,21.954a324.884,324.884,0,0,1-16.895,44.686l-.005.011c-7.125,15.141-14.919,30.627-23.632,41.33a50.345,50.345,0,0,1-13.41,12.042,32.509,32.509,0,0,1-7.649,3.273,31.062,31.062,0,0,1-8.355,1.13,22.847,22.847,0,0,1-9.882-2.138,21.42,21.42,0,0,1-7.484-5.928,26.336,26.336,0,0,1-4.6-8.746,35.554,35.554,0,0,1-1.56-10.682c0-9.982,3.355-21.962,9.971-35.608,6.431-13.265,15.8-27.832,27.852-43.3,13.086-16.767,32.107-36.84,41.886-46.673a91.916,91.916,0,0,0-2.809-18.616,80.159,80.159,0,0,0-7.149-18.447,40.353,40.353,0,0,0-11.344-13.061,29.287,29.287,0,0,0-7.589-3.907,30.354,30.354,0,0,0-9.04-1.561c-18.322.417-39.045,7.072-61.6,19.781a281.523,281.523,0,0,0-31.28,20.7c-9.648,7.295-19.406,15.493-29.02,24.378a147.608,147.608,0,0,1-2.492,18.965c-1.327,6.9-3.139,14.289-5.388,21.954a324.9,324.9,0,0,1-16.9,44.686l0,.011c-7.124,15.141-14.918,30.627-23.632,41.331a50.344,50.344,0,0,1-13.41,12.042,32.509,32.509,0,0,1-7.649,3.273,31.066,31.066,0,0,1-8.355,1.13,22.845,22.845,0,0,1-9.881-2.138,21.424,21.424,0,0,1-7.484-5.928,26.345,26.345,0,0,1-4.6-8.746,35.556,35.556,0,0,1-1.56-10.682c0-9.982,3.355-21.962,9.971-35.608,6.432-13.265,15.8-27.832,27.852-43.3,13.077-16.755,32.1-36.835,41.886-46.673a91.867,91.867,0,0,0-2.808-18.616,80.107,80.107,0,0,0-7.151-18.446A40.357,40.357,0,0,0,612.639,389.7a29.284,29.284,0,0,0-7.589-3.907,30.344,30.344,0,0,0-9.039-1.561c-18.322.417-39.045,7.072-61.6,19.781a281.494,281.494,0,0,0-31.281,20.7c-9.648,7.295-19.407,15.493-29.02,24.378a147.6,147.6,0,0,1-2.491,18.964c-1.327,6.9-3.139,14.289-5.388,21.954A325,325,0,0,1,449.339,534.7l-.005.011c-7.125,15.141-14.919,30.628-23.632,41.331a50.346,50.346,0,0,1-13.41,12.042,32.5,32.5,0,0,1-7.65,3.273,31.065,31.065,0,0,1-8.355,1.13,22.842,22.842,0,0,1-9.881-2.139,21.424,21.424,0,0,1-7.484-5.928,26.345,26.345,0,0,1-4.6-8.747,35.558,35.558,0,0,1-1.56-10.682c0-9.982,3.355-21.962,9.971-35.608,6.431-13.264,15.8-27.831,27.851-43.3,13.089-16.77,32.108-36.841,41.888-46.671A91.92,91.92,0,0,0,449.66,420.8a80.145,80.145,0,0,0-7.147-18.441,40.376,40.376,0,0,0-11.348-13.067,29.287,29.287,0,0,0-7.589-3.907,30.344,30.344,0,0,0-9.039-1.561c-18.321.417-39.045,7.072-61.6,19.781a281.561,281.561,0,0,0-31.281,20.7c-9.648,7.295-19.407,15.493-29.02,24.378a147.548,147.548,0,0,1-2.491,18.965c-1.326,6.9-3.139,14.289-5.387,21.954a324.911,324.911,0,0,1-16.9,44.686l0,.011c-7.125,15.141-14.919,30.628-23.632,41.331a50.346,50.346,0,0,1-13.41,12.042,32.5,32.5,0,0,1-7.649,3.273,31.059,31.059,0,0,1-8.355,1.13,22.843,22.843,0,0,1-9.881-2.139,21.423,21.423,0,0,1-7.484-5.929,26.343,26.343,0,0,1-4.6-8.747,35.556,35.556,0,0,1-1.56-10.682c0-9.982,3.355-21.962,9.971-35.608,6.432-13.265,15.8-27.832,27.852-43.3,13.094-16.777,32.11-36.844,41.886-46.671a91.924,91.924,0,0,0-2.809-18.617,80.136,80.136,0,0,0-7.148-18.442,40.356,40.356,0,0,0-11.346-13.065,29.272,29.272,0,0,0-7.589-3.906,30.336,30.336,0,0,0-9.039-1.56c-18.321.416-39.045,7.07-61.6,19.779a281.492,281.492,0,0,0-31.281,20.7c-9.648,7.295-19.407,15.493-29.02,24.378a147.577,147.577,0,0,1-2.491,18.965c-1.327,6.9-3.139,14.289-5.388,21.954a324.965,324.965,0,0,1-16.9,44.687l0,.011c-7.124,15.14-14.917,30.625-23.631,41.33a50.35,50.35,0,0,1-13.41,12.042,32.51,32.51,0,0,1-7.649,3.273,31.062,31.062,0,0,1-8.355,1.13,22.842,22.842,0,0,1-9.881-2.139,21.421,21.421,0,0,1-7.484-5.928,26.344,26.344,0,0,1-4.6-8.747,35.557,35.557,0,0,1-1.56-10.682c0-9.982,3.355-21.962,9.971-35.608,6.432-13.265,15.8-27.832,27.852-43.3,13.083-16.763,32.1-36.837,41.886-46.671a91.876,91.876,0,0,0-2.808-18.617,80.109,80.109,0,0,0-7.149-18.443,40.228,40.228,0,0,0-11.6-13.26,29.127,29.127,0,0,0-7.793-3.884,30.648,30.648,0,0,0-9.372-1.418,10.833,10.833,0,0,1,0-21.663,50.486,50.486,0,0,1,28.669,8.458c7.445,5,13.88,12.185,19.128,21.367l.011.019a104.909,104.909,0,0,1,10.572,29.788,346.629,346.629,0,0,1,29.477-22.936,261.057,261.057,0,0,1,32.283-19.2A182.988,182.988,0,0,1,202.054,366.6a124.183,124.183,0,0,1,29.2-4.828,9.836,9.836,0,0,1,1.02-.055c.243,0,.473.005.7.01l.295.006.537-.011c.354-.008.72-.017,1.092-.017a9.872,9.872,0,0,1,1.927.192,49.686,49.686,0,0,1,25.687,9.372,63.687,63.687,0,0,1,17.565,20.273l.011.019a104.961,104.961,0,0,1,10.572,29.788,346.582,346.582,0,0,1,29.476-22.936,261.025,261.025,0,0,1,32.282-19.195,182.987,182.987,0,0,1,31.117-12.209,124.187,124.187,0,0,1,29.2-4.828,9.834,9.834,0,0,1,1.023-.055c.24,0,.466.005.685.01l.3.006.563-.012c.346-.009.7-.017,1.068-.017a9.823,9.823,0,0,1,1.927.194,49.687,49.687,0,0,1,25.686,9.371,63.7,63.7,0,0,1,17.565,20.273l.011.019a104.91,104.91,0,0,1,10.571,29.788A346.62,346.62,0,0,1,501.6,398.827a261.077,261.077,0,0,1,32.283-19.195A182.985,182.985,0,0,1,565,367.423a124.193,124.193,0,0,1,29.2-4.828,9.73,9.73,0,0,1,1.022-.055c.239,0,.466.005.685.01l.3.006.562-.012c.346-.009.7-.017,1.068-.017a9.962,9.962,0,0,1,1.924.192,49.691,49.691,0,0,1,25.689,9.373,63.689,63.689,0,0,1,17.565,20.273l.01.019A104.912,104.912,0,0,1,653.6,422.172a346.614,346.614,0,0,1,29.477-22.936,261.03,261.03,0,0,1,32.283-19.195,183,183,0,0,1,31.117-12.209A124.2,124.2,0,0,1,775.665,363a9.594,9.594,0,0,1,1.026-.055c.24,0,.466.005.685.01l.3.006.557-.012c.348-.009.708-.017,1.075-.017a9.952,9.952,0,0,1,1.924.192,49.691,49.691,0,0,1,25.689,9.373,63.689,63.689,0,0,1,17.565,20.273l.011.019a104.89,104.89,0,0,1,10.571,29.788,346.6,346.6,0,0,1,29.477-22.936A261.051,261.051,0,0,1,896.83,380.45a183,183,0,0,1,31.117-12.209,124.2,124.2,0,0,1,29.191-4.828,9.552,9.552,0,0,1,1.027-.055c.277,0,.541.006.8.012l.2,0,.482-.011c.371-.009.755-.019,1.145-.019a9.946,9.946,0,0,1,1.923.192,49.69,49.69,0,0,1,25.69,9.373,63.691,63.691,0,0,1,17.564,20.273l.01.019a104.851,104.851,0,0,1,10.573,29.788,346.578,346.578,0,0,1,29.476-22.936,261.043,261.043,0,0,1,32.283-19.2,182.974,182.974,0,0,1,31.117-12.209,124.179,124.179,0,0,1,29.19-4.827,9.608,9.608,0,0,1,1.028-.055c.276,0,.539.006.793.012l.2,0,.482-.011c.371-.009.755-.019,1.145-.019a9.954,9.954,0,0,1,1.924.192,49.69,49.69,0,0,1,25.689,9.373,63.689,63.689,0,0,1,17.565,20.273l.011.019a104.942,104.942,0,0,1,10.572,29.787,345.086,345.086,0,0,1,30.511-23.648,256.949,256.949,0,0,1,33.263-19.469,177.528,177.528,0,0,1,31.977-12.007,118.924,118.924,0,0,1,29.962-4.111,10.833,10.833,0,0,1,0,21.663c-18.5,0-39.515,6.485-62.462,19.274A279.081,279.081,0,0,0,1229.5,426c-9.8,7.385-19.718,15.7-29.488,24.734a147.615,147.615,0,0,1-2.491,18.965c-1.327,6.9-3.14,14.289-5.388,21.954a324.931,324.931,0,0,1-16.9,44.686l-.005.011c-7.124,15.141-14.918,30.627-23.632,41.331a50.344,50.344,0,0,1-13.41,12.042,32.506,32.506,0,0,1-7.649,3.273A31.067,31.067,0,0,1,1122.182,594.122Zm18.25-213.664h.055a34.24,34.24,0,0,1,19.476,6.4,45.3,45.3,0,0,1,12.793,14.671l.018.033a83.961,83.961,0,0,1,7.622,19.63,96.517,96.517,0,0,1,3,20.781l.033,1.08-.764.764c-9.434,9.432-28.948,29.943-42.249,46.985-11.833,15.186-21.017,29.452-27.3,42.4a112.234,112.234,0,0,0-7.085,18.114,56.93,56.93,0,0,0-2.385,15.313,30.568,30.568,0,0,0,1.329,9.18,21.372,21.372,0,0,0,3.717,7.1,16.753,16.753,0,0,0,13.482,6.216c9.313,0,17.427-4.64,25.536-14.6,8.373-10.285,15.994-25.445,22.982-40.3a319.853,319.853,0,0,0,16.63-43.983c4.506-15.359,7.182-29.461,7.739-40.78l.05-1.017.746-.693A392.059,392.059,0,0,1,1226.486,422a284.071,284.071,0,0,1,32.35-21.271c23.7-13.209,45.534-19.906,64.9-19.906a5.834,5.834,0,0,0,0-11.663,113.933,113.933,0,0,0-28.7,3.948,172.536,172.536,0,0,0-31.07,11.673,251.965,251.965,0,0,0-32.61,19.09,344.521,344.521,0,0,0-33.325,26.156L1194.674,433l-.762-4.419c-2.151-12.47-5.893-23.715-10.822-32.521a58.74,58.74,0,0,0-16.156-18.7,44.482,44.482,0,0,0-10.662-5.73,46.382,46.382,0,0,0-12.628-2.715l-.17-.013-.167-.036a5.009,5.009,0,0,0-1.049-.117c-.328,0-.665.008-1.022.017l-.563.013h-.1l-.259-.006c-.236-.005-.46-.011-.678-.011a4.538,4.538,0,0,0-.543.033l-.1.013-.105,0a119.1,119.1,0,0,0-28.1,4.644,177.978,177.978,0,0,0-30.26,11.878,256.055,256.055,0,0,0-31.66,18.828,346.08,346.08,0,0,0-32.308,25.457L1013.2,432.6l-.762-4.42c-2.148-12.466-5.889-23.71-10.819-32.516a58.749,58.749,0,0,0-16.158-18.7,44.489,44.489,0,0,0-10.662-5.73,46.391,46.391,0,0,0-12.629-2.715L962,368.5l-.167-.036a5,5,0,0,0-1.047-.117c-.328,0-.665.008-1.022.017l-.562.013h-.1l-.256-.006c-.238-.005-.463-.01-.683-.01a4.544,4.544,0,0,0-.542.032l-.106.013-.106,0a119.124,119.124,0,0,0-28.1,4.645,178,178,0,0,0-30.26,11.879,256.011,256.011,0,0,0-31.66,18.827,346.035,346.035,0,0,0-32.308,25.457l-3.359,2.973-.762-4.42c-2.148-12.469-5.89-23.714-10.82-32.522a58.74,58.74,0,0,0-16.156-18.7,44.483,44.483,0,0,0-10.662-5.73A46.381,46.381,0,0,0,780.7,368.1l-.17-.013-.167-.036a5.017,5.017,0,0,0-1.049-.117c-.3,0-.619.008-.951.016-.214.005-.427.01-.64.014h-.077l-.381-.008c-.2,0-.388-.009-.571-.009a4.528,4.528,0,0,0-.542.033l-.1.012-.105,0a119.124,119.124,0,0,0-28.1,4.645,178,178,0,0,0-30.26,11.879,256.038,256.038,0,0,0-31.66,18.827,346.035,346.035,0,0,0-32.308,25.457l-3.358,2.972-.762-4.419c-2.15-12.467-5.89-23.709-10.816-32.512h0a58.748,58.748,0,0,0-16.161-18.708,44.489,44.489,0,0,0-10.662-5.73,46.386,46.386,0,0,0-12.628-2.715l-.17-.013-.166-.036a5.023,5.023,0,0,0-1.05-.117c-.3,0-.614.008-.944.016-.216.005-.432.011-.648.014h-.076l-.379-.008c-.2,0-.389-.009-.571-.009a4.889,4.889,0,0,0-.558.034l-.1.011-.1,0a119.112,119.112,0,0,0-28.1,4.645,178.005,178.005,0,0,0-30.26,11.879,256.082,256.082,0,0,0-31.66,18.828A346.075,346.075,0,0,0,472.136,428.4l-3.359,2.973-.762-4.42c-2.148-12.465-5.889-23.71-10.819-32.52a58.755,58.755,0,0,0-16.157-18.7A44.474,44.474,0,0,0,430.377,370a46.37,46.37,0,0,0-12.629-2.715l-.175-.013-.171-.038a4.861,4.861,0,0,0-1.038-.116c-.3,0-.614.008-.944.016-.216.005-.432.011-.648.014H414.7l-.381-.008c-.2,0-.388-.009-.571-.009a4.906,4.906,0,0,0-.556.034l-.1.011-.1,0a119.108,119.108,0,0,0-28.1,4.645A177.992,177.992,0,0,0,354.63,383.7a256.053,256.053,0,0,0-31.659,18.828,346.042,346.042,0,0,0-32.307,25.456l-3.358,2.972-.762-4.419c-2.15-12.464-5.89-23.708-10.818-32.515a58.741,58.741,0,0,0-16.16-18.7,44.475,44.475,0,0,0-10.662-5.73,46.374,46.374,0,0,0-12.628-2.715l-.174-.013-.17-.037a4.911,4.911,0,0,0-1.042-.115c-.314,0-.635.007-.976.016-.205,0-.411.009-.616.013h-.078l-.368-.008c-.2,0-.4-.009-.582-.009a4.844,4.844,0,0,0-.555.034l-.1.011-.1,0a119.109,119.109,0,0,0-28.1,4.645,178,178,0,0,0-30.26,11.879,256.062,256.062,0,0,0-31.66,18.828,346.071,346.071,0,0,0-32.308,25.456l-3.358,2.972-.762-4.419c-2.151-12.473-5.893-23.719-10.822-32.522-4.86-8.5-10.771-15.125-17.567-19.685a44.1,44.1,0,0,0-11.781-5.6,48.566,48.566,0,0,0-14.1-2.013,5.834,5.834,0,0,0,0,11.663,34.28,34.28,0,0,1,20.03,6.2,45.168,45.168,0,0,1,13.087,14.894l.018.032a83.953,83.953,0,0,1,7.623,19.629,96.456,96.456,0,0,1,3,20.783l.033,1.08-.764.764c-9.441,9.441-28.964,29.961-42.249,46.983-11.833,15.186-21.017,29.452-27.3,42.4A112.239,112.239,0,0,0,17.2,548.859a56.93,56.93,0,0,0-2.385,15.313,30.569,30.569,0,0,0,1.329,9.18,21.372,21.372,0,0,0,3.717,7.1,16.751,16.751,0,0,0,13.482,6.217c9.313,0,17.427-4.64,25.537-14.6,8.375-10.288,16-25.45,22.985-40.3h0a319.92,319.92,0,0,0,16.627-43.977c4.506-15.359,7.182-29.461,7.739-40.78l.05-1.017.746-.693A392.46,392.46,0,0,1,137.17,419.91a286.5,286.5,0,0,1,31.842-21.072c23.3-13.129,44.832-20,64-20.423h.11a34.228,34.228,0,0,1,19.475,6.4,45.3,45.3,0,0,1,12.793,14.672l.018.033a83.983,83.983,0,0,1,7.621,19.628,96.508,96.508,0,0,1,3,20.783l.033,1.08-.764.764c-9.436,9.434-28.953,29.947-42.249,46.983-11.833,15.186-21.017,29.452-27.3,42.4a112.237,112.237,0,0,0-7.085,18.114,56.93,56.93,0,0,0-2.385,15.313,30.57,30.57,0,0,0,1.329,9.18,21.375,21.375,0,0,0,3.717,7.1,16.752,16.752,0,0,0,13.482,6.217c9.313,0,17.427-4.64,25.536-14.6,8.372-10.285,15.993-25.445,22.982-40.3a319.818,319.818,0,0,0,16.63-43.983c4.505-15.359,7.181-29.461,7.737-40.78l.05-1.017.746-.693a392.546,392.546,0,0,1,30.148-25.388,286.561,286.561,0,0,1,31.841-21.072c23.3-13.13,44.833-20,64-20.425h.11a34.235,34.235,0,0,1,19.475,6.4,45.318,45.318,0,0,1,12.795,14.671l.018.033a83.987,83.987,0,0,1,7.621,19.629,96.509,96.509,0,0,1,3,20.782l.033,1.08-.764.764c-9.439,9.438-28.96,29.954-42.251,46.983-11.833,15.186-21.017,29.453-27.295,42.4a112.234,112.234,0,0,0-7.085,18.114,56.925,56.925,0,0,0-2.385,15.313,30.568,30.568,0,0,0,1.329,9.18,21.373,21.373,0,0,0,3.717,7.1,16.751,16.751,0,0,0,13.482,6.217c9.313,0,17.428-4.64,25.538-14.6,8.372-10.284,15.992-25.443,22.981-40.293h0a319.907,319.907,0,0,0,16.63-43.986c4.505-15.359,7.182-29.461,7.738-40.78l.05-1.017.746-.693a392.505,392.505,0,0,1,30.148-25.389,286.531,286.531,0,0,1,31.842-21.072c23.3-13.13,44.832-20,64-20.424h.11a34.233,34.233,0,0,1,19.475,6.4A45.3,45.3,0,0,1,628.335,400.3l.018.033a83.951,83.951,0,0,1,7.622,19.628,96.448,96.448,0,0,1,3,20.781l.033,1.079-.764.764c-9.444,9.446-28.97,29.971-42.249,46.985-11.833,15.186-21.017,29.452-27.3,42.4a112.243,112.243,0,0,0-7.085,18.114,56.929,56.929,0,0,0-2.385,15.313,30.566,30.566,0,0,0,1.329,9.18,21.37,21.37,0,0,0,3.717,7.1,16.753,16.753,0,0,0,13.482,6.216c9.313,0,17.427-4.64,25.536-14.6,8.372-10.285,15.994-25.445,22.982-40.3a319.843,319.843,0,0,0,16.63-43.983c4.505-15.359,7.182-29.46,7.739-40.78l.05-1.017.746-.693a392.4,392.4,0,0,1,30.147-25.388,286.487,286.487,0,0,1,31.841-21.072c23.3-13.13,44.832-20,64-20.425h.11a34.238,34.238,0,0,1,19.476,6.4,45.3,45.3,0,0,1,12.794,14.671l.018.033a84,84,0,0,1,7.621,19.629,96.5,96.5,0,0,1,3,20.781l.033,1.08-.764.764c-9.44,9.44-28.961,29.958-42.25,46.985-11.833,15.186-21.017,29.452-27.3,42.4a112.237,112.237,0,0,0-7.085,18.114,56.931,56.931,0,0,0-2.385,15.313,30.578,30.578,0,0,0,1.329,9.18,21.369,21.369,0,0,0,3.716,7.1,16.753,16.753,0,0,0,13.482,6.216c9.313,0,17.427-4.64,25.536-14.6,8.372-10.285,15.994-25.445,22.982-40.3a319.77,319.77,0,0,0,16.629-43.983c4.505-15.358,7.181-29.46,7.738-40.78l.05-1.016.746-.693a392.507,392.507,0,0,1,30.148-25.388,286.524,286.524,0,0,1,31.841-21.072c23.3-13.13,44.832-20,64-20.424h.11a34.235,34.235,0,0,1,19.475,6.4,45.307,45.307,0,0,1,12.793,14.67l.018.033a83.979,83.979,0,0,1,7.622,19.63,96.457,96.457,0,0,1,3,20.782l.033,1.079-.764.764c-9.439,9.439-28.959,29.956-42.25,46.985-11.833,15.186-21.017,29.452-27.3,42.4a112.234,112.234,0,0,0-7.085,18.114,56.929,56.929,0,0,0-2.385,15.313,30.565,30.565,0,0,0,1.329,9.18,21.369,21.369,0,0,0,3.717,7.1,16.753,16.753,0,0,0,13.482,6.216c9.313,0,17.428-4.64,25.537-14.6,8.375-10.288,16-25.45,22.985-40.3a319.91,319.91,0,0,0,16.627-43.976c4.506-15.359,7.182-29.46,7.739-40.779l.05-1.017.746-.693a392.49,392.49,0,0,1,30.148-25.388,286.543,286.543,0,0,1,31.841-21.072c23.3-13.13,44.832-20,64-20.424Zm-17.059,197a7.25,7.25,0,0,1-6.321-3.061,12.016,12.016,0,0,1-1.734-6.977c0-5.74,1.577-12.65,4.687-20.538a158.267,158.267,0,0,1,12.747-24.669,298.058,298.058,0,0,1,19.255-27.254c7.387-9.379,15.563-18.816,24.3-28.05l5.838-6.169-1.565,8.348a216.567,216.567,0,0,1-8.126,30.107,280.409,280.409,0,0,1-12.3,29.995c-6.223,13.827-12.1,24.826-17.462,32.694C1135.552,572.365,1129.231,577.459,1123.372,577.459Zm50.4-100.452c-6.329,6.976-12.306,14.029-17.834,21.047A293.087,293.087,0,0,0,1137,524.846a153.338,153.338,0,0,0-12.347,23.871c-2.879,7.3-4.339,13.594-4.339,18.7,0,2.406.459,3.575.845,4.131.31.448.816.907,2.211.907,1.936,0,4.212-1.128,6.763-3.352a53.39,53.39,0,0,0,8.43-10.038c5.2-7.631,10.937-18.382,17.044-31.953l.025-.054a275.422,275.422,0,0,0,12.09-29.488C1170.162,490.472,1172.184,483.587,1173.768,477.007ZM941.9,577.05a7.248,7.248,0,0,1-6.32-3.061,12.023,12.023,0,0,1-1.733-6.979c0-5.74,1.577-12.649,4.687-20.537A158.256,158.256,0,0,1,951.279,521.8a298.109,298.109,0,0,1,19.255-27.254c7.387-9.379,15.563-18.816,24.3-28.05l5.839-6.171-1.566,8.35a216.67,216.67,0,0,1-8.127,30.107,280.237,280.237,0,0,1-12.3,30c-6.223,13.826-12.1,24.826-17.46,32.691C954.078,571.956,947.757,577.05,941.9,577.05ZM992.3,476.6c-6.328,6.976-12.305,14.029-17.833,21.046a293.143,293.143,0,0,0-18.932,26.791,153.327,153.327,0,0,0-12.347,23.871c-2.879,7.3-4.339,13.594-4.339,18.7,0,2.407.459,3.576.845,4.133.31.449.815.907,2.209.907,1.937,0,4.213-1.128,6.764-3.352a53.378,53.378,0,0,0,8.43-10.038c5.2-7.63,10.936-18.38,17.044-31.953l.025-.055a275.19,275.19,0,0,0,12.091-29.488C988.688,490.064,990.711,483.179,992.3,476.6ZM760.424,576.64a7.248,7.248,0,0,1-6.32-3.061,12.017,12.017,0,0,1-1.734-6.977c0-5.74,1.577-12.65,4.687-20.538A158.245,158.245,0,0,1,769.8,521.4a298,298,0,0,1,19.255-27.254c7.387-9.378,15.563-18.816,24.3-28.05l5.839-6.17-1.566,8.35a216.7,216.7,0,0,1-8.127,30.108,280.282,280.282,0,0,1-12.3,30c-6.222,13.825-12.1,24.824-17.461,32.691C772.6,571.546,766.283,576.64,760.424,576.64Zm50.4-100.451c-6.328,6.976-12.305,14.029-17.833,21.047a293.038,293.038,0,0,0-18.932,26.791A153.315,153.315,0,0,0,761.709,547.9c-2.879,7.3-4.339,13.594-4.339,18.7,0,2.406.46,3.574.845,4.131.31.448.815.907,2.209.907,1.937,0,4.213-1.128,6.764-3.352a53.383,53.383,0,0,0,8.43-10.038c5.2-7.631,10.938-18.381,17.044-31.953l.025-.055a275.25,275.25,0,0,0,12.089-29.487C807.214,489.655,809.237,482.77,810.821,476.189ZM578.951,576.231a7.248,7.248,0,0,1-6.321-3.061,12.019,12.019,0,0,1-1.733-6.977c0-5.74,1.577-12.65,4.687-20.538a158.257,158.257,0,0,1,12.747-24.669,298.065,298.065,0,0,1,19.255-27.254c7.387-9.378,15.562-18.816,24.3-28.05l5.838-6.17-1.565,8.349a216.535,216.535,0,0,1-8.126,30.108,280.308,280.308,0,0,1-12.3,30c-6.222,13.825-12.1,24.824-17.461,32.691C591.131,571.137,584.81,576.231,578.951,576.231Zm50.4-100.452c-6.328,6.976-12.305,14.029-17.833,21.047a293.077,293.077,0,0,0-18.931,26.791,153.334,153.334,0,0,0-12.347,23.872c-2.879,7.3-4.339,13.594-4.339,18.7,0,2.406.459,3.575.844,4.131.31.448.815.906,2.21.906,1.936,0,4.212-1.128,6.763-3.352a53.378,53.378,0,0,0,8.43-10.038c5.2-7.631,10.937-18.381,17.044-31.953l.025-.055a275.287,275.287,0,0,0,12.09-29.487C625.741,489.245,627.763,482.36,629.347,475.779ZM397.477,575.822a7.248,7.248,0,0,1-6.32-3.061,12.019,12.019,0,0,1-1.734-6.977c0-5.74,1.577-12.65,4.687-20.538a158.258,158.258,0,0,1,12.747-24.669,298.048,298.048,0,0,1,19.255-27.254c7.387-9.378,15.563-18.816,24.3-28.05l5.839-6.171-1.566,8.35a216.693,216.693,0,0,1-8.127,30.108,280.1,280.1,0,0,1-12.3,30c-6.222,13.825-12.1,24.823-17.459,32.688C409.657,570.728,403.336,575.822,397.477,575.822Zm50.4-100.451c-6.328,6.976-12.305,14.029-17.833,21.046a293.073,293.073,0,0,0-18.932,26.792,153.3,153.3,0,0,0-12.347,23.871c-2.879,7.3-4.339,13.594-4.339,18.7,0,2.406.46,3.575.845,4.131.31.448.815.907,2.209.907,1.937,0,4.212-1.128,6.764-3.352a53.37,53.37,0,0,0,8.43-10.038c5.2-7.63,10.936-18.38,17.044-31.953l.025-.055a275.117,275.117,0,0,0,12.091-29.487C444.267,488.837,446.29,481.952,447.874,475.371ZM216,575.413a7.25,7.25,0,0,1-6.322-3.061,12.016,12.016,0,0,1-1.734-6.977c0-5.74,1.577-12.65,4.687-20.538a158.24,158.24,0,0,1,12.747-24.669,298.054,298.054,0,0,1,19.256-27.253c7.387-9.378,15.563-18.815,24.3-28.049l5.839-6.17-1.566,8.349a216.725,216.725,0,0,1-8.127,30.106,280.281,280.281,0,0,1-12.3,30c-6.222,13.825-12.1,24.825-17.461,32.691C228.184,570.319,221.863,575.413,216,575.413Zm50.4-100.45c-6.328,6.975-12.305,14.028-17.833,21.046A293.084,293.084,0,0,0,229.635,522.8a153.308,153.308,0,0,0-12.347,23.871c-2.879,7.3-4.339,13.594-4.339,18.7,0,2.406.46,3.574.845,4.131.311.448.816.907,2.21.907,1.936,0,4.212-1.128,6.763-3.352a53.38,53.38,0,0,0,8.43-10.038c5.2-7.631,10.937-18.382,17.044-31.953l.025-.055a275.241,275.241,0,0,0,12.09-29.487C262.793,488.428,264.815,481.543,266.4,474.963ZM34.53,575a7.248,7.248,0,0,1-6.321-3.061,12.019,12.019,0,0,1-1.733-6.977c0-5.74,1.577-12.65,4.687-20.538a158.255,158.255,0,0,1,12.747-24.669,298.051,298.051,0,0,1,19.256-27.253c7.387-9.378,15.563-18.815,24.3-28.049l5.839-6.17-1.566,8.349a216.678,216.678,0,0,1-8.128,30.106,280.385,280.385,0,0,1-12.3,30c-6.222,13.825-12.1,24.825-17.461,32.691C46.71,569.909,40.389,575,34.53,575Zm50.4-100.45c-6.328,6.975-12.3,14.028-17.833,21.046A293.064,293.064,0,0,0,48.163,522.39a153.3,153.3,0,0,0-12.347,23.871c-2.879,7.3-4.339,13.594-4.339,18.7,0,2.406.459,3.575.844,4.132.31.448.815.907,2.209.907,1.936,0,4.212-1.128,6.763-3.352a53.379,53.379,0,0,0,8.43-10.038c5.2-7.631,10.937-18.382,17.044-31.953l.025-.055a275.372,275.372,0,0,0,12.09-29.487C81.32,488.018,83.343,481.134,84.927,474.554Z" transform="matrix(-0.966, -0.259, 0.259, -0.966, 11728.547, -1470.21)" fill="#fffd38"/>
    </g>
  </g>
</svg>
