<svg xmlns="http://www.w3.org/2000/svg" width="728.105" height="530.166" viewBox="0 0 728.105 530.166">
  <path d="M3957.834,27.359c-47.241,0-88.922,45.831-113.715,115.653-24.794-69.822-66.473-115.653-113.714-115.653-46.586,0-87.762,44.566-112.674,112.754-24.91-68.188-66.084-112.754-112.67-112.754-76.029,0-137.667,118.683-137.667,265.084s61.638,265.082,137.667,265.082c46.585,0,87.76-44.564,112.67-112.754,24.912,68.19,66.088,112.754,112.674,112.754,47.241,0,88.919-45.831,113.714-115.653,24.792,69.822,66.474,115.653,113.715,115.653,76.03,0,137.666-118.681,137.666-265.082S4033.864,27.359,3957.834,27.359" transform="translate(-3367.394 -27.359)" fill="#17ffdf"/>
</svg>
