<svg xmlns="http://www.w3.org/2000/svg" width="115.051" height="106.234" viewBox="0 0 115.051 106.234">
  <g transform="translate(-960 -832.655)">
    <g transform="translate(41 46.654)">
      <path d="M52.968,84.274a25.052,25.052,0,0,1-16.477-6.2,23.861,23.861,0,0,1-16.064,6.183A24.193,24.193,0,0,1,8.743,81.262,23.424,23.424,0,0,1-2.773,67.338a24.221,24.221,0,0,1-.522-12.189,24.2,24.2,0,0,1-.1-45.991,24.745,24.745,0,0,1,11-25.71l.8-.5.845-.423A24.251,24.251,0,0,1,20.048-20a25.053,25.053,0,0,1,16.52,6.241A24.728,24.728,0,0,1,52.968-20a24.252,24.252,0,0,1,10.8,2.524l.846.423.8.5A24.742,24.742,0,0,1,76.424,9.086a24.2,24.2,0,0,1,0,46.1,24.745,24.745,0,0,1-11,25.635l-.8.5-.849.424A24.252,24.252,0,0,1,52.968,84.274Z" transform="matrix(1, -0.017, 0.017, 1, 939.346, 807.625)" fill="#fff"/>
      <path d="M48.988,62.229l-12.6-21.461-12.6,21.461c-.933,2.1-3.732,2.566-5.6,1.4-2.1-.933-2.567-3.732-1.4-5.6l12.83-21.694H4.2a4.2,4.2,0,0,1,0-8.4h24.96L16.563,6.243A4.778,4.778,0,0,1,18.2.412a4.779,4.779,0,0,1,5.832,1.633l12.6,21.461L48.988,2.044A4.779,4.779,0,0,1,54.82.412a4.778,4.778,0,0,1,1.633,5.832L44.089,27.938h24.96a4.2,4.2,0,1,1,0,8.4H43.856l12.6,21.694a4.778,4.778,0,0,1-1.633,5.832,4.779,4.779,0,0,1-5.832-1.633" transform="matrix(1, -0.017, 0.017, 1, 939, 807.278)"/>
    </g>
  </g>
</svg>
