<svg width="493" height="78" viewBox="0 0 493 78" fill="none" xmlns="http://www.w3.org/2000/svg">
  <path d="M22.9923 72.6784C22.9923 75.5537 20.7562 77.7908 17.8821 77.7908C16.6701 77.7908 15.5822 77.4079 14.6891 76.7059C13.7961 77.4079 12.7081 77.7908 11.4961 77.7908C10.2842 77.7908 9.1962 77.4079 8.30315 76.7059C7.41011 77.4079 6.32215 77.7908 5.11017 77.7908C2.23613 77.7908 0 75.5537 0 72.6784C0 71.4658 0.38271 70.3774 1.08439 69.4839C0.38271 68.5905 0 67.5021 0 66.2895C0 63.4142 2.23613 61.1771 5.11017 61.1771C5.62048 61.1771 6.1308 61.2409 6.58086 61.3685C6.45328 60.9218 6.38948 60.4113 6.38948 59.8972C6.38948 57.0219 8.62565 54.7847 11.4997 54.7847C12.01 54.7847 12.5203 54.8485 12.9704 54.9762C12.8428 54.5294 12.779 54.0189 12.779 53.5048C12.779 52.9907 12.8428 52.4837 12.9704 52.0335C12.5239 52.1611 12.0135 52.2249 11.5032 52.2249C10.2913 52.2249 9.20329 51.842 8.31025 51.14C7.41721 51.842 6.32925 52.2249 5.11726 52.2249C2.24322 52.2249 0.00705131 49.9878 0.00705131 47.1125C0.00705131 44.2371 2.24322 42 5.11726 42C6.32925 42 7.41721 42.3829 8.31025 43.0849C9.20329 42.3829 10.2913 42 11.5032 42C14.3773 42 16.6134 44.2371 16.6134 47.1125C16.6134 47.623 16.5496 48.1335 16.4221 48.5838C16.8686 48.4562 17.3789 48.3924 17.8928 48.3924C20.7668 48.3924 23.0029 50.6295 23.0029 53.5048C23.0029 56.3801 20.7668 58.6173 17.8928 58.6173C17.3825 58.6173 16.8721 58.5535 16.4221 58.4258C16.5496 58.8726 16.6134 59.3831 16.6134 59.8972C16.6134 62.7725 14.3773 65.0096 11.5032 65.0096C10.9929 65.0096 10.4826 64.9458 10.0361 64.8182C10.1637 65.2649 10.2275 65.7755 10.2275 66.2895C10.2275 66.8036 10.1637 67.3106 10.0361 67.7609C10.4826 67.6332 10.9929 67.5694 11.5068 67.5694C12.7188 67.5694 13.8067 67.9523 14.6998 68.6543C15.5928 67.9523 16.6808 67.5694 17.8928 67.5694C20.7668 67.5694 23.0029 69.8066 23.0029 72.6819L22.9923 72.6784Z" fill="white"/>
  <path d="M49.819 59.8972C49.819 61.1097 49.4363 62.1981 48.7346 63.0916C49.4363 63.985 49.819 65.0735 49.819 66.286C49.819 69.1613 47.5828 71.3985 44.7088 71.3985C44.1985 71.3985 43.6882 71.3346 43.2381 71.207C43.3657 71.6537 43.4295 72.1643 43.4295 72.6783C43.4295 75.5537 41.1934 77.7908 38.3193 77.7908C35.4453 77.7908 33.2091 75.5537 33.2091 72.6783C33.2091 72.1678 33.2729 71.6573 33.4005 71.207C32.954 71.3346 32.4436 71.3985 31.9298 71.3985C29.0557 71.3985 26.8196 69.1613 26.8196 66.286C26.8196 65.0735 27.2023 63.985 27.904 63.0916C27.2023 62.1981 26.8196 61.1097 26.8196 59.8972C26.8196 58.6847 27.2023 57.5962 27.904 56.7028C27.2023 55.8093 26.8196 54.7209 26.8196 53.5084C26.8196 50.633 29.0557 48.3959 31.9298 48.3959C32.4401 48.3959 32.9504 48.4597 33.4005 48.5873C33.2729 48.1406 33.2091 47.6301 33.2091 47.116C33.2091 44.2407 35.4453 42.0035 38.3193 42.0035C41.1934 42.0035 43.4295 44.2407 43.4295 47.116C43.4295 47.6265 43.3657 48.1371 43.2381 48.5873C43.6847 48.4597 44.1949 48.3959 44.7088 48.3959C47.5828 48.3959 49.819 50.633 49.819 53.5084C49.819 54.7209 49.4363 55.8093 48.7346 56.7028C49.4363 57.5962 49.819 58.6847 49.819 59.8972ZM38.3193 67.5659C38.8296 67.5659 39.3399 67.6297 39.7864 67.7573C39.6588 67.3106 39.5951 66.8001 39.5951 66.286C39.5951 65.0735 39.9778 63.985 40.6795 63.0916C39.9778 62.1981 39.5951 61.1097 39.5951 59.8972C39.5951 58.6847 39.9778 57.5962 40.6795 56.7028C39.9778 55.8093 39.5951 54.7209 39.5951 53.5084C39.5951 52.9978 39.6588 52.4873 39.7864 52.037C39.3399 52.1647 38.8296 52.2285 38.3193 52.2285C37.809 52.2285 37.2987 52.1647 36.8486 52.037C36.9762 52.4837 37.04 52.9943 37.04 53.5084C37.04 54.7209 36.6572 55.8093 35.9556 56.7028C36.6572 57.5962 37.04 58.6847 37.04 59.8972C37.04 61.1097 36.6572 62.1981 35.9556 63.0916C36.6572 63.985 37.04 65.0735 37.04 66.286C37.04 66.7965 36.9762 67.3071 36.8486 67.7573C37.2951 67.6297 37.8055 67.5659 38.3193 67.5659Z" fill="white"/>
  <path d="M76.6456 72.6784C76.6456 75.5537 74.4095 77.7908 71.5355 77.7908C70.3235 77.7908 69.2355 77.4079 68.3425 76.7059C67.4495 77.4079 66.3615 77.7908 65.1495 77.7908C63.9375 77.7908 62.8496 77.4079 61.9565 76.7059C61.0635 77.4079 59.9755 77.7908 58.7635 77.7908C55.8895 77.7908 53.6533 75.5537 53.6533 72.6784C53.6533 71.4658 54.0361 70.3774 54.7378 69.4839C54.0361 68.5905 53.6533 67.5021 53.6533 66.2895C53.6533 63.4142 55.8895 61.1771 58.7635 61.1771C59.2738 61.1771 59.7842 61.2409 60.2342 61.3685C60.1066 60.9218 60.0428 60.4113 60.0428 59.8972C60.0428 57.0219 62.279 54.7847 65.1531 54.7847C65.6634 54.7847 66.1737 54.8485 66.6237 54.9762C66.4962 54.5294 66.4324 54.0189 66.4324 53.5048C66.4324 52.9907 66.4962 52.4837 66.6237 52.0335C66.1772 52.1611 65.6669 52.2249 65.1566 52.2249C63.9446 52.2249 62.8567 51.842 61.9636 51.14C61.0706 51.842 59.9826 52.2249 58.7706 52.2249C55.8966 52.2249 53.6604 49.9878 53.6604 47.1125C53.6604 44.2371 55.8966 42 58.7706 42C59.9826 42 61.0706 42.3829 61.9636 43.0849C62.8567 42.3829 63.9446 42 65.1566 42C68.0306 42 70.2668 44.2371 70.2668 47.1125C70.2668 47.623 70.203 48.1335 70.0754 48.5838C70.522 48.4562 71.0322 48.3924 71.5461 48.3924C74.4201 48.3924 76.6563 50.6295 76.6563 53.5048C76.6563 56.3801 74.4201 58.6173 71.5461 58.6173C71.0358 58.6173 70.5255 58.5535 70.0754 58.4258C70.203 58.8726 70.2668 59.3831 70.2668 59.8972C70.2668 62.7725 68.0306 65.0096 65.1566 65.0096C64.6463 65.0096 64.136 64.9458 63.6895 64.8182C63.817 65.2649 63.8808 65.7755 63.8808 66.2895C63.8808 66.8036 63.817 67.3106 63.6895 67.7609C64.136 67.6332 64.6463 67.5694 65.1601 67.5694C66.3721 67.5694 67.4601 67.9523 68.3531 68.6543C69.2462 67.9523 70.3341 67.5694 71.5461 67.5694C74.4201 67.5694 76.6563 69.8066 76.6563 72.6819L76.6456 72.6784Z" fill="white"/>
  <path d="M103.469 66.2895C103.469 69.1648 101.233 71.402 98.3588 71.402C97.8485 71.402 97.3382 71.3382 96.8881 71.2105C97.0157 71.6573 97.0795 72.1678 97.0795 72.6819C97.0795 75.5572 94.8433 77.7944 91.9693 77.7944C90.7573 77.7944 89.6694 77.4115 88.7763 76.7095C87.8833 77.4115 86.7953 77.7944 85.5834 77.7944C82.7093 77.7944 80.4731 75.5572 80.4731 72.6819C80.4731 69.8066 82.7093 67.5694 85.5834 67.5694C86.7953 67.5694 87.8833 67.9523 88.7763 68.6543C89.6694 67.9523 90.7573 67.5694 91.9693 67.5694C92.4796 67.5694 92.9899 67.6332 93.4364 67.7609C93.3089 67.3142 93.2451 66.8036 93.2451 66.2895C93.2451 65.7754 93.3089 65.2685 93.4364 64.8182C92.9899 64.9458 92.4796 65.0096 91.9693 65.0096C90.7573 65.0096 89.6694 64.6267 88.7763 63.9247C87.8833 64.6267 86.7953 65.0096 85.5834 65.0096C82.7093 65.0096 80.4731 62.7725 80.4731 59.8972C80.4731 58.6846 80.8559 57.5962 81.5575 56.7028C80.8559 55.8093 80.4731 54.7209 80.4731 53.5084C80.4731 52.2958 80.8559 51.2074 81.5575 50.314C80.8559 49.4205 80.4731 48.3321 80.4731 47.1195C80.4731 44.2442 82.7093 42.0071 85.5834 42.0071C86.7953 42.0071 87.8833 42.39 88.7763 43.092C89.6694 42.39 90.7573 42.0071 91.9693 42.0071C93.1813 42.0071 94.2692 42.39 95.1623 43.092C96.0553 42.39 97.1433 42.0071 98.3553 42.0071C101.229 42.0071 103.465 44.2442 103.465 47.1195C103.465 49.9949 101.229 52.232 98.3553 52.232C97.1433 52.232 96.0553 51.8491 95.1623 51.1471C94.2692 51.8491 93.1813 52.232 91.9693 52.232C91.459 52.232 90.9487 52.1682 90.4986 52.0406C90.6262 52.4873 90.69 52.9978 90.69 53.5119C90.69 54.026 90.6262 54.533 90.4986 54.9832C90.9452 54.8556 91.4554 54.7918 91.9693 54.7918C94.8433 54.7918 97.0795 57.0289 97.0795 59.9043C97.0795 60.4148 97.0157 60.9253 96.8881 61.3756C97.3346 61.248 97.845 61.1842 98.3588 61.1842C101.233 61.1842 103.469 63.4213 103.469 66.2966V66.2895Z" fill="white"/>
  <path d="M0 33.7664H0.244524C2.68976 33.7664 2.93429 33.0325 2.93429 30.5862V5.13727C2.93429 2.69095 2.68976 1.95705 0.244524 1.95705H0V0.733887H10.7626C17.8538 0.733887 21.2807 4.40338 21.2807 8.56213C21.2807 14.9226 14.6785 16.44 14.6785 16.44V16.6846C14.6785 16.6846 22.5033 17.6135 22.5033 25.5907C22.5033 31.0719 17.8573 34.986 10.5181 34.986H0V33.7628V33.7664ZM9.53997 2.20168C7.58378 2.20168 7.33926 2.93558 7.33926 5.13727V15.9047H11.0071C14.4304 15.9047 16.6312 13.4583 16.6312 8.81031C16.6312 4.40692 14.4305 2.20523 10.7626 2.20523H9.53997V2.20168ZM7.33926 17.3725V30.5862C7.33926 32.7879 7.33926 33.5218 9.53997 33.5218H10.5181C14.675 33.5218 17.3647 31.0754 17.3647 25.5942C17.3647 20.113 15.0648 17.3725 11.0071 17.3725H7.33926Z" fill="white"/>
  <path d="M23.7223 34.9895V33.7664H23.9668C26.4121 33.7664 26.6566 33.0325 26.6566 30.5862V5.13727C26.6566 2.69095 26.4121 1.95705 23.9668 1.95705H23.7223V0.733887H33.9958V1.95705H33.7513C31.3061 1.95705 31.0616 2.69095 31.0616 5.13727V30.5862C31.0616 32.7879 31.0616 33.5218 33.7513 33.5218H37.4192C39.6199 33.5218 41.3316 31.3201 44.2658 26.4274L45.2439 26.672L42.944 34.9931H23.7188L23.7223 34.9895Z" fill="white"/>
  <path d="M56.3504 0.244629H57.3285L64.6181 30.2423C65.2525 32.7879 65.7911 33.7664 68.4809 33.7664V34.9896H57.6722V33.7664H57.9168C60.1175 33.7664 60.851 33.2275 60.2663 30.8308L58.5546 23.7365H52.197L50.6803 30.0012C50.0459 32.6425 50.6307 33.7699 53.0759 33.7699H53.3204V34.9931H44.7585V33.7699C47.6928 33.7699 48.6213 32.2029 49.16 29.8558L56.3504 0.244629ZM52.5337 22.2651H58.1577L55.3191 10.7142L52.5301 22.2651H52.5337Z" fill="white"/>
  <path d="M79.4879 33.7664C84.6229 33.7664 86.09 25.69 86.09 25.69L87.3126 25.9346C87.3126 25.9346 85.8455 35.7235 78.5062 35.7235C72.6377 35.7235 67.7437 29.1184 67.7437 17.8617C67.7437 6.60508 72.6377 0 78.5098 0C80.6609 0 82.1776 0.928895 82.8155 1.41816L85.5053 0.244633L87.3162 10.5227L86.0936 10.7674C83.6483 3.91767 81.9367 1.4678 79.2469 1.4678C75.3345 1.4678 72.8893 6.84971 72.8893 17.8617C72.8893 28.8737 75.579 33.7664 79.4914 33.7664H79.4879Z" fill="white"/>
  <path d="M95.6302 18.9395L104.437 5.77545C105.854 3.62339 106.882 1.95705 103.948 1.95705H103.703V0.733887H112.265V1.95705C109.331 1.95705 107.814 3.37521 106.152 5.87117L101.456 12.9194L108.842 30.8308C109.77 33.0821 110.553 33.7664 112.509 33.7664H112.754V34.9895H102.385V33.7664H102.629C104.44 33.7664 105.124 33.3268 104.096 30.8308L98.5184 17.2767L95.6337 21.5844V30.5897C95.6337 33.036 95.8782 33.7699 98.3235 33.7699H98.568V34.9931H88.2944V33.7699H88.539C90.9842 33.7699 91.2287 33.036 91.2287 30.5897V5.13727C91.2287 2.69095 90.9842 1.95705 88.539 1.95705H88.2944V0.733887H98.568V1.95705H98.3235C95.8782 1.95705 95.6337 2.69095 95.6337 5.13727V18.936L95.6302 18.9395Z" fill="white"/>
  <path d="M127.081 1.41816L129.771 0.244633L131.582 10.5227L130.36 10.7674C127.914 3.91767 125.714 1.4678 122.042 1.4678C119.352 1.4678 116.907 3.18022 116.907 6.60508C116.907 14.1922 132.071 16.3939 132.071 26.6685C132.071 32.7843 127.67 35.7235 122.776 35.7235C119.647 35.7235 117.736 34.7946 117.003 34.3053L114.313 35.4788L112.502 25.2007L113.725 24.9561C116.17 31.8058 118.615 34.2557 122.776 34.2557C125.955 34.2557 128.155 32.2986 128.155 28.6291C128.155 19.3295 112.991 17.6171 112.991 8.56569C112.991 2.93914 117.393 0 122.042 0C124.732 0 126.398 0.928895 127.081 1.41816Z" fill="white"/>
  <path d="M154.72 0.733892L157.02 9.05495L156.042 9.29958C153.107 4.40693 151.396 2.20523 149.195 2.20523H147.239V30.5897C147.239 33.036 147.728 33.7699 150.418 33.7699H150.907V34.9931H139.166V33.7699H139.655C142.345 33.7699 142.834 33.036 142.834 30.5897V2.20169H140.878C138.677 2.20169 136.965 4.40338 134.027 9.29603L133.049 9.0514L135.349 0.730347H154.72V0.733892Z" fill="white"/>
  <path d="M165.185 0.244629H166.163L173.452 30.2423C174.087 32.7879 174.625 33.7664 177.315 33.7664V34.9896H166.506V33.7664H166.751C168.952 33.7664 169.685 33.2275 169.101 30.8308L167.389 23.7365H161.031L159.514 30.0012C158.88 32.6425 159.465 33.7699 161.91 33.7699H162.155V34.9931H153.593V33.7699C156.527 33.7699 157.456 32.2029 157.994 29.8558L165.185 0.244629ZM161.371 22.2651H166.996L164.157 10.7142L161.368 22.2651H161.371Z" fill="white"/>
  <path d="M184.654 18.1064V30.5862C184.654 33.0325 184.899 33.7664 187.344 33.7664H187.589V34.9896H177.315V33.7664H177.56C180.005 33.7664 180.249 33.0325 180.249 30.5862V5.13727C180.249 2.69095 180.005 1.95705 177.56 1.95705H177.315V0.733887H186.855C192.968 0.733887 198.596 3.18021 198.596 9.29957C198.596 13.313 195.612 16.1032 191.749 17.3725L197.522 30.9762C198.451 33.2275 198.844 33.7664 200.8 33.7664H201.045V34.9896H194.442L187.302 18.1064H184.662H184.654ZM184.654 5.13727V16.6386H186.855C191.062 16.6386 193.702 14.1922 193.702 9.29957C193.702 4.40692 190.768 2.20523 186.855 2.20523C185.143 2.20523 184.654 2.93913 184.654 5.14082V5.13727Z" fill="white"/>
  <path d="M237.344 0.733887L239.644 9.05494L238.666 9.29957C235.732 4.40692 234.02 2.20523 231.819 2.20523H228.151C225.462 2.20523 225.462 2.93913 225.462 5.14082V16.6421H227.662C229.863 16.6421 231.819 16.1528 231.819 13.2172V12.9726H233.042V21.7829H231.819V21.5383C231.819 18.6027 229.863 18.1134 227.662 18.1134H225.462V30.5933C225.462 33.0396 225.706 33.7735 228.151 33.7735H228.396V34.9966H218.122V33.7735H218.367C220.812 33.7735 221.057 33.0396 221.057 30.5933V5.13727C221.057 2.69095 220.812 1.95705 218.367 1.95705H218.122V0.733887H237.348H237.344Z" fill="white"/>
  <path d="M239.888 33.7664H241.6C245.757 33.7664 246.246 33.0325 246.246 30.0969V5.62654C246.246 2.69095 245.757 1.95705 241.6 1.95705H239.888V0.733887H257.009V1.95705H255.297C251.14 1.95705 250.651 2.69095 250.651 5.62654V30.0969C250.651 33.0325 251.14 33.7664 255.297 33.7664H257.009V34.9896H239.888V33.7664Z" fill="white"/>
  <path d="M258.965 34.9895V33.7664H259.209C261.655 33.7664 261.899 33.0325 261.899 30.5862V5.13727C261.899 2.69095 261.655 1.95705 259.209 1.95705H258.965V0.733887H269.239V1.95705H268.994C266.549 1.95705 266.304 2.69095 266.304 5.13727V30.5862C266.304 32.7879 266.304 33.5218 268.994 33.5218H272.662C274.863 33.5218 276.574 31.3201 279.509 26.4274L280.487 26.672L278.187 34.9931H258.961L258.965 34.9895Z" fill="white"/>
  <path d="M302.008 30.5862C302.008 33.0325 302.253 33.7664 304.698 33.7664H304.942V34.9896H294.669V33.7664H294.913C297.359 33.7664 297.603 33.0325 297.603 30.5862V6.8497L292.468 34.9896H291.49L285.866 6.8497V29.8487C285.866 32.0504 286.355 33.7628 289.289 33.7628V34.986H280.976V33.7628C283.91 33.7628 284.399 32.0504 284.399 29.8487V5.87117C284.399 3.66948 283.91 1.95705 280.976 1.95705V0.733887H288.9L293.255 22.5097L297.267 0.733887H304.946V1.95705H304.701C302.256 1.95705 302.012 2.69095 302.012 5.13727V30.5862H302.008Z" fill="white"/>
  <path d="M341.249 0.733887L343.549 9.05494L342.571 9.29957C339.637 4.40692 337.925 2.20523 335.724 2.20523H332.056C329.367 2.20523 329.367 2.93913 329.367 5.14082V16.6421H331.567C333.768 16.6421 335.724 16.1528 335.724 13.2172V12.9726H336.947V21.7829H335.724V21.5383C335.724 18.6027 333.768 18.1134 331.567 18.1134H329.367V30.5933C329.367 33.0396 329.611 33.7735 332.056 33.7735H332.301V34.9966H322.027V33.7735H322.272C324.717 33.7735 324.962 33.0396 324.962 30.5933V5.13727C324.962 2.69095 324.717 1.95705 322.272 1.95705H322.027V0.733887H341.253H341.249Z" fill="white"/>
  <path d="M344.279 34.9896V33.7664H344.524C346.969 33.7664 347.213 33.0325 347.213 30.5862V5.13727C347.213 2.69095 346.969 1.95705 344.524 1.95705H344.279V0.733887H363.504L365.804 9.05494L364.826 9.29957C361.892 4.40692 360.18 2.20523 357.979 2.20523H354.312C351.622 2.20523 351.622 2.93913 351.622 5.14082V16.6421H354.067C356.268 16.6421 358.224 16.1528 358.224 13.2172V12.9726H359.447V21.7829H358.224V21.5383C358.224 18.6027 356.268 18.1134 354.067 18.1134H351.622V30.5933C351.622 32.7949 351.622 33.5288 354.312 33.5288H358.713C360.914 33.5288 362.625 31.3271 365.56 26.4345L366.538 26.6791L364.238 35.0002H344.279V34.9896Z" fill="white"/>
  <path d="M382.336 1.41816L385.026 0.244633L386.837 10.5227L385.614 10.7674C383.169 3.91767 380.968 1.4678 377.3 1.4678C374.61 1.4678 372.165 3.18022 372.165 6.60508C372.165 14.1922 387.329 16.3939 387.329 26.6685C387.329 32.7843 382.928 35.7235 378.034 35.7235C374.905 35.7235 372.994 34.7946 372.261 34.3053L369.571 35.4788L367.76 25.2007L368.983 24.9561C371.428 31.8058 373.873 34.2557 378.034 34.2557C381.213 34.2557 383.413 32.2986 383.413 28.6291C383.413 19.3295 368.249 17.6171 368.249 8.56569C368.249 2.93914 372.651 0 377.3 0C379.99 0 381.656 0.928895 382.34 1.41816H382.336Z" fill="white"/>
  <path d="M409.974 0.733892L412.274 9.05495L411.296 9.29958C408.362 4.40693 406.65 2.20523 404.45 2.20523H402.493V30.5897C402.493 33.036 402.982 33.7699 405.672 33.7699H406.161V34.9931H394.421V33.7699H394.91C397.599 33.7699 398.088 33.036 398.088 30.5897V2.20169H396.132C393.932 2.20169 392.22 4.40338 389.282 9.29603L388.304 9.0514L390.604 0.730347H409.974V0.733892Z" fill="white"/>
  <path d="M412.515 33.7664H414.227C418.384 33.7664 418.873 33.0325 418.873 30.0969V5.62654C418.873 2.69095 418.384 1.95705 414.227 1.95705H412.515V0.733887H429.636V1.95705H427.924C423.767 1.95705 423.278 2.69095 423.278 5.62654V30.0969C423.278 33.0325 423.767 33.7664 427.924 33.7664H429.636V34.9896H412.515V33.7664Z" fill="white"/>
  <path d="M442.744 35.4788H441.766L434.476 5.48118C433.842 2.93558 433.303 1.95705 430.61 1.95705V0.733887H441.419V1.95705H441.174C438.974 1.95705 438.24 2.49595 438.825 4.89264L443.715 25.0553L448.411 5.72581C449.045 3.08449 448.46 1.95705 446.015 1.95705H445.771V0.733887H454.332V1.95705C451.398 1.95705 450.47 3.52412 449.931 5.87117L442.741 35.4788H442.744Z" fill="white"/>
  <path d="M458.592 0.244629H459.57L466.86 30.2423C467.494 32.7879 468.033 33.7664 470.723 33.7664V34.9896H459.914V33.7664H460.158C462.359 33.7664 463.093 33.2275 462.508 30.8308L460.796 23.7365H454.439L452.922 30.0012C452.288 32.6425 452.872 33.7699 455.318 33.7699H455.562V34.9931H447V33.7699C449.935 33.7699 450.863 32.2029 451.402 29.8558L458.592 0.244629ZM454.779 22.2651H460.403L457.564 10.7142L454.775 22.2651H454.779Z" fill="white"/>
  <path d="M470.726 34.9895V33.7664H470.971C473.416 33.7664 473.66 33.0325 473.66 30.5862V5.13727C473.66 2.69095 473.416 1.95705 470.971 1.95705H470.726V0.733887H481V1.95705H480.755C478.31 1.95705 478.065 2.69095 478.065 5.13727V30.5862C478.065 32.7879 478.065 33.5218 480.755 33.5218H484.423C486.624 33.5218 488.335 31.3201 491.27 26.4274L492.248 26.672L489.948 34.9931H470.723L470.726 34.9895Z" fill="white"/>
</svg>
