<svg width="594" height="36" viewBox="0 0 594 36" fill="none" xmlns="http://www.w3.org/2000/svg">
  <path d="M230.116 0.768921H210.768V2.00027H211.012C213.475 2.00027 213.719 2.73804 213.719 5.20073V30.7992C213.719 33.2619 213.475 33.9997 211.012 33.9997H210.768V35.231H221.107V33.9997H220.863C218.4 33.9997 218.156 33.2619 218.156 30.7992V18.2468H220.369C222.583 18.2468 224.552 18.7403 224.552 21.6914V21.9356H225.783V13.0772H224.552V13.3214C224.552 16.2725 222.583 16.766 220.369 16.766H218.156V5.20073C218.156 2.98742 218.156 2.24446 220.863 2.24446H224.557C226.77 2.24446 228.495 4.45777 231.452 9.38315L232.434 9.13896L230.122 0.768921H230.116Z" fill="#F2F2F2"/>
  <path d="M232.184 2.00027H233.909C238.091 2.00027 238.585 2.73804 238.585 5.69431V30.3057C238.585 33.2619 238.091 33.9997 233.909 33.9997H232.184V35.231H249.413V33.9997H247.688C243.505 33.9997 243.012 33.2619 243.012 30.3057V5.68911C243.012 2.73804 243.505 1.99507 247.688 1.99507H249.413V0.768921H232.184V2.00027Z" fill="#F2F2F2"/>
  <path d="M264.677 33.7503H260.983C258.276 33.7503 258.276 33.0125 258.276 30.7992V5.20073C258.276 2.73804 258.52 2.00027 260.983 2.00027H261.227V0.768921H250.888V2.00027H251.132C253.595 2.00027 253.839 2.73804 253.839 5.20073V30.7992C253.839 33.2619 253.595 33.9997 251.132 33.9997H250.888V35.231H270.236L272.548 26.861L271.561 26.6168C268.61 31.537 266.885 33.7555 264.667 33.7555H264.677V33.7503Z" fill="#F2F2F2"/>
  <path d="M284.909 22.6734L280.529 0.768921H272.554V2.00027C275.505 2.00027 275.998 3.72519 275.998 5.9385V30.0615C275.998 32.2748 275.505 33.9997 272.554 33.9997V35.231H280.924V33.9997C277.967 33.9997 277.479 32.2748 277.479 30.0615V6.92046L283.142 35.2258H284.129L289.299 6.92046V30.794C289.299 33.2567 289.055 33.9945 286.592 33.9945H286.348V35.2258H296.687V33.9945H296.443C293.98 33.9945 293.736 33.2567 293.736 30.794V5.20073C293.736 2.73804 293.98 2.00027 296.443 2.00027H296.687V0.768921H288.956L284.919 22.6734H284.909Z" fill="#F2F2F2"/>
  <path d="M14.7917 16.8129V16.5687C14.7917 16.5687 21.4472 15.0412 21.4472 8.62989C21.4472 4.43708 17.9974 0.743042 10.8431 0.743042H0V1.97439H0.244191C2.70688 1.97439 2.95627 2.71216 2.95627 5.18005V30.8201C2.95627 33.288 2.71208 34.0258 0.244191 34.0258H0V35.2571H10.5989C17.9974 35.2571 22.6786 31.3137 22.6786 25.7908C22.6786 17.7533 14.7865 16.8181 14.7865 16.8181L14.7917 16.8129ZM7.39847 5.18005C7.39847 2.96154 7.64266 2.22378 9.61697 2.22378H10.8483C14.5476 2.22378 16.7661 4.44228 16.7661 8.87928C16.7661 13.5657 14.5476 16.0284 11.0977 16.0284H7.39847V5.18005ZM10.5989 33.7764H9.61178C7.39327 33.7764 7.39327 33.0386 7.39327 30.8201V17.5091H11.0925C15.1866 17.5091 17.5038 20.4654 17.5038 25.7908C17.5038 31.1163 14.7917 33.7764 10.5989 33.7764Z" fill="#F2F2F2"/>
  <path d="M44.1311 26.6272C41.1748 31.5578 39.4447 33.7763 37.2262 33.7763H33.5269C30.8149 33.7763 30.8149 33.0386 30.8149 30.8201V5.17999C30.8149 2.7121 31.059 1.97434 33.5269 1.97434H33.7711V0.737793H23.4164V1.96914H23.6606C26.1285 1.96914 26.3727 2.70691 26.3727 5.1748V30.8149C26.3727 33.2828 26.1285 34.0205 23.6606 34.0205H23.4164V35.2519H42.7958L45.113 26.8714L44.1259 26.6272H44.1311Z" fill="#F2F2F2"/>
  <path d="M64.1548 30.4719L56.8031 0.244141H55.8159L48.5681 30.077C48.0278 32.4462 47.0874 34.0204 44.1311 34.0204V35.2518H52.7609V34.0204H52.5167C50.0488 34.0204 49.4617 32.8878 50.1008 30.2225L51.6283 23.9099H58.0396L59.7645 31.059C60.3568 33.4749 59.6191 34.0152 57.3954 34.0152H57.1512V35.2466H68.0462V34.0152C65.3342 34.0152 64.7938 33.0281 64.1496 30.4667H64.1548V30.4719ZM51.9712 22.4344L54.782 10.7963L57.6395 22.4344H51.966H51.9712Z" fill="#F2F2F2"/>
  <path d="M78.4062 1.48079C81.1182 1.48079 82.8432 3.94867 85.311 10.8484L86.5424 10.6042L84.7188 0.24944L82.0067 1.43403C81.3676 0.940449 79.8349 0.00524902 77.6684 0.00524902C71.7507 0.00524902 66.8201 6.16718 66.8201 18.0027C66.8201 29.8381 71.7507 36.0001 77.6684 36.0001C85.0669 36.0001 86.5424 26.1389 86.5424 26.1389L85.311 25.8947C85.311 25.8947 83.8303 34.0309 78.6555 34.0309C74.7121 34.0309 72 29.3445 72 18.0078C72 6.67115 74.4679 1.49118 78.4113 1.49118V1.48079H78.4062Z" fill="#F2F2F2"/>
  <path d="M107.745 31.0642L100.3 13.0149L105.033 5.91257C106.712 3.39792 108.239 1.96914 111.195 1.96914V0.737793H102.565V1.96914H102.81C105.766 1.96914 104.732 3.6473 103.303 5.81385L94.4292 19.0781V5.17999C94.4292 2.7121 94.6734 1.97434 97.1413 1.97434H97.3855V0.737793H87.0308V1.96914H87.275C89.7428 1.96914 89.987 2.70691 89.987 5.1748V30.8149C89.987 33.2828 89.7428 34.0205 87.275 34.0205H87.0308V35.2519H97.3855V34.0205H97.1413C94.6734 34.0205 94.4292 33.2828 94.4292 30.8149V21.7434L97.3387 17.4051L102.96 31.0642C103.994 33.5789 103.303 34.0205 101.48 34.0205H101.235V35.2519H111.689V34.0205H111.445C109.47 34.0205 108.681 33.3295 107.745 31.0642Z" fill="#F2F2F2"/>
  <path d="M115.388 6.65556C115.388 3.20571 117.856 1.48079 120.568 1.48079C124.267 1.48079 126.486 3.94867 128.948 10.8484L130.18 10.6042L128.356 0.24944L125.644 1.43403C124.953 0.940449 123.275 0.00524902 120.563 0.00524902C115.876 0.00524902 111.439 2.96152 111.439 8.63507C111.439 17.7585 126.725 19.4834 126.725 28.851C126.725 32.5502 124.506 34.5193 121.301 34.5193C117.108 34.5193 114.645 32.0514 112.177 25.1517L110.946 25.3959L112.769 35.7507L115.482 34.5661C116.219 35.0597 118.142 35.9949 121.301 35.9949C126.231 35.9949 130.668 33.0386 130.668 26.8715C130.668 16.5167 115.383 14.2982 115.383 6.65556H115.388Z" fill="#F2F2F2"/>
  <path d="M147.439 2.21858C149.658 2.21858 151.383 4.43708 154.344 9.36766L155.331 9.12347L153.014 0.743042H133.489L131.172 9.12347L132.159 9.36766C135.116 4.43708 136.846 2.21858 139.064 2.21858H141.038V30.8201C141.038 33.288 140.545 34.0258 137.833 34.0258H137.339V35.2571H149.175V34.0258H148.681C145.969 34.0258 145.475 33.288 145.475 30.8201V2.21858H147.45H147.439Z" fill="#F2F2F2"/>
  <path d="M195.171 31.2148L189.352 17.509C193.249 16.2257 196.257 13.4149 196.257 9.37273C196.257 3.2108 190.588 0.742914 184.421 0.742914H174.804V1.97426H175.049C177.511 1.97426 177.761 2.71203 177.761 5.17992V30.82C177.761 33.2411 177.516 33.9945 175.184 34.0204C172.57 33.9945 172.03 33.0021 171.401 30.4719L164.055 0.244141H163.068L155.82 30.077C155.279 32.4462 154.339 34.0204 151.383 34.0204V35.2518H160.013V34.0204H159.768C157.301 34.0204 156.713 32.8878 157.352 30.2225L158.88 23.9099H165.291L167.016 31.059C167.609 33.4749 166.871 34.0152 164.647 34.0152H164.403V35.2466H185.164V34.0152H184.92C182.452 34.0152 182.208 33.2775 182.208 30.8096V18.2363H184.868L192.069 35.2466H198.725V34.0152H198.481C196.506 34.0152 196.111 33.4749 195.176 31.2045V31.2148H195.171ZM159.223 22.4344L162.034 10.7963L164.891 22.4344H159.223ZM184.421 16.766H182.203V5.17992C182.203 2.96142 182.696 2.22365 184.421 2.22365C188.365 2.22365 191.326 4.44215 191.326 9.37273C191.326 14.3033 188.666 16.7712 184.421 16.7712V16.766Z" fill="#F2F2F2"/>
  <path d="M308.725 0.737793V1.96914H308.969C311.432 1.96914 311.681 2.70691 311.681 5.1748V30.8149C311.681 33.2828 311.437 34.0205 308.969 34.0205H308.725V35.2519H319.08V34.0205H318.836C316.368 34.0205 316.124 33.2828 316.124 30.8149V18.2416H318.342C320.561 18.2416 322.535 18.7352 322.535 21.6915V21.9357H323.766V13.0616H322.535V13.3058C322.535 16.2621 320.561 16.7557 318.342 16.7557H316.124V5.17999C316.124 2.96149 316.124 2.22372 318.836 2.22372H322.535C324.753 2.22372 326.478 4.44222 329.44 9.37281L330.427 9.12861L328.11 0.748184H308.73V0.737793H308.725Z" fill="#F2F2F2"/>
  <path d="M345.213 33.7763H340.777C338.064 33.7763 338.064 33.0385 338.064 30.82V18.2468H340.532C342.751 18.2468 344.725 18.7404 344.725 21.6966V21.9408H345.956V13.0668H344.725V13.311C344.725 16.2673 342.751 16.7609 340.532 16.7609H338.064V5.17998C338.064 2.96148 338.064 2.22371 340.777 2.22371H344.476C346.694 2.22371 348.419 4.44221 351.381 9.37279L352.368 9.1286L350.051 0.748169H330.671V1.97952H330.915C333.378 1.97952 333.627 2.71728 333.627 5.18517V30.8252C333.627 33.2931 333.383 34.0309 330.915 34.0309H330.671V35.2622H350.788L353.106 26.8818L352.118 26.6376C349.162 31.5682 347.432 33.7867 345.213 33.7867V33.7763Z" fill="#F2F2F2"/>
  <path d="M358.28 6.65556C358.28 3.20571 360.748 1.48079 363.46 1.48079C367.159 1.48079 369.378 3.94867 371.841 10.8484L373.072 10.6042L371.248 0.24944L368.536 1.43403C367.845 0.940449 366.167 0.00524902 363.455 0.00524902C358.769 0.00524902 354.332 2.96152 354.332 8.63507C354.332 17.7585 369.617 19.4834 369.617 28.851C369.617 32.5502 367.398 34.5193 364.193 34.5193C360 34.5193 357.537 32.0514 355.069 25.1517L353.838 25.3959L355.662 35.7507L358.374 34.5661C359.112 35.0597 361.034 35.9949 364.193 35.9949C369.123 35.9949 373.56 33.0386 373.56 26.8715C373.56 16.5167 358.275 14.2982 358.275 6.65556H358.28Z" fill="#F2F2F2"/>
  <path d="M395.901 0.737793H376.376L374.059 9.11822L375.046 9.36241C378.003 4.43183 379.733 2.21333 381.951 2.21333H383.926V30.8149C383.926 33.2828 383.432 34.0205 380.72 34.0205H380.226V35.2519H392.062V34.0205H391.568C388.856 34.0205 388.363 33.2828 388.363 30.8149V2.21853H390.337C392.555 2.21853 394.28 4.43703 397.242 9.36761L398.229 9.12342L395.912 0.742989H395.901V0.737793Z" fill="#F2F2F2"/>
  <path d="M397.974 1.97434H399.699C403.892 1.97434 404.386 2.7121 404.386 5.67357V30.3265C404.386 33.2827 403.892 34.0257 399.699 34.0257H397.974V35.2571H415.234V34.0257H413.509C409.316 34.0257 408.823 33.2879 408.823 30.3265V5.66837C408.823 2.7121 409.316 1.96914 413.509 1.96914H415.234V0.737793H397.974V1.96914V1.97434Z" fill="#F2F2F2"/>
  <path d="M439.643 1.97434V0.737793H431.013V1.96914H431.257C433.725 1.96914 434.312 3.10177 433.673 5.76709L428.94 25.2452L424.009 4.93061C423.417 2.51467 424.155 1.97434 426.378 1.97434H426.623V0.737793H415.727V1.96914C418.44 1.96914 418.98 2.9563 419.624 5.5177L426.971 35.7454H427.958L435.206 5.91257C435.746 3.54339 436.686 1.96914 439.643 1.96914V1.97434Z" fill="#F2F2F2"/>
  <path d="M470.956 33.7763H467.257C464.545 33.7763 464.545 33.0385 464.545 30.82V5.17992C464.545 2.71203 464.789 1.97426 467.257 1.97426H467.501V0.737718H457.146V1.96906H457.391C459.858 1.96906 460.103 2.70683 460.103 5.17472V30.8148C460.103 33.2307 459.858 33.9893 457.526 34.0152C454.912 33.9893 454.372 32.9969 453.743 30.4667L446.397 0.244141H445.41L438.162 30.077C437.622 32.4462 436.681 34.0204 433.725 34.0204V35.2518H442.355V34.0204H442.11C439.643 34.0204 439.055 32.8878 439.695 30.2225L441.222 23.9099H447.633L449.358 31.059C449.951 33.4749 449.213 34.0152 446.989 34.0152H446.745V35.2466H476.526L478.843 26.8662L477.856 26.622C474.9 31.5526 473.17 33.7711 470.951 33.7711L470.956 33.7763ZM441.565 22.4344L444.376 10.7963L447.233 22.4344H441.565Z" fill="#F2F2F2"/>
  <path d="M498.207 15.6646C497.786 16.3764 497.573 17.1557 497.573 17.9974C497.573 18.8391 497.781 19.6184 498.207 20.3302C498.628 21.042 499.194 21.6083 499.906 22.0291C500.618 22.45 501.392 22.663 502.239 22.663C503.086 22.663 503.86 22.4552 504.571 22.0291C505.283 21.6083 505.85 21.042 506.27 20.3302C506.691 19.6184 506.904 18.8443 506.904 17.9974C506.904 17.1505 506.691 16.3764 506.27 15.6646C505.85 14.9528 505.283 14.3865 504.571 13.9656C503.86 13.5448 503.08 13.3318 502.239 13.3318C501.397 13.3318 500.618 13.5448 499.906 13.9656C499.194 14.3865 498.628 14.9528 498.207 15.6646Z" fill="#F2F2F2"/>
  <path d="M511.243 27.2974C510.531 26.8766 509.751 26.6636 508.91 26.6636C508.068 26.6636 507.289 26.8766 506.577 27.2974C506.203 27.5208 505.87 27.7858 505.574 28.0872C505.278 27.7858 504.951 27.5208 504.577 27.2974C503.865 26.8766 503.086 26.6636 502.244 26.6636C501.402 26.6636 500.623 26.8766 499.911 27.2974C499.537 27.5208 499.204 27.7858 498.908 28.0872C498.877 28.056 498.851 28.0248 498.82 27.9988C499.121 27.7027 499.386 27.3754 499.61 26.9961C500.031 26.2843 500.244 25.5102 500.244 24.6633C500.244 23.8164 500.031 23.0423 499.61 22.3305C499.189 21.6187 498.623 21.0524 497.911 20.6315C497.199 20.2107 496.42 19.9977 495.578 19.9977C494.736 19.9977 493.957 20.2107 493.245 20.6315C492.533 21.0524 491.967 21.6187 491.546 22.3305C491.125 23.0423 490.912 23.8216 490.912 24.6633C490.912 25.505 491.12 26.2843 491.546 26.9961C491.77 27.3702 492.035 27.7027 492.336 27.9988C492.035 28.295 491.77 28.6223 491.546 28.9964C491.125 29.7082 490.912 30.4875 490.912 31.3292C490.912 32.1709 491.12 32.9502 491.546 33.662C491.967 34.3738 492.533 34.9401 493.245 35.3609C493.957 35.7818 494.731 35.9948 495.578 35.9948C496.425 35.9948 497.199 35.7818 497.911 35.3609C498.285 35.1375 498.617 34.8726 498.908 34.5712C499.204 34.8726 499.532 35.1375 499.911 35.3609C500.623 35.7818 501.397 35.9948 502.244 35.9948C503.091 35.9948 503.865 35.7818 504.577 35.3609C504.951 35.1375 505.283 34.8726 505.574 34.5712C505.87 34.8726 506.198 35.1375 506.577 35.3609C507.289 35.7818 508.063 35.9948 508.91 35.9948C509.757 35.9948 510.531 35.7818 511.243 35.3609C511.954 34.9401 512.521 34.3738 512.942 33.662C513.362 32.9502 513.575 32.1761 513.575 31.3292C513.575 30.4823 513.362 29.7082 512.942 28.9964C512.521 28.2846 511.954 27.7183 511.243 27.2974Z" fill="#F2F2F2"/>
  <path d="M493.24 8.69736C493.952 9.1182 494.726 9.33122 495.573 9.33122C496.42 9.33122 497.194 9.12339 497.906 8.69736C498.28 8.47395 498.612 8.20898 498.903 7.90763C499.199 8.20898 499.527 8.47395 499.906 8.69736C500.618 9.1182 501.392 9.33122 502.239 9.33122C503.086 9.33122 503.86 9.12339 504.571 8.69736C505.283 8.27652 505.85 7.7102 506.27 6.99841C506.691 6.28662 506.904 5.51248 506.904 4.66561C506.904 3.81873 506.691 3.04459 506.27 2.3328C505.85 1.62101 505.283 1.0547 504.571 0.633858C503.86 0.213018 503.08 0 502.239 0C501.397 0 500.618 0.213018 499.906 0.633858C499.532 0.857266 499.199 1.12224 498.903 1.42358C498.607 1.12224 498.28 0.857266 497.906 0.633858C497.194 0.213018 496.414 0 495.573 0C494.731 0 493.952 0.213018 493.24 0.633858C492.528 1.0547 491.962 1.62101 491.541 2.3328C491.12 3.04459 490.907 3.82393 490.907 4.66561C490.907 5.50729 491.115 6.28662 491.541 6.99841C491.962 7.7102 492.528 8.27652 493.24 8.69736Z" fill="#F2F2F2"/>
  <path d="M511.243 7.29975C510.531 6.87891 509.751 6.66589 508.91 6.66589C508.068 6.66589 507.289 6.87891 506.577 7.29975C505.865 7.72059 505.299 8.28691 504.878 8.9987C504.457 9.71049 504.244 10.4898 504.244 11.3315C504.244 12.1732 504.457 12.9525 504.878 13.6643C505.299 14.3761 505.865 14.9424 506.577 15.3633C507.289 15.7841 508.063 15.9971 508.91 15.9971C509.757 15.9971 510.531 15.7893 511.243 15.3633C511.954 14.9424 512.521 14.3761 512.941 13.6643C513.362 12.9525 513.575 12.1784 513.575 11.3315C513.575 10.4846 513.362 9.71049 512.941 8.9987C512.521 8.28691 511.954 7.72059 511.243 7.29975Z" fill="#F2F2F2"/>
  <path d="M526.569 8.69736C527.281 9.1182 528.055 9.33122 528.902 9.33122C529.749 9.33122 530.523 9.12339 531.235 8.69736C531.947 8.27652 532.513 7.7102 532.934 6.99841C533.355 6.28662 533.568 5.51248 533.568 4.66561C533.568 3.81873 533.355 3.04459 532.934 2.3328C532.513 1.62101 531.947 1.0547 531.235 0.633858C530.523 0.213018 529.744 0 528.902 0C528.061 0 527.281 0.213018 526.569 0.633858C525.858 1.0547 525.291 1.62101 524.87 2.3328C524.45 3.04459 524.237 3.82393 524.237 4.66561C524.237 5.50729 524.444 6.28662 524.87 6.99841C525.291 7.7102 525.858 8.27652 526.569 8.69736Z" fill="#F2F2F2"/>
  <path d="M539.605 13.6643C540.026 12.9525 540.239 12.1784 540.239 11.3315C540.239 10.4846 540.026 9.71049 539.605 8.9987C539.184 8.28691 538.618 7.72059 537.906 7.29975C537.194 6.87891 536.415 6.66589 535.573 6.66589C534.732 6.66589 533.952 6.87891 533.241 7.29975C532.529 7.72059 531.962 8.28691 531.542 8.9987C531.121 9.71049 530.908 10.4898 530.908 11.3315C530.908 12.1732 531.121 12.9525 531.542 13.6643C531.765 14.0384 532.03 14.3709 532.331 14.667C532.03 14.9632 531.765 15.2905 531.542 15.6646C531.121 16.3764 530.908 17.1557 530.908 17.9974C530.908 18.8391 531.121 19.6184 531.542 20.3302C531.765 20.7043 532.03 21.0368 532.331 21.3329C532.03 21.6291 531.765 21.9564 531.542 22.3305C531.121 23.0423 530.908 23.8216 530.908 24.6633C530.908 25.505 531.121 26.2843 531.542 26.9961C531.962 27.7079 532.529 28.2742 533.241 28.695C533.952 29.1159 534.726 29.3289 535.573 29.3289C536.42 29.3289 537.194 29.1211 537.906 28.695C538.618 28.2742 539.184 27.7079 539.605 26.9961C540.026 26.2843 540.239 25.5102 540.239 24.6633C540.239 23.8164 540.026 23.0423 539.605 22.3305C539.382 21.9564 539.117 21.6239 538.815 21.3329C539.117 21.0368 539.382 20.7095 539.605 20.3302C540.026 19.6184 540.239 18.8443 540.239 17.9974C540.239 17.1505 540.026 16.3764 539.605 15.6646C539.382 15.2905 539.117 14.958 538.815 14.667C539.117 14.3709 539.382 14.0436 539.605 13.6643Z" fill="#F2F2F2"/>
  <path d="M531.235 27.2974C530.523 26.8766 529.744 26.6636 528.902 26.6636C528.061 26.6636 527.281 26.8766 526.569 27.2974C525.858 27.7183 525.291 28.2846 524.87 28.9964C524.45 29.7082 524.237 30.4875 524.237 31.3292C524.237 32.1709 524.444 32.9502 524.87 33.662C525.291 34.3738 525.858 34.9401 526.569 35.3609C527.281 35.7818 528.055 35.9948 528.902 35.9948C529.749 35.9948 530.523 35.7818 531.235 35.3609C531.947 34.9401 532.513 34.3738 532.934 33.662C533.355 32.9502 533.568 32.1761 533.568 31.3292C533.568 30.4823 533.355 29.7082 532.934 28.9964C532.513 28.2846 531.947 27.7183 531.235 27.2974Z" fill="#F2F2F2"/>
  <path d="M526.273 26.9961C526.694 26.2843 526.907 25.5102 526.907 24.6633C526.907 23.8164 526.694 23.0423 526.273 22.3305C526.05 21.9564 525.785 21.6239 525.484 21.3329C525.785 21.0368 526.05 20.7095 526.273 20.3302C526.694 19.6184 526.907 18.8443 526.907 17.9974C526.907 17.1505 526.694 16.3764 526.273 15.6646C526.05 15.2905 525.785 14.958 525.484 14.667C525.785 14.3709 526.05 14.0436 526.273 13.6643C526.694 12.9525 526.907 12.1784 526.907 11.3315C526.907 10.4846 526.694 9.71049 526.273 8.9987C525.853 8.28691 525.286 7.72059 524.574 7.29975C523.863 6.87891 523.083 6.66589 522.242 6.66589C521.4 6.66589 520.621 6.87891 519.909 7.29975C519.197 7.72059 518.631 8.28691 518.21 8.9987C517.789 9.71049 517.576 10.4898 517.576 11.3315C517.576 12.1732 517.784 12.9525 518.21 13.6643C518.433 14.0384 518.698 14.3709 519 14.667C518.698 14.9632 518.433 15.2905 518.21 15.6646C517.789 16.3764 517.576 17.1557 517.576 17.9974C517.576 18.8391 517.784 19.6184 518.21 20.3302C518.433 20.7043 518.698 21.0368 519 21.3329C518.698 21.6291 518.433 21.9564 518.21 22.3305C517.789 23.0423 517.576 23.8216 517.576 24.6633C517.576 25.505 517.784 26.2843 518.21 26.9961C518.631 27.7079 519.197 28.2742 519.909 28.695C520.621 29.1159 521.395 29.3289 522.242 29.3289C523.088 29.3289 523.863 29.1211 524.574 28.695C525.286 28.2742 525.853 27.7079 526.273 26.9961Z" fill="#F2F2F2"/>
  <path d="M551.534 15.6646C551.113 16.3764 550.9 17.1557 550.9 17.9974C550.9 18.8391 551.108 19.6184 551.534 20.3302C551.955 21.042 552.521 21.6083 553.233 22.0291C553.945 22.45 554.719 22.663 555.566 22.663C556.413 22.663 557.187 22.4552 557.899 22.0291C558.61 21.6083 559.177 21.042 559.598 20.3302C560.018 19.6184 560.231 18.8443 560.231 17.9974C560.231 17.1505 560.018 16.3764 559.598 15.6646C559.177 14.9528 558.61 14.3865 557.899 13.9656C557.187 13.5448 556.408 13.3318 555.566 13.3318C554.724 13.3318 553.945 13.5448 553.233 13.9656C552.521 14.3865 551.955 14.9528 551.534 15.6646Z" fill="#F2F2F2"/>
  <path d="M546.567 8.69736C547.279 9.1182 548.053 9.33122 548.9 9.33122C549.747 9.33122 550.521 9.12339 551.233 8.69736C551.607 8.47395 551.939 8.20898 552.23 7.90763C552.526 8.20898 552.854 8.47395 553.233 8.69736C553.945 9.1182 554.719 9.33122 555.566 9.33122C556.413 9.33122 557.187 9.12339 557.899 8.69736C558.61 8.27652 559.177 7.7102 559.598 6.99841C560.018 6.28662 560.232 5.51248 560.232 4.66561C560.232 3.81873 560.018 3.04459 559.598 2.3328C559.177 1.62101 558.61 1.0547 557.899 0.633858C557.187 0.213018 556.408 0 555.566 0C554.724 0 553.945 0.213018 553.233 0.633858C552.859 0.857266 552.526 1.12224 552.23 1.42358C551.934 1.12224 551.607 0.857266 551.233 0.633858C550.521 0.213018 549.742 0 548.9 0C548.058 0 547.279 0.213018 546.567 0.633858C545.855 1.0547 545.289 1.62101 544.868 2.3328C544.447 3.04459 544.234 3.82393 544.234 4.66561C544.234 5.50729 544.442 6.28662 544.868 6.99841C545.289 7.7102 545.855 8.27652 546.567 8.69736Z" fill="#F2F2F2"/>
  <path d="M564.565 27.2974C563.853 26.8766 563.073 26.6636 562.232 26.6636C561.39 26.6636 560.611 26.8766 559.899 27.2974C559.525 27.5208 559.192 27.7858 558.896 28.0872C558.6 27.7858 558.273 27.5208 557.899 27.2974C557.187 26.8766 556.408 26.6636 555.566 26.6636C554.724 26.6636 553.945 26.8766 553.233 27.2974C552.859 27.5208 552.526 27.7858 552.23 28.0872C552.199 28.056 552.173 28.0248 552.142 27.9988C552.443 27.7027 552.708 27.3754 552.932 26.9961C553.353 26.2843 553.566 25.5102 553.566 24.6633C553.566 23.8164 553.353 23.0423 552.932 22.3305C552.511 21.6187 551.945 21.0524 551.233 20.6315C550.521 20.2107 549.742 19.9977 548.9 19.9977C548.058 19.9977 547.279 20.2107 546.567 20.6315C545.855 21.0524 545.289 21.6187 544.868 22.3305C544.447 23.0423 544.234 23.8216 544.234 24.6633C544.234 25.505 544.442 26.2843 544.868 26.9961C545.092 27.3702 545.357 27.7027 545.658 27.9988C545.357 28.295 545.092 28.6223 544.868 28.9964C544.447 29.7082 544.234 30.4875 544.234 31.3292C544.234 32.1709 544.442 32.9502 544.868 33.662C545.289 34.3738 545.855 34.9401 546.567 35.3609C547.279 35.7818 548.053 35.9948 548.9 35.9948C549.747 35.9948 550.521 35.7818 551.233 35.3609C551.607 35.1375 551.939 34.8726 552.23 34.5712C552.526 34.8726 552.854 35.1375 553.233 35.3609C553.945 35.7818 554.719 35.9948 555.566 35.9948C556.413 35.9948 557.187 35.7818 557.899 35.3609C558.273 35.1375 558.605 34.8726 558.896 34.5712C559.192 34.8726 559.52 35.1375 559.899 35.3609C560.611 35.7818 561.385 35.9948 562.232 35.9948C563.079 35.9948 563.853 35.7818 564.565 35.3609C565.276 34.9401 565.843 34.3738 566.264 33.662C566.684 32.9502 566.897 32.1761 566.897 31.3292C566.897 30.4823 566.684 29.7082 566.264 28.9964C565.843 28.2846 565.276 27.7183 564.565 27.2974Z" fill="#F2F2F2"/>
  <path d="M564.565 7.29975C563.853 6.87891 563.073 6.66589 562.232 6.66589C561.39 6.66589 560.611 6.87891 559.899 7.29975C559.187 7.72059 558.621 8.28691 558.2 8.9987C557.779 9.71049 557.566 10.4898 557.566 11.3315C557.566 12.1732 557.774 12.9525 558.2 13.6643C558.621 14.3761 559.187 14.9424 559.899 15.3633C560.611 15.7841 561.385 15.9971 562.232 15.9971C563.079 15.9971 563.853 15.7893 564.565 15.3633C565.276 14.9424 565.843 14.3761 566.264 13.6643C566.684 12.9525 566.897 12.1784 566.897 11.3315C566.897 10.4846 566.684 9.71049 566.264 8.9987C565.843 8.28691 565.276 7.72059 564.565 7.29975Z" fill="#F2F2F2"/>
  <path d="M571.532 15.6647C571.111 16.3764 570.898 17.1558 570.898 17.9975C570.898 18.8391 571.106 19.6185 571.532 20.3303C571.953 21.0421 572.519 21.6084 573.231 22.0292C573.943 22.45 574.717 22.6631 575.564 22.6631C576.41 22.6631 577.185 22.4552 577.896 22.0292C578.27 21.8058 578.603 21.5408 578.894 21.2395C579.19 21.5408 579.517 21.8058 579.897 22.0292C580.608 22.45 581.383 22.6631 582.229 22.6631C583.076 22.6631 583.85 22.4552 584.562 22.0292C585.274 21.6084 585.84 21.0421 586.261 20.3303C586.682 19.6185 586.895 18.8443 586.895 17.9975C586.895 17.1506 586.682 16.3764 586.261 15.6647C585.84 14.9529 585.274 14.3865 584.562 13.9657C583.85 13.5449 583.071 13.3318 582.229 13.3318C581.388 13.3318 580.608 13.5449 579.897 13.9657C579.523 14.1891 579.19 14.4541 578.894 14.7554C578.863 14.7243 578.837 14.6931 578.806 14.6671C579.107 14.371 579.372 14.0436 579.595 13.6644C580.016 12.9526 580.229 12.1784 580.229 11.3316C580.229 10.4847 580.016 9.71055 579.595 8.99875C579.372 8.62467 579.107 8.29216 578.806 8.00121C578.837 7.97003 578.868 7.94406 578.894 7.91288C579.19 8.21423 579.517 8.4792 579.897 8.70261C580.608 9.12345 581.383 9.33647 582.229 9.33647C583.076 9.33647 583.85 9.12864 584.562 8.70261C584.936 8.4792 585.269 8.21423 585.56 7.91288C585.856 8.21423 586.183 8.4792 586.562 8.70261C587.274 9.12345 588.048 9.33647 588.895 9.33647C589.742 9.33647 590.516 9.12864 591.228 8.70261C591.94 8.28177 592.506 7.71545 592.927 7.00366C593.348 6.29187 593.561 5.51773 593.561 4.67086C593.561 3.82398 593.348 3.04984 592.927 2.33805C592.506 1.62626 591.94 1.05995 591.228 0.639107C590.516 0.218267 589.737 0.00524902 588.895 0.00524902C588.054 0.00524902 587.274 0.218267 586.562 0.639107C586.188 0.862516 585.856 1.12749 585.56 1.42883C585.264 1.12749 584.936 0.862516 584.562 0.639107C583.85 0.218267 583.071 0.00524902 582.229 0.00524902C581.388 0.00524902 580.608 0.218267 579.897 0.639107C579.523 0.862516 579.19 1.12749 578.894 1.42883C578.598 1.12749 578.27 0.862516 577.896 0.639107C577.185 0.218267 576.405 0.00524902 575.564 0.00524902C574.722 0.00524902 573.943 0.218267 573.231 0.639107C572.519 1.05995 571.953 1.62626 571.532 2.33805C571.111 3.04984 570.898 3.82918 570.898 4.67086C570.898 5.51254 571.106 6.29187 571.532 7.00366C571.755 7.37774 572.02 7.71026 572.322 8.0064C572.02 8.30255 571.755 8.62987 571.532 9.00395C571.111 9.71574 570.898 10.4951 570.898 11.3368C570.898 12.1784 571.106 12.9578 571.532 13.6696C571.755 14.0436 572.02 14.3762 572.322 14.6723C572.02 14.9684 571.755 15.2958 571.532 15.6698V15.6647Z" fill="#F2F2F2"/>
  <path d="M591.228 20.6315C590.516 20.2107 589.737 19.9977 588.895 19.9977C588.054 19.9977 587.274 20.2107 586.563 20.6315C585.851 21.0524 585.284 21.6187 584.864 22.3305C584.443 23.0423 584.23 23.8216 584.23 24.6633C584.23 25.505 584.443 26.2843 584.864 26.9961C585.284 27.7079 585.851 28.2742 586.563 28.695C587.274 29.1159 588.048 29.3289 588.895 29.3289C589.742 29.3289 590.516 29.1211 591.228 28.695C591.94 28.2742 592.506 27.7079 592.927 26.9961C593.348 26.2843 593.561 25.5102 593.561 24.6633C593.561 23.8164 593.348 23.0423 592.927 22.3305C592.506 21.6187 591.94 21.0524 591.228 20.6315Z" fill="#F2F2F2"/>
  <path d="M584.562 27.2974C583.85 26.8766 583.071 26.6636 582.229 26.6636C581.388 26.6636 580.608 26.8766 579.897 27.2974C579.523 27.5208 579.19 27.7858 578.894 28.0872C578.598 27.7858 578.27 27.5208 577.896 27.2974C577.185 26.8766 576.405 26.6636 575.564 26.6636C574.722 26.6636 573.943 26.8766 573.231 27.2974C572.519 27.7183 571.953 28.2846 571.532 28.9964C571.111 29.7082 570.898 30.4875 570.898 31.3292C570.898 32.1709 571.106 32.9502 571.532 33.662C571.953 34.3738 572.519 34.9401 573.231 35.3609C573.943 35.7818 574.717 35.9948 575.564 35.9948C576.41 35.9948 577.185 35.7818 577.896 35.3609C578.27 35.1375 578.603 34.8726 578.894 34.5712C579.19 34.8726 579.517 35.1375 579.897 35.3609C580.608 35.7818 581.383 35.9948 582.229 35.9948C583.076 35.9948 583.85 35.7818 584.562 35.3609C585.274 34.9401 585.84 34.3738 586.261 33.662C586.682 32.9502 586.895 32.1761 586.895 31.3292C586.895 30.4823 586.682 29.7082 586.261 28.9964C585.84 28.2846 585.274 27.7183 584.562 27.2974Z" fill="#F2F2F2"/>
</svg>
