<svg width="613" height="36" viewBox="0 0 613 36" fill="none" xmlns="http://www.w3.org/2000/svg">
  <path d="M532.523 30.8875C532.523 33.7628 530.287 36 527.413 36C526.201 36 525.113 35.6171 524.22 34.9151C523.327 35.6171 522.239 36 521.027 36C519.815 36 518.727 35.6171 517.834 34.9151C516.941 35.6171 515.853 36 514.641 36C511.767 36 509.531 33.7628 509.531 30.8875C509.531 29.675 509.914 28.5866 510.615 27.6931C509.914 26.7997 509.531 25.7112 509.531 24.4987C509.531 21.6234 511.767 19.3862 514.641 19.3862C515.151 19.3862 515.662 19.4501 516.112 19.5777C515.984 19.131 515.92 18.6204 515.92 18.1063C515.92 15.231 518.157 12.9939 521.031 12.9939C521.541 12.9939 522.051 13.0577 522.501 13.1853C522.374 12.7386 522.31 12.2281 522.31 11.714C522.31 11.1999 522.374 10.6929 522.501 10.2427C522.055 10.3703 521.545 10.4341 521.034 10.4341C519.822 10.4341 518.734 10.0512 517.841 9.34921C516.948 10.0512 515.86 10.4341 514.648 10.4341C511.774 10.4341 509.538 8.19695 509.538 5.32164C509.538 2.44632 511.774 0.209167 514.648 0.209167C515.86 0.209167 516.948 0.592071 517.841 1.29406C518.734 0.592071 519.822 0.209167 521.034 0.209167C523.908 0.209167 526.144 2.44632 526.144 5.32164C526.144 5.83217 526.081 6.34271 525.953 6.79298C526.4 6.66534 526.91 6.60152 527.424 6.60152C530.298 6.60152 532.534 8.83867 532.534 11.714C532.534 14.5893 530.298 16.8265 527.424 16.8265C526.913 16.8265 526.403 16.7626 525.953 16.635C526.081 17.0817 526.144 17.5923 526.144 18.1063C526.144 20.9817 523.908 23.2188 521.034 23.2188C520.524 23.2188 520.014 23.155 519.567 23.0274C519.695 23.4741 519.758 23.9846 519.758 24.4987C519.758 25.0128 519.695 25.5198 519.567 25.97C520.014 25.8424 520.524 25.7786 521.038 25.7786C522.25 25.7786 523.338 26.1615 524.231 26.8635C525.124 26.1615 526.212 25.7786 527.424 25.7786C530.298 25.7786 532.534 28.0157 532.534 30.8911L532.523 30.8875Z" fill="white"/>
  <path d="M559.35 18.1063C559.35 19.3189 558.967 20.4073 558.266 21.3008C558.967 22.1942 559.35 23.2826 559.35 24.4952C559.35 27.3705 557.114 29.6076 554.24 29.6076C553.729 29.6076 553.219 29.5438 552.769 29.4162C552.897 29.8629 552.96 30.3734 552.96 30.8875C552.96 33.7628 550.724 36 547.85 36C544.976 36 542.74 33.7628 542.74 30.8875C542.74 30.377 542.804 29.8664 542.931 29.4162C542.485 29.5438 541.975 29.6076 541.461 29.6076C538.587 29.6076 536.351 27.3705 536.351 24.4952C536.351 23.2826 536.733 22.1942 537.435 21.3008C536.733 20.4073 536.351 19.3189 536.351 18.1063C536.351 16.8938 536.733 15.8054 537.435 14.9119C536.733 14.0185 536.351 12.9301 536.351 11.7175C536.351 8.84221 538.587 6.60506 541.461 6.60506C541.971 6.60506 542.481 6.66888 542.931 6.79652C542.804 6.3498 542.74 5.83926 542.74 5.32518C542.74 2.44986 544.976 0.212708 547.85 0.212708C550.724 0.212708 552.96 2.44986 552.96 5.32518C552.96 5.83571 552.897 6.34625 552.769 6.79652C553.216 6.66888 553.726 6.60506 554.24 6.60506C557.114 6.60506 559.35 8.84221 559.35 11.7175C559.35 12.9301 558.967 14.0185 558.266 14.9119C558.967 15.8054 559.35 16.8938 559.35 18.1063ZM547.85 25.775C548.361 25.775 548.871 25.8389 549.317 25.9665C549.19 25.5198 549.126 25.0092 549.126 24.4952C549.126 23.2826 549.509 22.1942 550.21 21.3008C549.509 20.4073 549.126 19.3189 549.126 18.1063C549.126 16.8938 549.509 15.8054 550.21 14.9119C549.509 14.0185 549.126 12.9301 549.126 11.7175C549.126 11.207 549.19 10.6965 549.317 10.2462C548.871 10.3738 548.361 10.4376 547.85 10.4376C547.34 10.4376 546.83 10.3738 546.38 10.2462C546.507 10.6929 546.571 11.2035 546.571 11.7175C546.571 12.9301 546.188 14.0185 545.487 14.9119C546.188 15.8054 546.571 16.8938 546.571 18.1063C546.571 19.3189 546.188 20.4073 545.487 21.3008C546.188 22.1942 546.571 23.2826 546.571 24.4952C546.571 25.0057 546.507 25.5162 546.38 25.9665C546.826 25.8389 547.336 25.775 547.85 25.775Z" fill="white"/>
  <path d="M586.177 30.8875C586.177 33.7628 583.941 36 581.066 36C579.855 36 578.767 35.6171 577.874 34.9151C576.98 35.6171 575.892 36 574.681 36C573.469 36 572.381 35.6171 571.488 34.9151C570.594 35.6171 569.507 36 568.295 36C565.42 36 563.184 33.7628 563.184 30.8875C563.184 29.675 563.567 28.5866 564.269 27.6931C563.567 26.7997 563.184 25.7112 563.184 24.4987C563.184 21.6234 565.42 19.3862 568.295 19.3862C568.805 19.3862 569.315 19.4501 569.765 19.5777C569.638 19.131 569.574 18.6204 569.574 18.1063C569.574 15.231 571.81 12.9939 574.684 12.9939C575.194 12.9939 575.705 13.0577 576.155 13.1853C576.027 12.7386 575.963 12.2281 575.963 11.714C575.963 11.1999 576.027 10.6929 576.155 10.2427C575.708 10.3703 575.198 10.4341 574.688 10.4341C573.476 10.4341 572.388 10.0512 571.495 9.34921C570.602 10.0512 569.514 10.4341 568.302 10.4341C565.428 10.4341 563.191 8.19695 563.191 5.32164C563.191 2.44632 565.428 0.209167 568.302 0.209167C569.514 0.209167 570.602 0.592071 571.495 1.29406C572.388 0.592071 573.476 0.209167 574.688 0.209167C577.562 0.209167 579.798 2.44632 579.798 5.32164C579.798 5.83217 579.734 6.34271 579.606 6.79298C580.053 6.66534 580.563 6.60152 581.077 6.60152C583.951 6.60152 586.187 8.83867 586.187 11.714C586.187 14.5893 583.951 16.8265 581.077 16.8265C580.567 16.8265 580.057 16.7626 579.606 16.635C579.734 17.0817 579.798 17.5923 579.798 18.1063C579.798 20.9817 577.562 23.2188 574.688 23.2188C574.177 23.2188 573.667 23.155 573.22 23.0274C573.348 23.4741 573.412 23.9846 573.412 24.4987C573.412 25.0128 573.348 25.5198 573.22 25.97C573.667 25.8424 574.177 25.7786 574.691 25.7786C575.903 25.7786 576.991 26.1615 577.884 26.8635C578.777 26.1615 579.865 25.7786 581.077 25.7786C583.951 25.7786 586.187 28.0157 586.187 30.8911L586.177 30.8875Z" fill="white"/>
  <path d="M613 24.4987C613 27.374 610.764 29.6112 607.89 29.6112C607.38 29.6112 606.869 29.5473 606.419 29.4197C606.547 29.8664 606.611 30.377 606.611 30.8911C606.611 33.7664 604.374 36.0035 601.5 36.0035C600.288 36.0035 599.2 35.6206 598.307 34.9186C597.414 35.6206 596.326 36.0035 595.114 36.0035C592.24 36.0035 590.004 33.7664 590.004 30.8911C590.004 28.0157 592.24 25.7786 595.114 25.7786C596.326 25.7786 597.414 26.1615 598.307 26.8635C599.2 26.1615 600.288 25.7786 601.5 25.7786C602.011 25.7786 602.521 25.8424 602.967 25.97C602.84 25.5233 602.776 25.0128 602.776 24.4987C602.776 23.9846 602.84 23.4776 602.967 23.0274C602.521 23.155 602.011 23.2188 601.5 23.2188C600.288 23.2188 599.2 22.8359 598.307 22.1339C597.414 22.8359 596.326 23.2188 595.114 23.2188C592.24 23.2188 590.004 20.9817 590.004 18.1063C590.004 16.8938 590.387 15.8054 591.089 14.9119C590.387 14.0185 590.004 12.9301 590.004 11.7175C590.004 10.505 590.387 9.41656 591.089 8.52312C590.387 7.62968 590.004 6.54124 590.004 5.32872C590.004 2.4534 592.24 0.216248 595.114 0.216248C596.326 0.216248 597.414 0.599151 598.307 1.30114C599.2 0.599151 600.288 0.216248 601.5 0.216248C602.712 0.216248 603.8 0.599151 604.693 1.30114C605.586 0.599151 606.674 0.216248 607.886 0.216248C610.76 0.216248 612.996 2.4534 612.996 5.32872C612.996 8.20404 610.76 10.4412 607.886 10.4412C606.674 10.4412 605.586 10.0583 604.693 9.35629C603.8 10.0583 602.712 10.4412 601.5 10.4412C600.99 10.4412 600.48 10.3774 600.03 10.2497C600.157 10.6965 600.221 11.207 600.221 11.7211C600.221 12.2352 600.157 12.7421 600.03 13.1924C600.476 13.0648 600.986 13.001 601.5 13.001C604.374 13.001 606.611 15.2381 606.611 18.1134C606.611 18.624 606.547 19.1345 606.419 19.5848C606.866 19.4571 607.376 19.3933 607.89 19.3933C610.764 19.3933 613 21.6305 613 24.5058V24.4987Z" fill="white"/>
  <path d="M0 33.7664H0.244524C2.68976 33.7664 2.93429 33.0325 2.93429 30.5862V5.13727C2.93429 2.69095 2.68976 1.95705 0.244524 1.95705H0V0.733887H10.7626C17.8538 0.733887 21.2807 4.40338 21.2807 8.56213C21.2807 14.9226 14.6785 16.44 14.6785 16.44V16.6846C14.6785 16.6846 22.5033 17.6135 22.5033 25.5907C22.5033 31.0719 17.8573 34.986 10.5181 34.986H0V33.7628V33.7664ZM9.53997 2.20168C7.58378 2.20168 7.33926 2.93558 7.33926 5.13727V15.9047H11.0071C14.4304 15.9047 16.6312 13.4583 16.6312 8.81031C16.6312 4.40692 14.4305 2.20523 10.7626 2.20523H9.53997V2.20168ZM7.33926 17.3725V30.5862C7.33926 32.7879 7.33926 33.5218 9.53997 33.5218H10.5181C14.675 33.5218 17.3647 31.0754 17.3647 25.5942C17.3647 20.113 15.0648 17.3725 11.0071 17.3725H7.33926Z" fill="white"/>
  <path d="M23.7223 34.9895V33.7664H23.9668C26.4121 33.7664 26.6566 33.0325 26.6566 30.5862V5.13727C26.6566 2.69095 26.4121 1.95705 23.9668 1.95705H23.7223V0.733887H33.9958V1.95705H33.7513C31.3061 1.95705 31.0616 2.69095 31.0616 5.13727V30.5862C31.0616 32.7879 31.0616 33.5218 33.7513 33.5218H37.4192C39.6199 33.5218 41.3316 31.3201 44.2658 26.4274L45.2439 26.672L42.944 34.9931H23.7188L23.7223 34.9895Z" fill="white"/>
  <path d="M56.3504 0.244629H57.3285L64.6181 30.2423C65.2525 32.7879 65.7911 33.7664 68.4809 33.7664V34.9896H57.6722V33.7664H57.9168C60.1175 33.7664 60.851 33.2275 60.2663 30.8308L58.5546 23.7365H52.197L50.6803 30.0012C50.0459 32.6425 50.6307 33.7699 53.0759 33.7699H53.3204V34.9931H44.7585V33.7699C47.6928 33.7699 48.6213 32.2029 49.16 29.8558L56.3504 0.244629ZM52.5337 22.2651H58.1577L55.3191 10.7142L52.5301 22.2651H52.5337Z" fill="white"/>
  <path d="M79.4879 33.7664C84.6229 33.7664 86.09 25.69 86.09 25.69L87.3126 25.9346C87.3126 25.9346 85.8455 35.7235 78.5062 35.7235C72.6377 35.7235 67.7437 29.1184 67.7437 17.8617C67.7437 6.60508 72.6377 0 78.5098 0C80.6609 0 82.1776 0.928895 82.8155 1.41816L85.5053 0.244633L87.3162 10.5227L86.0936 10.7674C83.6483 3.91767 81.9367 1.4678 79.2469 1.4678C75.3345 1.4678 72.8893 6.84971 72.8893 17.8617C72.8893 28.8737 75.579 33.7664 79.4914 33.7664H79.4879Z" fill="white"/>
  <path d="M95.6302 18.9395L104.437 5.77545C105.854 3.62339 106.882 1.95705 103.948 1.95705H103.703V0.733887H112.265V1.95705C109.331 1.95705 107.814 3.37521 106.152 5.87117L101.456 12.9194L108.842 30.8308C109.77 33.0821 110.553 33.7664 112.509 33.7664H112.754V34.9895H102.385V33.7664H102.629C104.44 33.7664 105.124 33.3268 104.096 30.8308L98.5184 17.2767L95.6337 21.5844V30.5897C95.6337 33.036 95.8782 33.7699 98.3235 33.7699H98.568V34.9931H88.2944V33.7699H88.539C90.9842 33.7699 91.2287 33.036 91.2287 30.5897V5.13727C91.2287 2.69095 90.9842 1.95705 88.539 1.95705H88.2944V0.733887H98.568V1.95705H98.3235C95.8782 1.95705 95.6337 2.69095 95.6337 5.13727V18.936L95.6302 18.9395Z" fill="white"/>
  <path d="M127.081 1.41816L129.771 0.244633L131.582 10.5227L130.36 10.7674C127.914 3.91767 125.714 1.4678 122.042 1.4678C119.352 1.4678 116.907 3.18022 116.907 6.60508C116.907 14.1922 132.071 16.3939 132.071 26.6685C132.071 32.7843 127.67 35.7235 122.776 35.7235C119.647 35.7235 117.736 34.7946 117.003 34.3053L114.313 35.4788L112.502 25.2007L113.725 24.9561C116.17 31.8058 118.615 34.2557 122.776 34.2557C125.955 34.2557 128.155 32.2986 128.155 28.6291C128.155 19.3295 112.991 17.6171 112.991 8.56569C112.991 2.93914 117.393 0 122.042 0C124.732 0 126.398 0.928895 127.081 1.41816Z" fill="white"/>
  <path d="M154.72 0.733892L157.02 9.05495L156.042 9.29958C153.107 4.40693 151.396 2.20523 149.195 2.20523H147.239V30.5897C147.239 33.036 147.728 33.7699 150.418 33.7699H150.907V34.9931H139.166V33.7699H139.655C142.345 33.7699 142.834 33.036 142.834 30.5897V2.20169H140.878C138.677 2.20169 136.965 4.40338 134.027 9.29603L133.049 9.0514L135.349 0.730347H154.72V0.733892Z" fill="white"/>
  <path d="M165.185 0.244629H166.163L173.452 30.2423C174.087 32.7879 174.625 33.7664 177.315 33.7664V34.9896H166.506V33.7664H166.751C168.952 33.7664 169.685 33.2275 169.101 30.8308L167.389 23.7365H161.031L159.514 30.0012C158.88 32.6425 159.465 33.7699 161.91 33.7699H162.155V34.9931H153.593V33.7699C156.527 33.7699 157.456 32.2029 157.994 29.8558L165.185 0.244629ZM161.371 22.2651H166.996L164.157 10.7142L161.368 22.2651H161.371Z" fill="white"/>
  <path d="M184.654 18.1063V30.5862C184.654 33.0325 184.899 33.7664 187.344 33.7664H187.589V34.9896H177.315V33.7664H177.56C180.005 33.7664 180.249 33.0325 180.249 30.5862V5.13727C180.249 2.69095 180.005 1.95705 177.56 1.95705H177.315V0.733887H186.855C192.968 0.733887 198.596 3.18021 198.596 9.29957C198.596 13.313 195.612 16.1032 191.749 17.3725L197.522 30.9762C198.451 33.2275 198.844 33.7664 200.8 33.7664H201.045V34.9896H194.442L187.302 18.1063H184.662H184.654ZM184.654 5.13727V16.6386H186.855C191.062 16.6386 193.702 14.1922 193.702 9.29957C193.702 4.40692 190.768 2.20523 186.855 2.20523C185.143 2.20523 184.654 2.93913 184.654 5.14082V5.13727Z" fill="white"/>
  <path d="M237.344 0.733887L239.644 9.05494L238.666 9.29957C235.732 4.40692 234.02 2.20523 231.819 2.20523H228.151C225.462 2.20523 225.462 2.93913 225.462 5.14082V16.6421H227.662C229.863 16.6421 231.819 16.1528 231.819 13.2172V12.9726H233.042V21.7829H231.819V21.5383C231.819 18.6027 229.863 18.1134 227.662 18.1134H225.462V30.5933C225.462 33.0396 225.706 33.7735 228.151 33.7735H228.396V34.9966H218.122V33.7735H218.367C220.812 33.7735 221.057 33.0396 221.057 30.5933V5.13727C221.057 2.69095 220.812 1.95705 218.367 1.95705H218.122V0.733887H237.348H237.344Z" fill="white"/>
  <path d="M239.888 33.7664H241.6C245.757 33.7664 246.246 33.0325 246.246 30.0969V5.62654C246.246 2.69095 245.757 1.95705 241.6 1.95705H239.888V0.733887H257.009V1.95705H255.297C251.14 1.95705 250.651 2.69095 250.651 5.62654V30.0969C250.651 33.0325 251.14 33.7664 255.297 33.7664H257.009V34.9896H239.888V33.7664Z" fill="white"/>
  <path d="M258.965 34.9895V33.7664H259.209C261.655 33.7664 261.899 33.0325 261.899 30.5862V5.13727C261.899 2.69095 261.655 1.95705 259.209 1.95705H258.965V0.733887H269.239V1.95705H268.994C266.549 1.95705 266.304 2.69095 266.304 5.13727V30.5862C266.304 32.7879 266.304 33.5218 268.994 33.5218H272.662C274.863 33.5218 276.574 31.3201 279.509 26.4274L280.487 26.672L278.187 34.9931H258.961L258.965 34.9895Z" fill="white"/>
  <path d="M302.008 30.5862C302.008 33.0325 302.253 33.7664 304.698 33.7664H304.942V34.9896H294.669V33.7664H294.913C297.359 33.7664 297.603 33.0325 297.603 30.5862V6.8497L292.468 34.9896H291.49L285.866 6.8497V29.8487C285.866 32.0504 286.355 33.7628 289.289 33.7628V34.986H280.976V33.7628C283.91 33.7628 284.399 32.0504 284.399 29.8487V5.87117C284.399 3.66948 283.91 1.95705 280.976 1.95705V0.733887H288.9L293.255 22.5097L297.267 0.733887H304.946V1.95705H304.701C302.256 1.95705 302.012 2.69095 302.012 5.13727V30.5862H302.008Z" fill="white"/>
  <path d="M341.249 0.733887L343.549 9.05494L342.571 9.29957C339.637 4.40692 337.925 2.20523 335.724 2.20523H332.056C329.367 2.20523 329.367 2.93913 329.367 5.14082V16.6421H331.567C333.768 16.6421 335.724 16.1528 335.724 13.2172V12.9726H336.947V21.7829H335.724V21.5383C335.724 18.6027 333.768 18.1134 331.567 18.1134H329.367V30.5933C329.367 33.0396 329.611 33.7735 332.056 33.7735H332.301V34.9966H322.027V33.7735H322.272C324.717 33.7735 324.962 33.0396 324.962 30.5933V5.13727C324.962 2.69095 324.717 1.95705 322.272 1.95705H322.027V0.733887H341.253H341.249Z" fill="white"/>
  <path d="M344.279 34.9896V33.7664H344.524C346.969 33.7664 347.213 33.0325 347.213 30.5862V5.13727C347.213 2.69095 346.969 1.95705 344.524 1.95705H344.279V0.733887H363.504L365.804 9.05494L364.826 9.29957C361.892 4.40692 360.18 2.20523 357.979 2.20523H354.312C351.622 2.20523 351.622 2.93913 351.622 5.14082V16.6421H354.067C356.268 16.6421 358.224 16.1528 358.224 13.2172V12.9726H359.447V21.7829H358.224V21.5383C358.224 18.6027 356.268 18.1134 354.067 18.1134H351.622V30.5933C351.622 32.7949 351.622 33.5288 354.312 33.5288H358.713C360.914 33.5288 362.625 31.3272 365.56 26.4345L366.538 26.6791L364.238 35.0002H344.279V34.9896Z" fill="white"/>
  <path d="M382.336 1.41816L385.026 0.244633L386.837 10.5227L385.614 10.7674C383.169 3.91767 380.968 1.4678 377.3 1.4678C374.61 1.4678 372.165 3.18022 372.165 6.60508C372.165 14.1922 387.329 16.3939 387.329 26.6685C387.329 32.7843 382.928 35.7235 378.034 35.7235C374.905 35.7235 372.994 34.7946 372.261 34.3053L369.571 35.4788L367.76 25.2007L368.983 24.9561C371.428 31.8058 373.873 34.2557 378.034 34.2557C381.213 34.2557 383.413 32.2986 383.413 28.6291C383.413 19.3295 368.249 17.6171 368.249 8.56569C368.249 2.93914 372.651 0 377.3 0C379.99 0 381.656 0.928895 382.34 1.41816H382.336Z" fill="white"/>
  <path d="M409.974 0.733892L412.274 9.05495L411.296 9.29958C408.362 4.40693 406.65 2.20523 404.45 2.20523H402.493V30.5897C402.493 33.036 402.982 33.7699 405.672 33.7699H406.161V34.9931H394.421V33.7699H394.91C397.599 33.7699 398.088 33.036 398.088 30.5897V2.20169H396.132C393.932 2.20169 392.22 4.40338 389.282 9.29603L388.304 9.0514L390.604 0.730347H409.974V0.733892Z" fill="white"/>
  <path d="M412.515 33.7664H414.227C418.384 33.7664 418.873 33.0325 418.873 30.0969V5.62654C418.873 2.69095 418.384 1.95705 414.227 1.95705H412.515V0.733887H429.636V1.95705H427.924C423.767 1.95705 423.278 2.69095 423.278 5.62654V30.0969C423.278 33.0325 423.767 33.7664 427.924 33.7664H429.636V34.9896H412.515V33.7664Z" fill="white"/>
  <path d="M442.744 35.4788H441.766L434.476 5.48118C433.842 2.93558 433.303 1.95705 430.61 1.95705V0.733887H441.419V1.95705H441.174C438.974 1.95705 438.24 2.49595 438.825 4.89264L443.715 25.0553L448.411 5.72581C449.045 3.08449 448.46 1.95705 446.015 1.95705H445.771V0.733887H454.332V1.95705C451.398 1.95705 450.47 3.52412 449.931 5.87117L442.741 35.4788H442.744Z" fill="white"/>
  <path d="M458.592 0.244629H459.57L466.86 30.2423C467.494 32.7879 468.033 33.7664 470.723 33.7664V34.9896H459.914V33.7664H460.158C462.359 33.7664 463.093 33.2275 462.508 30.8308L460.796 23.7365H454.439L452.922 30.0012C452.288 32.6425 452.872 33.7699 455.318 33.7699H455.562V34.9931H447V33.7699C449.935 33.7699 450.863 32.2029 451.402 29.8558L458.592 0.244629ZM454.779 22.2651H460.403L457.564 10.7142L454.775 22.2651H454.779Z" fill="white"/>
  <path d="M470.726 34.9895V33.7664H470.971C473.416 33.7664 473.66 33.0325 473.66 30.5862V5.13727C473.66 2.69095 473.416 1.95705 470.971 1.95705H470.726V0.733887H481V1.95705H480.755C478.31 1.95705 478.065 2.69095 478.065 5.13727V30.5862C478.065 32.7879 478.065 33.5218 480.755 33.5218H484.423C486.624 33.5218 488.335 31.3201 491.27 26.4274L492.248 26.672L489.948 34.9931H470.723L470.726 34.9895Z" fill="white"/>
</svg>
