<svg width="479" height="79" viewBox="0 0 479 79" fill="none" xmlns="http://www.w3.org/2000/svg">
  <path d="M230.116 0.768921H210.768V2.00027H211.012C213.475 2.00027 213.719 2.73804 213.719 5.20073V30.7992C213.719 33.2619 213.475 33.9997 211.012 33.9997H210.768V35.231H221.107V33.9997H220.863C218.4 33.9997 218.156 33.2619 218.156 30.7992V18.2468H220.369C222.583 18.2468 224.552 18.7403 224.552 21.6914V21.9356H225.783V13.0772H224.552V13.3214C224.552 16.2725 222.583 16.766 220.369 16.766H218.156V5.20073C218.156 2.98742 218.156 2.24446 220.863 2.24446H224.557C226.77 2.24446 228.495 4.45777 231.452 9.38315L232.434 9.13896L230.122 0.768921H230.116Z" fill="#F2F2F2"/>
  <path d="M232.184 2.00027H233.909C238.091 2.00027 238.585 2.73804 238.585 5.69431V30.3057C238.585 33.2619 238.091 33.9997 233.909 33.9997H232.184V35.231H249.413V33.9997H247.688C243.505 33.9997 243.012 33.2619 243.012 30.3057V5.68911C243.012 2.73804 243.505 1.99507 247.688 1.99507H249.413V0.768921H232.184V2.00027Z" fill="#F2F2F2"/>
  <path d="M264.677 33.7503H260.983C258.276 33.7503 258.276 33.0125 258.276 30.7992V5.20073C258.276 2.73804 258.52 2.00027 260.983 2.00027H261.227V0.768921H250.888V2.00027H251.132C253.595 2.00027 253.839 2.73804 253.839 5.20073V30.7992C253.839 33.2619 253.595 33.9997 251.132 33.9997H250.888V35.231H270.236L272.548 26.861L271.561 26.6168C268.61 31.537 266.885 33.7555 264.667 33.7555H264.677V33.7503Z" fill="#F2F2F2"/>
  <path d="M284.909 22.6734L280.529 0.768921H272.554V2.00027C275.505 2.00027 275.998 3.72519 275.998 5.9385V30.0615C275.998 32.2748 275.505 33.9997 272.554 33.9997V35.231H280.924V33.9997C277.967 33.9997 277.479 32.2748 277.479 30.0615V6.92046L283.142 35.2258H284.129L289.299 6.92046V30.794C289.299 33.2567 289.055 33.9945 286.592 33.9945H286.348V35.2258H296.687V33.9945H296.443C293.98 33.9945 293.736 33.2567 293.736 30.794V5.20073C293.736 2.73804 293.98 2.00027 296.443 2.00027H296.687V0.768921H288.956L284.919 22.6734H284.909Z" fill="#F2F2F2"/>
  <path d="M14.7917 16.8128V16.5686C14.7917 16.5686 21.4472 15.0411 21.4472 8.62983C21.4472 4.43702 17.9974 0.742981 10.8431 0.742981H0V1.97433H0.244191C2.70688 1.97433 2.95627 2.7121 2.95627 5.17998V30.82C2.95627 33.2879 2.71208 34.0257 0.244191 34.0257H0V35.2571H10.5989C17.9974 35.2571 22.6786 31.3136 22.6786 25.7908C22.6786 17.7532 14.7865 16.818 14.7865 16.818L14.7917 16.8128ZM7.39847 5.17998C7.39847 2.96148 7.64266 2.22371 9.61697 2.22371H10.8483C14.5476 2.22371 16.7661 4.44222 16.7661 8.87922C16.7661 13.5656 14.5476 16.0283 11.0977 16.0283H7.39847V5.17998ZM10.5989 33.7763H9.61178C7.39327 33.7763 7.39327 33.0386 7.39327 30.82V17.509H11.0925C15.1866 17.509 17.5038 20.4653 17.5038 25.7908C17.5038 31.1162 14.7917 33.7763 10.5989 33.7763Z" fill="#F2F2F2"/>
  <path d="M44.1311 26.6272C41.1748 31.5578 39.4447 33.7763 37.2262 33.7763H33.5269C30.8149 33.7763 30.8149 33.0386 30.8149 30.8201V5.17999C30.8149 2.7121 31.059 1.97434 33.5269 1.97434H33.7711V0.737793H23.4164V1.96914H23.6606C26.1285 1.96914 26.3727 2.70691 26.3727 5.1748V30.8149C26.3727 33.2828 26.1285 34.0205 23.6606 34.0205H23.4164V35.2519H42.7958L45.113 26.8714L44.1259 26.6272H44.1311Z" fill="#F2F2F2"/>
  <path d="M64.1548 30.4719L56.8031 0.244202H55.8159L48.5681 30.0771C48.0278 32.4463 47.0874 34.0205 44.1311 34.0205V35.2519H52.7609V34.0205H52.5167C50.0488 34.0205 49.4617 32.8879 50.1008 30.2226L51.6283 23.91H58.0396L59.7645 31.059C60.3568 33.475 59.6191 34.0153 57.3954 34.0153H57.1512V35.2467H68.0462V34.0153C65.3342 34.0153 64.7938 33.0282 64.1496 30.4667H64.1548V30.4719ZM51.9712 22.4344L54.782 10.7964L57.6395 22.4344H51.966H51.9712Z" fill="#F2F2F2"/>
  <path d="M78.4062 1.48073C81.1182 1.48073 82.8432 3.94861 85.311 10.8483L86.5424 10.6041L84.7188 0.249379L82.0067 1.43397C81.3676 0.940388 79.8349 0.00518799 77.6684 0.00518799C71.7507 0.00518799 66.8201 6.16712 66.8201 18.0026C66.8201 29.8381 71.7507 36 77.6684 36C85.0669 36 86.5424 26.1388 86.5424 26.1388L85.311 25.8946C85.311 25.8946 83.8303 34.0309 78.6555 34.0309C74.7121 34.0309 72 29.3445 72 18.0078C72 6.67109 74.4679 1.49112 78.4113 1.49112V1.48073H78.4062Z" fill="#F2F2F2"/>
  <path d="M107.745 31.0642L100.3 13.0149L105.033 5.91257C106.712 3.39792 108.239 1.96914 111.195 1.96914V0.737793H102.565V1.96914H102.81C105.766 1.96914 104.732 3.6473 103.303 5.81385L94.4292 19.0781V5.17999C94.4292 2.7121 94.6734 1.97434 97.1413 1.97434H97.3855V0.737793H87.0308V1.96914H87.275C89.7428 1.96914 89.987 2.70691 89.987 5.1748V30.8149C89.987 33.2828 89.7428 34.0205 87.275 34.0205H87.0308V35.2519H97.3855V34.0205H97.1413C94.6734 34.0205 94.4292 33.2828 94.4292 30.8149V21.7434L97.3387 17.4051L102.96 31.0642C103.994 33.5789 103.303 34.0205 101.48 34.0205H101.235V35.2519H111.689V34.0205H111.445C109.47 34.0205 108.681 33.3295 107.745 31.0642Z" fill="#F2F2F2"/>
  <path d="M115.388 6.6555C115.388 3.20565 117.856 1.48073 120.568 1.48073C124.267 1.48073 126.486 3.94861 128.948 10.8483L130.18 10.6041L128.356 0.249379L125.644 1.43397C124.953 0.940388 123.275 0.00518799 120.563 0.00518799C115.876 0.00518799 111.439 2.96146 111.439 8.635C111.439 17.7584 126.725 19.4833 126.725 28.8509C126.725 32.5501 124.506 34.5193 121.301 34.5193C117.108 34.5193 114.645 32.0514 112.177 25.1517L110.946 25.3959L112.769 35.7506L115.482 34.566C116.219 35.0596 118.142 35.9948 121.301 35.9948C126.231 35.9948 130.668 33.0385 130.668 26.8714C130.668 16.5167 115.383 14.2982 115.383 6.6555H115.388Z" fill="#F2F2F2"/>
  <path d="M147.439 2.21852C149.658 2.21852 151.383 4.43702 154.344 9.3676L155.331 9.12341L153.014 0.742981H133.489L131.172 9.12341L132.159 9.3676C135.116 4.43702 136.846 2.21852 139.064 2.21852H141.038V30.82C141.038 33.2879 140.545 34.0257 137.833 34.0257H137.339V35.2571H149.175V34.0257H148.681C145.969 34.0257 145.475 33.2879 145.475 30.82V2.21852H147.45H147.439Z" fill="#F2F2F2"/>
  <path d="M195.171 31.2149L189.352 17.509C193.249 16.2257 196.257 13.4149 196.257 9.37279C196.257 3.21086 190.588 0.742975 184.421 0.742975H174.804V1.97432H175.049C177.511 1.97432 177.761 2.71209 177.761 5.17998V30.82C177.761 33.2412 177.516 33.9945 175.184 34.0205C172.57 33.9945 172.03 33.0022 171.401 30.4719L164.055 0.244202H163.068L155.82 30.0771C155.279 32.4463 154.339 34.0205 151.383 34.0205V35.2519H160.013V34.0205H159.768C157.301 34.0205 156.713 32.8879 157.352 30.2226L158.88 23.91H165.291L167.016 31.059C167.609 33.475 166.871 34.0153 164.647 34.0153H164.403V35.2467H185.164V34.0153H184.92C182.452 34.0153 182.208 33.2775 182.208 30.8097V18.2364H184.868L192.069 35.2467H198.725V34.0153H198.481C196.506 34.0153 196.111 33.475 195.176 31.2045V31.2149H195.171ZM159.223 22.4344L162.034 10.7964L164.891 22.4344H159.223ZM184.421 16.7661H182.203V5.17998C182.203 2.96148 182.696 2.22371 184.421 2.22371C188.365 2.22371 191.326 4.44221 191.326 9.37279C191.326 14.3034 188.666 16.7713 184.421 16.7713V16.7661Z" fill="#F2F2F2"/>
  <path d="M308.725 0.737793V1.96914H308.969C311.432 1.96914 311.681 2.70691 311.681 5.1748V30.8149C311.681 33.2828 311.437 34.0205 308.969 34.0205H308.725V35.2519H319.08V34.0205H318.836C316.368 34.0205 316.124 33.2828 316.124 30.8149V18.2416H318.342C320.561 18.2416 322.535 18.7352 322.535 21.6915V21.9357H323.766V13.0616H322.535V13.3058C322.535 16.2621 320.561 16.7557 318.342 16.7557H316.124V5.17999C316.124 2.96149 316.124 2.22372 318.836 2.22372H322.535C324.753 2.22372 326.478 4.44222 329.44 9.37281L330.427 9.12861L328.11 0.748184H308.73V0.737793H308.725Z" fill="#F2F2F2"/>
  <path d="M345.213 33.7763H340.777C338.064 33.7763 338.064 33.0385 338.064 30.82V18.2467H340.532C342.751 18.2467 344.725 18.7403 344.725 21.6966V21.9408H345.956V13.0668H344.725V13.311C344.725 16.2672 342.751 16.7608 340.532 16.7608H338.064V5.17992C338.064 2.96141 338.064 2.22365 340.777 2.22365H344.476C346.694 2.22365 348.419 4.44215 351.381 9.37273L352.368 9.12854L350.051 0.748108H330.671V1.97945H330.915C333.378 1.97945 333.627 2.71722 333.627 5.18511V30.8252C333.627 33.2931 333.383 34.0308 330.915 34.0308H330.671V35.2622H350.788L353.106 26.8818L352.118 26.6376C349.162 31.5681 347.432 33.7866 345.213 33.7866V33.7763Z" fill="#F2F2F2"/>
  <path d="M358.28 6.6555C358.28 3.20565 360.748 1.48073 363.46 1.48073C367.159 1.48073 369.378 3.94861 371.841 10.8483L373.072 10.6041L371.248 0.249379L368.536 1.43397C367.845 0.940388 366.167 0.00518799 363.455 0.00518799C358.769 0.00518799 354.332 2.96146 354.332 8.635C354.332 17.7584 369.617 19.4833 369.617 28.8509C369.617 32.5501 367.398 34.5193 364.193 34.5193C360 34.5193 357.537 32.0514 355.069 25.1517L353.838 25.3959L355.662 35.7506L358.374 34.566C359.112 35.0596 361.034 35.9948 364.193 35.9948C369.123 35.9948 373.56 33.0385 373.56 26.8714C373.56 16.5167 358.275 14.2982 358.275 6.6555H358.28Z" fill="#F2F2F2"/>
  <path d="M395.901 0.737793H376.376L374.059 9.11822L375.046 9.36241C378.003 4.43183 379.733 2.21333 381.951 2.21333H383.926V30.8149C383.926 33.2828 383.432 34.0205 380.72 34.0205H380.226V35.2519H392.062V34.0205H391.568C388.856 34.0205 388.363 33.2828 388.363 30.8149V2.21853H390.337C392.555 2.21853 394.28 4.43703 397.242 9.36761L398.229 9.12342L395.912 0.742989H395.901V0.737793Z" fill="#F2F2F2"/>
  <path d="M397.974 1.97434H399.699C403.892 1.97434 404.386 2.7121 404.386 5.67357V30.3265C404.386 33.2828 403.892 34.0257 399.699 34.0257H397.974V35.2571H415.234V34.0257H413.509C409.316 34.0257 408.823 33.2879 408.823 30.3265V5.66837C408.823 2.7121 409.316 1.96914 413.509 1.96914H415.234V0.737793H397.974V1.96914V1.97434Z" fill="#F2F2F2"/>
  <path d="M439.643 1.97434V0.737793H431.013V1.96914H431.257C433.725 1.96914 434.312 3.10177 433.673 5.76709L428.94 25.2452L424.009 4.93061C423.417 2.51467 424.155 1.97434 426.378 1.97434H426.623V0.737793H415.727V1.96914C418.44 1.96914 418.98 2.95629 419.624 5.5177L426.971 35.7454H427.958L435.206 5.91257C435.746 3.54339 436.686 1.96914 439.643 1.96914V1.97434Z" fill="#F2F2F2"/>
  <path d="M470.956 33.7763H467.257C464.545 33.7763 464.545 33.0385 464.545 30.82V5.17998C464.545 2.71209 464.789 1.97432 467.257 1.97432H467.501V0.737779H457.146V1.96913H457.391C459.858 1.96913 460.103 2.70689 460.103 5.17478V30.8148C460.103 33.2308 459.858 33.9893 457.526 34.0153C454.912 33.9893 454.372 32.997 453.743 30.4667L446.397 0.244202H445.41L438.162 30.0771C437.622 32.4463 436.681 34.0205 433.725 34.0205V35.2519H442.355V34.0205H442.11C439.643 34.0205 439.055 32.8879 439.695 30.2226L441.222 23.91H447.633L449.358 31.059C449.951 33.475 449.213 34.0153 446.989 34.0153H446.745V35.2467H476.526L478.843 26.8662L477.856 26.622C474.9 31.5526 473.17 33.7711 470.951 33.7711L470.956 33.7763ZM441.565 22.4344L444.376 10.7964L447.233 22.4344H441.565Z" fill="#F2F2F2"/>
  <path d="M7.29974 58.6646C6.8789 59.3764 6.66589 60.1557 6.66589 60.9974C6.66589 61.8391 6.8737 62.6184 7.29974 63.3302C7.72058 64.042 8.2869 64.6083 8.99869 65.0291C9.71048 65.45 10.4846 65.663 11.3315 65.663C12.1784 65.663 12.9525 65.4552 13.6643 65.0291C14.3761 64.6083 14.9424 64.042 15.3632 63.3302C15.7841 62.6184 15.9971 61.8443 15.9971 60.9974C15.9971 60.1505 15.7841 59.3764 15.3632 58.6646C14.9424 57.9528 14.3761 57.3865 13.6643 56.9656C12.9525 56.5448 12.1732 56.3318 11.3315 56.3318C10.4898 56.3318 9.71048 56.5448 8.99869 56.9656C8.2869 57.3865 7.72058 57.9528 7.29974 58.6646Z" fill="#F2F2F2"/>
  <path d="M20.3353 70.2974C19.6235 69.8766 18.8442 69.6636 18.0025 69.6636C17.1609 69.6636 16.3815 69.8766 15.6697 70.2974C15.2957 70.5208 14.9631 70.7858 14.667 71.0872C14.3709 70.7858 14.0435 70.5208 13.6694 70.2974C12.9576 69.8766 12.1783 69.6636 11.3366 69.6636C10.495 69.6636 9.71562 69.8766 9.00383 70.2974C8.62975 70.5208 8.29724 70.7858 8.00109 71.0872C7.96992 71.056 7.94395 71.0248 7.91278 70.9988C8.21412 70.7027 8.47907 70.3754 8.70248 69.9961C9.12332 69.2843 9.33635 68.5102 9.33635 67.6633C9.33635 66.8164 9.12332 66.0423 8.70248 65.3305C8.28164 64.6187 7.71535 64.0524 7.00356 63.6315C6.29176 63.2107 5.5124 62.9977 4.67072 62.9977C3.82904 62.9977 3.04972 63.2107 2.33793 63.6315C1.62613 64.0524 1.05984 64.6187 0.639001 65.3305C0.218161 66.0423 0.00512695 66.8216 0.00512695 67.6633C0.00512695 68.505 0.212966 69.2843 0.639001 69.9961C0.86241 70.3702 1.12736 70.7027 1.4287 70.9988C1.12736 71.295 0.86241 71.6223 0.639001 71.9964C0.218161 72.7082 0.00512695 73.4875 0.00512695 74.3292C0.00512695 75.1709 0.212966 75.9502 0.639001 76.662C1.05984 77.3738 1.62613 77.9401 2.33793 78.3609C3.04972 78.7818 3.82385 78.9948 4.67072 78.9948C5.5176 78.9948 6.29176 78.7818 7.00356 78.3609C7.37764 78.1375 7.71014 77.8726 8.00109 77.5712C8.29724 77.8726 8.62456 78.1375 9.00383 78.3609C9.71562 78.7818 10.4898 78.9948 11.3366 78.9948C12.1835 78.9948 12.9576 78.7818 13.6694 78.3609C14.0435 78.1375 14.376 77.8726 14.667 77.5712C14.9631 77.8726 15.2905 78.1375 15.6697 78.3609C16.3815 78.7818 17.1557 78.9948 18.0025 78.9948C18.8494 78.9948 19.6235 78.7818 20.3353 78.3609C21.0471 77.9401 21.6135 77.3738 22.0343 76.662C22.4551 75.9502 22.6681 75.1761 22.6681 74.3292C22.6681 73.4823 22.4551 72.7082 22.0343 71.9964C21.6135 71.2846 21.0471 70.7183 20.3353 70.2974Z" fill="#F2F2F2"/>
  <path d="M2.3328 51.6974C3.04459 52.1182 3.81875 52.3312 4.66563 52.3312C5.5125 52.3312 6.28664 52.1234 6.99843 51.6974C7.37251 51.4739 7.70501 51.209 7.99597 50.9076C8.29211 51.209 8.61943 51.4739 8.9987 51.6974C9.7105 52.1182 10.4846 52.3312 11.3315 52.3312C12.1784 52.3312 12.9525 52.1234 13.6643 51.6974C14.3761 51.2765 14.9424 50.7102 15.3633 49.9984C15.7841 49.2866 15.9971 48.5125 15.9971 47.6656C15.9971 46.8187 15.7841 46.0446 15.3633 45.3328C14.9424 44.621 14.3761 44.0547 13.6643 43.6339C12.9525 43.213 12.1732 43 11.3315 43C10.4898 43 9.7105 43.213 8.9987 43.6339C8.62462 43.8573 8.29211 44.1222 7.99597 44.4236C7.69982 44.1222 7.37251 43.8573 6.99843 43.6339C6.28664 43.213 5.50731 43 4.66563 43C3.82395 43 3.04459 43.213 2.3328 43.6339C1.62101 44.0547 1.05471 44.621 0.633874 45.3328C0.213034 46.0446 0 46.8239 0 47.6656C0 48.5073 0.207839 49.2866 0.633874 49.9984C1.05471 50.7102 1.62101 51.2765 2.3328 51.6974Z" fill="#F2F2F2"/>
  <path d="M20.3353 50.2998C19.6235 49.8789 18.8442 49.6659 18.0025 49.6659C17.1608 49.6659 16.3815 49.8789 15.6697 50.2998C14.9579 50.7206 14.3916 51.2869 13.9708 51.9987C13.5499 52.7105 13.3369 53.4898 13.3369 54.3315C13.3369 55.1732 13.5499 55.9525 13.9708 56.6643C14.3916 57.3761 14.9579 57.9424 15.6697 58.3633C16.3815 58.7841 17.1556 58.9971 18.0025 58.9971C18.8494 58.9971 19.6235 58.7893 20.3353 58.3633C21.0471 57.9424 21.6134 57.3761 22.0343 56.6643C22.4551 55.9525 22.6681 55.1784 22.6681 54.3315C22.6681 53.4846 22.4551 52.7105 22.0343 51.9987C21.6134 51.2869 21.0471 50.7206 20.3353 50.2998Z" fill="#F2F2F2"/>
  <path d="M35.6623 51.6974C36.3741 52.1182 37.1482 52.3312 37.9951 52.3312C38.8419 52.3312 39.6161 52.1234 40.3279 51.6974C41.0397 51.2765 41.606 50.7102 42.0268 49.9984C42.4477 49.2866 42.6607 48.5125 42.6607 47.6656C42.6607 46.8187 42.4477 46.0446 42.0268 45.3328C41.606 44.621 41.0397 44.0547 40.3279 43.6339C39.6161 43.213 38.8367 43 37.9951 43C37.1534 43 36.3741 43.213 35.6623 43.6339C34.9505 44.0547 34.3842 44.621 33.9633 45.3328C33.5425 46.0446 33.3295 46.8239 33.3295 47.6656C33.3295 48.5073 33.5373 49.2866 33.9633 49.9984C34.3842 50.7102 34.9505 51.2765 35.6623 51.6974Z" fill="#F2F2F2"/>
  <path d="M48.6978 56.6643C49.1187 55.9525 49.3317 55.1784 49.3317 54.3315C49.3317 53.4846 49.1187 52.7105 48.6978 51.9987C48.277 51.2869 47.7107 50.7206 46.9989 50.2998C46.2871 49.8789 45.5078 49.6659 44.6661 49.6659C43.8244 49.6659 43.0451 49.8789 42.3333 50.2998C41.6215 50.7206 41.0552 51.2869 40.6344 51.9987C40.2135 52.7105 40.0005 53.4898 40.0005 54.3315C40.0005 55.1732 40.2135 55.9525 40.6344 56.6643C40.8578 57.0384 41.1227 57.3709 41.4241 57.667C41.1227 57.9632 40.8578 58.2905 40.6344 58.6646C40.2135 59.3764 40.0005 60.1557 40.0005 60.9974C40.0005 61.8391 40.2135 62.6184 40.6344 63.3302C40.8578 63.7043 41.1227 64.0368 41.4241 64.3329C41.1227 64.6291 40.8578 64.9564 40.6344 65.3305C40.2135 66.0423 40.0005 66.8216 40.0005 67.6633C40.0005 68.505 40.2135 69.2843 40.6344 69.9961C41.0552 70.7079 41.6215 71.2742 42.3333 71.695C43.0451 72.1159 43.8192 72.3289 44.6661 72.3289C45.513 72.3289 46.2871 72.1211 46.9989 71.695C47.7107 71.2742 48.277 70.7079 48.6978 69.9961C49.1187 69.2843 49.3317 68.5102 49.3317 67.6633C49.3317 66.8164 49.1187 66.0423 48.6978 65.3305C48.4744 64.9564 48.2094 64.6239 47.9081 64.3329C48.2094 64.0368 48.4744 63.7095 48.6978 63.3302C49.1187 62.6184 49.3317 61.8443 49.3317 60.9974C49.3317 60.1505 49.1187 59.3764 48.6978 58.6646C48.4744 58.2905 48.2094 57.958 47.9081 57.667C48.2094 57.3709 48.4744 57.0436 48.6978 56.6643Z" fill="#F2F2F2"/>
  <path d="M40.3279 70.2974C39.6161 69.8766 38.8367 69.6636 37.9951 69.6636C37.1534 69.6636 36.3741 69.8766 35.6623 70.2974C34.9505 70.7183 34.3842 71.2846 33.9633 71.9964C33.5425 72.7082 33.3295 73.4875 33.3295 74.3292C33.3295 75.1709 33.5373 75.9502 33.9633 76.662C34.3842 77.3738 34.9505 77.9401 35.6623 78.3609C36.3741 78.7818 37.1482 78.9948 37.9951 78.9948C38.8419 78.9948 39.6161 78.7818 40.3279 78.3609C41.0397 77.9401 41.606 77.3738 42.0268 76.662C42.4477 75.9502 42.6607 75.1761 42.6607 74.3292C42.6607 73.4823 42.4477 72.7082 42.0268 71.9964C41.606 71.2846 41.0397 70.7183 40.3279 70.2974Z" fill="#F2F2F2"/>
  <path d="M35.3662 69.9961C35.787 69.2843 36.0001 68.5102 36.0001 67.6633C36.0001 66.8164 35.787 66.0423 35.3662 65.3305C35.1428 64.9564 34.8778 64.6239 34.5764 64.3329C34.8778 64.0368 35.1428 63.7095 35.3662 63.3302C35.787 62.6184 36.0001 61.8443 36.0001 60.9974C36.0001 60.1505 35.787 59.3764 35.3662 58.6646C35.1428 58.2905 34.8778 57.958 34.5764 57.667C34.8778 57.3709 35.1428 57.0436 35.3662 56.6643C35.787 55.9525 36.0001 55.1784 36.0001 54.3315C36.0001 53.4846 35.787 52.7105 35.3662 51.9987C34.9453 51.2869 34.379 50.7206 33.6672 50.2998C32.9554 49.8789 32.1761 49.6659 31.3344 49.6659C30.4927 49.6659 29.7134 49.8789 29.0016 50.2998C28.2898 50.7206 27.7235 51.2869 27.3027 51.9987C26.8818 52.7105 26.6688 53.4898 26.6688 54.3315C26.6688 55.1732 26.8766 55.9525 27.3027 56.6643C27.5261 57.0384 27.7911 57.3709 28.0924 57.667C27.7911 57.9632 27.5261 58.2905 27.3027 58.6646C26.8818 59.3764 26.6688 60.1557 26.6688 60.9974C26.6688 61.8391 26.8766 62.6184 27.3027 63.3302C27.5261 63.7043 27.7911 64.0368 28.0924 64.3329C27.7911 64.6291 27.5261 64.9564 27.3027 65.3305C26.8818 66.0423 26.6688 66.8216 26.6688 67.6633C26.6688 68.505 26.8766 69.2843 27.3027 69.9961C27.7235 70.7079 28.2898 71.2742 29.0016 71.695C29.7134 72.1159 30.4875 72.3289 31.3344 72.3289C32.1813 72.3289 32.9554 72.1211 33.6672 71.695C34.379 71.2742 34.9453 70.7079 35.3662 69.9961Z" fill="#F2F2F2"/>
  <path d="M60.6269 58.6646C60.2061 59.3764 59.993 60.1557 59.993 60.9974C59.993 61.8391 60.2009 62.6184 60.6269 63.3302C61.0478 64.042 61.614 64.6083 62.3258 65.0291C63.0376 65.45 63.8118 65.663 64.6587 65.663C65.5056 65.663 66.2797 65.4552 66.9915 65.0291C67.7033 64.6083 68.2696 64.042 68.6904 63.3302C69.1112 62.6184 69.3243 61.8443 69.3243 60.9974C69.3243 60.1505 69.1112 59.3764 68.6904 58.6646C68.2696 57.9528 67.7033 57.3865 66.9915 56.9656C66.2797 56.5448 65.5004 56.3318 64.6587 56.3318C63.817 56.3318 63.0376 56.5448 62.3258 56.9656C61.614 57.3865 61.0478 57.9528 60.6269 58.6646Z" fill="#F2F2F2"/>
  <path d="M55.6599 51.6974C56.3717 52.1182 57.1459 52.3312 57.9927 52.3312C58.8396 52.3312 59.6138 52.1234 60.3255 51.6974C60.6996 51.4739 61.0322 51.209 61.3231 50.9076C61.6193 51.209 61.9465 51.4739 62.3258 51.6974C63.0376 52.1182 63.8118 52.3312 64.6587 52.3312C65.5056 52.3312 66.2797 52.1234 66.9915 51.6974C67.7033 51.2765 68.2695 50.7102 68.6904 49.9984C69.1112 49.2866 69.3243 48.5125 69.3243 47.6656C69.3243 46.8187 69.1112 46.0446 68.6904 45.3328C68.2695 44.621 67.7033 44.0547 66.9915 43.6339C66.2797 43.213 65.5004 43 64.6587 43C63.817 43 63.0376 43.213 62.3258 43.6339C61.9517 43.8573 61.6193 44.1222 61.3231 44.4236C61.027 44.1222 60.6996 43.8573 60.3255 43.6339C59.6138 43.213 58.8344 43 57.9927 43C57.1511 43 56.3717 43.213 55.6599 43.6339C54.9482 44.0547 54.3818 44.621 53.961 45.3328C53.5402 46.0446 53.3271 46.8239 53.3271 47.6656C53.3271 48.5073 53.535 49.2866 53.961 49.9984C54.3818 50.7102 54.9482 51.2765 55.6599 51.6974Z" fill="#F2F2F2"/>
  <path d="M73.6574 70.2974C72.9456 69.8766 72.1662 69.6636 71.3246 69.6636C70.4829 69.6636 69.7035 69.8766 68.9918 70.2974C68.6177 70.5208 68.2851 70.7858 67.989 71.0872C67.6928 70.7858 67.3656 70.5208 66.9915 70.2974C66.2797 69.8766 65.5004 69.6636 64.6587 69.6636C63.817 69.6636 63.0376 69.8766 62.3258 70.2974C61.9517 70.5208 61.6193 70.7858 61.3231 71.0872C61.2919 71.056 61.2659 71.0248 61.2348 70.9988C61.5361 70.7027 61.8011 70.3754 62.0245 69.9961C62.4453 69.2843 62.6583 68.5102 62.6583 67.6633C62.6583 66.8164 62.4453 66.0423 62.0245 65.3305C61.6037 64.6187 61.0373 64.0524 60.3255 63.6315C59.6138 63.2107 58.8344 62.9977 57.9927 62.9977C57.1511 62.9977 56.3717 63.2107 55.6599 63.6315C54.9482 64.0524 54.3818 64.6187 53.961 65.3305C53.5402 66.0423 53.3271 66.8216 53.3271 67.6633C53.3271 68.505 53.535 69.2843 53.961 69.9961C54.1844 70.3702 54.4494 70.7027 54.7507 70.9988C54.4494 71.295 54.1844 71.6223 53.961 71.9964C53.5402 72.7082 53.3271 73.4875 53.3271 74.3292C53.3271 75.1709 53.535 75.9502 53.961 76.662C54.3818 77.3738 54.9482 77.9401 55.6599 78.3609C56.3717 78.7818 57.1459 78.9948 57.9927 78.9948C58.8396 78.9948 59.6138 78.7818 60.3255 78.3609C60.6996 78.1375 61.0322 77.8726 61.3231 77.5712C61.6193 77.8726 61.9465 78.1375 62.3258 78.3609C63.0376 78.7818 63.8118 78.9948 64.6587 78.9948C65.5056 78.9948 66.2797 78.7818 66.9915 78.3609C67.3656 78.1375 67.698 77.8726 67.989 77.5712C68.2851 77.8726 68.6125 78.1375 68.9918 78.3609C69.7035 78.7818 70.4777 78.9948 71.3246 78.9948C72.1714 78.9948 72.9456 78.7818 73.6574 78.3609C74.3691 77.9401 74.9355 77.3738 75.3563 76.662C75.7772 75.9502 75.9902 75.1761 75.9902 74.3292C75.9902 73.4823 75.7772 72.7082 75.3563 71.9964C74.9355 71.2846 74.3691 70.7183 73.6574 70.2974Z" fill="#F2F2F2"/>
  <path d="M73.6573 50.2998C72.9455 49.8789 72.1662 49.6659 71.3245 49.6659C70.4829 49.6659 69.7035 49.8789 68.9917 50.2998C68.2799 50.7206 67.7136 51.2869 67.2928 51.9987C66.8719 52.7105 66.6589 53.4898 66.6589 54.3315C66.6589 55.1732 66.8667 55.9525 67.2928 56.6643C67.7136 57.3761 68.2799 57.9424 68.9917 58.3633C69.7035 58.7841 70.4777 58.9971 71.3245 58.9971C72.1714 58.9971 72.9455 58.7893 73.6573 58.3633C74.3691 57.9424 74.9354 57.3761 75.3563 56.6643C75.7771 55.9525 75.9901 55.1784 75.9901 54.3315C75.9901 53.4846 75.7771 52.7105 75.3563 51.9987C74.9354 51.2869 74.3691 50.7206 73.6573 50.2998Z" fill="#F2F2F2"/>
  <path d="M80.6246 58.6646C80.2038 59.3764 79.9907 60.1557 79.9907 60.9974C79.9907 61.8391 80.1986 62.6184 80.6246 63.3302C81.0455 64.042 81.6118 64.6083 82.3236 65.0291C83.0354 65.45 83.8095 65.663 84.6564 65.663C85.5033 65.663 86.2774 65.4552 86.9892 65.0291C87.3633 64.8057 87.6957 64.5408 87.9867 64.2394C88.2828 64.5408 88.6102 64.8057 88.9895 65.0291C89.7012 65.45 90.4754 65.663 91.3223 65.663C92.1691 65.663 92.9433 65.4552 93.6551 65.0291C94.3668 64.6083 94.9332 64.042 95.354 63.3302C95.7749 62.6184 95.9879 61.8443 95.9879 60.9974C95.9879 60.1505 95.7749 59.3764 95.354 58.6646C94.9332 57.9528 94.3668 57.3865 93.6551 56.9656C92.9433 56.5448 92.1639 56.3318 91.3223 56.3318C90.4806 56.3318 89.7012 56.5448 88.9895 56.9656C88.6154 57.1891 88.2828 57.454 87.9867 57.7554C87.9555 57.7242 87.9296 57.693 87.8984 57.667C88.1997 57.3709 88.4647 57.0436 88.6881 56.6643C89.109 55.9525 89.322 55.1784 89.322 54.3315C89.322 53.4846 89.109 52.7105 88.6881 51.9987C88.4647 51.6246 88.1997 51.2921 87.8984 51.0011C87.9296 50.97 87.9607 50.944 87.9867 50.9128C88.2828 51.2142 88.6102 51.4791 88.9895 51.7025C89.7012 52.1234 90.4754 52.3364 91.3223 52.3364C92.1691 52.3364 92.9433 52.1286 93.6551 51.7025C94.0291 51.4791 94.3617 51.2142 94.6526 50.9128C94.9488 51.2142 95.2761 51.4791 95.6553 51.7025C96.3671 52.1234 97.1413 52.3364 97.9881 52.3364C98.835 52.3364 99.6091 52.1286 100.321 51.7025C101.033 51.2817 101.599 50.7154 102.02 50.0036C102.441 49.2918 102.654 48.5177 102.654 47.6708C102.654 46.8239 102.441 46.0498 102.02 45.338C101.599 44.6262 101.033 44.0599 100.321 43.639C99.6091 43.2182 98.8298 43.0052 97.9881 43.0052C97.1465 43.0052 96.3671 43.2182 95.6553 43.639C95.2813 43.8625 94.9488 44.1274 94.6526 44.4288C94.3565 44.1274 94.0291 43.8625 93.6551 43.639C92.9433 43.2182 92.1639 43.0052 91.3223 43.0052C90.4806 43.0052 89.7012 43.2182 88.9895 43.639C88.6154 43.8625 88.2828 44.1274 87.9867 44.4288C87.6905 44.1274 87.3633 43.8625 86.9892 43.639C86.2774 43.2182 85.4981 43.0052 84.6564 43.0052C83.8147 43.0052 83.0354 43.2182 82.3236 43.639C81.6118 44.0599 81.0455 44.6262 80.6246 45.338C80.2038 46.0498 79.9907 46.8291 79.9907 47.6708C79.9907 48.5125 80.1986 49.2918 80.6246 50.0036C80.848 50.3777 81.113 50.7102 81.4144 51.0063C81.113 51.3025 80.848 51.6298 80.6246 52.0039C80.2038 52.7157 79.9907 53.495 79.9907 54.3367C79.9907 55.1784 80.1986 55.9577 80.6246 56.6695C80.848 57.0436 81.113 57.3761 81.4144 57.6722C81.113 57.9684 80.848 58.2957 80.6246 58.6698V58.6646Z" fill="#F2F2F2"/>
  <path d="M100.321 63.6315C99.6091 63.2107 98.8298 62.9977 97.9881 62.9977C97.1464 62.9977 96.3671 63.2107 95.6553 63.6315C94.9435 64.0524 94.3772 64.6187 93.9564 65.3305C93.5355 66.0423 93.3225 66.8216 93.3225 67.6633C93.3225 68.505 93.5355 69.2843 93.9564 69.9961C94.3772 70.7079 94.9435 71.2742 95.6553 71.695C96.3671 72.1159 97.1412 72.3289 97.9881 72.3289C98.835 72.3289 99.6091 72.1211 100.321 71.695C101.033 71.2742 101.599 70.7079 102.02 69.9961C102.441 69.2843 102.654 68.5102 102.654 67.6633C102.654 66.8164 102.441 66.0423 102.02 65.3305C101.599 64.6187 101.033 64.0524 100.321 63.6315Z" fill="#F2F2F2"/>
  <path d="M93.6551 70.2974C92.9433 69.8766 92.1639 69.6636 91.3223 69.6636C90.4806 69.6636 89.7012 69.8766 88.9895 70.2974C88.6154 70.5208 88.2828 70.7858 87.9867 71.0872C87.6905 70.7858 87.3633 70.5208 86.9892 70.2974C86.2774 69.8766 85.4981 69.6636 84.6564 69.6636C83.8147 69.6636 83.0354 69.8766 82.3236 70.2974C81.6118 70.7183 81.0455 71.2846 80.6246 71.9964C80.2038 72.7082 79.9907 73.4875 79.9907 74.3292C79.9907 75.1709 80.1986 75.9502 80.6246 76.662C81.0455 77.3738 81.6118 77.9401 82.3236 78.3609C83.0354 78.7818 83.8095 78.9948 84.6564 78.9948C85.5033 78.9948 86.2774 78.7818 86.9892 78.3609C87.3633 78.1375 87.6957 77.8726 87.9867 77.5712C88.2828 77.8726 88.6102 78.1375 88.9895 78.3609C89.7012 78.7818 90.4754 78.9948 91.3223 78.9948C92.1691 78.9948 92.9433 78.7818 93.6551 78.3609C94.3668 77.9401 94.9332 77.3738 95.354 76.662C95.7749 75.9502 95.9879 75.1761 95.9879 74.3292C95.9879 73.4823 95.7749 72.7082 95.354 71.9964C94.9332 71.2846 94.3668 70.7183 93.6551 70.2974Z" fill="#F2F2F2"/>
</svg>
